<?xml version="1.0" encoding="UTF-8" standalone="no"?>
<!-- Created with Inkscape (http://www.inkscape.org/) -->

<svg
  xmlns:dc="http://purl.org/dc/elements/1.1/"
  xmlns:cc="http://creativecommons.org/ns#"
  xmlns:rdf="http://www.w3.org/1999/02/22-rdf-syntax-ns#"
  xmlns:svg="http://www.w3.org/2000/svg"
  xmlns="http://www.w3.org/2000/svg"
  xmlns:sodipodi="http://sodipodi.sourceforge.net/DTD/sodipodi-0.dtd"
  xmlns:inkscape="http://www.inkscape.org/namespaces/inkscape"
  width="512"
  height="512"
  viewBox="0 0 512 512"
  version="1.1"
  id="svg35"
  inkscape:version="0.92.4 (5da689c313, 2019-01-14)"
  sodipodi:docname="五U+4E94-2.svg">
 <defs
   id="defs29">
  <inkscape:path-effect
    effect="bspline"
    id="path-effect58"
    is_visible="true"
    weight="33.333333"
    steps="2"
    helper_size="0"
    apply_no_weight="true"
    apply_with_weight="true"
    only_selected="false" />
  <inkscape:path-effect
    effect="bspline"
    id="path-effect54"
    is_visible="true"
    weight="33.333333"
    steps="2"
    helper_size="0"
    apply_no_weight="true"
    apply_with_weight="true"
    only_selected="false" />
  <inkscape:path-effect
    effect="bspline"
    id="path-effect50"
    is_visible="true"
    weight="33.333333"
    steps="2"
    helper_size="0"
    apply_no_weight="true"
    apply_with_weight="true"
    only_selected="false" />
 </defs>
 <sodipodi:namedview
   id="base"
   pagecolor="#ffffff"
   bordercolor="#666666"
   borderopacity="1.0"
   inkscape:pageopacity="0.0"
   inkscape:pageshadow="2"
   inkscape:zoom="1"
   inkscape:cx="400"
   inkscape:cy="285.71429"
   inkscape:document-units="px"
   inkscape:current-layer="svg35"
   showgrid="false"
   units="px"
   inkscape:window-width="1920"
   inkscape:window-height="1001"
   inkscape:window-x="-9"
   inkscape:window-y="-9"
   inkscape:window-maximized="1" />
 <metadata
   id="metadata32">
  <rdf:RDF>
   <cc:Work
     rdf:about="">
    <dc:format>image/svg+xml</dc:format>
    <dc:type
      rdf:resource="http://purl.org/dc/dcmitype/StillImage" />
    <dc:title></dc:title>
   </cc:Work>
  </rdf:RDF>
 </metadata>
 <g
   inkscape:label="圖層 1"
   inkscape:groupmode="layer"
   id="layer1"
   transform="translate(0,-161.53331)" />
 <path
   style="fill:none;stroke:#000000;stroke-width:1px;stroke-linecap:butt;stroke-linejoin:miter;stroke-opacity:1"
   d="M 115.33343,145.16652 C 118.0004,144.0002 126.0004,148.0002 132.95035,150.98348 139.9003,153.96677 146.0006,156.0002 152.10004,156.34752 158.19948,156.69485 164.66783,155.33309 172.66696,153.33329 180.66609,151.33349 190.33452,148.66634 200.63876,146.04576 210.943,143.42518 222.66784,140.66639 229.50102,139.16647 236.33421,137.66654 238.66779,137.33317 238.33506,138.9985 238.00233,140.66382 235.00089,144.33224 229.66658,147.49964 224.33226,150.66704 216.66787,153.33291 209.50065,156.99976 202.33343,160.6666 195.66781,165.33253 189.00059,169.66626 182.33337,173.99998 175.66785,177.99929 170.83424,180.99944 166.00063,183.99958 163.00115,185.99923 159.16655,185.8326 155.33194,185.66597 150.66707,183.33353 146.50004,180.33328 142.33302,177.33302 138.66667,173.66667 134.00012,170.00008 129.33358,166.33349 123.66692,162.66683 119.49996,157.66636 115.33301,152.6659 112.66646,146.33284 115.33343,145.16652 Z"
   id="path48"
   inkscape:connector-curvature="0"
   inkscape:path-effect="#path-effect50"
   inkscape:original-d="M 110,140 C 118.001,143.999 126.001,147.999 134,152 140.0007,153.66558 146.001,155.999 152,158 158.3337,157.3324 164.66767,155.33233 171,154 180.6659,151.33282 190.33433,148.66567 200,146 210.99965,143.66595 222.66767,140.66567 234,138 236.33409,137.6657 238.66767,137.33233 241,137 238.00244,140.66391 235.001,144.33233 232,148 224.33206,150.66646 216.66767,153.33233 209,156 202.33329,160.6664 195.66767,165.33233 189,170 182.33319,173.99968 175.66767,177.999 169,182 166.00047,183.99935 163.001,185.999 160,188 155.33254,185.66477 150.66767,183.33233 146,181 142.33402,177.33202 138.66767,173.66567 135,170 129.33433,166.33233 123.66767,162.66567 118,159 115.33422,152.66539 112.66767,146.33233 110,140 Z" />
 <path
   style="fill:none;stroke:#000000;stroke-width:1px;stroke-linecap:butt;stroke-linejoin:miter;stroke-opacity:1"
   d="M 260.66721,139.33303 C 260.66787,135.3329 265.33453,133.66624 272.49992,131.9999 279.66531,130.33357 289.33447,128.66647 297.63927,127.31243 305.94408,125.95839 312.33445,124.99983 316.66766,123.9997 321.00086,122.99957 323.0012,121.9994 326.4997,120.66667 329.9982,119.33393 335.0012,117.66627 338.33431,116.66639 341.66742,115.66652 343.33448,115.3331 346.48759,115.33229 349.64069,115.33148 354.33425,115.66673 357.83348,117.66621 361.33271,119.66568 363.6665,123.33307 366.33326,127.83323 369.00002,132.33338 371.99981,137.66634 373.31678,142.16442 374.63375,146.66251 374.33344,149.66558 371.38507,150.35103 368.43671,151.03648 362.66725,149.0002 355.33344,146.33337 347.99964,143.66653 339.00055,140.33354 331.83388,138.33347 324.6672,136.3334 319.33419,135.66677 314.50062,135.50004 309.66704,135.3333 305.3344,135.66658 299.50018,136.33334 293.66597,137.0001 286.33445,137.99985 283.50059,139.99998 280.66673,142.00012 282.33314,144.99966 285.16674,149.16672 288.00033,153.33378 291.99988,158.66651 294.33321,162.99959 296.66653,167.33266 297.33318,170.6659 297.48343,174.16451 297.63369,177.66312 297.33344,180.66558 295.4999,184.83303 293.66635,189.00048 290.3341,193.99885 286.16693,199.49957 281.99975,205.0003 277.0009,210.99892 273.50051,216.49931 270.00012,221.99969 268.00048,226.99879 266.8336,230.8325 265.66672,234.6662 265.33347,237.33222 269.33552,239.49987 273.33757,241.66751 281.66744,243.33349 288.167,245.50005 294.66656,247.66661 299.33365,250.33352 303.49998,253.99986 307.66631,257.66621 311.33323,262.3332 313.66655,266.99962 315.99987,271.66605 316.99984,276.33258 316.33321,283.33312 315.66658,290.33366 313.33363,299.66549 311.3335,308.16598 309.33338,316.66647 307.66692,324.33217 306.00017,330.99925 304.33343,337.66634 302.66702,343.33214 303.83433,346.49954 305.00165,349.66694 309.00081,350.33347 316.33317,350.50009 323.66553,350.6667 334.33436,350.3333 346.5003,350.8333 358.66624,351.33329 372.33422,352.66675 383.50055,354.16673 394.66688,355.66671 403.33411,357.33348 410.33356,360.16662 417.33301,362.99976 422.66683,367.00012 426.49994,371.66641 430.33306,376.3327 432.66646,381.6662 433.38236,386.13659 434.09825,390.60699 433.00029,394.99882 431.30039,397.59929 429.60049,400.19975 426.66787,401.66607 422.83299,400.9992 418.99811,400.33233 414.00036,397.66686 407.73166,394.53109 401.46296,391.39533 393.6671,387.66687 386.00021,384.0001 378.33333,380.33333 370.6671,376.66687 361.16689,373.16677 351.66669,369.66667 340.33398,366.33352 330.63702,363.61546 320.94005,360.8974 313.66736,359.00018 304.33377,359.16674 295.00017,359.3333 284.00116,361.66642 272.50051,363.83322 260.99987,366.00002 249.00114,367.99981 236.33383,369.99992 223.66653,372.00002 210.33445,373.99983 197.0006,377.66657 183.66675,381.3333 170.33454,386.66619 158.06736,392.13305 145.80018,397.59991 134.33453,403.33273 124.2674,408.3663 114.20027,413.39986 105.66787,417.66607 99.833958,419.16638 94.000048,420.66669 91.000463,419.33354 87.333183,415.99963 83.665904,412.66573 79.33324,407.33322 75.999908,402.99988 72.666576,398.66654 70.333191,395.33313 71.00016,390.4995 71.667129,385.66587 75.334019,379.33215 77.794696,376.323 80.255373,373.31384 81.667374,373.66684 82.908622,375.36658 84.14987,377.06632 84.999793,379.33278 88.167611,380.66639 91.335429,382 96.667667,382 104.0002,381.00006 111.33274,380.00013 120.66783,377.99975 129.83394,375.99987 139.00004,373.99999 148.00116,371.99974 153.33441,370.66634 158.66766,369.33294 160.33454,368.66619 160.00134,365.83468 159.66815,363.00318 157.33313,357.99956 155.8332,353.33289 154.33327,348.66622 153.66654,344.3325 154.00031,341.49921 154.33408,338.66592 155.66767,337.33233 159.16561,334.66726 162.66356,332.00219 168.33447,327.9992 174.66709,323.33304 180.99971,318.66689 188.00112,313.33248 194.62936,306.5988 201.2576,299.86512 208.33419,290.66556 214.00056,283.33261 219.66693,275.99966 224.33419,269.99889 228.16732,265.49922 232.00045,260.99955 235.001,257.999 234.66818,256.16635 234.33535,254.3337 230.66746,253.66681 224.16652,253.00003 217.66557,252.33326 208.33425,251.66673 201.33366,249.6666 194.33306,247.66647 189.66686,244.33347 186.5333,241.06647 183.39973,237.79947 181.66647,234.33293 182.16669,229.83287 182.66692,225.33281 185.3339,219.66547 188.87476,215.57113 192.41563,211.47678 197.33451,208.66599 200.41706,208.0828 203.49961,207.49961 204.66667,208.66667 205.16672,211.16613 205.66676,213.66559 205.33343,217.33225 208.66811,219.99979 212.00279,222.66733 219.00072,224.3335 225.66691,226.6667 232.33311,228.99989 238.6671,232.0002 244.92398,228.78312 251.18087,225.56604 257.66742,215.66551 263.00039,205.9994 268.33335,196.33329 272.66721,186.66546 273.66698,178.33287 274.66676,170.00027 272.33313,162.9994 268.83337,156.33322 265.33361,149.66704 260.66654,143.33316 260.66721,139.33303 Z"
   id="path52"
   inkscape:connector-curvature="0"
   inkscape:path-effect="#path-effect54"
   inkscape:original-d="M 256,137 C 260.66767,135.33233 265.33433,133.66567 270,132 279.66517,130.33276 289.33433,128.66567 299,127 306.00018,126.33241 312.33433,124.999 319,124 321.00066,122.99917 323.001,121.999 325,121 329.998,119.33333 335.001,117.66567 340,116 341.66727,115.66575 343.33433,115.33233 345,115 349.66444,114.999 354.33433,115.66567 359,116 361.33387,119.66494 363.66767,123.33233 366,127 369.00121,132.33271 372.001,137.66567 375,143 374.66765,146.6659 374.33433,149.66567 374,153 368.33248,151.33179 362.66767,148.999 357,147 348.00009,143.66533 339.001,140.33233 330,137 324.66734,136.33229 319.33433,135.66567 314,135 309.66697,135.33239 305.33433,135.66567 301,136 293.66585,136.99925 286.33433,137.999 279,139 280.66792,141.99946 282.33433,144.999 284,148 288.00145,153.33294 292.001,158.66567 296,164 296.66769,167.33243 297.33433,170.66567 298,174 297.66759,177.66651 297.33433,180.66567 297,184 293.66658,189.00063 290.33433,193.999 287,199 281.99985,205.00038 277.001,210.999 272,217 270.00064,221.9999 268.001,226.999 266,232 265.66759,234.66631 265.33433,237.33233 265,240 273.3378,241.66636 281.66767,243.33233 290,245 294.66724,247.66542 299.33433,250.33233 304,253 307.66741,257.66534 311.33433,262.33233 315,267 316.00103,271.6658 317.001,276.33233 318,281 315.66729,290.33384 313.33433,299.66567 311,309 309.33412,316.66663 307.66767,324.33233 306,332 304.33408,337.66653 302.66767,343.33233 301,349 305.00184,349.66581 309.001,350.33233 313,351 323.6655,350.66573 334.33433,350.33233 345,350 358.66635,351.3322 372.33433,352.66567 386,354 394.6671,355.66556 403.33433,357.33233 412,359 417.33385,362.99864 422.66767,366.999 428,371 430.33426,376.33217 432.66767,381.66567 435,387 434.33427,390.66599 433.001,394.999 432,399 429.66698,400.33273 426.66767,401.66567 424,403 418.99875,400.33113 414.001,397.66567 409,395 401.33378,391.66542 393.66767,387.66567 386,384 378.33391,380.33213 370.66767,376.66567 363,373 351.66704,369.66548 340.33433,366.33233 329,363 321.00054,360.66553 313.66767,358.999 306,357 295.00001,359.33254 284.001,361.66567 273,364 260.99973,365.99921 249.001,367.999 237,370 223.66641,371.99919 210.33433,373.999 197,376 183.66654,381.33278 170.33433,386.66567 157,392 145.66664,397.33282 134.33433,403.33233 123,409 114.33342,413.66616 105.66767,417.66567 97,422 94.000585,420.66548 91.001,419.33233 88,418 83.666997,412.66484 79.334333,407.33233 75,402 72.667716,398.66574 70.334333,395.33233 68,392 71.667445,385.66605 75.334333,379.33233 79,373 80.334084,372.999 81.667667,373.66567 83,374 84.333627,376.99741 85.001,379.33233 86,382 91.335429,381.999 96.667667,381.999 102,382 111.33258,379.99937 120.66767,377.999 130,376 138.99988,373.99925 148.001,371.999 157,370 158.66745,369.33242 160.33433,368.66567 162,368 159.66936,363.00262 157.33433,357.999 155,353 154.33439,348.66605 153.66767,344.33233 153,340 154.33408,338.66592 155.66767,337.33233 157,336 162.66342,332.002 168.33433,327.999 174,324 180.99959,318.66674 188.001,313.33233 195,308 201.00004,299.66699 208.33433,290.66567 215,282 219.66707,275.99977 224.33433,269.999 229,264 232.00045,260.99955 235.001,257.999 238,255 234.33556,254.33256 230.66767,253.66567 227,253 217.66565,252.33219 208.33433,251.66567 199,251 194.33387,247.66534 189.66767,244.33233 185,241 183.66761,237.66553 181.66767,234.33233 180,231 182.66735,225.33301 185.33433,219.66567 188,214 192.33341,211.3329 197.33433,208.66567 202,206 203.66724,207.33199 204.66767,208.66567 206,210 205.66767,213.66567 205.33433,217.33233 205,221 212.00307,222.66616 219.001,224.33233 226,226 232.33368,228.99869 238.66767,231.999 245,235 251.3339,225.6663 257.66767,215.66567 264,206 268.33381,196.33349 272.66767,186.66567 277,177 274.66796,169.99987 272.33433,162.999 270,156 265.33473,149.66621 260.66767,143.33233 256,137 Z" />
 <path
   style="fill:none;stroke:#000000;stroke-width:1px;stroke-linecap:butt;stroke-linejoin:miter;stroke-opacity:1"
   d="M 249.33409,264.49952 C 241.66747,271.99886 230.33414,287.99886 219.50043,303.49939 208.66672,318.99992 198.33412,333.99886 190.6673,344.66579 183.00049,355.33272 178.00087,361.66557 182.50221,363.99924 187.00354,366.33291 201.0011,364.66654 213.66731,363.33326 226.33352,361.99998 237.66775,360.9999 249.66718,359.33329 261.66661,357.66668 274.33448,355.33312 279.8339,350.3332 285.33332,345.33328 283.66651,337.66592 283.15652,328.49901 282.64654,319.33209 283.3334,307.99894 284.33339,298.33264 285.33339,288.66634 286.66685,280.3322 286.50011,274.66613 286.33337,269.00007 284.66648,265.99966 280.76337,263.81764 276.86026,261.63561 271.00074,260.3335 266.00048,259.16678 261.00022,258.00005 257.00071,257.00018 249.33409,264.49952 Z"
   id="path56"
   inkscape:connector-curvature="0"
   inkscape:path-effect="#path-effect58"
   inkscape:original-d="M 253,256 C 241.66767,271.999 230.33433,287.999 219,304 208.66693,319.00007 198.33433,333.999 188,349 183.00062,355.33282 178.001,361.66567 173,368 187.00344,366.33204 201.001,364.66567 215,363 226.33344,361.99908 237.66767,360.999 249,360 261.66646,357.66589 274.33433,355.33233 287,353 285.33448,345.33303 283.66767,337.66567 282,330 282.6676,319.33337 283.33433,307.999 284,297 285.33421,288.66647 286.66767,280.33233 288,272 286.33456,268.99941 284.66767,265.999 283,263 277.00168,260.99923 271.001,260.33233 265,259 261.00051,257.99888 257.001,256.999 253,256 Z" />
 <path
   d="M 150.5426,181.44819 C 145.51732,178.38765 141.96853,175.61403 126.2598,162.46948 123.59769,160.24191 120.11019,156.61177 118.5098,154.4025 115.68426,150.50196 114.6096,145.68571 116.5648,145.68571 117.09544,145.68571 123.09088,147.93227 129.88799,150.67807 144.13949,156.43517 151.07198,158.0224 158.1,157.13735 160.85,156.79104 178.175,152.77595 196.6,148.21492 215.025,143.6539 231.9,139.63577 234.1,139.28575 L 238.1,138.64935 233.50329,142.94116 C 230.44701,145.79472 225.52183,148.69528 218.80637,151.59656 213.25126,153.99653 204.06978,158.8902 198.40309,162.47139 158.32524,187.79943 159.92777,187.16402 150.5426,181.44819 Z"
   id="path60"
   inkscape:connector-curvature="0" />
 <path
   d="M 89.582135,416.30452 C 83.413351,412.08611 71.601308,396.23112 71.613507,392.18571 71.621724,389.46058 76.248581,379.70205 78.847687,376.92806 L 80.963003,374.67041 83.82344,378.14061 C 87.511623,382.61502 91.420977,383.34375 103.6,381.82711 115.52571,380.34201 157.34409,371.14299 159.21025,369.59421 161.17115,367.9668 160.94815,365.06268 158.25165,357.11086 155.30959,348.43489 154.31195,343.16863 155.12509,340.60665 155.47276,339.51125 162.80934,333.36152 171.42861,326.94058 190.55454,312.69268 198.58348,304.76542 214.27407,284.63772 220.94033,276.08632 228.46577,266.66321 230.99727,263.69748 238.56978,254.82607 237.49617,253.54743 220.96227,251.74613 201.73089,249.65094 194.17654,247.08617 187.91133,240.525 181.97341,234.30659 181.75898,229.20927 187.05511,220.17209 189.65802,215.73056 195.80041,210.39166 199.74946,209.13828 202.37432,208.30518 204.6,210.34587 204.6,213.58565 204.6,219.46913 208.59802,222.2249 224.99198,227.6415 238.36367,232.05953 243.91758,231.71358 249.73682,226.10017 254.99906,221.02406 260.42032,213.05399 266.10646,202.03434 272.8033,189.05597 274.95993,181.19583 274.36549,171.93317 273.92465,165.06398 273.31355,163.27709 267.73993,152.5598 264.36297,146.06637 261.6,140.07367 261.6,139.24269 261.6,135.35479 267.14828,133.68334 298.12211,128.24024 311.73463,125.84807 321.76414,123.44943 329.6,120.71202 337.88666,117.81713 342.71564,116.69334 346.88212,116.69015 357.51612,116.682 361.08667,119.54439 368.63281,134.12693 372.8968,142.36688 373.81427,148.28253 370.99596,149.36401 370.11374,149.70255 359.7196,146.71852 347.89788,142.73284 328.76315,136.28158 325.34438,135.428 316.75192,134.95651 306.87268,134.41441 292.37971,135.83009 285.79124,137.98078 279.75206,139.95216 280.18659,143.22125 288.07901,155.19201 300.57245,174.14133 299.91729,179.25508 281.91037,203.34069 267.30287,222.87931 262.55735,234.62218 267.47166,239.06956 268.50107,240.00116 274.78009,242.48554 281.42504,244.59039 299.77933,250.40428 307.2847,256.20245 313.21027,269.14561 315.61082,274.38909 315.81378,275.71982 315.25866,282.57575 314.91976,286.76123 311.93292,301.64146 308.62124,315.64292 305.30956,329.64439 302.6,342.57151 302.6,344.36987 302.6,350.64966 304.36207,351.04929 335.52092,351.83634 375.57833,352.84817 402.65931,356.78329 414.71292,363.34369 424.98436,368.93411 433.31426,381.65644 432.34331,390.27074 432.0714,392.6831 431.10754,395.78835 430.20141,397.17128 427.1184,401.87654 423.34612,400.84487 396.00657,387.81938 366.87845,373.94176 360.31386,371.33775 337.27515,364.52206 321.82738,359.95205 318.89311,359.3962 308.1,358.99529 298.75367,358.64813 293.5569,359.01227 284.6,360.64198 278.275,361.7928 258.7,365.17964 241.1,368.16827 223.5,371.1569 204.6676,374.75615 199.25023,376.1666 180.82391,380.96402 159.80571,389.58425 128.79646,405.06191 109.36456,414.76097 99.89108,418.68571 95.911579,418.68571 94.345559,418.68571 91.497308,417.61417 89.582135,416.30452 Z M 232.6,362.30695 C 258.56312,359.29663 268.40425,357.39561 275.387,354.04177 283.9115,349.94742 284.08245,349.40869 284.21218,326.22908 284.27775,314.51462 285.03987,299.95254 286.04622,291.18571 288.51102,269.71357 287.47497,265.59897 278.64735,261.80143 272.4968,259.15553 260.91828,257.13803 257.2163,258.06716 253.04714,259.11356 244.46109,267.7099 235.12422,280.18571 228.24963,289.37145 192.91866,339.3466 183.48853,353.22364 179.6765,358.83329 179.0314,361.97425 181.2381,364.18096 182.83894,365.7818 184.45348,365.90433 197.06043,365.38176 204.78219,365.06168 220.775,363.67802 232.6,362.30695 Z"
   id="path62"
   inkscape:connector-curvature="0" />
</svg>
