<?xml version="1.0" encoding="UTF-8" standalone="no"?>
<!-- Created with Inkscape (http://www.inkscape.org/) -->

<svg
   xmlns:dc="http://purl.org/dc/elements/1.1/"
   xmlns:cc="http://creativecommons.org/ns#"
   xmlns:rdf="http://www.w3.org/1999/02/22-rdf-syntax-ns#"
   xmlns:svg="http://www.w3.org/2000/svg"
   xmlns="http://www.w3.org/2000/svg"
   xmlns:sodipodi="http://sodipodi.sourceforge.net/DTD/sodipodi-0.dtd"
   xmlns:inkscape="http://www.inkscape.org/namespaces/inkscape"
   width="512"
   height="512"
   viewBox="0 0 512 512"
   version="1.1"
   id="svg8"
   inkscape:version="0.92.4 (5da689c313, 2019-01-14)"
   sodipodi:docname="草U+8349-2.svg">
  <defs
     id="defs2">
    <inkscape:path-effect
       effect="bspline"
       id="path-effect27"
       is_visible="true"
       weight="33.333333"
       steps="2"
       helper_size="0"
       apply_no_weight="true"
       apply_with_weight="true"
       only_selected="false" />
    <inkscape:path-effect
       effect="bspline"
       id="path-effect23"
       is_visible="true"
       weight="33.333333"
       steps="2"
       helper_size="0"
       apply_no_weight="true"
       apply_with_weight="true"
       only_selected="false" />
  </defs>
  <sodipodi:namedview
     id="base"
     pagecolor="#ffffff"
     bordercolor="#666666"
     borderopacity="1.0"
     inkscape:pageopacity="0.0"
     inkscape:pageshadow="2"
     inkscape:zoom="1"
     inkscape:cx="400"
     inkscape:cy="320"
     inkscape:document-units="px"
     inkscape:current-layer="svg8"
     showgrid="false"
     units="px"
     inkscape:window-width="1920"
     inkscape:window-height="1001"
     inkscape:window-x="-9"
     inkscape:window-y="-9"
     inkscape:window-maximized="1" />
  <metadata
     id="metadata5">
    <rdf:RDF>
      <cc:Work
         rdf:about="">
        <dc:format>image/svg+xml</dc:format>
        <dc:type
           rdf:resource="http://purl.org/dc/dcmitype/StillImage" />
        <dc:title></dc:title>
      </cc:Work>
    </rdf:RDF>
  </metadata>
  <g
     inkscape:label="圖層 1"
     inkscape:groupmode="layer"
     id="layer1"
     transform="translate(0,-161.53331)" />
  <path
     style="fill:none;stroke:#000000;stroke-width:1px;stroke-linecap:butt;stroke-linejoin:miter;stroke-opacity:1"
     d="M 195.00058,10.833106 C 193.99995,13.333278 196.99995,16.666612 199.99998,19.999973 203,23.333334 205.99995,26.666612 208.66656,31.166434 211.33316,35.666257 213.66646,41.332831 214.99987,45.832784 216.33327,50.332738 216.66658,53.665776 214.33312,55.332888 211.99966,57 207.001,57 201.8338,57 196.6666,57 191.33433,57 186.334,57.833274 181.33366,58.666549 176.66787,60.332902 175.03402,63.266693 173.40016,66.200484 174.66647,69.999401 177.1669,73.499971 179.66733,77.000541 183.33344,80.000087 186.66668,82.999999 189.99991,85.99991 193,89 197.16724,89.999893 201.33448,90.999786 206.66782,89.999784 211.00081,88.99982 215.33381,87.999856 218.66786,86.999641 221.8339,86.499821 224.99993,86 228.001,86 230.16686,89.165233 232.33273,92.330466 233.66651,98.665912 234.9999,103.49956 236.33328,108.33321 237.66646,111.66615 239.1667,114.16654 240.66693,116.66693 242.33333,118.33333 241.16723,119.4999 240.00113,120.66648 236.00114,121.33314 231.83379,121.66657 227.66644,122 222.66767,122 220.0006,123.16632 217.33353,124.33264 216.66701,126.66548 218.16779,129.50028 219.66858,132.33507 223.33338,135.66671 226.6667,138.6667 230.00002,141.66669 233.00006,144.33339 238.1672,144.83325 243.33435,145.3331 250.66784,143.6664 259.16707,141.66658 267.6663,139.66675 277.3345,137.33305 288.33377,133.99991 299.33304,130.66677 311.66787,126.33291 321.30136,123.06318 330.93486,119.79346 338.66787,117.33295 343.63343,118.0229 348.59899,118.71284 350.66653,121.66647 350.79455,125.55904 350.92258,129.45161 348.33389,134.9988 345.56295,141.02819 342.79201,147.05758 339.33388,154.66547 336.5002,164.16645 333.66651,173.66743 331.33356,185.33218 329.66687,193.33238 328.00017,201.33259 327.00027,205.6655 324.66639,206.49912 322.33252,207.33274 318.66685,204.6668 315.66667,201.99996 312.66649,199.33313 310.33327,196.6666 307.66722,195.4999 305.00118,194.3332 302.0011,194.66654 300.50055,196.8335 299,199.00046 299,202.999 295.49968,205.49954 291.99937,208.00009 285.00112,208.99984 277.3619,210.45499 269.72269,211.91015 260.66784,213.99973 253.16743,216.16647 245.66701,218.33321 239.33453,220.66622 236.16727,217.66515 233,214.66408 233,206.33233 231.50008,197.49975 230.00016,188.66717 226.9998,179.33272 224.66653,171.66622 222.33326,163.99973 220.66648,157.99933 217.16695,152.99995 213.66742,148.00057 208.33349,144.00012 200.66704,141.50009 193.00059,139.00006 183.00089,138.00009 176.6675,137.50004 170.3341,137 167.66767,137 166.66721,138.50019 165.66675,140.00039 166.33317,142.99926 169.23131,145.6965 172.12945,148.39374 177.00044,150.66687 181.26973,154.08554 185.53902,157.50421 189.33323,162.3332 192.66656,169.33309 195.99989,176.33299 198.9998,185.66605 201.83323,195.16634 204.66666,204.66663 207.33315,214.33266 208.85628,220.68395 210.37941,227.03525 210.66656,229.33247 208.83322,231.83293 206.99989,234.3334 203.00118,236.66598 199.6674,238.99953 196.33361,241.33309 193.66773,243.66574 194.00134,245.83336 194.33496,248.00097 197.66696,250.00018 202.64708,250.52672 207.6272,251.05326 215.00112,249.99984 221.96636,247.92456 228.9316,245.84927 236.66788,242.33278 243.00077,239.83301 249.33365,237.33323 254.66786,235.66629 258.83352,236.99922 262.99918,238.33215 265.99986,242.66646 267.99988,247.33297 269.99989,251.99947 270.99985,256.99923 272.16659,261.49963 273.33334,266.00002 274.66647,269.9994 269.66626,272.49973 264.66605,275.00005 253.33441,275.99991 237.66683,278.33336 221.99924,280.66681 202.00115,284.33312 182.16726,288.33322 162.33337,292.33332 142.66783,296.66641 127.04486,300.48722 111.42188,304.30803 99.667855,307.66633 92.501047,309.66638 85.33424,311.66644 82.667844,312.33304 80.666913,311.83276 78.665982,311.33248 77.333237,309.66655 75.500079,307.83338 73.666921,306.00022 71.333415,304.00007 68.8336,302.50012 66.333785,301.00017 63.667215,300.00021 60.333474,303.83373 56.999733,307.66724 53.000557,316.33213 53.250347,322.74305 53.500137,329.15397 57.666708,333.00004 61.666724,336.50005 65.66674,340.00006 69.333442,343.00009 74.000567,342.99977 78.667692,342.99946 84.334528,339.99937 93.470821,335.60346 102.60711,331.20754 114.66787,325.66611 130.66689,320.66647 146.66591,315.66683 166.33449,311.33308 184.00072,306.6665 201.66694,301.99991 217.33453,296.99962 231.834,292.99979 246.33348,288.99997 259.66784,285.99974 267.33395,285.16656 275.00006,284.33337 277.00023,285.66682 278.3334,296.83172 279.66656,307.99661 280.3333,328.99903 280.34011,347.82644 280.34691,366.65385 279.66671,383.99896 279.67264,401.99937 279.67856,419.99977 280.3333,438.33237 280.16672,450.49909 280.00015,462.66582 279.0002,468.33219 277.66719,471.66584 276.33418,474.99949 274.66785,475.99929 274.00067,478.33382 273.33349,480.66835 273.66658,484.33243 274.33332,487.66628 275.00005,491.00014 275.9998,493.9994 277.83363,496.33328 279.66747,498.66717 282.3336,500.3335 285.00025,497.9998 287.6669,495.6661 290.33384,489.33212 292.33364,483.99921 294.33345,478.6663 295.66704,474.33213 295.50032,470.66631 295.3336,467.00049 293.66648,463.99966 292.66658,451.50058 291.66669,439.00151 291.33332,416.99902 290.99999,395.49949 290.66667,373.99996 290.33332,352.99902 289.83331,337.49928 289.3333,321.99954 288.6666,311.99907 288.3333,304.33262 288,296.66616 288,291.33233 287.66663,287.66605 287.33326,283.99977 286.66647,281.9994 293.49826,280.83307 300.33005,279.66674 314.66769,279.33331 331.33366,279.33332 347.99962,279.33333 367.00098,279.66668 382.84061,281.13388 398.68023,282.60107 412.00076,285.33349 426.1669,289.1667 440.33304,292.9999 455.66728,298.0002 465.8338,301.50016 476.00032,305.00013 481.00052,307.00021 485.50055,305.99981 490.00059,304.99941 494.001,300.999 495.00065,296.49987 496.00029,292.00073 493.99979,286.99948 492.39504,283.13882 490.7903,279.27817 489.33313,275.99953 486.00081,274.49977 482.66849,273 477.33433,273 472.50055,272.83334 467.66677,272.66667 463.33425,272.3334 459.33358,271.16659 455.33291,269.99977 451.66702,268.00019 449.45103,266.36263 447.23505,264.72508 445.99982,262.66638 444.16731,261.83319 442.3348,261 439.66767,261 437.83424,261.16653 436.00082,261.33306 435.0012,261.66627 432.66564,262.16676 430.33007,262.66726 426.66781,263.33312 416.83195,264.33339 406.99609,265.33366 391.00108,266.66658 373.50043,267.99996 355.99979,269.33335 337.00106,270.66659 323.0008,271.49995 309.00054,272.33331 300.00104,272.66663 296.57621,269.9648 293.15138,267.26297 295.00045,262.33212 294.83379,258.333 294.66713,254.33387 292.33327,251.6666 290.49988,248.49973 288.6665,245.33287 287.33313,241.66611 284.82406,239.37243 282.315,237.07875 278.00071,236.00018 281.00183,233.83293 284.00296,231.66568 294.0012,228.33293 300.66745,226.99984 307.3337,225.66674 310.66744,226.33349 313.00031,227.16669 315.33319,227.99989 316.66683,229.00012 318.06656,230.96635 319.46629,232.93258 320.66647,235.33293 322.09991,238.19983 323.53336,241.06673 325.33313,244.66627 327.33353,246.99997 329.33393,249.33368 331.66699,250.66685 333.33361,249.6664 335.00022,248.66594 336.00036,245.33214 336.66684,241.99945 337.33332,238.66677 337.66678,235.33224 337.00048,233.16637 336.33417,231.0005 334.66696,230.00018 335.16718,223.49845 335.6674,216.99671 338.33359,204.99884 342.33348,193.16605 346.33337,181.33326 351.66722,169.66546 355.83371,160.33249 360.00021,150.99951 363.00052,143.99879 365.00033,138.66579 367.00015,133.33278 368.00032,129.66549 366.33418,125.50014 364.66803,121.3348 360.3333,116.66663 357.00024,113.83342 353.66717,111.00022 351.33381,110.00021 345.99988,109.5001 340.66594,109 332.33433,109 324.66478,109.30456 316.99523,109.60911 308.66775,110.33324 302.3341,111.16657 296.00045,111.99991 291.00115,112.99977 289.00084,111.49884 287.00052,109.9979 288.00029,105.99882 290.3333,100.99971 292.66631,96.000591 296.33405,89.998828 298.92978,85.626447 301.52552,81.254066 303.33399,77.998813 307.83281,75.166382 312.33163,72.333951 319.66787,69.666228 328.50033,67.333166 337.33279,65.000105 347.66782,62.999777 356.20335,60.234945 364.73888,57.470113 372.0012,53.66604 376.83417,50.332749 381.66715,46.999458 384.33427,43.998946 385.20053,41.566268 386.0668,39.13359 384.9998,36.9996 383.6668,35.333316 382.33379,33.667032 380.66679,32.333432 378.31055,31.05758 375.95432,29.781727 372.33385,28.333539 369.0005,27.66677 365.66715,27 361.66767,27 356.16677,28.833533 350.66587,30.667065 343.33453,34.332735 335.83391,37.999713 328.33328,41.666691 320.66787,45.332757 317.50084,44.165325 314.3338,42.997894 315.66693,36.998835 318.16692,31.999286 320.66691,26.999738 324.33429,22.99896 326.66727,19.832514 329.00026,16.666067 330.00052,14.332126 330.38258,12.695365 330.76465,11.058604 330.33316,9.3326266 329.16741,8.3332566 328.00166,7.3338866 326.0006,6.6668667 324.33351,5.8333441 322.66643,4.9998216 321.33349,4.0001184 320.00035,3.3334612 318.66722,2.6668039 317.33404,2.333509 312.82494,2.3338015 308.31584,2.334094 300.66771,2.6666212 296.00099,2.9998842 291.33426,3.3331473 289.66782,3.6664353 289.00063,5.0002717 288.33344,6.3341081 288.66655,8.6658272 288.83327,11.332954 289,14.00008 289,16.999 288.70199,19.840542 288.40398,22.682083 287.66693,25.998835 286.50011,29.16613 285.33329,32.333426 283.66727,35.665466 282.83363,39.499679 282,43.333893 282,47.665667 281.33329,53.166359 280.66659,58.667051 279.33356,65.33218 278.00007,73.666398 276.66658,82.000616 275.33348,91.998887 274.33349,98.665717 273.33349,105.33255 272.6669,108.66552 272.0002,111.3325 271.3335,113.99949 270.66707,115.9988 267.9993,116.9994 265.33153,118 260.66767,118 257.83363,116.83284 254.99958,115.66569 253.99979,113.33285 253.83319,106.00051 253.66659,98.668167 254.33339,86.332282 254.50003,74.666125 254.66667,62.999968 254.3333,51.999031 251.6668,42.833063 249.00029,33.667095 243.99985,26.333116 238.31062,21.390836 232.62139,16.448557 225.66719,13.666875 220.16698,11.333462 214.66677,9.0000495 210.33377,7.0002036 205.66723,6.8333202 201.00069,6.6664367 196.0012,8.3329333 195.00058,10.833106 Z"
     id="path21"
     inkscape:connector-curvature="0"
     inkscape:path-effect="#path-effect23"
     inkscape:original-d="M 191,10 C 194.001,13.332333 197.001,16.665667 200,20 203.00105,23.332389 206.001,26.665667 209,30 211.33437,35.665761 213.66767,41.332333 216,47 216.33436,50.332629 216.66767,53.665667 217,57 211.99966,56.999 207.001,56.999 202,57 196.6666,56.999 191.33433,56.999 186,57 181.33346,58.665979 176.66767,60.332333 172,62 173.00126,66.333451 174.66767,69.999 176,74 179.66822,76.99945 183.33433,79.999 187,83 190.00091,85.998911 193.001,88.999 196,92 201.33433,90.999 206.66767,89.999 212,89 215.33362,87.999215 218.66767,86.999 222,86 224.99993,85.999 228.001,85.999 231,86 232.33389,92.330222 233.66767,98.665667 235,105 236.33449,108.33273 237.66767,111.66567 239,115 240.66793,116.66593 242.33433,118.33233 244,120 240.001,120.66567 236.001,121.33233 232,122 227.66644,121.999 222.66767,121.999 218,122 217.33419,124.33283 216.66767,126.66567 216,129 219.66953,132.33403 223.33433,135.66567 227,139 230.00096,141.66563 233.001,144.33233 236,147 243.33418,145.33237 250.66767,143.66567 258,142 267.66613,139.66604 277.33433,137.33233 287,135 299.33284,130.66619 311.66767,126.33233 324,122 331.00032,119.9992 338.66767,117.33233 346,115 348.66723,118.66507 350.66767,121.66567 353,125 350.66753,129.33259 348.33433,134.999 346,140 342.66686,147.00069 339.33433,154.66567 336,162 333.66728,173.66758 331.33433,185.33233 329,197 328.0009,201.33276 327.001,205.66567 326,210 322.33334,207.33161 318.66767,204.66567 315,202 312.66755,199.3322 310.33433,196.66567 308,194 305.00108,194.33232 302.001,194.66567 299,195 299.001,199.00046 299.001,202.999 299,207 291.99925,207.99925 285.001,208.999 278,210 269.66633,211.66593 260.66767,213.999 252,216 245.66681,218.33265 239.33433,220.66567 233,223 233.001,214.66408 233.001,206.33233 233,198 230.00136,188.66679 227.001,179.33233 224,170 222.33444,163.9994 220.66767,157.999 219,152 213.66826,147.99945 208.33433,143.999 203,140 193.0007,138.99897 183.001,137.999 173,137 170.3341,136.999 167.66767,136.999 165,137 165.66792,140.00013 166.33433,142.999 167,146 172.00224,148.66633 177.001,150.66567 182,153 185.33404,157.66526 189.33433,162.33233 193,167 196.00109,176.3326 199.001,185.66567 202,195 204.66784,204.6663 207.33433,214.33233 210,224 210.66771,226.99921 210.66767,229.33233 211,232 206.99971,234.33309 203.001,236.66567 199,239 196.33355,241.33302 193.66767,243.66567 191,246 194.33566,247.9998 197.66767,249.999 201,252 207.66708,251.33239 215.001,249.999 222,249 228.99988,245.99948 236.66767,242.33233 244,239 249.33346,237.33261 254.66767,235.66567 260,234 263.00033,238.33136 266.001,242.66567 269,247 270.00105,251.99924 271.001,256.999 272,262 273.33454,265.99962 274.66767,269.999 276,274 264.66597,274.99915 253.33433,275.999 242,277 221.9991,280.66602 202.001,284.33233 182,288 162.33321,292.33258 142.66767,296.66567 123,301 111.33364,303.99918 99.667667,307.66567 88,311 85.334062,311.66573 82.667667,312.33233 80,313 78.667078,311.3316 77.334333,309.66567 76,308 73.667837,305.99915 71.334333,303.999 69,302 66.334239,300.99896 63.667667,299.999 61,299 57.000178,307.66745 53.001,316.33233 49,325 53.334936,329.33294 57.667667,332.999 62,337 65.667631,339.99897 69.334333,342.999 73,346 78.667498,342.99909 84.334333,339.999 90,337 102.665,331.33353 114.66767,325.66567 127,320 146.66575,315.66609 166.33433,311.33233 186,307 201.66674,301.9993 217.33433,296.999 233,292 246.33331,288.99923 259.66767,285.999 273,283 275.00083,284.33222 277.001,285.66567 279,287 279.66759,307.99658 280.33433,328.999 281,350 280.66765,366.66643 279.66767,383.999 279,401 279.66771,420.00016 280.33433,438.33233 281,457 280.00095,462.66596 279.001,468.33233 278,474 276.334,474.9992 274.66767,475.999 273,477 273.33457,480.66825 273.66767,484.33233 274,488 275.00125,490.99974 276.001,493.999 277,497 279.6682,498.666 282.33433,500.33233 285,502 287.6674,495.66631 290.33433,489.33233 293,483 294.33408,478.66649 295.66767,474.33233 297,470 295.33479,466.99983 293.66767,463.999 292,461 291.6677,439.00149 291.33433,416.999 291,395 290.66768,373.99994 290.33433,352.999 290,332 289.33436,321.99947 288.66767,311.999 288,302 288.001,296.66616 288.001,291.33233 288,286 287.33446,283.99937 286.66767,281.999 286,280 300.33003,279.66577 314.66767,279.33233 329,279 347.99964,279.33231 367.001,279.66567 386,280 398.66701,282.66553 412.001,285.33233 425,288 440.33343,292.99871 455.66767,297.999 471,303 476.0008,304.99892 481.001,306.999 486,309 490.00059,304.99941 494.001,300.999 498,297 496.0015,292.00025 494.001,286.999 492,282 490.6678,279.33261 489.33433,275.999 488,273 482.66849,272.999 477.33433,272.999 472,273 467.66685,272.6656 463.33433,272.33233 459,272 455.33356,269.99858 451.66767,267.999 448,266 447.33427,264.66554 446.001,262.66567 445,261 442.3348,260.999 439.66767,260.999 437,261 436.00062,261.33246 435.001,261.66567 434,262 430.32993,262.66647 426.66767,263.33233 423,264 406.99601,265.33275 391.001,266.66567 375,268 355.99972,269.33242 337.001,270.66567 318,272 309.0005,272.33235 300.001,272.66567 291,273 293.3346,267.33168 295.001,262.33233 297,257 294.66819,254.33294 292.33433,251.66567 290,249 288.6677,245.33243 287.33433,241.66567 286,238 282.3349,236.99915 278.001,235.999 274,235 284.00276,231.66508 294.001,228.33233 304,225 307.33393,225.66559 310.66767,226.33233 314,227 315.33403,227.99877 316.66767,228.999 318,230 319.33417,232.99864 320.66767,235.33233 322,238 323.66792,240.99945 325.33433,244.66567 327,248 329.33461,249.33249 331.66767,250.66567 334,252 335.00086,248.66613 336.001,245.33233 337,242 337.33421,238.66686 337.66767,235.33233 338,232 336.33488,230.99933 334.66767,229.999 333,229 335.66814,216.99688 338.33433,204.999 341,193 346.33382,181.33347 351.66767,169.66567 357,158 360.00069,150.99972 363.001,143.999 366,137 367.00083,133.33297 368.001,129.66567 369,126 364.66907,121.33384 360.33433,116.66567 356,112 353.66769,110.99901 351.33433,109.999 349,109 340.66594,108.999 332.33433,108.999 324,109 317.00016,109.66575 308.66767,110.33233 301,111 296.0003,111.99914 291.001,112.999 286,114 287.00123,109.99808 288.001,105.999 289,102 292.66659,96.000765 296.33433,89.999 300,84 301.66734,81.332855 303.33433,77.999 305,75 312.33143,72.33339 319.66767,69.665667 327,67 337.33264,64.999328 347.66767,62.999 358,61 364.66692,57.332742 372.001,53.665667 379,50 381.66721,46.999512 384.33433,43.999 387,41 386.33457,38.999703 385.001,36.999 384,35 382.33467,33.665933 380.66767,32.332333 379,31 376.00078,29.665569 372.33433,28.332333 369,27 365.66715,26.999 361.66767,26.999 358,27 350.66567,30.666667 343.33433,34.332333 336,38 328.33308,41.666267 320.66767,45.332333 313,49 314.33454,42.998058 315.66767,36.999 317,31 320.66695,26.999777 324.33433,22.999 328,19 329.00074,16.666274 330.001,14.332333 331,12 331.001,10.999517 330.33433,9.3323333 330,8 328.00206,7.3326863 326.001,6.6656667 324,6 322.66727,4.9987 321.33433,3.999 320,3 318.66751,2.6656267 317.33433,2.3323333 316,2 308.33027,2.6660196 300.66767,2.6656667 293,3 291.33411,3.3323786 289.66767,3.6656667 288,4 288.33456,6.3339487 288.66767,8.6656667 289,11 289.001,14.00008 289.001,16.999 289,20 288.33411,22.666556 287.66767,25.999 287,29 285.33369,32.333627 283.66767,35.665667 282,39 282.001,43.333893 282.001,47.665667 282,52 280.66736,58.667205 279.33433,65.332333 278,72 276.66744,82.00073 275.33433,91.999 274,102 273.33426,105.3327 272.66767,108.66567 272,112 271.3341,113.99969 270.66767,115.999 270,118 265.33153,117.999 260.66767,117.999 256,118 255.00079,115.66517 254.001,113.33233 253,111 253.66753,98.668218 254.33433,86.332333 255,74 254.6677,62.999937 254.33433,51.999 254,41 249.00144,33.666312 244.001,26.332333 239,19 232.66785,16.332412 225.66767,13.665667 219,11 214.66733,8.9988449 210.33433,6.999 206,5 201.00049,6.6658373 196.001,8.3323333 191,10 Z" />
  <path
     style="fill:none;stroke:#000000;stroke-width:1px;stroke-linecap:butt;stroke-linejoin:miter;stroke-opacity:1"
     d="M 245.16721,188.49923 C 250.00119,184.33266 260.00118,178.666 267.83419,174.49954 275.66719,170.33308 281.33453,167.6661 286.00081,165.66631 290.66709,163.66651 294.33454,162.3329 297.89326,162.29408 301.45198,162.25527 305.33389,163.66687 307.66677,165.33308 309.99965,166.99929 310.9998,168.9996 310.13941,170.60446 309.27901,172.20933 306.0012,173.66613 298.66552,177.33396 291.32984,181.0018 279.66787,186.99938 271.50095,191.33282 263.33404,195.66627 258.66786,198.33265 255.00076,199.66633 251.33366,201 248.66767,201 246.57389,200.54403 244.48012,200.08807 242.66696,199.00018 241.66673,197.16609 240.6665,195.332 240.33323,192.66581 245.16721,188.49923 Z"
     id="path25"
     inkscape:connector-curvature="0"
     inkscape:path-effect="#path-effect27"
     inkscape:original-d="M 240,190 C 250.001,184.33233 260.001,178.66567 270,173 275.66699,170.33265 281.33433,167.66567 287,165 290.66689,163.66595 294.33433,162.33233 298,161 301.66646,161.66545 305.33433,163.66567 309,165 310.00085,166.99869 311.001,168.999 312,171 309.3338,172.3326 306.001,173.66567 303,175 291.32964,181.00141 279.66767,186.999 268,193 263.33385,195.66594 258.66767,198.33233 254,201 251.33366,200.999 248.66767,200.999 246,201 244.33371,200.33208 242.66767,198.999 241,198 240.66761,195.33186 240.33433,192.66567 240,190 Z" />
  <path
     d="M 279.85016,496.86267 C 277.48926,495.20902 274.59761,486.99987 274.60374,481.9685 274.60579,480.28082 275.50664,477.42524 276.60561,475.62276 277.70458,473.82027 279.05762,470.3202 279.61236,467.84483 280.95128,461.8703 281.64169,345.05499 280.49702,318.16309 279.56822,296.34264 278.52154,289.07577 275.88837,286.16615 272.18672,282.07587 258.42683,284.55163 212.6,297.55338 195.275,302.46874 173,308.52131 163.1,311.00354 128.37496,319.71015 117.10043,323.52871 92.636436,334.86877 85.191396,338.31985 77.819553,341.44553 76.254562,341.81473 72.286296,342.7509 66.202857,339.59603 60.174427,333.47556 55.745146,328.97866 55.229156,327.97325 54.820298,323.04297 54.454015,318.62608 54.875012,316.47905 57.03063,311.77056 62.146268,300.59653 64.537357,299.98705 73.588516,307.55002 77.902366,311.15459 80.582381,312.67643 82.519313,312.62136 84.041376,312.57808 94.694694,310.0243 106.19335,306.9463 145.03969,296.54775 203.16868,284.50601 243.97798,278.40345 275.76776,273.64966 276.26918,273.27871 272.09652,257.60151 269.02049,246.04445 266.24432,240.7545 261.6,237.60057 256.92454,234.4255 253.17295,234.99482 236.62354,241.3909 229.45568,244.16116 221.02354,247.0965 217.88544,247.91387 207.72112,250.56134 196.09607,249.44207 194.86133,245.69709 194.6432,245.03549 197.04349,242.56049 200.19531,240.19709 209.78274,233.00792 210.6003,231.98605 210.5974,227.19545 210.59597,224.83295 208.78122,216.375 206.56463,208.4 195.63504,169.07687 190.72764,159.31481 177.30835,150.20194 169.65628,145.00552 167.6,142.89723 167.6,140.24803 167.6,138.14453 167.83083,138.11021 177.85,138.72409 201.162,140.15242 213.42171,146.17905 219.17709,159.03967 222.88158,167.31749 229.26733,190.16256 231.0345,201.45964 234.30206,222.34833 234.74242,222.61332 255.96826,216.46349 259.74581,215.36901 268.74581,213.29191 275.96826,211.84772 293.56271,208.32956 297.13835,206.69787 299.63834,201.04622 302.82455,193.84326 304.35658,193.98873 314.91492,202.49674 321.59728,207.88144 324.7853,208.58026 327.01911,205.15 327.82497,203.9125 330.11815,195.475 332.11505,186.4 336.33382,167.2276 339.58537,156.97091 346.06383,142.4 348.63149,136.625 350.98574,129.80025 351.2955,127.2339 351.78883,123.14673 351.53812,122.24721 349.27481,119.9839 344.6364,115.34549 339.35759,116.16392 308.34329,126.32996 267.87839,139.59377 243.52459,145.32242 236.19986,143.29996 230.76271,141.79869 218.6,130.61358 218.6,127.11472 218.6,124.50448 220.92046,123.62364 230.45016,122.61646 242.88549,121.30219 243.62543,120.52584 239.8042,112.80216 238.19817,109.55597 235.82654,103.075 234.5339,98.4 230.78241,84.832211 228.67543,83.734151 213.41335,87.392994 198.40327,90.991424 195.93314,90.320442 184.37,79.503691 174.57372,70.339749 173.10151,64.747717 179.50352,61.018922 182.23214,59.429664 185.70233,58.886995 197.00352,58.282269 204.75659,57.867403 211.63036,57.499175 212.27857,57.463984 214.53012,57.341749 216.6,54.238496 216.6,50.985122 216.6,46.913517 213.38935,37.422638 210.13126,31.863124 208.77857,29.554945 204.95622,24.343987 201.63714,20.283217 198.31806,16.222448 195.60189,12.632244 195.60122,12.304988 195.60055,11.977731 196.51856,10.878692 197.64124,9.8626799 200.51903,7.2583131 207.85987,7.472993 215.16234,10.375077 237.56212,19.277004 246.08529,27.468399 251.32827,45.133199 252.75854,49.952099 253.0578,55.666788 253.14887,79.9 253.20882,95.85 253.33485,110.1375 253.42893,111.65 253.70699,116.11998 256.82701,118.4 262.66574,118.4 272.07847,118.4 272.29098,117.99057 276.1612,92.4 277.53367,83.325 279.30741,72.075 280.10284,67.4 280.89828,62.725 282.01989,54.625 282.59532,49.4 283.1861,44.035555 284.93847,36.130007 286.62077,31.239753 289.0168,24.274804 289.6,20.909561 289.6,14.04877 289.6,8.9259174 290.03921,5.2465886 290.69944,4.8385422 291.30413,4.4648217 297.49744,3.9279273 304.46234,3.6454436 L 317.1258,3.1318367 323.3629,6.2803135 C 327.75601,8.497945 329.6,9.9968765 329.6,11.350276 329.6,12.407093 327.57218,16.113115 325.09373,19.585881 319.38211,27.588925 314.60181,37.129392 314.60079,40.527555 314.59875,47.315994 319.76217,46.745366 338.26219,37.912651 355.7857,29.546167 360.57589,28.014496 367.10915,28.688789 375.66727,29.572065 384.6,35.454143 384.6,40.206276 384.6,42.743119 376.54641,49.66053 369.09232,53.526171 360.75053,57.85217 353.86372,60.133374 334.79209,64.88787 309.41233,71.214965 304.59521,74.028242 296.92623,87.00215 287.62635,102.73512 285.38443,109.04158 288.11915,111.77629 290.07216,113.7293 290.02685,113.72894 305.1,111.91027 317.40802,110.42522 343.86324,109.90265 349.51471,111.03294 353.74772,111.87954 361.93254,119.38977 364.57813,124.85482 367.53007,130.95272 367.39764,131.37894 350.58224,169.9 337.65486,199.5143 332.12792,222.92159 335.71831,232.85063 336.54999,235.1506 336.5359,237.39177 335.66336,241.59478 333.47833,252.12002 330.29958,251.16029 323.00159,237.77195 317.67278,227.99612 314.4651,225.40947 307.66389,225.40374 302.14511,225.39909 291.77433,227.9341 284.85,230.98031 278.72683,233.67407 278.08915,235.90686 282.50958,239.17503 284.10984,240.35815 287.25984,244.66068 289.50958,248.73619 293.03044,255.11443 293.6,256.98923 293.6,262.20053 293.6,273.27403 296.90257,274.12812 331.14725,271.91083 368.59142,269.48639 405.92145,266.47893 419.6,264.78473 443.73749,261.7951 442.82175,261.77779 446.83267,265.29942 452.89816,270.62499 458.70083,272.53941 472.01281,273.60686 479.51477,274.20842 484.98837,275.14328 486.44184,276.07127 488.96844,277.68442 493.05468,285.97629 494.11909,291.65009 494.83641,295.4737 493.22524,299.6192 489.82641,302.6951 485.72533,306.40653 482.2448,305.92944 459.6,298.55186 415.61832,284.22281 402.19914,281.36984 369.04221,279.29894 345.61454,277.8357 296.64022,278.60904 291.1,280.52971 L 287.1,281.91641 287.10935,289.40821 C 287.11449,293.52869 287.69104,314.225 288.39057,335.4 289.0901,356.575 290.08224,391.675 290.59531,413.4 291.26883,441.91845 291.98896,455.58861 293.18556,462.57077 294.81852,472.09912 294.8102,472.34931 292.62042,479.55867 290.23671,487.40651 287.30891,493.82856 284.8285,496.65 282.95057,498.78612 282.61665,498.80039 279.85016,496.86267 Z"
     id="path29"
     inkscape:connector-curvature="0" />
  <path
     d="M 243.20426,197.24539 C 239.74231,192.30276 248.361,185.52931 275.38372,171.95544 288.96784,165.13197 293.66327,163.4 298.57784,163.4 302.69003,163.4 309.1,167.06963 309.1,169.4238 309.1,170.30295 298.34123,176.4306 281.6,185.08641 257.95242,197.31304 253.44252,199.31154 249.4067,199.35244 245.70193,199.38998 244.39555,198.94619 243.20426,197.24539 Z"
     id="path31"
     inkscape:connector-curvature="0" />
</svg>
