<?xml version="1.0" encoding="UTF-8" standalone="no"?>
<!-- Created with Inkscape (http://www.inkscape.org/) -->

<svg
   xmlns:dc="http://purl.org/dc/elements/1.1/"
   xmlns:cc="http://creativecommons.org/ns#"
   xmlns:rdf="http://www.w3.org/1999/02/22-rdf-syntax-ns#"
   xmlns:svg="http://www.w3.org/2000/svg"
   xmlns="http://www.w3.org/2000/svg"
   xmlns:sodipodi="http://sodipodi.sourceforge.net/DTD/sodipodi-0.dtd"
   xmlns:inkscape="http://www.inkscape.org/namespaces/inkscape"
   width="512"
   height="512"
   viewBox="0 0 512 512"
   version="1.1"
   id="svg8"
   inkscape:version="0.92.4 (5da689c313, 2019-01-14)"
   sodipodi:docname="四U+56DB-2.svg">
  <defs
     id="defs2">
    <inkscape:path-effect
       effect="bspline"
       id="path-effect35"
       is_visible="true"
       weight="33.333333"
       steps="2"
       helper_size="0"
       apply_no_weight="true"
       apply_with_weight="true"
       only_selected="false" />
    <inkscape:path-effect
       effect="bspline"
       id="path-effect31"
       is_visible="true"
       weight="33.333333"
       steps="2"
       helper_size="0"
       apply_no_weight="true"
       apply_with_weight="true"
       only_selected="false" />
    <inkscape:path-effect
       effect="bspline"
       id="path-effect27"
       is_visible="true"
       weight="33.333333"
       steps="2"
       helper_size="0"
       apply_no_weight="true"
       apply_with_weight="true"
       only_selected="false" />
    <inkscape:path-effect
       effect="bspline"
       id="path-effect23"
       is_visible="true"
       weight="33.333333"
       steps="2"
       helper_size="0"
       apply_no_weight="true"
       apply_with_weight="true"
       only_selected="false" />
  </defs>
  <sodipodi:namedview
     id="base"
     pagecolor="#ffffff"
     bordercolor="#666666"
     borderopacity="1.0"
     inkscape:pageopacity="0.0"
     inkscape:pageshadow="2"
     inkscape:zoom="1"
     inkscape:cx="400"
     inkscape:cy="343.78874"
     inkscape:document-units="px"
     inkscape:current-layer="svg8"
     showgrid="false"
     units="px"
     inkscape:window-width="1920"
     inkscape:window-height="1001"
     inkscape:window-x="-9"
     inkscape:window-y="-9"
     inkscape:window-maximized="1" />
  <metadata
     id="metadata5">
    <rdf:RDF>
      <cc:Work
         rdf:about="">
        <dc:format>image/svg+xml</dc:format>
        <dc:type
           rdf:resource="http://purl.org/dc/dcmitype/StillImage" />
        <dc:title></dc:title>
      </cc:Work>
    </rdf:RDF>
  </metadata>
  <g
     inkscape:label="圖層 1"
     inkscape:groupmode="layer"
     id="layer1"
     transform="translate(0,-161.53331)" />
  <path
     style="fill:none;stroke:#000000;stroke-width:1px;stroke-linecap:butt;stroke-linejoin:miter;stroke-opacity:1"
     d="M 123.8338,199.3323 C 121.66759,198.99893 117.33426,203.99894 114.50047,209.16611 111.66668,214.33329 110.33363,219.66549 109.66681,224.16599 109,228.66648 109,232.33233 110.66702,238.00031 112.33404,243.66828 115.66646,251.33286 119.16658,258.49979 122.6667,265.66673 126.33314,272.33298 129.66654,279.33309 132.99995,286.33321 135.99979,293.66616 139.66662,301.33318 143.33344,309.0002 147.66648,316.99965 150.99985,323.66637 154.33323,330.3331 156.66646,335.6662 157.49997,340.16602 158.33348,344.66585 157.66688,348.33219 157.14346,351.49595 156.62004,354.65971 156.33349,356.66555 158.16791,358.83336 160.00232,361.00116 164.0004,363.0002 167.50063,363.66667 171.00086,364.33314 174.00116,363.66641 177.3337,361.50008 180.66624,359.33376 184.33433,355.66567 190.99977,352.4997 197.66522,349.33373 207.33452,346.66634 217.00058,344.16651 226.66665,341.66667 236.3345,339.33305 244.83403,337.66651 253.33356,335.99997 260.66779,334.99985 267.82597,334.33363 274.98415,333.66742 282.00105,333.33328 285.6672,330.83312 289.33336,328.33296 289.66674,323.6656 289.83337,320.1659 290,316.6662 290,314.33233 289.33382,312.83307 288.66764,311.33382 287.33373,310.66687 285.0003,310.8334 282.66686,310.99994 279.33452,311.99964 274.66671,312.66652 269.9989,313.33339 264.00105,313.66661 256.8337,314.5 249.66634,315.33339 241.33446,316.66649 232.33383,318.49993 223.33319,320.33337 213.66784,322.66638 206.33417,324.16649 199.0005,325.6666 194.00111,326.33318 189.83411,327.16653 185.66711,327.99987 182.33452,328.99964 179.16732,330.33312 176.00012,331.6666 173.00119,333.33267 169.49972,325.82934 165.99824,318.32601 161.99983,301.66595 156.83328,286.33305 151.66673,271.00015 145.33313,256.99954 139.99986,244.66636 134.6666,232.33317 130.33313,221.66616 128.16656,213.49938 126,205.3326 126,199.66567 123.8338,199.3323 Z"
     id="path21"
     inkscape:connector-curvature="0"
     inkscape:path-effect="#path-effect23"
     inkscape:original-d="M 126,194 C 121.66767,198.999 117.33433,203.999 113,209 111.66738,214.33347 110.33433,219.66567 109,225 109.001,228.66648 109.001,232.33233 109,236 112.33524,243.66776 115.66767,251.33233 119,259 122.66789,265.66608 126.33433,272.33233 130,279 133.00116,286.33271 136.001,293.66567 139,301 143.33463,308.99955 147.66767,316.999 152,325 154.33444,330.33257 156.66767,335.66567 159,341 158.33427,344.66599 157.66767,348.33233 157,352 156.66756,354.6665 156.33433,356.66567 156,359 160.00292,360.99996 164.001,362.999 168,365 171.0007,364.3324 174.001,363.66567 177,363 180.66624,359.33376 184.33433,355.66567 188,352 197.66503,349.33306 207.33433,346.66567 217,344 226.66648,341.66595 236.33433,339.33233 246,337 253.33344,335.99912 260.66767,334.999 268,334 274.99994,333.999 282.001,333.33233 289,333 289.33428,328.33303 289.66767,323.66567 290,319 290.001,316.6662 290.001,314.33233 290,312 288.66824,311.33262 287.33433,310.66567 286,310 282.66667,310.9993 279.33433,311.999 276,313 269.99885,313.33245 264.001,313.66567 258,314 249.66621,315.33257 241.33433,316.66567 233,318 223.33302,320.33265 213.66767,322.66567 204,325 199.00039,325.66575 194.001,326.33233 189,327 185.66692,327.99922 182.33433,328.999 179,330 175.99993,331.66626 173.001,333.33233 170,335 165.99942,318.32573 162.001,301.66567 158,285 151.66794,270.9996 145.33433,256.999 139,243 134.66781,232.33268 130.33433,221.66567 126,211 126.001,205.3326 126.001,199.66567 126,194 Z" />
  <path
     style="fill:none;stroke:#000000;stroke-width:1px;stroke-linecap:butt;stroke-linejoin:miter;stroke-opacity:1"
     d="M 156.33337,182.33286 C 155,184.33233 155,190.66567 156.66685,196.33311 158.33371,202.00056 161.66651,206.99977 164.91618,211.25869 168.16584,215.51761 170.99995,218.66661 174.50055,220.16659 178.00115,221.66657 182.00108,221.33324 187.78174,219.85142 193.5624,218.3696 201.33453,215.66625 211.16692,212.4999 220.99931,209.33354 233.00119,205.6663 245.50054,202.33317 257.99988,199.00003 271.00117,195.99973 283.16732,193.16651 295.33348,190.3333 306.66784,187.66639 315.98414,185.11645 325.30045,182.56652 332.0012,180.33293 339.16679,178.99189 346.33237,177.65084 353.00105,177.33328 358.83384,177.8333 364.66663,178.33332 369.33399,179.66685 372.83347,181.66654 376.33294,183.66622 378.6666,186.33326 379.8333,189.49951 381,192.66576 381,196.33233 379.83324,201.33309 378.66647,206.33386 376.33378,212.66547 373.00006,220.99978 369.66635,229.33409 365.33384,239.66546 361.83361,249.16597 358.33339,258.66649 355.66704,267.33213 352.50029,274.66589 349.33354,281.99966 345.66738,287.99883 343.33373,293.16592 341.00007,298.33301 340.00027,302.6655 338.66698,305.99916 337.33369,309.33283 335.66748,311.66553 333.83375,313.83275 332.00003,315.99997 330.001,317.999 327.6665,317.6655 325.332,317.332 322.66667,314.66667 320.33345,312.66675 318.00023,310.66682 316.00023,309.33349 314.66694,309.66626 313.33366,309.99903 312.66707,311.9988 313.50087,314.3335 314.33467,316.6682 316.6666,319.33326 318.16654,321.49973 319.66648,323.66619 320.33312,325.33281 322.00034,327.33347 323.66756,329.33412 326.3334,331.66673 328.83328,334.33325 331.33316,336.99978 333.66656,339.99986 335.16655,343.16629 336.66654,346.33272 337.33318,349.6659 337.50003,351.99918 337.66688,354.33246 337.33363,355.66549 337.16681,357.66676 337,359.66802 337,362.33233 337,365.49968 337,368.66704 337,372.33233 338.66762,372.49855 340.33524,372.66476 343.66767,369.33233 345.50048,364.83315 347.3333,360.33398 347.66673,354.66561 349.38224,345.63729 351.09776,336.60897 354.00029,324.99882 357.50014,312.6661 360.99998,300.33338 365.00038,287.66547 369.33357,276.16595 373.66677,264.66643 378.33388,254.33213 382.83366,244.99928 387.33345,235.66644 391.66729,227.33213 395.16709,220.49918 398.66688,213.66623 401.33393,208.33213 402.33366,202.99957 403.33338,197.66701 402.66656,192.33247 401.16672,187.83307 399.66688,183.33367 397.33317,179.66641 394.16688,176.66671 391.00059,173.66701 387.00031,171.33351 383.66685,169.33344 380.3334,167.33337 377.66694,165.66684 370.35614,165.6636 363.04533,165.66037 351.00112,167.33318 337.83374,168.33326 324.66635,169.33334 310.33435,169.66664 296.00056,170.99998 281.66677,172.33332 267.33446,174.66648 254.16734,177.33321 241.00023,179.99994 229.00118,182.99971 218.68797,185.13876 208.37477,187.27781 199.00112,188.6665 191.334,189.33325 183.66688,190 178.001,190 173.50042,189.16662 168.99984,188.33325 166.00034,186.66686 163.16672,184.66666 160.3331,182.66646 157.66674,180.3334 156.33337,182.33286 Z"
     id="path25"
     inkscape:connector-curvature="0"
     inkscape:path-effect="#path-effect27"
     inkscape:original-d="M 155,178 C 155.001,184.33233 155.001,190.66567 155,197 158.33486,201.99979 161.66767,206.999 165,212 168.00114,215.66584 171.001,218.66567 174,222 178.00107,221.66566 182.001,221.33233 186,221 193.6656,218.66629 201.33433,215.66567 209,213 220.99912,209.33291 233.001,205.66567 245,202 257.99971,198.9993 271.001,195.999 284,193 295.33331,190.33257 306.66767,187.66567 318,185 325.33358,182.66591 332.001,180.33233 339,178 346.33308,177.66572 353.001,177.33233 360,177 364.66697,178.33213 369.33433,179.66567 374,181 376.334,183.66529 378.66767,186.33233 381,189 381.001,192.66576 381.001,196.33233 381,200 378.66703,206.33406 376.33433,212.66567 374,219 369.66684,229.3343 365.33433,239.66567 361,250 358.33402,258.66668 355.66767,267.33233 353,276 349.33383,281.99983 345.66767,287.999 342,294 341.0008,298.33318 340.001,302.66567 339,307 337.33388,309.33296 335.66767,311.66567 334,314 332.00003,315.99997 330.001,317.999 328,320 325.333,317.331 322.66767,314.66567 320,312 318.001,310.66567 316.001,309.33233 314,308 313.33426,309.99923 312.66767,311.999 312,314 314.33573,316.66727 316.66767,319.33233 319,322 319.66768,323.66571 320.33433,325.33233 321,327 323.66849,329.33306 326.33433,331.66567 329,334 331.33427,336.99892 333.66767,339.999 336,343 336.6677,346.33249 337.33433,349.66567 338,353 337.66759,354.33264 337.33433,355.66567 337,357 337.001,359.66802 337.001,362.33233 337,365 336.33408,368.66704 337.001,372.33233 337,376 340.33524,372.66476 343.66767,369.33233 347,366 347.33423,360.33403 347.66767,354.66567 348,349 351.33371,336.66796 354.001,324.999 357,313 361.00061,300.33358 365.001,287.66567 369,275 373.66723,264.66664 378.33433,254.33233 383,244 387.33383,235.66664 391.66767,227.33233 396,219 398.66728,213.66643 401.33433,208.33233 404,203 403.33448,197.66687 402.66767,192.33233 402,187 399.66804,183.33293 397.33433,179.66567 395,176 391.00128,173.66583 387.001,171.33233 383,169 380.33413,167.3322 377.66767,165.66567 375,164 362.99979,165.33247 351.001,167.33233 339,169 324.66633,169.33236 310.33433,169.66567 296,170 281.66664,172.3325 267.33433,174.66567 253,177 241.00005,179.99924 229.001,182.999 217,186 208.33348,186.9991 199.001,188.66567 190,190 183.66688,189.999 178.001,189.999 172,190 169.0005,188.33206 166.001,186.66567 163,185 160.33403,182.6654 157.66767,180.33233 155,178 Z" />
  <path
     style="fill:none;stroke:#000000;stroke-width:1px;stroke-linecap:butt;stroke-linejoin:miter;stroke-opacity:1"
     d="M 217.50064,245.16571 C 215.66781,243.99921 211.33448,246.99921 208.70959,250.17766 206.0847,253.35611 205.00032,257.33215 204.33347,262.16652 203.66662,267.00089 203.33339,272.99895 202.66679,277.66584 202.00018,282.33273 201.00036,285.66548 201.83452,286.16519 202.66868,286.6649 205.3344,284.3324 208.33344,279.00059 211.33249,273.66877 214.66715,265.33212 216.66693,258.49923 218.66671,251.66633 219.33347,246.33222 217.50064,245.16571 Z"
     id="path29"
     inkscape:connector-curvature="0"
     inkscape:path-effect="#path-effect31"
     inkscape:original-d="M 220,241 C 215.66767,243.999 211.33433,246.999 207,250 206.00074,253.33321 205.001,257.33233 204,261 203.66756,267.00094 203.33433,272.999 203,279 202.00082,282.33292 201.001,285.66567 200,289 202.66862,286.66483 205.33433,284.33233 208,282 211.33301,273.66898 214.66767,265.33233 218,257 218.66757,251.66644 219.33433,246.33233 220,241 Z" />
  <path
     style="fill:none;stroke:#000000;stroke-width:1px;stroke-linecap:butt;stroke-linejoin:miter;stroke-opacity:1"
     d="M 261.33331,218.33248 C 260.00014,219.66556 259.00015,227.33222 259.50012,233.99957 260.00009,240.66691 261.9998,246.33275 264.91642,251.25713 267.83305,256.18151 271.33329,259.99995 274.74459,264.27923 278.15589,268.55851 280.99986,272.66646 283.66715,274.83323 286.33445,277 288.66767,277 290.00046,274.16735 291.33325,271.3347 291.66673,265.66561 289.6671,260.66654 287.66747,255.66747 283.33333,251.33333 278.92376,245.71604 274.51419,240.09876 270.33317,233.66642 267.33318,227.833 264.33319,221.99958 262.66647,216.9994 261.33331,218.33248 Z"
     id="path33"
     inkscape:connector-curvature="0"
     inkscape:path-effect="#path-effect35"
     inkscape:original-d="M 261,212 C 260.001,219.66567 259.001,227.33233 258,235 260.00129,240.66649 262.001,246.33233 264,252 267.66804,256.33277 271.33433,259.999 275,264 278.00103,268.66572 281.001,272.66567 284,277 286.33445,276.999 288.66767,276.999 291,277 291.33419,271.33476 291.66767,265.66567 292,260 287.66847,255.66647 283.33433,251.33233 279,247 274.66767,239.999 270.33433,233.66567 266,227 264.33439,221.99918 262.66767,216.999 261,212 Z" />
  <path
     d="M 163.1,361.06191 C 158.16443,358.53321 157.62202,357.13754 158.27648,348.65065 158.65012,343.80542 158.42413,339.50621 157.6659,337.03482 156.52813,333.32638 146.97487,313.11694 124.44161,266.75055 118.99939,255.55215 113.61144,243.62715 112.4684,240.25055 108.55896,228.70186 111.17055,214.59619 119.15671,204.1258 122.93896,199.16701 124.264,199.62722 125.59298,206.36126 127.4909,215.97814 131.48032,227.10483 141.10006,249.61126 151.4466,273.81815 155.37104,284.47126 162.10957,306.64276 169.98161,332.54379 171.37733,334.33486 180.90977,330.76832 183.94769,329.63169 190.49874,327.99634 195.46766,327.13422 200.43658,326.2721 212.73659,323.79804 222.80103,321.63631 232.86546,319.47458 246.725,317.00515 253.6,316.14869 260.475,315.29223 270.71926,313.89856 276.36503,313.05165 282.0108,312.20473 287.0733,311.78574 287.61503,312.12055 288.95698,312.94992 288.86416,323.93739 287.48973,326.95394 285.81706,330.62504 282.63437,331.58783 265.13247,333.71718 242.59569,336.45909 205.03996,345.34552 192.44641,350.91613 189.50588,352.21684 184.03406,355.38035 180.28679,357.94616 172.79702,363.07451 168.53597,363.84699 163.1,361.06191 Z"
     id="path37"
     inkscape:connector-curvature="0" />
  <path
     d="M 338.03221,369.19717 C 337.66797,367.74594 337.68354,363.21224 338.0668,359.12228 339.10434,348.05022 337.25539,342.79225 329.07276,333.54529 320.79485,324.19064 314.6,315.23499 314.6,312.62257 314.6,309.82598 315.39031,310.06778 321.1,314.61126 326.27993,318.73318 329.02955,319.43748 331.6,317.30076 335.6358,313.94595 337.99146,310.11529 341.01761,301.98626 342.83473,297.10501 346.57663,288.61126 349.33294,283.11126 352.08926,277.61126 356.02262,268.38626 358.07376,262.61126 360.1249,256.83626 365.76764,241.98626 370.6132,229.61126 380.01294,205.60538 382.32214,197.27413 381.21376,191.36596 379.64645,183.01151 371.12498,177.88037 357.29194,176.96164 347.02561,176.27979 340.8594,177.29806 317.1,183.5988 306.65,186.37003 283.475,192.21634 265.6,196.59061 247.725,200.96488 223.08734,207.72263 210.84965,211.60782 185.30749,219.71688 180.70967,220.75644 176.06229,219.47324 171.86142,218.31333 165.08688,210.87814 160.65547,202.56395 158.10333,197.77565 157.19369,194.66485 156.8205,189.44899 156.55142,185.68824 156.67946,182.61126 157.10503,182.61126 157.53061,182.61126 160.01598,183.92628 162.62808,185.53352 165.24018,187.14076 169.11495,188.93825 171.23868,189.52795 179.70947,191.88001 196.66348,190.50137 220.6,185.51406 278.26198,173.49984 285.25563,172.40434 315.6,170.63309 325.225,170.07126 341.46891,168.87513 351.69759,167.97502 361.92626,167.07492 372.32862,166.6434 374.81395,167.0161 377.71812,167.45161 381.90508,169.3874 386.53199,172.43382 397.93917,179.94443 402.2945,188.17542 401.32441,200.3895 400.88501,205.92193 399.22599,209.96085 387.35868,234.3895 372.25573,265.47866 372.76953,264.33937 367.55518,278.30095 359.9948,298.54412 351.61259,328.86696 347.57338,350.58556 345.18924,363.40495 343.84302,367.24997 340.78524,369.97351 338.72633,371.80737 338.68435,371.79553 338.03221,369.19717 Z"
     id="path39"
     inkscape:connector-curvature="0" />
  <path
     d="M 202.94155,281.50582 C 203.28166,279.63882 204.02897,273.83626 204.60223,268.61126 205.1755,263.38626 206.10962,257.67845 206.67805,255.92723 208.03034,251.76112 215.38452,244.99578 216.9065,246.51777 219.19301,248.80428 213.14268,268.71 206.94865,279.27931 203.56688,285.04987 202.15282,285.83558 202.94155,281.50582 Z"
     id="path41"
     inkscape:connector-curvature="0" />
  <path
     d="M 282.4365,271.86126 C 275.57259,264.65006 266.25905,252.06534 263.7498,246.61126 261.0848,240.81865 259.63619,227.58754 261.05017,221.95378 261.69957,219.36638 262.0512,219.76257 266.39844,227.97958 268.95768,232.81698 274.08522,240.67555 277.79296,245.44306 288.07666,258.66609 289.70734,261.684 289.75299,267.57755 289.78863,272.17924 288.47606,275.61126 286.6805,275.61126 286.30947,275.61126 284.39967,273.92376 282.4365,271.86126 Z"
     id="path43"
     inkscape:connector-curvature="0" />
</svg>
