<?xml version="1.0" encoding="UTF-8" standalone="no"?>
<!-- Created with Inkscape (http://www.inkscape.org/) -->

<svg
  xmlns:dc="http://purl.org/dc/elements/1.1/"
  xmlns:cc="http://creativecommons.org/ns#"
  xmlns:rdf="http://www.w3.org/1999/02/22-rdf-syntax-ns#"
  xmlns:svg="http://www.w3.org/2000/svg"
  xmlns="http://www.w3.org/2000/svg"
  xmlns:sodipodi="http://sodipodi.sourceforge.net/DTD/sodipodi-0.dtd"
  xmlns:inkscape="http://www.inkscape.org/namespaces/inkscape"
  width="512"
  height="512"
  viewBox="0 0 512 512"
  version="1.1"
  id="svg8"
  inkscape:version="0.92.4 (5da689c313, 2019-01-14)"
  sodipodi:docname="大U+5927-2.svg">
 <defs
   id="defs2">
  <inkscape:path-effect
    effect="bspline"
    id="path-effect23"
    is_visible="true"
    weight="33.333333"
    steps="2"
    helper_size="0"
    apply_no_weight="true"
    apply_with_weight="true"
    only_selected="false" />
 </defs>
 <sodipodi:namedview
   id="base"
   pagecolor="#ffffff"
   bordercolor="#666666"
   borderopacity="1.0"
   inkscape:pageopacity="0.0"
   inkscape:pageshadow="2"
   inkscape:zoom="1"
   inkscape:cx="400"
   inkscape:cy="251.42857"
   inkscape:document-units="px"
   inkscape:current-layer="svg8"
   showgrid="false"
   units="px"
   inkscape:window-width="1920"
   inkscape:window-height="1001"
   inkscape:window-x="-9"
   inkscape:window-y="-9"
   inkscape:window-maximized="1" />
 <metadata
   id="metadata5">
  <rdf:RDF>
   <cc:Work
     rdf:about="">
    <dc:format>image/svg+xml</dc:format>
    <dc:type
      rdf:resource="http://purl.org/dc/dcmitype/StillImage" />
    <dc:title></dc:title>
   </cc:Work>
  </rdf:RDF>
 </metadata>
 <g
   inkscape:label="圖層 1"
   inkscape:groupmode="layer"
   id="layer1"
   transform="translate(0,-161.53333)" />
 <path
   d="M 99.220295,418.43316 C 89.248155,416.13023 68.990915,408.52307 70.039165,407.47483 70.239455,407.27453 74.113465,406.64545 78.648075,406.07685 93.049125,404.27112 111.63893,396.09703 128.11462,384.32602 132.50185,381.19158 141.86195,373.05512 148.91485,366.24501 168.29913,347.52798 180.599,330.34769 193.74484,303.62703 203.47186,283.85559 208.76056,266.58274 208.69833,254.78906 208.67063,249.54073 205.7951,243.11764 202.21106,240.29843 197.03945,236.23044 192.72521,237.27837 164.52783,249.4517 141.15462,259.54235 138.00133,260.50368 130.30293,259.88573 125.609,259.50894 122.17127,258.42209 116.88204,255.64268 109.77667,251.90892 101.72029,244.49209 101.72029,241.68456 101.72029,238.97736 105.05245,238.36701 122.72029,237.83801 141.05149,237.28914 152.04957,235.48598 173.63052,229.49115 205.06157,220.76014 211.42246,212.17332 208.71659,182.12703 208.09745,175.25203 207.20632,153.20203 206.7363,133.12703 205.64545,86.5357 206.342,89.21564 191.66133,75.12703 185.64364,69.35203 180.72012,64.22757 180.72018,63.73935 180.72049,61.20702 202.37165,66.84746 212.51535,72.02245 218.72252,75.18915 224.4269,80.70803 225.80317,84.87816 228.00766,91.55782 225.34352,113.28052 217.98482,148.62703 211.79459,178.36092 217.11716,210.07855 228.72489,212.62804 232.41707,213.43898 274.24904,206.17748 292.31775,201.58913 299.52135,199.75985 309.48079,196.43254 314.44983,194.1951 319.41887,191.95766 324.82049,190.12703 326.45343,190.12703 328.08637,190.12703 331.62693,191.33593 334.32135,192.81348 337.01577,194.29103 342.1993,196.95819 345.84031,198.74051 352.6503,202.07408 357.50697,206.74035 355.87018,208.37714 354.06111,210.18621 333.72243,211.18574 311.22029,210.57144 284.72181,209.84804 278.06787,210.5732 251.01154,217.13314 225.14729,223.40404 218.72029,227.41902 218.72029,237.30565 218.72029,241.75124 220.79088,244.52262 226.51639,247.74033 237.75232,254.05486 243.9468,258.03656 255.22029,266.19065 276.24183,281.39549 310.21653,302.84414 325.22029,310.38253 329.07029,312.31689 342.34529,318.18993 354.72029,323.43372 367.09529,328.67751 382.17029,335.20284 388.22029,337.93445 402.02119,344.16565 412.10124,347.72356 435.60779,354.6606 457.03728,360.98468 467.94914,364.94773 467.2128,366.13914 465.73545,368.52955 439.67661,372.40444 410.22029,374.61381 399.22029,375.43886 387.42836,376.57337 384.01599,377.13494 372.33541,379.05722 364.25943,375.56479 337.22029,356.89835 302.66543,333.04344 288.82071,321.33648 271.09598,300.98429 263.57469,292.34807 244.43643,274.89254 233.72029,266.89487 226.90541,261.80878 221.18216,262.02561 217.80002,267.49802 216.65302,269.3539 209.60167,287.24216 202.13036,307.24969 194.65904,327.25723 185.69543,349.47703 182.2112,356.62703 165.16773,391.60211 145.74259,411.51287 122.67495,417.65169 117.57331,419.00935 103.71477,419.47109 99.220295,418.43316 Z"
   id="path25"
   inkscape:connector-curvature="0" />
 <path
   d="M 206.67895,146.3881 C 206.72693,145.22315 206.96389,144.9862 207.28311,145.78393 207.57198,146.5058 207.53646,147.3683 207.20417,147.7006 206.87187,148.03289 206.63553,147.44226 206.67895,146.3881 Z"
   id="path27"
   inkscape:connector-curvature="0" />
</svg>
