<?xml version="1.0" encoding="UTF-8" standalone="no"?>
<!-- Created with Inkscape (http://www.inkscape.org/) -->

<svg
   xmlns:dc="http://purl.org/dc/elements/1.1/"
   xmlns:cc="http://creativecommons.org/ns#"
   xmlns:rdf="http://www.w3.org/1999/02/22-rdf-syntax-ns#"
   xmlns:svg="http://www.w3.org/2000/svg"
   xmlns="http://www.w3.org/2000/svg"
   xmlns:sodipodi="http://sodipodi.sourceforge.net/DTD/sodipodi-0.dtd"
   xmlns:inkscape="http://www.inkscape.org/namespaces/inkscape"
   width="512"
   height="512"
   viewBox="0 0 512 512"
   version="1.1"
   id="svg8"
   inkscape:version="0.92.4 (5da689c313, 2019-01-14)"
   sodipodi:docname="常U+5E38-2.svg">
  <defs
     id="defs2">
    <inkscape:path-effect
       effect="bspline"
       id="path-effect51"
       is_visible="true"
       weight="33.333333"
       steps="2"
       helper_size="0"
       apply_no_weight="true"
       apply_with_weight="true"
       only_selected="false" />
    <inkscape:path-effect
       effect="bspline"
       id="path-effect47"
       is_visible="true"
       weight="33.333333"
       steps="2"
       helper_size="0"
       apply_no_weight="true"
       apply_with_weight="true"
       only_selected="false" />
    <inkscape:path-effect
       effect="bspline"
       id="path-effect43"
       is_visible="true"
       weight="33.333333"
       steps="2"
       helper_size="0"
       apply_no_weight="true"
       apply_with_weight="true"
       only_selected="false" />
    <inkscape:path-effect
       effect="bspline"
       id="path-effect39"
       is_visible="true"
       weight="33.333333"
       steps="2"
       helper_size="0"
       apply_no_weight="true"
       apply_with_weight="true"
       only_selected="false" />
    <inkscape:path-effect
       effect="bspline"
       id="path-effect35"
       is_visible="true"
       weight="33.333333"
       steps="2"
       helper_size="0"
       apply_no_weight="true"
       apply_with_weight="true"
       only_selected="false" />
    <inkscape:path-effect
       effect="bspline"
       id="path-effect31"
       is_visible="true"
       weight="33.333333"
       steps="2"
       helper_size="0"
       apply_no_weight="true"
       apply_with_weight="true"
       only_selected="false" />
    <inkscape:path-effect
       effect="bspline"
       id="path-effect27"
       is_visible="true"
       weight="33.333333"
       steps="2"
       helper_size="0"
       apply_no_weight="true"
       apply_with_weight="true"
       only_selected="false" />
    <inkscape:path-effect
       effect="bspline"
       id="path-effect23"
       is_visible="true"
       weight="33.333333"
       steps="2"
       helper_size="0"
       apply_no_weight="true"
       apply_with_weight="true"
       only_selected="false" />
  </defs>
  <sodipodi:namedview
     id="base"
     pagecolor="#ffffff"
     bordercolor="#666666"
     borderopacity="1.0"
     inkscape:pageopacity="0.0"
     inkscape:pageshadow="2"
     inkscape:zoom="1"
     inkscape:cx="400"
     inkscape:cy="360"
     inkscape:document-units="px"
     inkscape:current-layer="svg8"
     showgrid="false"
     units="px"
     inkscape:window-width="1920"
     inkscape:window-height="1001"
     inkscape:window-x="-9"
     inkscape:window-y="-9"
     inkscape:window-maximized="1" />
  <metadata
     id="metadata5">
    <rdf:RDF>
      <cc:Work
         rdf:about="">
        <dc:format>image/svg+xml</dc:format>
        <dc:type
           rdf:resource="http://purl.org/dc/dcmitype/StillImage" />
        <dc:title></dc:title>
      </cc:Work>
    </rdf:RDF>
  </metadata>
  <g
     inkscape:label="圖層 1"
     inkscape:groupmode="layer"
     id="layer1"
     transform="translate(0,-161.53331)" />
  <path
     style="fill:none;stroke:#000000;stroke-width:1px;stroke-linecap:butt;stroke-linejoin:miter;stroke-opacity:1"
     d="M 112.16673,127.99928 C 110.66696,129.33215 109.33363,134.66549 109.20606,139.48973 109.07849,144.31397 109.99982,147.99929 111.49999,152.16647 113.00015,156.33365 114.9998,160.66623 116.91209,164.11018 118.82438,167.55413 120.3332,169.66648 121.83323,173.16643 123.33325,176.66639 124.66648,181.33267 125.16659,185.83278 125.6667,190.33288 125.33342,194.6656 125.16671,199.83304 125,205.00048 125,210.999 125,215.33256 125,219.66611 125,222.33233 123.99992,223.33281 122.99985,224.33328 121.0006,223.66687 119.16722,223.33343 117.33383,223 115.66767,223 114.66712,224.83389 113.66656,226.66779 113.33343,230.33225 114.07908,233.44343 114.82473,236.55462 116.3332,238.66648 118.834,239.16628 121.33481,239.66608 124.66788,238.33285 127.33378,234.66691 129.99968,231.00097 132.0004,224.9988 134.45155,217.4841 136.90269,209.96939 140.00039,200.33213 141.66687,192.83257 143.33335,185.333 143.66673,179.66561 143.3462,174.39698 143.02567,169.12834 141.99985,163.99923 139.33359,159.33328 136.66733,154.66733 132.33333,150.33333 128.99997,146.8333 125.6666,143.33326 123.33327,140.6666 121.49991,138.33321 119.66655,135.99982 118.33318,133.99977 116.83327,131.66657 115.33336,129.33337 113.6665,126.6664 112.16673,127.99928 Z"
     id="path21"
     inkscape:connector-curvature="0"
     inkscape:path-effect="#path-effect23"
     inkscape:original-d="M 112,124 C 110.66767,129.33233 109.33433,134.66567 108,140 109.00122,144.33329 110.001,147.999 111,152 113.00135,156.3331 115.001,160.66567 117,165 118.66784,167.66594 120.33433,169.66567 122,172 123.33444,176.66605 124.66767,181.33233 126,186 125.66762,190.33295 125.33433,194.66567 125,199 125.001,205.00048 125.001,210.999 125,217 125.001,219.66611 125.001,222.33233 125,225 123.00025,224.33208 121.001,223.66567 119,223 117.33383,222.999 115.66767,222.999 114,223 113.66747,226.66787 113.33433,230.33233 113,234 114.66816,236.66645 116.33433,238.66567 118,241 121.3346,239.66556 124.66767,238.33233 128,237 130.00028,231.00117 132.001,224.999 134,219 137.0004,210.0008 140.001,200.33233 143,191 143.33429,185.33306 143.66767,179.66567 144,174 143.66773,168.99993 142.001,163.999 141,159 136.66833,154.66633 132.33433,150.33233 128,146 125.66767,143.33233 123.33433,140.66567 121,138 119.6677,135.99905 118.33433,133.999 117,132 115.33453,129.33264 113.66767,126.66567 112,124 Z" />
  <path
     style="fill:none;stroke:#000000;stroke-width:1px;stroke-linecap:butt;stroke-linejoin:miter;stroke-opacity:1"
     d="M 182,77 C 181.33344,83.998915 180.66677,90.998914 180.51507,96.49795 180.36336,101.99699 180.66658,105.33243 181.50002,108.83303 182.33345,112.33363 183.66646,115.66615 183.6668,118.49933 183.66713,121.33251 182.33401,123.66549 181.667,126.333 181,129.00052 181,131.999 177.83288,134.66633 174.66576,137.33367 168.33453,139.66622 164.00088,140.83311 159.66722,142 157.33433,142 155.83382,143.50006 154.33331,145.00012 153.66693,147.99883 155.00072,151.66685 156.33452,155.33487 159.66656,159.66653 163.16717,161.83326 166.66779,164 170.33433,164 175.66679,161.66692 180.99924,159.33384 188.00115,154.6659 198.33336,150.83307 208.66557,147.00024 222.33449,143.99975 236.50051,141.49988 250.66654,139.00002 265.33445,136.99985 281.00046,135.33327 296.66647,133.66668 313.3344,132.33325 329.83388,130.99996 346.33335,129.66666 362.66774,128.33325 373.16759,127.49993 383.66743,126.66661 388.3344,126.33326 393.66671,127.66639 398.99903,128.99951 405.0004,132.0002 407.667,135.16608 410.33361,138.33196 409.6669,141.66552 408.33349,144.8327 407.00008,147.99988 405.00077,150.99885 402.66701,153.99947 400.33325,157.0001 397.66761,159.99894 397.57983,162.38949 397.49205,164.78004 399.66686,166.33347 402.33334,168.49999 404.99982,170.66651 408.00006,173.33339 410.83387,173.49959 413.66768,173.66578 416.3344,171.3324 418.50041,167.8332 420.66643,164.33399 422.33376,159.66547 425.33359,156.16605 428.33341,152.66662 432.66786,150.33269 436.12648,148.42775 439.58509,146.52281 441.66786,145.33265 442.38885,143.47944 443.10984,141.62623 441.9998,138.66612 440.33371,136.83327 438.66763,135.00041 436.33381,134.00021 433.16669,132.5 429.99957,130.99979 426.0004,129.0002 423.16674,126.99995 420.33309,124.9997 418.66659,122.9999 417.08192,121.09831 415.49726,119.19672 413.66659,116.9999 412,115"
     id="path25"
     inkscape:connector-curvature="0"
     inkscape:path-effect="#path-effect27"
     inkscape:original-d="M 182,77 C 181.33433,83.999 180.66767,90.999 180,98 180.33439,101.99962 180.66767,105.33233 181,109 182.33466,112.33315 183.66767,115.66567 185,119 183.66746,121.3327 182.33433,123.66567 181,126 181.001,129.00052 181.001,131.999 181,135 174.66556,137.33311 168.33433,139.66567 162,142 159.66722,141.999 157.33433,141.999 155,142 154.33405,145.00029 153.66767,147.999 153,151 156.33563,155.33402 159.66767,159.66567 163,164 166.66779,163.999 170.33433,163.999 174,164 180.99909,159.33361 188.001,154.66567 195,150 208.66541,146.99949 222.33433,143.999 236,141 250.66642,138.99917 265.33433,136.999 280,135 296.6664,133.66577 313.33433,132.33233 330,131 346.33328,129.66575 362.66767,128.33233 379,127 383.66736,126.66569 388.33433,126.33233 393,126 398.99963,128.99831 405.001,131.999 411,135 410.33438,138.33211 409.66767,141.66567 409,145 407.00031,148.00004 405.001,150.999 403,154 400.33331,157.00015 397.66767,159.999 395,163 397.33515,164.9997 399.66767,166.33233 402,168 405.00076,170.66545 408.001,173.33233 411,176 413.66761,173.66571 416.33433,171.33233 419,169 420.667,164.33419 422.33433,159.66567 424,155 428.33322,152.66627 432.66767,150.33233 437,148 439.66693,146.66603 441.66767,145.33233 444,144 443.00151,141.66685 442.001,138.66567 441,136 438.66815,134.99921 436.33433,133.999 434,133 430.00017,130.99859 426.001,128.999 422,127 420.33417,124.9988 418.66767,122.999 417,121 415.33442,119.33242 413.66767,116.999 412,115" />
  <path
     style="fill:none;stroke:#000000;stroke-width:1px;stroke-linecap:butt;stroke-linejoin:miter;stroke-opacity:1"
     d="M 412,115 C 393.00108,116.66657 374.00108,118.33324 354.00048,119.99996 333.99988,121.66668 313.00107,123.33325 300.16758,124.16662 287.33409,125 283.33433,125 278.00032,125.33335 272.6663,125.6667 266.33442,126.33322 262.16734,126.33332 258.00025,126.33342 256.0006,125.66687 254.16662,123.83281 252.33264,121.99876 250.66648,118.99966 251.48505,114.93035 252.30362,110.86103 255.00075,106.66551 257.92828,103.08334 260.85581,99.501169 263.33439,97.332406 264.33395,93.333563 265.3335,89.33472 264.66656,83.665797 263.33333,77.999713 262.0001,72.333629 259.9998,66.666092 257.50022,62.99989 255.00064,59.333689 252.00034,57.666855 248.50006,55.500021 244.99978,53.333186 241.00023,50.666821 237.83348,48.500096 234.66672,46.333371 232.33352,44.6668 229.83392,44.49982 227.33432,44.33284 224.66787,45.666065 221.83363,48.666835 218.9994,51.667604 216.00075,56.332171 215.00041,59.499479 214.00007,62.666788 214.99982,64.333039 217.16747,64.332739 219.33512,64.33244 222.66787,62.666065 226.0002,62.666165 229.33253,62.666265 232.66707,64.333535 235.08019,65.726759 237.49331,67.119984 238.66683,68.000122 239.83326,70.332836 240.9997,72.66555 241.99982,76.332656 242.9999,79.332968 243.99998,82.33328 244.99979,84.666184 245.66654,87.16627 246.33329,89.666356 246.66656,92.332472 246.83328,94.165897 247,95.999323 247,97.665667 245.99985,98.832909 244.9997,100.00015 243.0012,100.9994 241.66731,102.33293 240.33341,103.66646 239.66715,105.33212 238.66701,106.3327 237.66688,107.33328 236.33451,107.66637 235.16731,107.83319 234.00012,108 231.66767,108 231.66757,109.50073 231.66748,111.00146 233.33314,113.99966 234.83321,116.99977 236.33328,119.99987 237.66646,122.99954 239.0002,124.83325 240.33394,126.66697 241.66707,127.33353 241.15801,127.96065 240.64894,128.58776 237.66785,129.33304 233.66655,129.49981 229.66524,129.66658 224.33426,129.33339 220.00067,129.1667 215.66708,129 212.33433,129 211.16743,126.49867 210.00053,123.99735 211.00023,118.99885 211.16187,115.93568 211.32351,112.87251 209.99982,110.66638 208.99994,109.16656 208.00006,107.66674 206.99988,106.33317 205.33351,104.83342 203.66714,103.33367 201.33352,101.6668 199.1171,99.413275 196.90068,97.159749 187.66654,84.6665 182,77"
     id="path29"
     inkscape:connector-curvature="0"
     inkscape:path-effect="#path-effect31"
     inkscape:original-d="M 412,115 C 393.001,116.66567 374.001,118.33233 355,120 333.99981,121.66576 313.001,123.33233 292,125 287.33409,124.999 283.33433,124.999 279,125 272.66621,125.66582 266.33433,126.33233 260,127 258.00065,126.33222 256.001,125.66567 254,125 252.33383,121.9981 250.66767,118.999 249,116 252.00066,110.66627 255.001,106.66567 258,102 261.00025,99.666248 263.33433,97.332333 266,95 265.3346,89.33459 264.66767,83.665667 264,78 262.00131,72.333204 260.001,66.665667 258,61 255.0013,59.332503 252.001,57.665667 249,56 245.00055,53.332031 241.001,50.665667 237,48 234.66753,46.332237 232.33433,44.665667 230,43 227.33412,44.332441 224.66767,45.665667 222,47 218.99965,51.667767 216.001,56.332333 213,61 214.00125,62.666082 215.001,64.332333 216,66 219.33492,64.332039 222.66767,62.665667 226,61 229.33313,62.665067 232.66767,64.332333 236,66 237.33417,67.332173 238.66767,67.999 240,69 241.00088,72.665227 242.001,76.332333 243,80 244.00118,82.332764 245.001,84.665667 246,87 246.3344,89.666218 246.66767,92.332333 247,95 247.001,95.999323 247.001,97.665667 247,99 244.9995,99.99975 243.001,100.999 241,102 240.33393,103.66667 239.66767,105.33233 239,107 237.6667,107.33257 236.33433,107.66567 235,108 234.00012,107.999 231.66767,107.999 230,108 231.66867,111.0008 233.33433,113.999 235,117 236.33448,119.99934 237.66767,122.999 239,126 240.33454,126.66577 241.66767,127.33233 243,128 240.66837,128.66547 237.66767,129.33233 235,130 229.66531,129.66552 224.33433,129.33233 219,129 215.66708,128.999 212.33433,128.999 209,129 210.0013,123.9975 211.001,118.999 212,114 211.66774,112.66597 210.001,110.66567 209,109 208.00118,107.6659 207.001,106.33233 206,105 203.66795,103.33253 201.33433,101.66567 199,100 196.66748,97.332117 187.66767,84.665667 182,77" />
  <path
     style="fill:none;stroke:#000000;stroke-width:1px;stroke-linecap:butt;stroke-linejoin:miter;stroke-opacity:1"
     d="M 186.66716,179.33283 C 185,180.66567 185,183.33233 186.35646,185.63506 187.71292,187.9378 189.66686,189.33347 191.83375,190.33346 194.00065,191.33344 196.00081,191.6668 198.07681,193.44801 200.15282,195.22923 201.99985,197.99977 203.33321,201.1663 204.66656,204.33282 205.33318,207.6659 205.83326,211.49966 206.33334,215.33341 206.6666,219.66575 206.8333,224.49961 207,229.33346 207,234.66567 207.57845,239.64664 208.1569,244.62761 208.99982,247.99929 210.41533,251.09815 211.83084,254.19701 213.33325,255.9999 215.33385,255.83272 217.33445,255.66555 219.66767,253.33233 220.67316,247.6674 221.67866,242.00247 221.3333,232.33237 221.16665,223.16615 221,213.99993 221,204.999 219.50016,198.99966 218.00033,193.00033 215,190 210.66685,187.0001 206.3337,184.00019 200.66704,181.0002 196.16724,179.5001 191.66745,178 188.33433,178 186.66716,179.33283 Z"
     id="path33"
     inkscape:connector-curvature="0"
     inkscape:path-effect="#path-effect35"
     inkscape:original-d="M 185,178 C 185.001,180.66567 185.001,183.33233 185,186 187.66867,187.99975 189.66767,189.33233 192,191 194.00084,191.33231 196.001,191.66567 198,192 200.00019,195.33098 202.001,197.999 204,201 204.66772,204.33259 205.33433,207.66567 206,211 206.33441,215.33333 206.66767,219.66567 207,224 207.001,229.33346 207.001,234.66567 207,240 208.00119,244.66654 209.001,247.999 210,252 211.66796,254.33275 213.33433,255.999 215,258 217.33445,255.66555 219.66767,253.33233 222,251 221.66781,242.00286 221.33433,232.33233 221,223 221.001,213.99993 221.001,204.999 221,196 218.00133,192.99933 215.001,189.999 212,187 206.33433,183.999 200.66767,180.999 195,178 191.66745,177.999 188.33433,177.999 185,178 Z" />
  <path
     style="fill:none;stroke:#000000;stroke-width:1px;stroke-linecap:butt;stroke-linejoin:miter;stroke-opacity:1"
     d="M 217.66697,162.83279 C 216.66676,164.66559 216.33343,168.33225 217.50048,171.33316 218.66752,174.33408 221.3334,176.66673 224.3333,179.66662 227.3332,182.66652 230.66662,186.33328 235.16725,187.66653 239.66788,188.99979 245.33447,187.9998 251.16723,186.16657 257,184.33333 263.0012,181.66613 268.28912,179.80495 273.57703,177.94376 277.66784,176.99973 279.50074,179.16526 281.33365,181.33079 280.6668,186.66556 280.00009,191.49933 279.33337,196.3331 278.66684,200.66554 278.33342,204.83279 278,209.00004 278,212.999 275.16656,215.83287 272.33311,218.66673 266.66786,220.33298 260.00036,221.8332 253.33286,223.33342 245.66781,224.66647 240.50093,225.49986 235.33405,226.33324 232.66778,226.66653 232.16748,228.16701 231.66719,229.6675 233.33316,232.33306 236.20126,234.59138 239.06935,236.84971 242.33378,238.33354 244.56674,239.96647 246.7997,241.5994 247.33313,242.66627 247.08356,243.91614 246.83398,245.16601 245.33433,246.66567 245.83462,249.33418 246.3349,252.00269 248.66649,255.99969 250.16653,259.9996 251.66658,263.9995 252.3332,267.99919 248.33297,270.99966 244.33275,274.00014 235.66784,275.99973 229.00087,277.99974 222.33391,279.99975 217.66788,281.99948 215.16732,283.99943 212.66677,285.99938 212.33352,287.99887 212.95364,290.25844 213.57376,292.51801 215.33316,295.33306 217.50055,296.66653 219.66794,298 223.001,298 226.16711,296.33339 229.33322,294.66678 232.66767,291.33233 235.97658,289.36748 239.28549,287.40264 243.33447,286.66646 246.33404,286.33323 249.33361,286 251.66767,286 253.33361,302.15926 254.99954,318.31851 255.99997,350.6657 256,375.33258 256.00003,399.99945 255.00006,416.99894 254.33339,427.83242 253.66672,438.66589 253.33341,443.33226 252.83354,446.49905 252.33366,449.66584 251.66715,451.33212 250.50009,453.16624 249.33303,455.00037 247.66757,456.99892 248.25995,459.58408 248.85232,462.16925 251.99995,465.66661 254.33358,467.66675 256.66721,469.66688 258.33385,470.33354 259.84226,467.79658 261.35068,465.25963 262.66694,459.6655 263.16296,449.84193 263.65898,440.01836 263.33331,426.66569 263.66664,409.66638 263.99998,392.66707 265.00005,372.33228 265.16694,353.50584 265.33382,334.6794 264.66663,317.33237 263.99994,306.1659 263.33326,294.99943 262.66655,289.99915 263.00027,286.66583 263.33398,283.33252 264.66754,281.66557 270.16449,279.9999 275.66144,278.33423 285.33447,276.66647 292.33421,275.49985 299.33395,274.33324 303.6678,273.66649 306.50034,274.1663 309.33289,274.66611 310.66657,276.33321 311.83327,281.49982 312.99997,286.66643 313.9999,295.33246 313.83366,300.4991 313.66741,305.66574 312.33421,307.33224 311.66711,308.83272 311,310.33321 311,311.66567 309.66602,311.99934 308.33204,312.33301 305.66738,311.66684 303.74545,310.98048 301.82352,310.29411 299.66696,309.00018 298.66685,309.99981 297.66673,310.99943 297.33346,313.9989 299.00082,316.83334 300.66819,319.66777 304.33351,322.33346 306.99995,325.99967 309.66638,329.66587 311.33313,334.33276 313.47693,338.35113 315.62072,342.3695 317.66656,344.99986 320.16727,345.83293 322.66799,346.66601 325.33453,345.33273 326.66727,343.66632 328,341.9999 328,339.999 327.68117,335.33296 327.36234,330.66692 326.66659,322.66576 326.33329,314.66621 326,306.66665 326,298.33233 327.44025,292.24583 328.8805,286.15934 332.00084,281.99888 334.08606,279.26739 336.17128,276.5359 337.66754,274.66557 336.90564,273.03938 336.14373,271.41318 333.00034,269.66686 329.50025,268.16679 326.00015,266.66672 322.0006,265.33353 319.1669,264.00005 316.3332,262.66656 314.66679,261.33343 312.33389,261.33316 310.00099,261.33289 307.0012,262.66613 300.99935,263.99992 294.9975,265.3337 286.00112,266.6665 278.83409,267.4999 271.66706,268.33331 266.33439,268.6666 264.3341,265.16533 262.33381,261.66407 263.66688,254.33219 266.00025,248.33256 268.33362,242.33293 271.66748,237.66553 275.83372,234.6661 279.99996,231.66668 285.00118,230.33302 288.83411,229.66651 292.66704,229 295.33433,229 298.33378,228.66668 301.33323,228.33335 304.66782,227.66644 307.00078,227.66665 309.33373,227.66687 310.6665,228.33325 311.33325,227.49946 312,226.66567 312,224.33222 311.00005,222.33282 310.0001,220.33341 307.99964,218.66636 305.33354,217.49993 302.66744,216.33349 299.07954,215.61591 297.53977,214.47412 296,213.33233 296,211.66608 296.50012,208.49912 297.00025,205.33217 297.99997,200.66679 299.66697,196.16613 301.33397,191.66548 303.80551,187.07547 306.06992,183.87057 308.33433,180.66567 310.33289,178.66711 312.66699,176.49977 315.00108,174.33243 317.19662,172.50282 318.76542,170.91753 320.33421,169.33224 321.66764,167.66545 321.50055,166.16611 321.33345,164.66676 319.66665,163.33332 317.66676,161.8334 315.66686,160.33347 313.17553,158.55395 310.75463,157.11041 308.33373,155.66687 305.66707,154.33353 303.16687,152.5001 300.66667,150.66667 298.33214,148.33214 296,147.49923 293.66786,146.66633 291.33352,147.33328 290.16676,148.83281 289,150.33233 289,152.66686 288.66684,154.9995 288.33367,157.33214 287.66634,159.66781 286.83367,160.83391 286.001,162 285.00081,162 281.6676,162.16664 278.33439,162.33327 272.33456,162.6862 266.66783,163.17637 261.0011,163.66654 255.0001,164.33332 249.00055,164.66666 243.001,165 237.01,165 234.005,164.66616 231,164.33233 231,163.66549 229.66702,162.9995 228.33404,162.33351 225.66604,161.66651 223.33352,161.33325 221.001,161 218.66717,161 217.66697,162.83279 Z"
     id="path37"
     inkscape:connector-curvature="0"
     inkscape:path-effect="#path-effect39"
     inkscape:original-d="M 217,161 C 216.66767,164.66567 216.33433,168.33233 216,172 218.66845,174.33302 221.33433,176.66567 224,179 227.33424,182.66557 230.66767,186.33233 234,190 239.66774,188.99899 245.33433,187.999 251,187 256.99979,184.33287 263.001,181.66567 269,179 273.66673,178.33247 277.66767,176.999 282,176 281.33451,181.3309 280.66767,186.66567 280,192 279.33419,196.33323 278.66767,200.66567 278,205 278.001,209.00004 278.001,212.999 278,217 272.33292,218.66608 266.66767,220.33233 261,222 253.33272,223.33261 245.66767,224.66567 238,226 235.33394,226.33238 232.66767,226.66567 230,227 231.66836,229.66677 233.33433,232.33233 235,235 239.0014,236.9992 242.33433,238.33233 246,240 246.66758,241.66546 247.33433,242.66567 248,244 247.0007,245.33273 245.33433,246.66567 244,248 246.33608,252.002 248.66767,255.999 251,260 251.66772,263.99931 252.33433,267.999 253,272 244.33258,273.99941 235.66767,275.999 227,278 222.3337,279.99927 217.66767,281.999 213,284 212.66758,285.99952 212.33433,287.999 212,290 213.33509,292.66718 215.33433,295.33233 217,298 219.66794,297.999 223.001,297.999 226,298 229.33322,294.66678 232.66767,291.33233 236,288 239.33333,287.66577 243.33433,286.66567 247,286 249.33361,285.999 251.66767,285.999 254,286 255.00057,318.31848 256.001,350.66567 257,383 256.00097,399.99951 255.001,416.999 254,434 253.66765,438.66596 253.33433,443.33233 253,448 252.33418,449.66605 251.66767,451.33233 251,453 249.33313,455.00045 247.66767,456.999 246,459 248.66911,462.33414 252.001,465.66567 255,469 256.66769,469.66568 258.33433,470.33233 260,471 261.66715,465.33409 262.66767,459.66567 264,454 264.33426,440.00189 263.33433,426.66567 263,413 264.00093,392.66712 265.001,372.33233 266,352 265.66768,334.66656 264.66767,317.33233 264,300 263.33437,294.99928 262.66767,289.999 262,285 263.33411,283.33262 264.66767,281.66567 266,280 275.6613,278.33343 285.33433,276.66567 295,275 299.33382,274.33241 303.66767,273.66567 308,273 309.33399,274.66523 310.66767,276.33233 312,278 313.00107,286.6663 314.001,295.33233 315,304 313.66753,305.66583 312.33433,307.33233 311,309 311.001,310.33321 311.001,311.66567 311,313 308.33233,312.33183 305.66767,311.66567 303,311 302.00074,309.99874 299.66767,308.999 298,308 297.66761,310.99953 297.33433,313.999 297,317 300.66901,319.66664 304.33433,322.33233 308,325 309.66759,329.66544 311.33433,334.33233 313,339 315.66799,342.33274 317.66767,344.999 320,348 322.66779,346.66561 325.33433,345.33233 328,344 328.001,341.9999 328.001,339.999 328,338 327.33467,330.66933 326.66767,322.66567 326,315 326.001,306.66665 326.001,298.33233 326,290 328.66735,285.99948 332.001,281.999 335,278 336.33396,276.66604 337.66767,274.66567 339,273 336.00298,271.66654 333.001,269.66567 330,268 326.00055,266.66552 322.001,265.33233 318,264 316.33408,262.66547 314.66767,261.33233 313,260 310.00078,261.33243 307.001,262.66567 304,264 294.99738,265.33287 286.001,266.66567 277,268 271.667,268.33237 266.33433,268.66567 261,269 262.3346,261.66421 263.66767,254.33233 265,247 268.33381,242.33306 271.66767,237.66567 275,233 279.99978,231.66599 285.001,230.33233 290,229 292.66704,228.999 295.33433,228.999 298,229 301.33308,228.33258 304.66767,227.66567 308,227 309.33433,227.66567 310.6671,228.33205 312,229 312.001,226.66567 312.001,224.33222 312,222 310.001,220.33233 308.00054,218.66528 306,217 302.66767,216.33233 299.0028,215.9996 296,215 296.001,213.33233 296.001,211.66608 296,210 297.001,205.33233 298.00072,200.66695 299,196 301.33433,191.66567 303.66667,187.00071 306,183 308.33433,180.66567 310.33289,178.66711 313,176 315.001,174.33233 317.33324,172.66676 319,171 320.33433,169.33233 321.66776,167.66554 323,166 321.33433,164.66567 319.66753,163.33223 318,162 315.66767,160.33233 313.33398,158.33213 311,157 308.33433,155.66567 305.66767,154.33233 303,153 300.66767,150.66567 298.33314,148.33114 296,146 293.66767,146.66567 291.33333,147.33262 289,148 289.001,150.33233 289.001,152.66686 289,155 288.33433,157.33233 287.667,159.668 287,162 286.001,161.999 285.00081,161.999 284,162 278.33433,162.33233 272.33336,162.66573 267,163 261.001,163.66567 255,164.33244 249,165 243.001,164.999 237.01,164.999 231,165 231.001,164.33233 231.001,163.66549 231,163 228.33433,162.33233 225.66633,161.66533 223,161 221.001,160.999 218.66717,160.999 217,161 Z" />
  <path
     style="fill:none;stroke:#000000;stroke-width:1px;stroke-linecap:butt;stroke-linejoin:miter;stroke-opacity:1"
     d="M 297,49 C 294.00084,52.99888 291.00084,56.99888 290.00046,60.166192 289.00007,63.333504 289.99979,65.666184 291.83364,67.666683 293.66749,69.667181 296.3336,71.3335 298.16725,72.16675 300.0009,73 301.001,73 301.66695,74.498061 302.3329,75.996122 302.66657,78.999122 301.83359,80.999408 301.00061,82.999695 299.0012,83.9994 297.66724,85.666473 296.33327,87.333545 295.66701,89.665477 294.5002,91.832708 293.33338,93.999939 291.66757,95.998916 289.83374,97.999498 287.99992,100.00008 286.001,101.999 284,104"
     id="path41"
     inkscape:connector-curvature="0"
     inkscape:path-effect="#path-effect43"
     inkscape:original-d="M 297,49 C 294.001,52.999 291.001,56.999 288,61 289.00128,63.332987 290.001,65.665667 291,68 293.66822,69.666012 296.33433,71.332333 299,73 300.0009,72.999 301.001,72.999 302,73 302.334,75.996 302.66767,78.999 303,82 301.00041,82.999293 299.001,83.999 297,85 296.33393,87.333733 295.66767,89.665667 295,92 293.33348,94.000019 291.66767,95.999 290,98 287.99992,100.00008 286.001,101.999 284,104" />
  <path
     style="fill:none;stroke:#000000;stroke-width:1px;stroke-linecap:butt;stroke-linejoin:miter;stroke-opacity:1"
     d="M 297,49 C 304.33359,53.66683 311.66693,58.333499 317.33355,61.833466 323.00017,65.333433 327.00031,67.666848 329.3334,70.999508 331.66649,74.332169 332.33321,78.66584 332.33345,81.665808 332.33369,84.665777 331.66715,86.332125 329.49944,88.83346 327.33172,91.334796 323.66771,94.665715 319.16699,98.333007 314.66627,102.0003 309.33445,105.99916 302.50028,110.33307 295.66611,114.66698 287.33452,119.33267 284.00086,118.33194 280.6672,117.3312 282.33363,110.66549 284,104"
     id="path45"
     inkscape:connector-curvature="0"
     inkscape:path-effect="#path-effect47"
     inkscape:original-d="M 297,49 C 304.33433,53.665667 311.66767,58.332333 319,63 323.00086,65.332251 327.001,67.665667 331,70 331.66761,74.331996 332.33433,78.665667 333,83 332.33421,84.665985 331.66767,86.332333 331,88 327.33168,91.334747 323.66767,94.665667 320,98 314.66615,102.00014 309.33433,105.999 304,110 295.66592,114.66665 287.33433,119.33233 279,124 280.6679,117.33138 282.33433,110.66567 284,104" />
  <path
     style="fill:none;stroke:#000000;stroke-width:1px;stroke-linecap:butt;stroke-linejoin:miter;stroke-opacity:1"
     d="M 183.33362,283.99953 C 181.33351,285.3322 180.66684,289.66554 181.83381,293.33316 183.00078,297.00078 186,300 188.16658,304.33297 190.33316,308.66594 191.6665,314.33261 191.83328,319.99943 192.00007,325.66625 191.0002,331.33219 190.35399,335.33501 189.70777,339.33782 189.33347,342.33222 188.33356,343.66611 187.33364,345 185.66767,345 184.66712,346.66712 183.66658,348.33424 183.33344,351.66558 184.3337,354.9999 185.33396,358.33422 187.66653,361.66647 190.00027,360.6658 192.334,359.66514 194.6672,354.33212 196.95833,347.48848 199.24947,340.64484 201.66698,331.66549 203.16683,323.99932 204.66668,316.33315 205.33344,309.66558 205.83344,305.16576 206.33344,300.66593 206.66683,298.33221 205.13925,296.39603 203.61167,294.45985 199.66712,292.66687 197.31312,291.18289 194.95912,289.6989 193.33324,287.66655 191.00027,286.0001 188.66731,284.33366 185.33373,282.66687 183.33362,283.99953 Z"
     id="path49"
     inkscape:connector-curvature="0"
     inkscape:path-effect="#path-effect51"
     inkscape:original-d="M 182,281 C 181.33433,285.33233 180.66767,289.66567 180,294 183.00178,296.99978 186.001,299.999 189,303 190.33433,308.66567 191.66767,314.33233 193,320 192.00087,325.66639 191.001,331.33233 190,337 189.6676,339.3328 189.33433,342.33233 189,345 187.33364,344.999 185.66767,344.999 184,345 183.66747,348.33433 183.33433,351.66567 183,355 185.3351,358.33342 187.66767,361.66567 190,365 192.33447,359.66534 194.66767,354.33233 197,349 199.33381,340.66755 201.66767,331.66567 204,323 204.66758,316.33324 205.33433,309.66567 206,303 206.33428,300.66605 206.66767,298.33233 207,296 203.66927,294.33313 199.66767,292.66567 196,291 195.00088,289.6655 193.33433,287.66567 192,286 188.66791,284.33246 185.33433,282.66567 182,281 Z" />
  <path
     d="M 403.73063,168.31493 C 400.90878,166.06815 398.6,163.52154 398.6,162.6558 398.6,161.79007 400.43282,158.65419 402.67293,155.68718 407.36716,149.46972 410.54642,142.95765 410.57804,139.49516 410.60944,136.05695 404.10062,130.28818 397.55617,127.95386 390.2189,125.33676 384.12349,125.5144 332.1,129.86142 267.25342,135.27992 239.65826,138.90454 213.44223,145.44712 199.78583,148.85526 195.19824,150.57608 181.66902,157.36536 169.58428,163.42977 166.96689,163.6297 161.71973,158.8892 157.2725,154.8714 155.30245,150.86148 155.7732,146.78541 156.05807,144.31886 156.7415,143.7842 161.1,142.61817 169.76955,140.2988 176.26539,137.36086 178.86328,134.58421 180.39707,132.94487 182.07193,129.1427 183.16588,124.81669 184.85801,118.12521 184.86424,117.40247 183.27855,111.75109 181.54102,105.55858 181.10228,91.354302 182.41929,83.932622 L 183.12332,79.965245 188.52761,87.432622 C 191.49997,91.53968 197.20065,98.275 201.19581,102.4 209.37281,110.84277 210.68196,113.37008 209.89964,119.20271 209.02016,125.75966 210.07484,128.16012 214.35779,129.34957 219.16734,130.68527 236.66032,130.70776 240.14541,129.38274 242.70213,128.41067 242.74941,128.26627 241.20947,126.13274 240.32312,124.90473 237.98607,120.79962 236.01603,117.01027 232.41041,110.07493 232.48204,108.46152 236.39762,108.41531 237.11131,108.40689 239.92381,106.17143 242.64762,103.44762 246.96017,99.135066 247.6,97.969913 247.6,94.429132 247.6,89.253538 241.16273,69.203376 238.85003,67.1756 233.70759,62.666713 227.73739,61.283349 219.85,62.773078 214.82296,63.722558 214.39921,62.573452 217.57731,56.610162 220.9293,50.320574 226.24572,45.4 229.6893,45.4 230.59365,45.4 236.7798,48.987883 243.4363,53.373072 253.92153,60.280573 255.86736,61.994106 257.99585,66.194471 261.28514,72.685574 263.6,81.971013 263.6,88.674025 263.6,93.670271 263.19112,94.682777 259.01427,100.02968 252.90198,107.85419 250.6,112.5346 250.6,117.13766 250.6,121.72608 252.49436,124.69939 256.46582,126.34442 260.67847,128.08936 295.40852,125.88685 391.2612,117.79598 L 411.42241,116.09418 417.01997,122.14022 C 420.94144,126.37587 425.01498,129.43354 430.62412,132.35174 438.7147,136.56092 442.30269,140.12644 441.23851,142.89965 440.91874,143.73295 438.53376,145.64892 435.93855,147.15737 428.83897,151.28395 423.28219,156.71879 420.13759,162.6116 414.23325,173.67603 411.60942,174.58812 403.73063,168.31493 Z"
     id="path53"
     inkscape:connector-curvature="0" />
  <path
     d="M 283.34102,116.16749 C 283.04028,115.38377 283.1989,112.57637 283.69352,109.92882 284.369,106.31315 285.6906,103.94147 289.00363,100.39958 291.42957,97.80605 294.41674,93.707655 295.64179,91.292036 296.86684,88.876416 299.1586,85.421842 300.73458,83.615204 305.27683,78.40816 304.37333,74.910474 297.33264,70.445402 291.01892,66.441355 289.74138,63.615868 292.00368,58.659531 292.94749,56.591789 294.5515,53.888612 295.56814,52.652471 L 297.41658,50.404943 310.97824,58.986233 C 326.63518,68.893336 330.17471,72.381163 331.14622,78.859624 331.94503,84.186516 330.97332,86.062292 324.04729,92.563315 308.77202,106.90123 285.06124,120.6503 283.34102,116.16749 Z"
     id="path55"
     inkscape:connector-curvature="0" />
  <path
     d="M 117.9997,237.63469 C 115.1327,235.72034 113.56349,228.57801 115.38174,225.71891 115.79485,225.06931 118.15046,224.39431 120.61643,224.21891 L 125.1,223.9 125.91754,206.9 C 126.98269,184.75123 126.06829,179.24719 119.10797,165.91119 111.82773,151.96225 110.308,146.85353 110.76233,137.85658 111.28467,127.51274 112.4721,126.84884 117.41965,134.13442 119.63384,137.39497 124.92845,143.85108 129.18544,148.48134 144.8949,165.56826 146.08972,176.39725 135.90695,209.4 130.2163,227.84361 128.04251,232.84987 124.3902,235.92308 121.33598,238.49304 119.87231,238.88506 117.9997,237.63469 Z"
     id="path57"
     inkscape:connector-curvature="0" />
  <path
     d="M 253.05943,464.92566 C 249.0809,460.7072 248.82467,458.63307 251.5791,452.94318 254.57882,446.74657 255.65132,431.58289 256.28555,386.4 257.05345,331.6942 255.03338,293.80692 251.02041,287.65 248.35377,283.55871 238.89657,285.56412 230.68421,291.96231 225.63133,295.89897 222.74647,296.90456 219.11819,295.99392 216.66001,295.37696 213.6,290.92403 213.6,287.96385 213.6,285.2919 220.67779,281.6975 234.27834,277.46254 245.23054,274.05222 247.90447,272.82686 250.10757,270.20863 253.20439,266.52828 253.01746,263.854 249.03378,254.84619 247.20592,250.71306 246.71442,248.307 247.18529,245.79708 247.96045,241.66512 247.01817,240.36865 239.95695,235.85164 234.28745,232.22491 231.5729,228.71417 233.80688,227.89774 234.51809,227.63782 241.175,226.3083 248.6,224.94326 273.52336,220.36126 277.7716,218.10844 278.87754,208.88722 281.81164,184.423 281.94309,182.44841 280.80394,179.94825 279.08054,176.16581 274.13013,176.60939 260.04403,181.80841 239.46632,189.40342 235.36829,189.07819 225.12793,179.03733 218.78751,172.82044 216.76259,168.61381 218.09287,164.42247 218.88657,161.92173 224.63579,161.64868 228.96431,163.90616 232.47383,165.73651 245.89216,165.89163 266.6,164.34125 288.50788,162.70102 287.36022,163.02552 288.63848,158.10997 290.99711,149.03981 291.06759,148.90809 293.72876,148.59705 295.35262,148.40726 297.39999,149.20227 299.21039,150.72562 300.79971,152.06295 304.57506,154.6149 307.60004,156.39663 314.39281,160.39761 320.6,165.24295 320.6,166.54442 320.6,167.08142 317.07456,170.9811 312.7657,175.21039 302.25051,185.53137 295.64778,199.19373 295.61187,210.70503 295.6004,214.38026 295.79614,214.59644 301.35,217.0424 304.5125,218.43518 307.8875,220.28016 308.85,221.14235 310.64913,222.75399 311.36275,227.98944 309.63799,226.92348 309.10889,226.59648 303.1753,227.00801 296.45224,227.838 277.56338,230.1699 270.31433,234.74282 265.44234,247.4 260.89769,259.20677 262.08849,267.4477 268.52521,268.73504 272.43052,269.5161 292.50641,266.94613 303.7526,264.22549 L 312.40521,262.13227 320.2526,265.38671 C 336.80984,272.25326 337.51494,272.9784 333.21422,278.71672 331.90204,280.46752 329.76454,283.925 328.46422,286.4 326.15544,290.79448 326.1,291.50679 326.1,316.77624 326.1,342.48299 326.0853,342.66226 323.85528,344.14471 320.38334,346.45275 317.59614,343.93477 312.31089,333.71542 309.80334,328.86694 306.32741,323.55 304.58658,321.9 300.83367,318.34289 298.25303,313.74656 298.96584,311.88901 299.38922,310.7857 300.25937,310.79418 304.06222,311.93867 306.58442,312.69774 309.27726,313.07734 310.04632,312.78223 314.23406,311.17524 315.76978,297.3233 313.22043,284.15243 311.52729,275.40509 309.7168,273.4 303.51158,273.4 297.41629,273.4 272.85795,277.91286 267.68103,279.98425 262.01435,282.25161 261.4287,284.70155 262.72511,300.71622 264.05497,317.14402 264.0763,365.36266 262.77718,418.4 261.78014,459.10443 260.97782,467.10739 257.78746,468.17085 257.08972,468.40343 254.96211,466.94309 253.05943,464.92566 Z"
     id="path59"
     inkscape:connector-curvature="0" />
  <path
     d="M 212.20445,252.15 C 209.69246,248.22951 208.69595,242.35112 207.66977,225.4 206.20275,201.16678 203.75344,195.04514 193.43188,189.81481 188.35158,187.24043 185.8605,183.7695 186.98674,180.83454 187.92403,178.39202 194.25292,179.46228 202.30085,183.42426 209.75788,187.09535 215.04533,191.42671 217.23224,195.65572 220.87172,202.6937 221.64541,246.62936 218.22188,251.85434 216.16206,254.99802 214.09437,255.09962 212.20445,252.15 Z"
     id="path61"
     inkscape:connector-curvature="0" />
  <path
     d="M 186.12568,356.44966 C 183.85902,352.06642 184.24892,348.82811 187.43587,345.5679 189.83046,343.11827 190.47434,341.25335 191.57378,333.58294 193.67299,318.93745 192.70218,311.71748 187.2218,301.2168 180.58373,288.49793 181.15389,281.34129 188.43021,286.04893 198.31281,292.44278 204.19159,296.70573 204.91908,298.00568 206.14808,300.20178 202.09533,326.42065 198.70705,338.19376 195.09383,350.74849 191.20748,359.4 189.181,359.4 188.3397,359.4 186.9648,358.07235 186.12568,356.44966 Z"
     id="path63"
     inkscape:connector-curvature="0" />
</svg>
