<?xml version="1.0" encoding="UTF-8" standalone="no"?>
<!-- Created with Inkscape (http://www.inkscape.org/) -->

<svg
   xmlns:dc="http://purl.org/dc/elements/1.1/"
   xmlns:cc="http://creativecommons.org/ns#"
   xmlns:rdf="http://www.w3.org/1999/02/22-rdf-syntax-ns#"
   xmlns:svg="http://www.w3.org/2000/svg"
   xmlns="http://www.w3.org/2000/svg"
   xmlns:sodipodi="http://sodipodi.sourceforge.net/DTD/sodipodi-0.dtd"
   xmlns:inkscape="http://www.inkscape.org/namespaces/inkscape"
   width="512"
   height="512"
   viewBox="0 0 512 512"
   version="1.1"
   id="svg8"
   inkscape:version="0.92.4 (5da689c313, 2019-01-14)"
   sodipodi:docname="方U+65B9-2.svg">
  <defs
     id="defs2">
    <inkscape:path-effect
       effect="bspline"
       id="path-effect35"
       is_visible="true"
       weight="33.333333"
       steps="2"
       helper_size="0"
       apply_no_weight="true"
       apply_with_weight="true"
       only_selected="false" />
    <inkscape:path-effect
       effect="bspline"
       id="path-effect31"
       is_visible="true"
       weight="33.333333"
       steps="2"
       helper_size="0"
       apply_no_weight="true"
       apply_with_weight="true"
       only_selected="false" />
    <inkscape:path-effect
       effect="bspline"
       id="path-effect27"
       is_visible="true"
       weight="33.333333"
       steps="2"
       helper_size="0"
       apply_no_weight="true"
       apply_with_weight="true"
       only_selected="false" />
    <inkscape:path-effect
       effect="bspline"
       id="path-effect23"
       is_visible="true"
       weight="33.333333"
       steps="2"
       helper_size="0"
       apply_no_weight="true"
       apply_with_weight="true"
       only_selected="false" />
  </defs>
  <sodipodi:namedview
     id="base"
     pagecolor="#ffffff"
     bordercolor="#666666"
     borderopacity="1.0"
     inkscape:pageopacity="0.0"
     inkscape:pageshadow="2"
     inkscape:zoom="1"
     inkscape:cx="400"
     inkscape:cy="217.14286"
     inkscape:document-units="px"
     inkscape:current-layer="svg8"
     showgrid="false"
     units="px"
     inkscape:window-width="1920"
     inkscape:window-height="1001"
     inkscape:window-x="-9"
     inkscape:window-y="-9"
     inkscape:window-maximized="1" />
  <metadata
     id="metadata5">
    <rdf:RDF>
      <cc:Work
         rdf:about="">
        <dc:format>image/svg+xml</dc:format>
        <dc:type
           rdf:resource="http://purl.org/dc/dcmitype/StillImage" />
        <dc:title></dc:title>
      </cc:Work>
    </rdf:RDF>
  </metadata>
  <g
     inkscape:label="圖層 1"
     inkscape:groupmode="layer"
     id="layer1"
     transform="translate(0,-161.53331)" />
  <path
     style="fill:none;stroke:#000000;stroke-width:1px;stroke-linecap:butt;stroke-linejoin:miter;stroke-opacity:1"
     d="M 202.33392,86.833288 C 200.00006,88.666722 203.00006,91.333388 207.50009,94.666731 212.00011,98.000073 218.00023,102.00015 223.23733,105.91769 228.47442,109.83522 233.33341,114.00007 237.16675,117.16673 241.00009,120.3334 244.00014,122.66678 246.3333,124.99991 248.66646,127.33304 250.3332,129.66648 250.83354,131.49936 251.33388,133.33224 250.66727,134.66547 252.33695,135.17863 254.00663,135.6918 258.66774,135.33325 262.00075,133.99975 265.33376,132.66624 267.66767,130.33233 269.16712,127.16645 270.66657,124.00058 271.33352,119.99887 270.83357,115.33321 270.33361,110.66755 268.66647,105.3327 266.28945,101.74008 263.91242,98.147452 260.33363,96.000175 256.16674,93.500044 251.99985,90.999912 247.00029,88.000176 240.6684,86.151748 234.33651,84.303319 227.33423,83.666748 219.83387,83.833363 212.3335,83.999978 204.66778,84.999855 202.33392,86.833288 Z"
     id="path21"
     inkscape:connector-curvature="0"
     inkscape:path-effect="#path-effect23"
     inkscape:original-d="M 197,86 C 200.001,88.665667 203.001,91.332333 206,94 212.00088,97.998917 218.001,101.999 224,106 228.33417,109.99885 233.33433,113.999 238,118 241.00095,120.33229 244.001,122.66567 247,125 248.66759,127.33223 250.33433,129.66567 252,132 251.33428,133.33244 250.66767,134.66567 250,136 254.0046,135.66537 258.66767,135.33233 263,135 265.33376,132.66624 267.66767,130.33233 270,128 270.66738,124.00071 271.33433,119.999 272,116 270.33481,110.66718 268.66767,105.33233 267,100 264.00135,97.999235 260.33433,95.999 257,94 252.00056,90.998735 247.001,87.999 242,85 234.33388,84.332294 227.33433,83.665667 220,83 212.33339,83.999123 204.66767,84.999 197,86 Z" />
  <path
     style="fill:none;stroke:#000000;stroke-width:1px;stroke-linecap:butt;stroke-linejoin:miter;stroke-opacity:1"
     d="M 65.667109,185.33283 C 63.000483,186.99879 61.000483,191.99879 60.833676,196.16627 60.66687,200.33374 62.333135,203.66627 63.166567,207.33287 64,210.99948 64,214.999 64.333323,218.16613 64.666646,221.33326 65.333146,223.66601 67.33397,225.49996 69.334794,227.33392 72.667185,228.66687 76.000589,228.33324 79.333993,227.9996 82.667843,225.99929 88.333114,223.33332 93.998384,220.66734 102.00121,217.33283 111.31202,213.61038 120.62283,209.88793 130.66788,205.99953 144.19724,201.78093 157.7266,197.56233 173.66785,193.33302 188.83402,189.16648 204.00018,184.99995 218.00119,180.99966 232.00057,177.6665 245.99996,174.33334 260.00115,171.66645 275.66707,169.49991 291.333,167.33337 308.66776,165.66656 323.66734,164.49994 338.66692,163.33332 351.33438,162.66661 363.16723,162.33331 375.00009,162 385.33433,162 395.33368,163.66661 405.33303,165.33322 414.66724,168.66687 421.74274,171.88216 428.81825,175.09745 433.33358,178.00016 438.5003,180.33346 443.66701,182.66677 449.33398,184.33352 453.16737,185.16676 457.00077,186 459.001,186 460.50048,184.66673 461.99995,183.33346 463.00045,180.66546 462.00083,177.16694 461.00122,173.66842 457.99985,169.33312 453.36019,165.12573 448.72052,160.91834 441.66691,156.33349 433.50031,153.00012 425.3337,149.66675 415.66739,147.33351 406.0005,146.16675 396.33362,145 386.66767,145 376.66573,145.48451 366.66378,145.96902 355.66775,146.9999 342.66697,148.16664 329.66619,149.33337 314.33441,150.66657 299.16722,152.16662 284.00004,153.66666 269.0011,155.33321 253.67211,157.52807 238.34312,159.72294 223.33447,162.33314 207.00052,166.16658 190.66657,170.00003 173.33452,174.99966 157.66737,179.16647 142.00021,183.33328 128.00117,186.66639 117.1675,188.99982 106.33383,191.33325 98.667806,192.66647 93.500724,192.99994 88.333642,193.33341 85.667374,192.66684 83.000135,191.49995 80.332897,190.33306 77.666938,188.66684 74.666833,187.0001 71.666728,185.33336 68.333734,183.66687 65.667109,185.33283 Z"
     id="path25"
     inkscape:connector-curvature="0"
     inkscape:path-effect="#path-effect27"
     inkscape:original-d="M 65,182 C 63.001,186.999 61.001,191.999 59,197 60.668069,200.33314 62.334333,203.66567 64,207 64.001,210.99948 64.001,214.999 64,219 64.667833,221.33292 65.334333,223.66567 66,226 69.335277,227.33271 72.667667,228.66567 76,230 79.333816,227.99931 82.667667,225.999 86,224 93.998176,220.66684 102.001,217.33233 110,214 120.66606,209.9996 130.66767,205.999 141,202 157.66572,197.33288 173.66767,193.33233 190,189 203.99999,184.99929 218.001,180.999 232,177 245.99981,174.33256 260.001,171.66567 274,169 291.33291,167.33247 308.66767,165.66567 326,164 338.66687,163.33238 351.33433,162.66567 364,162 375.00009,161.999 385.33433,161.999 396,162 405.33346,165.33202 414.66767,168.66567 424,172 428.66738,175.33213 433.33433,177.999 438,181 443.66736,182.66558 449.33433,184.33233 455,186 457.00077,185.999 459.001,185.999 461,186 462.0005,183.33367 463.001,180.66567 464,178 461.00236,173.66763 458.001,169.33233 455,165 448.66797,160.99919 441.66767,156.33233 435,152 425.33398,149.66558 415.66767,147.33233 406,145 396.33362,144.999 386.66767,144.999 377,145 366.6666,145.9991 355.66767,146.999 345,148 329.66611,149.33247 314.33433,150.66567 299,152 283.99994,153.66578 269.001,155.33233 254,157 238.33319,159.66586 223.33433,162.33233 208,165 190.66638,169.99937 173.33433,174.999 156,180 142.00004,183.33256 128.001,186.66567 114,190 106.33369,191.33244 98.667667,192.66567 91,194 88.333937,193.33223 85.667667,192.66567 83,192 80.333628,190.33189 77.667667,188.66567 75,187 71.66733,185.33216 68.334333,183.66567 65,182 Z" />
  <path
     style="fill:none;stroke:#000000;stroke-width:1px;stroke-linecap:butt;stroke-linejoin:miter;stroke-opacity:1"
     d="M 256.33351,190.83299 C 254.33325,191.66577 254.66658,195.33243 255.41338,197.93966 256.16017,200.54689 256.99988,201.66651 258.33331,203.49997 259.66673,205.33342 261.3332,207.66648 261.99998,210.33281 262.66676,212.99914 262.33346,215.9989 261.04231,219.42703 259.75116,222.85515 257.33402,226.99882 254.56485,232.36394 251.79568,237.72907 248.33391,244.9988 243.16675,253.49969 237.9996,262.00058 231.0008,271.99886 223.66707,281.83276 216.33333,291.66667 208.66754,301.33223 201.16716,310.16605 193.66679,318.99987 186.33429,326.99896 178.33379,334.49949 170.3333,342.00003 161.66776,348.99911 153.66727,355.83284 145.66678,362.66656 138.33438,369.33238 130.80057,374.5995 123.26676,379.86662 115.0012,383.9994 107.83406,387.6663 100.66692,391.3332 94.334527,394.66604 90.111326,397.08726 85.888125,399.50848 83.33447,401.33252 85.169277,401.49914 87.004083,401.66576 93.001165,400.33307 99.333856,398.83322 105.66655,397.33336 112.33451,395.66637 120.43233,392.36849 128.53016,389.07061 138.33453,383.99938 147.00064,377.83299 155.66674,371.66659 163.33435,364.33236 172.33369,356.16631 181.33302,348.00027 191.66773,338.99907 200.66725,329.83281 209.66677,320.66654 217.33423,311.33225 224.0005,302.33271 230.66677,293.33318 236.33409,284.66551 243.00027,274.99957 249.66646,265.33363 257.33415,254.66554 263.04447,246.36022 268.75479,238.05491 273.00074,231.33216 276.00061,226.83243 279.00047,222.3327 281.00084,219.66555 283.4067,219.91484 285.81256,220.16413 288.33328,222.99994 290.00011,222.99936 291.66694,222.99878 292.33359,219.99884 291.66713,217.16652 291.00066,214.33421 288.99988,211.66651 286.5001,209.16671 284.00032,206.66692 281.00014,204.33344 277.66674,201.83339 274.33334,199.33334 270.66685,196.6668 266.66688,194.33345 262.6669,192.00011 258.33377,190.0002 256.33351,190.83299 Z"
     id="path29"
     inkscape:connector-curvature="0"
     inkscape:path-effect="#path-effect31"
     inkscape:original-d="M 254,188 C 254.33433,191.66567 254.66767,195.33233 255,199 256.00125,200.66608 257.001,201.66567 258,203 259.66787,205.33261 261.33433,207.66567 263,210 262.66764,212.99924 262.33433,215.999 262,219 260.00027,223.00046 257.33433,226.999 255,231 251.66668,237.66764 248.33433,244.999 245,252 237.9998,262.00072 231.001,271.999 224,282 216.33346,291.66677 208.66767,301.33233 201,311 193.66683,318.99991 186.33433,326.999 179,335 170.3332,341.99991 161.66767,348.999 153,356 145.66674,362.66651 138.33433,369.33233 131,376 123.33324,379.99957 115.001,383.999 107,388 100.66672,391.33283 94.334333,394.66567 88,398 86.000623,399.66598 83.334333,401.33233 81,403 87.003919,401.66502 93.001,400.33233 99,399 105.66637,397.33266 112.33433,395.66567 119,394 128.66596,389.33316 138.33433,383.999 148,379 155.66672,371.66657 163.33433,364.33233 171,357 181.33296,348.0002 191.66767,338.999 202,330 209.66688,320.66663 217.33433,311.33233 225,302 230.66701,293.33334 236.33433,284.66567 242,276 249.66664,265.33376 257.33433,254.66567 265,244 268.66728,237.99964 273.001,231.33233 277,225 279.00063,222.33282 281.001,219.66567 283,217 285.99974,219.99774 288.33433,222.999 291,226 291.66768,222.99894 292.33433,219.999 293,217 291.00178,214.33337 289.001,211.66567 287,209 284.00118,206.66581 281.001,204.33233 278,202 274.33416,199.33221 270.66767,196.66567 267,194 262.66746,191.9989 258.33433,189.999 254,188 Z" />
  <path
     style="fill:none;stroke:#000000;stroke-width:1px;stroke-linecap:butt;stroke-linejoin:miter;stroke-opacity:1"
     d="M 307.33361,225.33288 C 305.33348,226.99889 304.66682,231.99889 305.00012,236.16622 305.33342,240.33356 306.66646,243.66615 308.66697,245.99995 310.66748,248.33374 313.33373,249.66687 315.83336,251.49992 318.33298,253.33298 320.66667,255.66667 322.16659,258.33296 323.6665,260.99926 324.33317,263.99926 323.43325,267.96631 322.53332,271.93336 319.66727,277.66547 316.00011,284.49975 312.33295,291.33402 307.66733,299.66548 300.89564,309.58573 294.12395,319.50599 285.00086,331.33222 277.66735,339.66588 270.33385,347.99955 264.66773,352.99906 259.33395,357.49947 254.00016,361.99987 249.0011,365.99912 245.66753,367.99956 242.33397,370 240.66767,370 238.49974,368.83266 236.3318,367.66533 233.66674,365.3334 231.33325,362.49984 228.99977,359.66629 226.99982,356.33304 224.6666,351.99989 222.33337,347.66674 219.66647,342.33293 218.00002,341.66575 216.33357,340.99857 215.66686,344.99886 216.00019,349.4998 216.33353,354.00073 217.66648,358.99932 219.33328,363.6664 221.00007,368.33348 222.9998,372.66623 223.9999,375.83271 225,378.9992 225,380.33233 225,382.33303 225,384.33373 225,386.66567 224.49996,389.49962 223.99993,392.33357 223.00036,395.66548 221.88032,399.34728 220.76028,403.02907 219.3337,407.66548 220.6679,409.83274 222.0021,412 226.001,412 230.6671,411.16669 235.3332,410.33338 240.66786,408.66629 246.33383,405.83321 251.9998,403.00013 258.00115,398.99923 265.0003,392.83324 271.99944,386.66725 280.00098,378.33231 288.33376,369.33289 296.66655,360.33346 305.33427,350.66562 313.57059,341.2505 321.8069,331.83538 329.33425,322.99893 333.83389,316.33246 338.33354,309.66599 339.66704,305.33213 341.50043,302.33256 343.33383,299.33298 345.6678,297.66586 349.00012,295.99977 352.33244,294.33368 356.66787,292.6662 360.6673,290.33307 364.66674,287.99994 368.33442,284.99911 369.83725,281.18982 371.34008,277.38053 370.66655,272.66583 368.8335,268.49986 367.00045,264.33388 363.99991,260.66656 360.33338,256.83336 356.66684,253.00016 352.33337,249.00004 347.00015,245.16676 341.66693,241.33348 335.33365,237.66685 330.00023,234.6668 324.66681,231.66674 320.33369,229.33352 316.50024,227.33346 312.66679,225.3334 309.33373,223.66687 307.33361,225.33288 Z"
     id="path33"
     inkscape:connector-curvature="0"
     inkscape:path-effect="#path-effect35"
     inkscape:original-d="M 306,222 C 305.33433,226.999 304.66767,231.999 304,237 305.33463,240.33308 306.66767,243.66567 308,247 310.66808,248.33254 313.33433,249.66567 316,251 318.33398,253.33198 320.66767,255.66567 323,258 323.66767,260.999 324.33433,263.999 325,267 322.66709,272.00024 319.66767,277.66567 317,283 312.33328,291.33421 307.66767,299.66567 303,308 294.3331,319.66733 285.001,331.33233 276,343 270.33379,347.99948 264.66767,352.999 259,358 254.00007,361.99975 249.001,365.999 244,370 242.33397,369.999 240.66767,369.999 239,370 236.33273,367.66427 233.66767,365.33233 231,363 229.00095,359.66558 227.001,356.33233 225,353 222.33457,347.66614 219.66767,342.33233 217,337 216.33438,340.9987 215.66767,344.999 215,349 216.33471,354.00042 217.66767,358.999 219,364 221.00127,368.33293 223.001,372.66567 225,377 225.001,378.9992 225.001,380.33233 225,382 225.001,384.33373 225.001,386.66567 225,389 224.00057,392.33376 223.001,395.66567 222,399 220.66719,403.00043 219.33433,407.66567 218,412 222.0021,412.33243 226.001,411.999 230,412 235.333,410.33275 240.66767,408.66567 246,407 251.99965,402.9999 258.001,398.999 264,395 271.99946,386.66727 280.001,378.33233 288,370 296.66661,360.33352 305.33433,350.66567 314,341 322.00013,331.99998 329.33433,322.999 337,314 338.33417,309.66618 339.66767,305.33233 341,301 343.33369,299.33279 345.66767,297.66567 348,296 352.33223,294.33314 356.66767,292.66567 361,291 364.66665,287.99984 368.33433,284.999 372,282 371.66777,277.33372 370.66767,272.66567 370,268 367.00154,264.33299 364.001,260.66567 361,257 356.6678,252.99912 352.33433,248.999 348,245 341.66761,241.3323 335.33433,237.66567 329,234 324.66745,231.66555 320.33433,229.33233 316,227 312.66739,225.3322 309.33433,223.66567 306,222 Z" />
  <path
     d="M 251.9947,132.50714 C 250.12434,126.47412 239.46682,116.57804 218.6,101.4984 207.4796,93.462123 202.6,89.378564 202.6,88.108596 202.6,84.660481 232.76605,84.424868 242.51945,87.796803 245.50015,88.827287 251.55251,91.939924 255.96914,94.713776 265.98387,101.0035 268.90745,105.79254 269.39897,116.71287 269.77669,125.10485 267.81438,129.6003 262.53834,132.42988 258.08973,134.81569 252.72258,134.85502 251.9947,132.50714 Z"
     id="path37"
     inkscape:connector-curvature="0" />
  <path
     d="M 70.1,226.04933 C 66.765922,224.13723 65.812559,222.07746 65.111611,215.27174 64.742581,211.68871 63.764826,206.01643 62.938823,202.66667 61.121345,195.29611 62.320251,189.14177 66.049585,186.69822 68.287181,185.23209 68.872222,185.37169 76.443307,189.17836 80.855772,191.3969 86.197106,193.48889 88.312939,193.82723 96.416019,195.12297 112.79163,191.52265 195.2941,170.3065 231.751,160.93132 258.31492,156.96832 330.6,150.12058 368.38939,146.54069 402.24995,145.69801 413.1,148.0674 434.82464,152.81156 451.71376,162.05971 458.66231,173.01645 463.19901,180.17008 462.28383,184.26278 456.15,184.25157 450.92037,184.242 445.61835,182.3343 429.40829,174.62972 409.15716,165.00444 398.98051,162.30518 380.1,161.55115 347.17801,160.23634 281.25559,166.35494 243.31245,174.24709 228.74591,177.27692 178.27082,190.70681 150.6,198.91506 133.0541,204.11987 107.02061,213.87632 89.360083,221.86568 77.269929,227.33508 73.695712,228.11147 70.1,226.04933 Z"
     id="path39"
     inkscape:connector-curvature="0" />
  <path
     d="M 89.127494,398.90703 C 90.212372,398.16447 99.076629,393.3613 108.82584,388.23333 129.02859,377.60691 133.98986,374.07008 160.50028,351.39527 182.78445,332.33525 195.08916,319.67282 211.93327,298.46704 233.37273,271.47599 243.42159,256.26407 256.16489,231.50942 264.37122,215.56812 264.87373,211.77728 259.82485,203.8993 256.27591,198.36173 254.90698,193.55016 256.44334,192.0138 257.93934,190.5178 266.5312,194.94185 276.40443,202.29201 286.57515,209.86364 290.6,214.60385 290.6,219.01067 V 222.3085 L 287.64966,220.78282 C 281.20396,217.44962 281.10566,217.53529 266.45045,239.25714 250.99986,262.15789 223.89269,301.02326 219.37167,306.75714 208.57041,320.45609 198.18537,331.2207 178.1,349.53728 147.9504,377.03181 138.12595,384.10285 119.97897,391.36926 113.03336,394.15041 91.247179,400.25714 88.270811,400.25714 87.657108,400.25714 88.042615,399.64959 89.127494,398.90703 Z"
     id="path41"
     inkscape:connector-curvature="0" />
  <path
     d="M 221.6,407.00396 C 221.6,405.21471 222.5,400.60364 223.6,396.75714 226.64923,386.09455 226.27067,378.91832 222.0876,368.08698 215.41609,350.81223 214.95755,336.84615 221.44099,348.39272 230.51184,364.54728 235.79945,370.25714 241.68849,370.25714 245.37323,370.25714 258.28425,360.51795 270.19054,348.75714 287.30074,331.85601 306.73822,304.80659 318.13538,282.03656 327.39149,263.54408 326.92802,259.16921 314.70752,249.67913 307.93084,244.41657 306.0784,240.93528 306.15115,233.59921 306.21064,227.59992 307.89827,224.9049 310.99118,225.87004 313.80553,226.74825 336.68134,239.55183 343.6,244.12118 346.625,246.11901 352.56746,251.05746 356.80547,255.09551 368.09951,265.85667 371.91793,274.89368 368.19747,282.0568 366.38749,285.54161 362.82186,288.11769 352.91155,293.1005 345.01204,297.07229 340.29138,301.30847 338.4926,306.03963 332.86385,320.84436 273.20969,387.01587 253.83609,399.94506 244.13206,406.42115 234.20573,410.2065 226.85,410.23605 L 221.6,410.25714 Z"
     id="path43"
     inkscape:connector-curvature="0" />
</svg>
