<?xml version="1.0" encoding="UTF-8" standalone="no"?>
<!-- Created with Inkscape (http://www.inkscape.org/) -->

<svg
   xmlns:dc="http://purl.org/dc/elements/1.1/"
   xmlns:cc="http://creativecommons.org/ns#"
   xmlns:rdf="http://www.w3.org/1999/02/22-rdf-syntax-ns#"
   xmlns:svg="http://www.w3.org/2000/svg"
   xmlns="http://www.w3.org/2000/svg"
   xmlns:sodipodi="http://sodipodi.sourceforge.net/DTD/sodipodi-0.dtd"
   xmlns:inkscape="http://www.inkscape.org/namespaces/inkscape"
   width="512"
   height="512"
   viewBox="0 0 512 512"
   version="1.1"
   id="svg8"
   inkscape:version="0.92.4 (5da689c313, 2019-01-14)"
   sodipodi:docname="木U+6728-2.svg">
  <defs
     id="defs2">
    <inkscape:path-effect
       effect="bspline"
       id="path-effect27"
       is_visible="true"
       weight="33.333333"
       steps="2"
       helper_size="0"
       apply_no_weight="true"
       apply_with_weight="true"
       only_selected="false" />
    <inkscape:path-effect
       effect="bspline"
       id="path-effect23"
       is_visible="true"
       weight="33.333333"
       steps="2"
       helper_size="0"
       apply_no_weight="true"
       apply_with_weight="true"
       only_selected="false" />
  </defs>
  <sodipodi:namedview
     id="base"
     pagecolor="#ffffff"
     bordercolor="#666666"
     borderopacity="1.0"
     inkscape:pageopacity="0.0"
     inkscape:pageshadow="2"
     inkscape:zoom="1"
     inkscape:cx="400"
     inkscape:cy="280"
     inkscape:document-units="px"
     inkscape:current-layer="svg8"
     showgrid="false"
     units="px"
     inkscape:window-width="1920"
     inkscape:window-height="1001"
     inkscape:window-x="-9"
     inkscape:window-y="-9"
     inkscape:window-maximized="1" />
  <metadata
     id="metadata5">
    <rdf:RDF>
      <cc:Work
         rdf:about="">
        <dc:format>image/svg+xml</dc:format>
        <dc:type
           rdf:resource="http://purl.org/dc/dcmitype/StillImage" />
        <dc:title></dc:title>
      </cc:Work>
    </rdf:RDF>
  </metadata>
  <g
     inkscape:label="圖層 1"
     inkscape:groupmode="layer"
     id="layer1"
     transform="translate(0,-161.53331)" />
  <path
     style="fill:none;stroke:#000000;stroke-width:1px;stroke-linecap:butt;stroke-linejoin:miter;stroke-opacity:1"
     d="M 114.83362,178.4994 C 112.00057,180.33213 109.00057,186.66547 107.66693,191.33258 106.3333,195.99969 106.66657,198.99912 108.66744,201.16652 110.6683,203.33393 114.33389,204.66687 116.83342,207.66608 119.33294,210.66529 120.66648,215.33267 123.00012,219.4999 125.33376,223.66714 128.66662,227.33328 131.66661,230.83327 134.6666,234.33326 137.33324,237.66655 140.83396,238.6664 144.33468,239.66625 148.66787,238.33296 153.66709,236.49989 158.66631,234.66681 164.33454,232.33284 170.16723,229.8331 175.99993,227.33337 182.0012,224.66613 187.46737,222.09968 192.93354,219.53323 197.33453,217.33273 201.66695,217.16621 205.99937,216.99969 210.0004,219.0002 214.00002,221.83327 217.99965,224.66634 222.00004,228.33337 225.66687,231.00011 229.3337,233.66685 232.66707,235.33353 234.50008,236.66641 236.33309,237.99928 236.66647,238.9994 235.83309,240.66653 234.99972,242.33366 233.00092,244.6656 229.33302,249.00038 225.66513,253.33516 220.33424,259.66559 214.50039,266.33287 208.66654,273.00014 202.33428,279.99895 196.00047,286.99948 189.66667,294 183.33428,300.99895 176.34067,308.00707 169.34707,315.01519 161.00104,322.66571 152.83387,329.49951 144.6667,336.33331 136.33445,342.66582 127.83391,347.99957 119.33337,353.33331 110.66787,357.66607 101.67771,361.0402 92.687551,364.41434 84.001179,366.66636 76.167396,368.49982 68.333612,370.33328 61.66782,371.66644 57.500982,372.99956 53.334145,374.33268 51.667763,375.66579 52.50203,376.66652 53.336298,377.66726 56.667436,378.33349 61.666782,378.66674 66.666128,379 73.334333,379 80.333841,378.5 87.333349,378 94.667783,376.99985 103.16708,375.16663 111.66639,373.33341 121.33452,370.66634 128.00084,367.33289 134.66717,363.99945 138.33429,359.99896 144.99979,354.66662 151.66529,349.33428 161.33447,342.66588 169.06908,336.91474 176.80368,331.1636 183.00108,325.9991 189.5004,319.83303 195.99971,313.66697 203.00098,306.33231 208.66731,300.16597 214.33365,293.99963 218.66759,288.99893 222.33385,284.16605 226.00011,279.33317 229.00075,274.66551 231.33383,270.83253 233.66691,266.99956 235.33399,263.99881 237.3333,263.33248 239.3326,262.66614 241.66686,264.33347 242.167,267.33263 242.66714,270.33179 241.3337,274.66548 240.16512,281.85008 238.99653,289.03468 238.00011,298.99891 237.33339,308.33274 236.66667,317.66657 236.33337,326.33229 236.33336,335.99963 236.33334,345.66697 236.66664,356.33236 236.33336,364.99925 236.00008,373.66615 235.00017,380.33221 234.50008,384.33238 234,388.33256 234,389.66567 234.16729,390.33283 234.33458,391 234.66767,391 233.5051,391.49827 232.34254,391.99655 229.66788,392.99955 225.33295,392.83289 220.99803,392.66623 215.00074,391.3335 210.00048,390.16678 205.00022,389.00005 201.00071,388.00018 198.5443,386.74 196.0879,385.47983 194.99982,383.66638 193.57738,384.21698 192.15494,384.76759 190.00077,387.99885 190.2894,390.30506 190.57804,392.61127 193.3336,394.3335 196.66653,397.9997 199.99946,401.6659 203.99986,407.33313 207.4999,412.49985 210.99994,417.66658 213.99984,422.33308 218.16665,428.66664 222.33347,435.0002 227.66651,442.99977 232.33343,448.33333 237.00035,453.6669 241.00023,456.33349 243.66665,458.83318 246.33307,461.33288 247.66648,463.66635 249.6415,462.87079 251.61652,462.07523 254.3341,457.99885 256.33369,453.66617 258.33329,449.33349 259.66701,444.66548 261.1668,439.49953 262.66659,434.33359 264.33368,428.66548 265.16684,424.49918 266,420.33289 266,417.66567 266,415.33271 266,412.99975 266,410.999 266,409.66584 266,408.33267 266,406.33233 265.35984,405.53813 264.71968,404.74394 262.66744,404.33349 261.16669,403.33296 259.66595,402.33244 258.33324,400.66655 257.66662,395.99972 257,391.33289 257,383.66567 256.66669,372.83327 256.33338,362.00088 255.66662,347.99905 255.00041,334.50802 254.3342,321.01698 253.66662,307.99905 253.33331,298.49925 253,288.99944 253,282.999 253.50012,278.49915 254.00023,273.9993 255.0004,270.9988 256.5003,268.4993 258.0002,265.9998 260.001,263.999 262.08228,264.26157 264.16355,264.52414 265.99993,266.66659 268.66667,269.66667 271.33341,272.66675 274.66662,276.33328 281.1667,283.1667 287.66678,290.00012 297.33332,299.99998 306.91819,308.93229 316.50306,317.8646 326.33343,326.00008 337.41182,334.38849 348.4902,342.7769 360.66687,351.33347 370.16679,358.16676 379.66672,365.00004 386.33349,370.00012 391.667,373.16681 397.0005,376.3335 401.0006,377.66687 406.66692,378.33343 412.33323,379 420.33433,379 428.00054,378.66666 435.66675,378.33333 443.33441,377.66657 450.50061,376.99995 457.66682,376.33332 464.33442,375.66656 470.66729,374.83327 477.00016,373.99997 483.00114,372.99981 487.66742,372.49991 492.3337,372 494.33433,372 494.33437,370.8338 494.3344,369.6676 491.66674,367.3334 488.33343,364.8334 485.00012,362.33341 481.00023,359.66682 478.31698,357.51364 475.63372,355.36046 473.66659,352.9999 467.33392,350.66677 461.00125,348.33364 450.00072,345.66684 438.83361,342.33339 427.66651,338.99994 416.33391,335.0002 404.83357,330.50008 393.33322,325.99995 381.66715,321.00021 371.48736,315.60263 361.30757,310.20504 352.00023,304.00015 342.00012,297.66675 332.00001,291.33334 321.00029,284.66684 311.33348,278.50009 301.66667,272.33333 293.33355,266.66681 286.58322,261.41132 279.83289,256.15583 274.33336,251.00003 270.2446,246.4459 266.15584,241.89177 262.99985,237.33312 261.16653,233.66626 259.3332,229.9994 258.6665,226.99926 257.83329,224.66636 257.00007,222.33346 255.99982,220.66637 255.66659,217.49973 255.33335,214.33309 255.66674,209.6656 256.50013,205.66591 257.33351,201.66622 258.66715,198.33212 261.00019,195.33277 263.33323,192.33342 266.66776,189.66579 272.98013,187.69203 279.29249,185.71828 289.33445,184.33318 296.83414,183.33323 304.33383,182.33327 309.66778,181.66653 316.1669,181.49992 322.66602,181.33331 330.33428,181.66671 336.66722,182.33337 343.00015,183.00003 348.00077,184.00015 351.33392,182.99971 354.66707,181.99927 356.33399,178.99881 357.33365,175.66626 358.3333,172.33371 358.66676,168.66559 358.27363,166.41298 357.8805,164.16037 356.33349,163.00012 352.8256,161.86869 349.3177,160.73727 343.00074,159.3335 338.50042,158.0001 334.00009,156.66671 331.00046,155.33354 326.66686,154.16676 322.33326,152.99999 316.66747,152.00014 312.66732,151.33344 308.66718,150.66674 306.33417,150.33345 303.83387,150.83333 301.33357,151.33321 298.66787,152.66607 296.66753,153.83284 294.66719,154.99961 293.33445,155.99916 290.96151,157.42997 288.58856,158.86078 284.66786,160.99935 280.66712,162.33303 276.66639,163.66671 272.33446,164.33316 269.50074,164.49996 266.66703,164.66676 265.33404,164.33351 264.66702,161.16466 264,157.99582 264,151.999 263.83333,145.99953 263.66667,140.00006 263.33328,133.99906 262.99997,128.16617 262.66666,122.33328 262.33328,116.66573 263.99996,109.99956 265.66664,103.3334 269.33391,95.665465 271.33389,91.498852 273.33388,87.332238 273.66727,86.665466 273.83363,85.167666 274,83.669867 274,81.332333 273.10827,79.401824 272.21653,77.471316 269.33341,75.000069 265.49996,71.499962 261.66651,67.999856 256.33336,63.00003 251.83329,58.1666 247.33321,53.333171 243.66656,48.666536 239.50061,46.999745 235.33466,45.332955 230.66786,46.666326 227.66728,49.499784 224.66669,52.333242 223.3337,56.665473 223.08353,60.082781 222.83336,63.500089 223.33313,64.999399 225.16709,67.16677 227.00104,69.334141 230.00014,71.666774 231.81,75.002867 233.61985,78.33896 234.33321,83.332493 234.99997,90.333291 235.66672,97.334089 236.33327,106.66575 237.16662,114.66612 237.99997,122.6665 238.99987,129.3325 239.49994,135.9995 240,142.6665 240,149.33233 239.50007,154.66588 239.00014,159.99942 238.00029,163.99882 237.33373,166.33224 236.66717,168.66566 236.33393,169.33213 231.65945,170.66774 226.98496,172.00334 218.00116,173.99974 208.00046,176.4999 197.99976,179.00006 187.00118,181.99968 179.21163,184.15383 171.42208,186.30798 166.66786,187.66633 162.66744,188.99976 158.66703,190.33319 155.33454,191.66619 153.00086,192.33309 150.66718,193 149.33433,193 147.81713,193.28335 146.29992,193.56669 144.0012,194.33293 141.23042,193.48635 138.45964,192.63976 134.00023,189.66682 130.83348,187.5001 127.66672,185.33337 125.33352,183.6668 122.83332,181.49996 120.33312,179.33312 117.66667,176.66667 114.83362,178.4994 Z"
     id="path21"
     inkscape:connector-curvature="0"
     inkscape:path-effect="#path-effect23"
     inkscape:original-d="M 115,174 C 112.001,180.33233 109.001,186.66567 106,193 106.3344,195.99957 106.66767,198.999 107,202 110.66874,203.33272 114.33433,204.66567 118,206 119.33413,210.66495 120.66767,215.33233 122,220 125.3348,223.66619 128.66767,227.33233 132,231 134.6677,234.33238 137.33433,237.66567 140,241 144.33449,239.66562 148.66767,238.33233 153,237 158.6661,234.66631 164.33433,232.33233 170,230 175.99972,227.3329 182.001,224.66567 188,222 192.99999,219.66614 197.33433,217.33233 202,215 205.99997,216.99849 210.001,218.999 214,221 218.0006,224.6653 222.001,228.33233 226,232 229.3343,233.66565 232.66767,235.33233 236,237 236.33429,237.99888 236.66767,238.999 237,240 234.9998,242.33373 233.001,244.66567 231,247 225.66522,253.33524 220.33433,259.66567 215,266 208.66659,273.00019 202.33433,279.999 196,287 189.66672,294.00005 183.33433,300.999 177,308 169.33319,315.00005 161.001,322.66567 153,330 144.66658,336.33316 136.33433,342.66567 128,349 119.33317,353.33291 110.66767,357.66567 102,362 92.666375,364.33266 84.001,366.66567 75,369 68.333459,370.33251 61.667667,371.66567 55,373 53.334045,374.33256 51.667667,375.66567 50,377 53.336528,377.66611 56.667667,378.33233 60,379 66.666128,378.999 73.334333,378.999 80,379 87.333233,377.99915 94.667667,376.999 102,376 111.6662,373.33274 121.33433,370.66567 131,368 134.66722,363.99949 138.33433,359.999 142,356 151.66515,349.33407 161.33433,342.66567 171,336 176.667,330.99959 183.001,325.999 189,321 195.99974,313.66699 203.001,306.33233 210,299 214.33373,293.9997 218.66767,288.999 223,284 226.00036,279.33333 229.001,274.66567 232,270 233.66725,266.99975 235.33433,263.999 237,261 239.33341,262.66501 241.66767,264.33233 244,266 242.66777,270.33198 241.33433,274.66567 240,279 238.6673,289.00176 238.001,298.999 237,309 236.66763,317.66661 236.33433,326.33233 236,335 236.33437,345.66694 236.66767,356.33233 237,367 236.00091,373.66627 235.001,380.33233 234,387 234.001,388.33256 234.001,389.66567 234,391 234.33458,390.999 234.66767,390.999 235,391 232.34233,391.996 229.66767,392.999 227,394 220.99829,392.66506 215.001,391.33233 209,390 205.00051,388.99888 201.001,387.999 197,387 196.33422,385.33204 195.001,383.66567 194,382 192.00135,384.6652 190.001,387.999 188,391 190.33523,392.99977 193.33433,394.33233 196,396 200.0006,401.66509 204.001,407.33233 208,413 211.0011,417.66583 214.001,422.33233 217,427 222.33462,434.99943 227.66767,442.999 233,451 237.00112,453.66574 241.001,456.33233 245,459 246.33426,461.3322 247.66767,463.66567 249,466 252.00142,462.33183 254.33433,457.999 257,454 258.33395,449.33368 259.66767,444.66567 261,440 262.66724,434.33378 264.33433,428.66567 266,423 266.001,420.33289 266.001,417.66567 266,415 266.001,412.99975 266.001,410.999 266,409 266.001,408.33267 266.001,406.33233 266,405 264.66867,404.999 262.66767,404.33233 261,404 259.66705,402.33156 258.33433,400.66567 257,399 257.001,391.33289 257.001,383.66567 257,376 256.33442,362.00083 255.66767,347.999 255,334 254.66769,320.99988 253.66767,307.999 253,295 253.001,288.99944 253.001,282.999 253,277 254.00083,273.9995 255.001,270.999 256,268 258.0002,265.9998 260.001,263.999 262,262 264,264.66433 266.001,266.66567 268,269 271.33445,272.6658 274.66767,276.33233 278,280 287.6678,289.99914 297.33433,299.999 307,310 316.66768,317.66568 326.33433,325.999 336,334 348.3342,342.9989 360.66767,351.33233 373,360 379.66756,364.99892 386.33433,369.999 393,375 397.0009,376.3323 401.001,377.66567 405,379 412.33323,379.66557 420.33433,378.999 428,379 435.66667,378.33242 443.33433,377.66567 451,377 457.66673,376.33243 464.33433,375.66567 471,375 477.00002,373.99916 483.001,372.999 489,372 492.3337,371.999 494.33433,371.999 497,372 494.33533,369.66654 491.66767,367.33233 489,365 485.00089,362.33226 481.001,359.66567 477,357 475.66759,355.33224 473.66767,352.999 472,351 461.00154,348.33246 450.001,345.66567 439,343 427.66693,338.99874 416.33433,334.999 405,331 393.33374,325.99875 381.66767,320.999 370,316 361.00063,310.66545 352.001,303.999 343,298 332.00072,291.33216 321.001,284.66567 310,278 301.66745,272.33218 293.33433,266.66567 285,261 279.66753,256.33221 274.33433,250.999 269,246 266.00098,241.99898 263.001,237.33233 260,233 259.33437,229.99914 258.66767,226.999 258,224 257.00125,222.33275 256.001,220.66567 255,219 255.33427,214.33316 255.66767,209.66567 256,205 257.33403,201.66643 258.66767,198.33233 260,195 263.33313,192.3333 266.66767,189.66567 270,187 279.33126,185.99933 289.33433,184.33233 299,183 304.33372,182.33241 309.66767,181.66567 315,181 322.66607,181.33226 330.33433,181.66567 338,182 343.00038,182.99888 348.001,183.999 353,185 354.66741,181.99946 356.33433,178.999 358,176 358.3342,172.33379 358.66767,168.66567 359,165 358.0013,163.9993 356.33433,162.999 355,162 349.33365,160.66551 343.001,159.33233 337,158 334.00063,156.6655 331.001,155.33233 328,154 322.33346,152.99885 316.66767,151.999 311,151 308.66734,150.66562 306.33433,150.33233 304,150 301.33337,151.33281 298.66767,152.66567 296,154 294.66707,154.99945 293.33433,155.999 292,157 288.66487,159.00068 284.66767,160.999 281,163 276.66626,163.66588 272.33433,164.33233 268,165 266.66732,164.66558 265.33433,164.33233 264,164 263.66749,157.99582 264.001,151.999 264,146 263.66772,140 263.33433,133.999 263,128 262.66772,122.33322 262.33433,116.66567 262,111 265.66706,103.3336 269.33433,95.665667 273,88 273.33428,87.332438 273.66767,86.665667 274,86 274.001,83.669867 274.001,81.332333 274,79 272.33505,77.333048 269.33433,74.999 267,73 261.66748,67.998824 256.33433,62.999 251,58 247.33431,53.332304 243.66767,48.665667 240,44 235.33447,45.332295 230.66767,46.665667 226,48 224.66733,52.333437 223.33433,56.665667 222,61 223.3347,63.332977 223.33433,64.999 224,67 227.0019,69.333033 230.001,71.665667 233,74 233.66764,78.332133 234.33433,83.332333 235,88 235.66779,97.334013 236.33433,106.66567 237,116 238.0011,122.66633 239.001,129.33233 240,136 240.001,142.6665 240.001,149.33233 240,156 239.00085,159.9996 238.001,163.999 237,168 236.66757,168.66586 236.33433,169.33233 236,170 226.9848,172.0026 218.001,173.999 209,176 197.99958,178.99939 187.001,181.999 176,185 171.33383,185.99911 166.66767,187.66567 162,189 158.66682,190.33267 155.33433,191.66567 152,193 150.66718,192.999 149.33433,192.999 148,193 146.33308,193.66617 144.001,194.33233 142,195 137.9986,193.33133 134.001,189.66567 130,187 127.66753,185.33224 125.33433,183.66567 123,182 120.33412,179.33212 117.66767,176.66567 115,174 Z" />
  <path
     style="fill:none;stroke:#000000;stroke-width:1px;stroke-linecap:butt;stroke-linejoin:miter;stroke-opacity:1"
     d="M 237.00052,203.49934 C 234.00121,202.33277 229.0012,204.66611 225.33415,205.83305 221.6671,207 219.33433,207 219.24467,207.71833 219.155,208.43667 221.00023,209.66682 223.16681,211.00009 225.33338,212.33336 227.66699,213.66685 230.50032,214.66679 233.33364,215.66673 236.66744,216.33349 238.66736,216.16628 240.66728,215.99908 241.3341,214.99885 241.16755,212.16841 241.00099,209.33797 239.99984,204.66592 237.00052,203.49934 Z"
     id="path25"
     inkscape:connector-curvature="0"
     inkscape:path-effect="#path-effect27"
     inkscape:original-d="M 239,200 C 234.001,202.33233 229.001,204.66567 224,207 221.6671,206.999 219.33433,206.999 217,207 219.00186,208.66638 221.001,209.66567 223,211 225.33406,212.33218 227.66767,213.66567 230,215 233.33387,215.66557 236.66767,216.33233 240,217 240.66751,215.99923 241.33433,214.999 242,214 241.00215,209.33772 240.001,204.66567 239,200 Z" />
  <path
     d="M 239.76885,453.78907 C 232.00616,446.54552 228.40736,441.97034 216.46107,424.15776 208.69086,412.57195 199.9184,400.46571 196.96671,397.25501 191.69305,391.51859 190.76154,389.2724 192.51075,386.51017 193.24186,385.35565 194.14135,385.48365 197.82356,387.26618 207.14108,391.77671 228.86296,394.93519 233.4997,392.45368 234.66514,391.82995 235.31888,390.20693 235.4174,387.69266 235.49961,385.59458 236.01653,379.60792 236.56611,374.38898 237.11569,369.17004 237.57314,354.23701 237.58267,341.20447 237.60176,315.10352 238.71686,298.09799 241.60048,279.93209 243.76685,266.28464 243.18129,263.1422 238.36823,262.58605 235.91725,262.30284 235.02243,263.24421 229.22859,272.20121 214.50135,294.9688 190.19514,319.80535 162.6,340.28356 154.075,346.60992 143.60645,354.61812 139.33657,358.07955 130.13449,365.53931 126.86701,367.29749 115.62028,370.84089 102.20617,375.06715 85.904806,377.48467 70.433578,377.54215 55.875811,377.59624 51.152338,376.61404 56.258684,374.59463 57.821408,373.97662 66.640982,371.64408 75.857738,369.4112 85.074494,367.17832 95.874494,364.18056 99.857738,362.74951 129.0984,352.24429 158.2405,329.75254 195.54304,288.9 211.32999,271.61064 233.51732,245.98201 236.06704,242.09064 238.16464,238.8893 237.26056,236.97818 232.25901,234.04099 229.97156,232.69767 224.95,229.07359 221.1,225.98748 212.45553,219.05819 207.1422,216.39292 202.03428,216.42374 197.98168,216.44818 196.68279,216.93775 173.25891,227.26949 165.64631,230.62723 155.88509,234.5707 151.56733,236.03276 144.58168,238.39819 143.37083,238.54772 140.57601,237.39006 136.18994,235.57329 126.171,223.38005 121.53083,214.21171 118.56257,208.34682 116.58359,205.79677 113.18657,203.45956 110.73733,201.77444 108.45509,199.5188 108.11492,198.44702 106.8384,194.42507 111.90962,181.37503 115.49464,179.45639 117.00178,178.64979 118.16131,179.07474 121.24137,181.5625 123.36362,183.27663 128.42024,186.86631 132.4783,189.53955 141.59518,195.54528 145.40091,195.80669 158.87895,191.35299 171.39356,187.21764 181.71087,184.34342 211.1,176.80512 226.45344,172.86697 236.54719,169.78956 237.25894,168.82971 240.27967,164.75605 241.55535,142.80077 239.63711,127.9 239.14148,124.05 238.01694,113.025 237.13814,103.4 234.87681,78.633169 234.31409,76.352874 228.79345,69.585407 225.12585,65.089481 224.17405,63.159124 224.2441,60.358809 224.47397,51.169218 232.85731,44.848677 239.91574,48.543322 241.11708,49.17215 248.95398,56.48465 257.33107,64.793322 274.87197,82.190952 274.64544,81.64497 269.2518,93.525156 265.37665,102.06067 262.99047,109.226 262.13362,114.9 261.2573,120.70293 263.28663,160.94594 264.57717,163.35734 266.91275,167.72141 280.75922,164.67106 293.6,156.96366 297.725,154.48772 302.31656,152.19186 303.80346,151.86174 307.26553,151.09311 321.41564,153.7194 333.6,157.39204 338.825,158.96698 345.65991,160.96761 348.78868,161.83789 356.48276,163.97803 357.97877,165.61989 357.2277,171.09959 356.41531,177.02658 354.04553,181.25008 351.12036,181.98424 349.77657,182.32151 342.98454,182.03772 336.02697,181.35359 321.51366,179.92652 308.96969,180.4877 290.1,183.40822 274.83935,185.77016 269.16506,187.48365 263.84717,191.33591 258.8031,194.98982 255.59357,202.33664 254.912,211.78909 254.46129,218.03993 254.76673,219.84527 257.43731,226.71532 259.10822,231.01374 261.83805,236.65424 263.50359,239.24975 267.77894,245.91232 279.59348,257.32258 290.9797,265.78568 300.79608,273.08196 359.60164,310.27667 371.6,316.77829 387.78648,325.54935 417.75121,337.04342 446.32932,345.44344 457.60883,348.75885 468.24657,352.19968 469.96876,353.08972 474.00085,355.17355 492.6,369.24227 492.6,370.20838 492.6,371.04926 473.10838,373.73656 451.10827,375.92883 434.13544,377.62014 406.74185,377.93114 401.82919,376.4883 395.76296,374.70667 388.15128,369.90743 365.5797,353.63269 322.89491,322.85575 308.10521,310.21456 281.07539,281.4044 272.28892,272.0392 264.3125,264.12668 263.35,263.821 260.10369,262.79002 257.74506,264.4679 255.16636,269.64267 252.78167,274.42812 252.5984,275.78756 252.5774,288.84634 252.55453,303.07255 254.96868,365.67728 256.40543,388.11607 257.10365,399.02075 257.44316,400.60415 259.56812,402.86607 260.8774,404.25973 262.54519,405.4 263.27431,405.4 264.27513,405.4 264.6,407.56372 264.6,414.22954 264.6,424.53526 259.72308,444.25124 254.72448,454.15341 249.99147,463.52945 250.2131,463.53485 239.76885,453.78907 Z M 240.51537,216.47347 C 243.14064,214.81171 241.49765,205.36702 238.2003,203.16531 236.30026,201.89663 232.47404,202.32523 225.42095,204.59683 221.66943,205.80509 218.6,207.36112 218.6,208.05468 218.6,210.42999 232.35815,217.13753 237.6,217.31779 238.425,217.34616 239.73692,216.96622 240.51537,216.47347 Z"
     id="path29"
     inkscape:connector-curvature="0" />
</svg>
