<?xml version="1.0" encoding="UTF-8" standalone="no"?>
<!-- Created with Inkscape (http://www.inkscape.org/) -->

<svg
   xmlns:dc="http://purl.org/dc/elements/1.1/"
   xmlns:cc="http://creativecommons.org/ns#"
   xmlns:rdf="http://www.w3.org/1999/02/22-rdf-syntax-ns#"
   xmlns:svg="http://www.w3.org/2000/svg"
   xmlns="http://www.w3.org/2000/svg"
   xmlns:sodipodi="http://sodipodi.sourceforge.net/DTD/sodipodi-0.dtd"
   xmlns:inkscape="http://www.inkscape.org/namespaces/inkscape"
   width="512"
   height="512"
   viewBox="0 0 512 512"
   version="1.1"
   id="svg8"
   inkscape:version="0.92.4 (5da689c313, 2019-01-14)"
   sodipodi:docname="此U+6B64-2.svg">
  <defs
     id="defs2">
    <inkscape:path-effect
       effect="bspline"
       id="path-effect27"
       is_visible="true"
       weight="33.333333"
       steps="2"
       helper_size="0"
       apply_no_weight="true"
       apply_with_weight="true"
       only_selected="false" />
    <inkscape:path-effect
       effect="bspline"
       id="path-effect23"
       is_visible="true"
       weight="33.333333"
       steps="2"
       helper_size="0"
       apply_no_weight="true"
       apply_with_weight="true"
       only_selected="false" />
  </defs>
  <sodipodi:namedview
     id="base"
     pagecolor="#ffffff"
     bordercolor="#666666"
     borderopacity="1.0"
     inkscape:pageopacity="0.0"
     inkscape:pageshadow="2"
     inkscape:zoom="1"
     inkscape:cx="400"
     inkscape:cy="280"
     inkscape:document-units="px"
     inkscape:current-layer="svg8"
     showgrid="false"
     units="px"
     inkscape:window-width="1920"
     inkscape:window-height="1001"
     inkscape:window-x="-9"
     inkscape:window-y="-9"
     inkscape:window-maximized="1" />
  <metadata
     id="metadata5">
    <rdf:RDF>
      <cc:Work
         rdf:about="">
        <dc:format>image/svg+xml</dc:format>
        <dc:type
           rdf:resource="http://purl.org/dc/dcmitype/StillImage" />
        <dc:title></dc:title>
      </cc:Work>
    </rdf:RDF>
  </metadata>
  <g
     inkscape:label="圖層 1"
     inkscape:groupmode="layer"
     id="layer1"
     transform="translate(0,-161.53331)" />
  <path
     style="fill:none;stroke:#000000;stroke-width:1px;stroke-linecap:butt;stroke-linejoin:miter;stroke-opacity:1"
     d="M 74.833911,217.66612 C 72.000231,219.99885 71.000231,224.99885 70.666772,228.99933 70.333312,232.99981 70.666569,235.99912 72.000239,238.99993 73.333909,242.00074 75.666559,244.99986 76.666666,247.99945 77.666773,250.99904 77.333455,253.9989 78.167394,255.83301 79.001332,257.66711 81.000599,258.33353 84.333219,259.49995 87.665838,260.66637 92.333902,262.33354 95.333442,265.49949 98.332983,268.66544 99.666477,273.33267 101.36013,280.4585 103.05379,287.58434 104.99984,296.66592 105.99992,303.33262 107,309.99932 107,313.999 108.00015,318.49987 109.00029,323.00073 110.99979,327.99948 112.16651,331.49944 113.33323,334.9994 113.66653,336.99919 111.99965,340.1666 110.33276,343.33401 106.66758,347.66559 101.8335,353.33313 96.999427,359.00067 91.000918,365.99893 86.416949,370.92462 81.83298,375.85032 78.334383,378.99906 75.334023,381.33276 72.333663,383.66646 69.667837,385.3326 69.501067,387.50018 69.334296,389.66777 71.666603,392.33326 74.666738,395.16671 77.666873,398.00017 81.333442,401.00009 84.166596,404.33315 86.999751,407.66621 88.999808,411.33298 91.848711,413.35137 94.697614,415.36976 97.667558,415.66676 100.30392,414.66921 102.94028,413.67167 104.33423,411.99892 106.00016,408.00049 107.66609,404.00206 109.33366,397.99881 111.26969,392.63614 113.20572,387.27346 115.66723,381.99879 118.83365,377.66603 122.00008,373.33326 126.00104,369.66571 129.83398,367.16614 133.66692,364.66658 137.33454,363.3329 139.67363,360.13465 142.01272,356.9364 143.00023,351.99885 144.25873,348.28564 145.51723,344.57243 147.33406,341.6655 151.83264,337.50023 156.33123,333.33496 163.66778,327.66581 171.00059,322.66622 178.3334,317.66663 185.66785,313.33263 196.33339,309.49978 206.99892,305.66692 221.00117,302.33305 233.16741,299.33315 245.33365,296.33325 255.66785,293.66636 264.66741,291.33314 273.66697,288.99992 281.33451,286.99969 287.83116,285.64466 294.3278,284.28963 299.00111,283.66652 302.16728,283.66662 305.33344,283.66672 306.66707,284.33353 307.64338,286.83569 308.61969,289.33786 309.33321,294.33249 309.99996,300.66651 310.66671,307.00053 311.33326,314.99909 312.16661,321.66612 312.99997,328.33315 313.99985,333.66588 317.01392,339.34973 320.02798,345.03358 324.99992,350.9999 331.49998,358.83331 338.00005,366.66673 345.99991,376.33323 355.16672,385.66669 364.33352,395.00016 374.66674,404.00007 384.8335,411.33344 395.00026,418.66681 405.00033,424.33352 412.15455,427.00104 419.30877,429.66856 423.66774,429.33325 426.33401,427.99964 429.00027,426.66603 430.00052,424.33212 429.00096,421.00041 428.00141,417.6687 424.99985,413.33312 418.16704,408.33346 411.33422,403.3338 400.66704,397.66686 392.33351,392.66676 383.99997,387.66665 378.00018,383.33346 371.76346,378.4156 365.52674,373.49773 358.66676,367.66674 352.66664,361.66662 346.66652,355.66649 341.33325,349.33324 337.49987,343.66643 333.6665,337.99963 331.33313,332.99956 329.4999,325.66645 327.66667,318.33333 326.33322,308.66582 325.66661,302.33254 325,295.99926 325,292.33233 325,289.49935 325,286.66637 325,284.33233 325.83356,282.66603 326.66713,280.99972 328.33451,279.9993 332.83183,279.49965 337.32916,279 344.66767,279 355.33343,278.16671 365.99919,277.33343 380.0011,275.66654 393.00063,274.16659 406.00015,272.66665 418.0011,271.33321 425.83429,270.3332 433.66747,269.33319 437.33447,268.66646 441.33369,268.49988 445.3329,268.3333 449.66759,268.66674 452.50048,266.33331 455.33337,263.99988 456.66698,258.99882 456.46182,255.19191 456.25667,251.385 453.99985,247.99977 451.66697,246.00003 449.33409,244.00028 446.66722,243.00021 443.16668,241.33329 439.66614,239.66638 435.33369,237.33352 428.16702,237.50005 421.00035,237.66657 411.00118,240.33302 400.00046,242.8332 388.99973,245.33339 377.00115,247.66644 368.33423,249.33316 359.66731,250.99988 354.33448,251.99979 349.66741,253.33315 345.00035,254.66652 341.00121,256.33283 338.0002,254.99887 334.99919,253.66492 332.99979,249.33289 331.9999,242.6664 331,235.99992 331,226.999 331.94594,216.82389 332.89187,206.64878 335.00019,193.99886 337.33343,181.99942 339.66667,169.99997 342.33359,157.99884 345.33352,147.3326 348.33344,136.66637 351.6671,127.33213 354.27385,121.41233 356.8806,115.49254 359.00084,112.66555 358.3344,109.16695 357.66796,105.66835 354.33322,101.33318 350.83329,96.833272 347.33335,92.333359 343.66656,87.666536 340.49989,82.666477 337.33321,77.666418 334.66647,72.332934 332.66652,68.333034 330.66657,64.333134 329.33313,61.666266 328.0002,59.99995 326.66727,58.333635 325.33373,57.666865 322.50015,58.500128 319.66656,59.33339 315.33452,61.666026 312.39314,64.69091 309.45175,67.715794 307.66717,71.998792 307.50053,74.499608 307.3339,77.000424 308.66683,78.000122 311.83346,79.166739 315.00008,80.333356 320.00068,81.666849 323.33346,84.499527 326.66623,87.332204 328.33313,91.66613 329.3332,95.166132 330.33327,98.666134 330.66656,101.33247 330.4999,105.66666 330.33324,110.00084 329.66679,115.9989 328.50003,122.8329 327.33328,129.66691 325.66692,137.33217 324.00007,147.83321 322.33322,158.33425 320.6668,171.66556 318.35862,187.83693 316.05044,204.00829 313.00017,223.66554 310.28539,237.1504 307.5706,250.63527 305.33371,257.66547 301.16696,262.16604 297.00021,266.66661 291.00119,268.333 283.66695,269.66654 276.33272,271.00007 267.66777,271.99987 259.0006,273.99992 250.33343,275.99997 241.66787,278.99958 234.00073,281.33309 226.33359,283.6666 219.66785,285.33304 215.33425,286.16652 211.00065,287 209.001,287 208.63112,283.68924 208.26124,280.37847 209.66689,272.99885 210.97307,265.66165 212.27926,258.32445 213.66686,249.99886 214.00011,240.99968 214.33337,232.00049 213.6666,221.99907 213.3333,213.16606 213,204.33305 213,196.66567 212.33335,188.83295 211.6667,181.00023 210.3332,172.99919 208.33332,162.49987 206.33345,152.00056 203.66651,138.99924 201.49987,130.66617 199.33323,122.3331 197.66646,118.66622 197.16664,115.16607 196.66681,111.66593 197.33356,108.33218 198.0003,105.99905 198.66704,103.66593 199.33393,102.33213 198.83432,100.50035 198.3347,98.668576 196.66653,96.333145 193.95793,94.072624 191.24932,91.812103 187.00031,89.333515 182.32033,87.378575 177.64036,85.423635 171.66732,83.666859 166.50064,83.333362 161.33396,82.999866 156.66783,83.999751 153.8266,86.867364 150.98536,89.734978 150.00025,94.332172 150.33357,98.166291 150.66689,102.00041 152.33314,104.99966 153.99996,107.4999 155.66678,110.00013 157.33325,111.9999 159.83376,113.33338 162.33427,114.66685 165.66744,115.33349 169.54651,117.02846 173.42558,118.72343 177.66695,121.33351 180.81955,125.95368 183.97216,130.57386 185.99981,137.33269 188.16659,144.49973 190.33337,151.66677 192.66647,159.33269 194.66655,166.66628 196.66663,173.99986 198.33316,180.99928 199.16658,187.66613 200,194.33299 200,200.66567 199.49999,207.99961 198.99997,215.33355 198.00013,223.66557 197.00018,229.49908 196.00022,235.33259 195.00036,238.66548 194.16686,241.83269 193.33335,244.99991 192.66693,247.99883 191.33365,250.16596 190.00038,252.33308 188.00115,253.6659 186.16734,254.4996 184.33352,255.3333 182.66782,255.66644 182.1674,257.50065 181.66697,259.33487 182.33318,262.6659 183.66672,266.16653 185.00027,269.66716 186.99981,273.33298 188.66653,276.6664 190.33326,279.99983 191.66646,282.99954 192.66653,285.83296 193.66659,288.66637 194.33316,291.33262 193.16677,292.9996 192.00038,294.66658 189.00117,295.33307 185.83384,296.83326 182.66651,298.33344 179.33447,300.66587 174.33334,302.49971 169.3322,304.33356 162.66782,305.66644 157.00077,307.66644 151.33371,309.66645 146.66786,312.33265 143.16756,313.99958 139.66726,315.6665 137.33452,316.33299 136.00046,315.16529 134.6664,313.99759 134.33324,310.99912 134.00974,306.83263 133.68624,302.66614 133.33328,296.66573 133.33331,290.6662 133.33333,284.66667 133.66672,278.33228 133.1667,273.16617 132.66669,268.00006 131.33313,263.9994 129.16672,259.83325 127.00031,255.66711 123.99985,251.33312 121.2435,247.28192 118.48715,243.23072 115.66651,238.99977 111.86693,235.76672 108.06735,232.53368 102.33373,229.66687 98.000052,226.49994 93.666372,223.33301 90.33329,219.66662 86.333805,217.66668 82.334321,215.66674 77.667591,215.3334 74.833911,217.66612 Z"
     id="path21"
     inkscape:connector-curvature="0"
     inkscape:path-effect="#path-effect23"
     inkscape:original-d="M 73,215 C 72.001,219.999 71.001,224.999 70,230 70.33441,232.99969 70.667667,235.999 71,239 73.335016,241.99988 75.667667,244.999 78,248 77.667651,250.99914 77.334333,253.999 77,257 79.001732,257.66591 81.001,258.33233 83,259 87.666267,260.66517 92.334333,262.33233 97,264 98.33417,268.6651 99.667667,273.33233 101,278 102.6679,287.66703 105.001,296.66567 107,306 107.001,309.99932 107.001,313.999 107,318 109.0015,323.00025 111.001,327.999 113,333 113.33437,334.99921 113.66767,336.999 114,339 110.33285,343.33409 106.66767,347.66567 103,352 96.99951,359.00074 91.001,365.999 85,373 81.667157,375.66607 78.334333,378.999 75,382 72.333494,383.66619 69.667667,385.33233 67,387 69.335356,389.66684 71.667667,392.33233 74,395 77.667764,397.99908 81.334333,400.999 85,404 87.000941,407.66556 89.001,411.33233 91,415 94.668017,415.66573 97.667667,415.66567 101,416 103.33371,413.99953 104.33433,411.999 106,410 107.66677,404.00225 109.33433,397.999 111,392 113.33387,387.33326 115.66767,381.999 118,377 122.00004,373.33322 126.001,369.66567 130,366 133.66671,364.66601 137.33433,363.33233 141,362 142.3339,357.00064 143.001,351.999 144,347 145.66728,344.66621 147.33433,341.66567 149,339 156.33112,333.33482 163.66767,327.66567 171,322 178.33322,317.66632 185.66767,313.33233 193,309 206.99875,305.6662 221.001,302.33233 235,299 245.33347,296.33256 255.66767,293.66567 266,291 273.66679,288.99923 281.33433,286.999 289,285 294.33351,284.33244 299.001,283.66567 304,283 305.33404,283.66552 306.66767,284.33233 308,285 308.66747,289.33103 309.33433,294.33233 310,299 310.66779,307.00044 311.33433,314.999 312,323 313.00111,328.33294 314.001,333.66567 315,339 319.66835,345.33327 325.001,350.999 330,357 338.00113,366.66583 346.001,376.33233 354,386 364.33444,394.9991 374.66767,403.999 385,413 395.00093,418.66563 405.001,424.33233 415,430 419.33419,429.999 423.66767,429.33233 428,429 429.00075,426.66624 430.001,424.33233 431,422 428.00255,417.66791 425.001,413.33233 422,409 411.33485,403.33261 400.66767,397.66567 390,392 384.00079,387.66552 378.001,383.33233 372,379 365.66747,373.33216 358.66767,367.66567 352,362 346.6676,355.66558 341.33433,349.33233 336,343 333.6677,337.99907 331.33433,332.999 329,328 327.66778,318.33318 326.33433,308.66567 325,299 325.001,295.99926 325.001,292.33233 325,289 325.001,286.66637 325.001,284.33233 325,282 326.66695,280.99943 328.33433,279.999 330,279 337.32916,278.999 344.66767,278.999 352,279 365.99909,277.33256 380.001,275.66567 394,274 406.00005,272.66577 418.001,271.33233 430,270 433.66733,269.33239 437.33433,268.66567 441,268 445.33298,268.33223 449.66767,268.66567 454,269 455.33405,264.00006 456.66767,258.999 458,254 456.33473,251.33296 454.001,247.999 452,245 449.33454,243.99908 446.66767,242.999 444,242 439.66678,239.66519 435.33433,237.33233 431,235 421.00017,237.66589 411.001,240.33233 401,243 388.99958,245.33261 377.001,247.66567 365,250 359.66716,250.9991 354.33433,251.999 349,253 345.00014,254.66603 341.001,256.33233 337,258 335.0004,253.66436 333.001,249.33233 331,245 331.001,235.99992 331.001,226.999 331,218 333.00078,206.66693 335.001,193.999 337,182 339.66741,170.00013 342.33433,157.999 345,146 348.33401,136.66657 351.66767,127.33233 355,118 356.66745,115.33268 359.001,112.66567 361,110 357.66907,105.66749 354.33433,101.33233 351,97 347.33446,92.33249 343.66767,87.665667 340,83 337.33441,77.665818 334.66767,72.332333 332,67 330.66777,64.332533 329.33433,61.665667 328,59 326.66787,58.332433 325.33433,57.665667 324,57 319.66637,59.333033 315.33433,61.665667 311,64 309.33387,67.666676 307.66767,71.999 306,76 307.33474,76.999302 308.66767,77.999 310,79 315.0004,80.332173 320.001,81.665667 325,83 326.66744,87.33174 328.33433,91.665667 330,96 330.33437,98.665996 330.66767,101.33233 331,104 330.33412,110.00094 329.66767,115.999 329,122 327.33403,129.66707 325.66767,137.33233 324,145 322.33408,158.33436 320.66767,171.66567 319,185 316.00075,204.00058 313.001,223.66567 310,243 307.66753,250.66611 305.33433,257.66567 303,265 297.00002,266.66594 291.001,268.33233 285,270 276.33262,270.9992 267.66767,271.999 259,273 250.33323,275.99938 241.66767,278.999 233,282 226.33341,283.6659 219.66767,285.33233 213,287 211.00065,286.999 209.001,286.999 207,287 208.0015,280.329 209.66767,272.999 211,266 212.33411,258.33359 213.66767,249.999 215,242 214.33443,232.00042 213.66767,221.999 213,212 213.001,204.33305 213.001,196.66567 213,189 211.66784,181.00004 210.33433,172.999 209,165 206.3346,152.00032 203.66767,138.999 201,126 199.33443,122.33255 197.66767,118.66567 196,115 196.66758,111.66608 197.33433,108.33233 198,105 198.66744,103.66613 199.33433,102.33233 200,101 198.33583,98.667767 196.66767,96.332333 195,94 191.33463,91.665856 187.001,89.332333 183,87 177.66725,85.332204 171.66767,83.665667 166,82 161.3338,82.999115 156.66767,83.999 152,85 150.66733,89.666828 150.001,94.332333 149,99 150.66808,101.99975 152.33433,104.999 154,108 155.66786,109.99923 157.33433,111.999 159,114 162.3345,114.6657 165.66767,115.33233 169,116 173.66659,118.33179 177.66767,121.33233 182,124 183.66756,130.66524 186.001,137.33233 188,144 190.33456,151.66641 192.66767,159.33233 195,167 196.66781,173.99958 198.33433,180.999 200,188 200.001,194.33299 200.001,200.66567 200,207 199.00084,215.33365 198.001,223.66567 197,232 196.00087,235.33278 195.001,238.66567 194,242 193.33409,245.00007 192.66767,247.999 192,251 190.00022,252.33285 188.001,253.66567 186,255 184.33337,255.33253 182.66767,255.66567 181,256 181.66813,259.33464 182.33433,262.66567 183,266 185.00146,269.66651 187.001,273.33233 189,277 190.33446,279.99929 191.66767,282.999 193,286 193.66777,288.66608 194.33433,291.33233 195,294 192.00021,294.66584 189.001,295.33233 186,296 182.66637,298.33324 179.33433,300.66567 176,303 169.33205,304.33279 162.66767,305.66567 156,307 151.33353,309.66613 146.66767,312.33233 142,315 139.66707,315.66584 137.33433,316.33233 135,317 134.6675,313.99747 134.33433,310.999 134,308 133.66776,302.66723 133.33433,296.66567 133,291 133.33428,284.66672 133.66767,278.33233 134,272 132.66789,267.99966 131.33433,263.999 130,260 127.00145,255.66632 124.001,251.33233 121,247 118.33446,243.33251 115.66767,238.999 113,235 108.00129,232.6658 102.33433,229.66567 97,227 93.667417,223.33206 90.334333,219.66567 87,216 82.334397,215.66567 77.667667,215.33233 73,215 Z" />
  <path
     style="fill:none;stroke:#000000;stroke-width:1px;stroke-linecap:butt;stroke-linejoin:miter;stroke-opacity:1"
     d="M 260.00058,155.33284 C 257.33393,156.33213 255.66727,159.66547 255.13364,161.93275 254.60001,164.20003 255.33313,165.66627 255.66657,168.16652 256,170.66677 256,174.33233 254.66664,178.49954 253.33328,182.66675 250.66735,187.33214 248.33372,191.66598 246.00009,195.99982 244.0006,199.9988 242.00046,203.16588 240.00032,206.33296 238.00092,208.6656 237.33386,211.33312 236.66681,214.00064 237.33317,216.99926 238.83344,220.66665 240.33372,224.33404 242.66648,228.66631 244.9999,232.99982 247.33333,237.33333 249.66648,241.66631 251.83352,244.3333 254.00057,247.00028 256.0004,248.0002 258.50043,247.16657 261.00045,246.33293 264.00105,243.66573 265.80643,240.9563 267.61181,238.24686 268.33359,234.99884 268.00029,231.49989 267.66698,228.00095 266.33313,223.9994 265.66657,219.16629 265,214.33318 265,208.66567 264.5,203.83284 264,199 262.99982,194.99929 263.16662,190.4995 263.33341,185.9997 264.66698,180.99882 266.00012,175.33291 267.33326,169.667 268.66691,163.33217 267.50074,159.49964 266.33456,155.66711 262.66723,154.33354 260.00058,155.33284 Z"
     id="path25"
     inkscape:connector-curvature="0"
     inkscape:path-effect="#path-effect27"
     inkscape:original-d="M 259,153 C 257.33433,156.33233 255.66767,159.66567 254,163 254.33445,164.33281 255.33433,165.66567 256,167 256.001,170.66677 256.001,174.33233 256,178 253.33361,182.66694 250.66767,187.33233 248,192 246.00049,196.00002 244.001,199.999 242,204 240.0004,206.33303 238.001,208.66567 236,211 236.66797,214.00038 237.33433,216.999 238,220 240.33491,224.3334 242.66767,228.66567 245,233 247.33453,237.33269 249.66767,241.66567 252,246 254.00117,246.99908 256.001,247.999 258,249 261.0004,246.33287 264.001,243.66567 267,241 268.00065,238.33327 268.33433,234.999 269,232 267.66818,228.00055 266.33433,223.999 265,220 265.001,214.33318 265.001,208.66567 265,203 264.00118,198.99971 263.001,194.999 262,191 263.3341,185.99988 264.66767,180.999 266,176 267.33402,169.66716 268.66767,163.33233 270,157 266.335,155.66591 262.66767,154.33233 259,153 Z" />
  <path
     d="M 416.18573,427.31659 C 405.93274,424.81875 385.30445,411.51818 367.7204,396.06744 352.78226,382.94161 325.0305,351.15444 318.68347,339.9 314.92961,333.24372 313.92928,328.6643 311.61594,307.54548 309.46646,287.92258 308.7496,285.08561 305.5014,283.34723 302.18253,281.57102 293.05326,283.33339 250.6,293.94573 194.45488,307.98071 188.40927,310.07577 171.3849,321.39712 150.90162,335.01867 146.50157,339.85857 140.92675,354.9 139.34885,359.15732 138.12525,360.52452 132.689,364.1045 129.17748,366.41698 124.95981,369.56698 123.3164,371.1045 118.10714,375.97815 112.83099,385.19903 109.52526,395.20665 103.9893,411.96599 101.55182,415.20724 95.48627,413.87502 93.411318,413.41928 90.996917,411.32302 87.635184,407.05845 84.965121,403.6713 80.295338,398.76284 77.257889,396.15076 74.22044,393.53867 71.46183,390.54003 71.127644,389.4871 70.654507,387.99638 73.470236,384.62114 83.850295,374.23634 91.181939,366.90135 100.87493,356.27244 105.39028,350.61654 114.72066,338.92935 115.16188,337.22538 111.55551,326.80655 110.43104,323.55795 108.62565,315.07319 107.54353,307.95153 104.79723,289.8776 101.01816,273.70599 98.307711,268.42911 96.027165,263.98919 93.74907,262.40071 82.490487,257.4 79.662942,256.14409 79.00023,255.21712 78.417985,251.70356 78.035512,249.39552 76.345964,244.89552 74.663434,241.70356 71.164523,235.06571 70.64817,228.61381 73.138787,222.65293 75.018902,218.15318 76.06795,217.43491 80.788455,217.41531 83.734503,217.40308 86.049205,218.57084 92.288455,223.21701 96.584805,226.41637 103.025,231.04418 106.6,233.50102 114.30408,238.7955 121.79967,248.24154 127.84155,260.26989 L 132.04577,268.63979 132.63393,290.26989 C 133.01766,304.38183 133.64758,312.68205 134.44623,314.15 136.16703,317.31289 139.43786,317.01039 147.51854,312.94102 151.29627,311.03859 159.04754,308.10586 164.74357,306.42386 170.43961,304.74186 179.375,301.2359 184.6,298.63284 L 194.1,293.9 194.02557,289.81078 C 193.97632,287.10479 192.22781,282.03084 188.85651,274.81078 186.05446,268.80985 183.47517,262.48516 183.12475,260.75592 182.53451,257.84325 182.80456,257.43707 186.79381,255.23727 190.30683,253.30007 191.49912,251.85307 193.26687,247.38135 200.45128,229.20758 202.5359,194.33449 197.6295,174.4 194.05075,159.85969 186.47512,135.14641 183.91991,129.67649 180.7987,122.9949 175.09898,118.14764 166.49973,114.86168 156.32783,110.97479 151.6,104.9424 151.6,95.850677 151.6,89.343264 155.46186,85.311863 162.32758,84.652155 171.83985,83.738145 186.92961,89.072685 194.18333,95.913817 197.81957,99.343233 197.83213,99.383799 197.03779,105.1292 195.93567,113.10082 196.22462,116.07443 199.04821,125.81803 201.74403,135.12075 205.35228,151.63693 208.56945,169.4 211.14876,183.64123 212.58905,204.99041 212.66168,230.05855 212.70845,246.20371 212.30655,251.69265 210.10642,264.95626 208.6705,273.6128 207.63164,281.82106 207.79783,283.19685 208.50273,289.0322 212.3351,288.69274 240.36805,280.31187 249.57062,277.56063 263.625,274.16078 271.6,272.75666 291.37028,269.27581 295.97294,267.88945 300.26234,264.12336 304.55877,260.35109 306.69425,255.89261 309.46977,244.9 311.86504,235.41339 317.50283,201.50036 321.10677,174.9 322.52258,164.45 325.30247,146.675 327.2843,135.4 329.56253,122.43875 330.92669,111.40643 330.99382,105.4 331.08906,96.879069 330.80872,95.306822 328.27368,90.144339 325.2469,83.980435 324.37903,83.269324 315.11589,79.363165 309.49291,76.992015 309.10922,76.620201 309.24124,73.67028 309.43087,69.432715 312.78862,64.959809 318.12983,61.829652 325.10103,57.744253 326.22089,58.408684 332.57465,70.4 338.44754,81.483777 341.88526,86.830555 349.91124,97.364063 352.62014,100.9193 355.54481,105.31343 356.4105,107.1288 357.89534,110.24256 357.85416,110.72596 355.6832,115.66474 341.85285,147.12789 329.94511,203.19732 330.78537,232.9 331.08659,243.54772 331.54229,246.75274 333.30383,250.61269 336.12048,256.78463 338.37827,257.33125 349.50544,254.53516 354.23245,253.34733 367.775,250.3829 379.6,247.94753 391.425,245.51216 406.725,242.32327 413.6,240.86111 428.8344,237.62108 433.54448,237.92303 443.81819,242.79833 452.62718,246.97855 455.06428,249.93014 455.08532,256.44398 455.10446,262.36844 452.63551,266.15976 448.35757,266.77512 445.21623,267.22699 432.31707,268.72187 386.69654,273.92099 374.92464,275.26257 358.27464,276.83053 349.69654,277.40535 332.46836,278.55981 328.73567,279.0261 326.77768,280.26843 324.31612,281.83026 323.62283,288.51607 324.69011,300.4 327.45711,331.20986 332.27076,342.02549 352.0948,361.97468 366.27094,376.24032 378.14597,385.29339 398.6,397.42847 407.675,402.81253 416.9,408.64385 419.1,410.38694 423.15964,413.60346 428.6,420.74603 428.6,422.85935 428.6,426.93823 422.95383,428.96544 416.18573,427.31659 Z"
     id="path29"
     inkscape:connector-curvature="0" />
  <path
     d="M 251.71266,242.39682 C 250.11772,240.19507 246.4699,233.76092 243.60639,228.09871 237.09848,215.23019 236.97009,212.6969 242.39088,204.1137 244.58586,200.63819 248.5498,193.54331 251.19962,188.3473 255.85492,179.21878 256.02347,178.58636 256.19446,169.60503 256.38604,159.54199 257.78049,156.4 262.05499,156.4 267.25048,156.4 267.88799,162.16659 264.4162,177.75827 262.3194,187.17487 262.27609,188.33971 263.44947,203.75827 264.1251,212.63622 265.09963,221.7 265.61509,223.9 266.13055,226.1 266.56302,230.31544 266.57614,233.26765 266.59799,238.18352 266.27323,238.96206 262.71765,242.51765 257.73366,247.50164 255.39194,247.47593 251.71266,242.39682 Z"
     id="path31"
     inkscape:connector-curvature="0" />
</svg>
