<?xml version="1.0" encoding="UTF-8" standalone="no"?>
<!-- Created with Inkscape (http://www.inkscape.org/) -->

<svg
   xmlns:dc="http://purl.org/dc/elements/1.1/"
   xmlns:cc="http://creativecommons.org/ns#"
   xmlns:rdf="http://www.w3.org/1999/02/22-rdf-syntax-ns#"
   xmlns:svg="http://www.w3.org/2000/svg"
   xmlns="http://www.w3.org/2000/svg"
   xmlns:sodipodi="http://sodipodi.sourceforge.net/DTD/sodipodi-0.dtd"
   xmlns:inkscape="http://www.inkscape.org/namespaces/inkscape"
   width="512"
   height="512"
   viewBox="0 0 512 512"
   version="1.1"
   id="svg8"
   inkscape:version="0.92.4 (5da689c313, 2019-01-14)"
   sodipodi:docname="萬U+842C-2.svg">
  <defs
     id="defs2">
    <inkscape:path-effect
       effect="bspline"
       id="path-effect39"
       is_visible="true"
       weight="33.333333"
       steps="2"
       helper_size="0"
       apply_no_weight="true"
       apply_with_weight="true"
       only_selected="false" />
    <inkscape:path-effect
       effect="bspline"
       id="path-effect35"
       is_visible="true"
       weight="33.333333"
       steps="2"
       helper_size="0"
       apply_no_weight="true"
       apply_with_weight="true"
       only_selected="false" />
    <inkscape:path-effect
       effect="bspline"
       id="path-effect31"
       is_visible="true"
       weight="33.333333"
       steps="2"
       helper_size="0"
       apply_no_weight="true"
       apply_with_weight="true"
       only_selected="false" />
    <inkscape:path-effect
       effect="bspline"
       id="path-effect27"
       is_visible="true"
       weight="33.333333"
       steps="2"
       helper_size="0"
       apply_no_weight="true"
       apply_with_weight="true"
       only_selected="false" />
    <inkscape:path-effect
       effect="bspline"
       id="path-effect23"
       is_visible="true"
       weight="33.333333"
       steps="2"
       helper_size="0"
       apply_no_weight="true"
       apply_with_weight="true"
       only_selected="false" />
  </defs>
  <sodipodi:namedview
     id="base"
     pagecolor="#ffffff"
     bordercolor="#666666"
     borderopacity="1.0"
     inkscape:pageopacity="0.0"
     inkscape:pageshadow="2"
     inkscape:zoom="1"
     inkscape:cx="400"
     inkscape:cy="200"
     inkscape:document-units="px"
     inkscape:current-layer="layer1"
     showgrid="false"
     units="px"
     inkscape:window-width="1920"
     inkscape:window-height="1001"
     inkscape:window-x="-9"
     inkscape:window-y="-9"
     inkscape:window-maximized="1" />
  <metadata
     id="metadata5">
    <rdf:RDF>
      <cc:Work
         rdf:about="">
        <dc:format>image/svg+xml</dc:format>
        <dc:type
           rdf:resource="http://purl.org/dc/dcmitype/StillImage" />
        <dc:title></dc:title>
      </cc:Work>
    </rdf:RDF>
  </metadata>
  <g
     inkscape:label="圖層 1"
     inkscape:groupmode="layer"
     id="layer1"
     transform="translate(0,-161.53331)">
    <path
       style="fill:none;stroke:#000000;stroke-width:1px;stroke-linecap:butt;stroke-linejoin:miter;stroke-opacity:1"
       d="M 188,201.53331 C 192.66653,208.19978 197.33319,214.86644 200.99987,222.03303 204.66655,229.19963 207.33313,236.86606 208.66656,243.36605 210,249.86605 210,255.19898 210,258.86583 210,262.53269 210,264.53231 209.83355,265.86571 209.6671,267.19911 209.33393,267.86544 205.511,269.41803 201.68806,270.97062 195.0012,273.19958 188.83397,274.36644 182.66675,275.53331 177.33433,275.53331 172.66704,274.69992 167.99975,273.86654 164.0005,272.20018 160.83394,271.36675 157.66738,270.53331 155.33433,270.53331 154.66731,273.36746 154.00029,276.20161 154.99986,281.86584 158.00028,287.19993 161.0007,292.53401 166,297.53331 170.8335,301.36674 175.66699,305.20016 180.33365,307.86683 185.16725,308.1999 190.00086,308.53297 195.00121,306.53283 199.66735,304.53303 204.3335,302.53324 208.66787,300.53275 211.83356,302.19868 214.99924,303.86461 216.9998,309.19943 218.33319,313.6995 219.66659,318.19956 220.33319,321.86585 217.99994,324.36624 215.66669,326.86664 210.33451,328.19968 208.66738,330.70006 207.00025,333.20044 208.99981,336.86629 214.33406,339.36659 219.66832,341.8669 228.33416,343.2001 232.83423,343.69956 237.3343,344.19901 237.66767,343.86564 239.16308,345.8595 240.65849,347.85336 243.33316,352.1997 244.66658,357.03284 246,361.86599 246,367.19898 245.00031,370.86583 244.00062,374.53269 242.001,376.53231 239.1667,377.3661 236.3324,378.19989 232.66757,377.86673 229.66733,377.70002 226.66709,377.53331 224.33433,377.53331 224.42915,379.74179 224.52397,381.95026 227.33315,386.86632 231.00057,389.19981 234.66799,391.53331 239.33433,391.53331 242.33359,393.03276 245.33284,394.53221 246.66646,397.53285 247.16657,401.86632 247.66668,406.19979 247.3334,411.86559 246.6668,416.19913 246.00021,420.53267 245.0004,423.53211 244.16693,426.03251 243.33347,428.53291 242.66707,430.53211 238.3273,431.99497 233.98754,433.45783 224.66777,434.53318 219.12896,430.04143 213.59016,425.54968 211.33316,416.19926 209.33322,408.19951 207.33328,400.19976 205.66648,393.86595 204.83324,388.69935 204,383.53275 204,379.53231 204.33342,376.36584 204.66684,373.19937 205.33367,370.86545 203.83453,368.36679 202.33538,365.86813 198.66685,363.20011 193.16678,360.03339 187.66671,356.86666 180.33373,353.20018 175.47986,350.92162 170.62599,348.64306 167.66722,347.53352 165.50049,346.86679 163.33376,346.20006 161.66744,345.8668 160.64454,346.83515 159.62164,347.80349 159.33352,349.53218 161.00127,351.70015 162.66901,353.86813 166.33359,356.20014 169.35517,360.42255 172.37675,364.64495 174.66646,370.53278 178.16667,378.53327 181.66687,386.53375 186.33313,396.53287 189.66652,405.69958 192.99992,414.86629 194.99983,423.19926 196.66654,428.69954 198.33325,434.19981 199.66647,436.86624 197.66676,438.8664 195.66705,440.86655 190.33451,442.19968 186.50083,442.8665 182.66715,443.53331 180.33433,443.53331 179.50058,445.86722 178.66683,448.20114 179.33321,452.8658 180.83358,456.03311 182.33394,459.20041 184.66686,460.86678 187.55818,460.44568 190.4495,460.02459 194.33446,457.19916 201.66611,454.6998 208.99777,452.20045 220.00116,449.8664 227.83409,449.03321 235.66701,448.20003 240.33417,448.86676 242.33388,452.03231 244.33358,455.19786 243.6668,460.86554 242.8334,466.53274 242.00001,472.19994 241.0002,477.8655 234.49947,482.03288 227.99875,486.20026 216.00117,488.86638 203.33386,492.19986 190.66656,495.53334 177.33452,499.53295 168.50099,502.03304 159.66745,504.53313 155.3345,505.53304 152.00083,506.19981 148.66716,506.86657 146.33445,507.19982 145.16722,506.19884 144,505.19786 144,502.19898 142.83381,499.86655 141.66762,497.53413 139.33341,495.53338 136.83353,493.86675 134.33364,492.20013 131.66707,490.86684 128.31202,489.42257 124.95697,487.9783 120.33387,486.20018 119.83375,487.53361 119.33364,488.86704 122.66656,493.19984 124.51641,497.19787 126.36626,501.19591 126.66658,504.19909 126.50017,506.53244 126.33376,508.8658 125.66727,510.19878 120.81456,512.3186 115.96186,514.43843 106.33453,517.53293 99.500904,519.53305 92.667279,521.53317 88.334502,522.53304 84.167116,522.69982 79.999731,522.8666 76.000811,522.20011 73.250255,521.11656 70.499698,520.03301 68.666668,518.19998 68.145001,520.01581 67.623333,521.83164 68.333231,527.86577 72.667428,532.69995 77.001626,537.53412 85.0004,541.53351 92.333961,541.69984 99.667522,541.86617 106.33452,538.19932 113.16724,534.86633 119.99996,531.53333 127.00121,528.53279 131.50103,526.69957 136.00086,524.86636 138.0012,524.19958 140.9993,530.0291 143.9974,535.85863 147.9998,548.19937 151.22283,557.511 154.44585,566.82264 156.66646,572.53278 159.16724,574.53254 161.66802,576.53229 164.33445,574.53247 165.66723,571.69983 167,568.86718 167,565.19898 166.40006,561.56633 165.80013,557.93369 164.33313,553.53271 162.56383,549.17001 160.79453,544.8073 158.33313,539.53287 156.16656,535.36642 154,531.19998 151.99982,527.86635 153.83358,524.36628 155.66733,520.86622 161.33449,517.19923 171.16639,513.86645 180.99829,510.53368 195.00116,507.53306 205.00093,504.86638 215.00071,502.1997 221.00121,499.86617 226.8339,498.53308 232.66659,497.19998 238.33439,496.86658 239.83425,502.19833 241.33411,507.53009 238.66695,518.53214 235.33383,524.366 232.0007,530.19986 228.00114,530.86645 224,531.53331"
       id="path21"
       inkscape:connector-curvature="0"
       inkscape:path-effect="#path-effect23"
       inkscape:original-d="M 188,201.53331 C 192.66767,208.19898 197.33433,214.86564 202,221.53331 204.66775,229.19921 207.33433,236.86564 210,244.53331 210.001,249.86605 210.001,255.19898 210,260.53331 210.001,262.53269 210.001,264.53231 210,266.53331 209.6675,267.19931 209.33433,267.86564 209,268.53331 201.65447,270.86984 195.001,273.19898 188,275.53331 182.66675,275.53231 177.33433,275.53231 172,275.53331 168.00025,273.86533 164.001,272.19898 160,270.53331 157.66738,270.53231 155.33433,270.53231 153,270.53331 154.00143,276.20141 155.001,281.86564 156,287.53331 161.0017,292.53301 166.001,297.53231 171,302.53331 175.66767,305.19898 180.33433,307.86564 185,310.53331 190.00065,308.53245 195.001,306.53231 200,304.53331 204.33329,302.53279 208.66767,300.53231 213,298.53331 215.00044,303.86416 217.001,309.19898 219,314.53331 219.66774,318.19935 220.33433,321.86564 221,325.53331 215.66651,326.86593 210.33433,328.19898 205,329.53331 207.00144,333.19979 209.001,336.86564 211,340.53331 219.66849,341.86577 228.33433,343.19898 237,344.53331 237.3343,344.19901 237.66767,343.86564 238,343.53331 240.65967,347.85264 243.33433,352.19898 246,356.53331 246.001,361.86599 246.001,367.19898 246,372.53331 244.00062,374.53269 242.001,376.53231 240,378.53331 236.3325,378.19881 232.66767,377.86564 229,377.53331 226.66709,377.53231 224.33433,377.53231 222,377.53331 224.66881,381.8675 227.33433,386.86564 230,391.53331 234.66799,391.53231 239.33433,391.53231 244,391.53331 245.33405,394.53167 246.66767,397.53231 248,400.53331 247.66762,406.19985 247.33433,411.86564 247,417.53331 246.00081,420.53287 245.001,423.53231 244,426.53331 243.33407,428.53311 242.66767,430.53231 242,432.53331 233.9962,433.53291 224.66767,434.53231 216,435.53331 213.66737,425.53104 211.33433,416.19898 209,406.53331 207.33446,400.19945 205.66767,393.86564 204,387.53331 204.001,383.53275 204.001,379.53231 204,375.53331 204.6675,373.19956 205.33433,370.86564 206,368.53331 202.3362,365.867 198.66767,363.19898 195,360.53331 187.66731,356.86546 180.33433,353.19898 173,349.53331 170.66754,348.53226 167.66767,347.53231 165,346.53331 163.33399,346.19891 161.66767,345.86564 160,345.53331 160.001,347.86672 159.33433,349.53231 159,351.53331 162.66975,353.86697 166.33433,356.19898 170,358.53331 172.66748,364.53189 174.66767,370.53231 177,376.53331 181.66808,386.53319 186.33433,396.53231 191,406.53331 193.00109,414.86601 195.001,423.19898 197,431.53331 198.33445,434.19921 199.66767,436.86564 201,439.53331 195.66687,440.86584 190.33433,442.19898 185,443.53331 182.66715,443.86572 180.33433,443.53231 178,443.53331 178.66795,448.20098 179.33433,452.86564 180,457.53331 182.33475,459.19928 184.66767,460.86564 187,462.53331 190.33406,459.86586 194.33433,457.19898 198,454.53331 208.99761,452.1997 220.001,449.86564 231,447.53331 235.66717,448.19891 240.33433,448.86564 245,449.53331 244.33445,455.19796 243.66767,460.86564 243,466.53331 242.00081,472.20008 241.001,477.86564 240,483.53331 227.99858,486.19951 216.001,488.86564 204,491.53331 190.66637,495.5327 177.33433,499.53231 164,503.53331 159.66728,504.5324 155.33433,505.53231 151,506.53331 148.66704,506.86573 146.33433,507.19898 144,507.53331 144.001,505.19786 144.001,502.19898 144,499.53331 141.66854,497.53306 139.33433,495.53231 137,493.53331 134.33424,492.19893 131.66767,490.86564 129,489.53331 125.0004,487.86539 120.33433,486.19898 116,484.53331 119.33475,488.86618 122.66767,493.19898 126,497.53331 126.33434,501.1991 126.66767,504.19898 127,507.53331 126.33416,508.866 125.66767,510.19898 125,511.53331 115.9929,514.53501 106.33433,517.53231 97,520.53331 92.667111,521.53244 88.334333,522.53231 84,523.53331 79.999921,522.86546 76.001,522.19898 72,521.53331 70.667396,519.86531 68.667667,518.19898 67,516.53331 67.334333,521.86564 68.334333,527.86564 69,533.53331 77.002228,537.53292 85.001,541.53231 93,545.53331 99.667333,541.86583 106.33433,538.19898 113,534.53331 119.99975,531.53285 127.001,528.53231 134,525.53331 136.00066,524.86576 138.001,524.19898 140,523.53331 143.9986,535.85824 148.001,548.19898 152,560.53331 154.33445,566.86596 156.66767,572.53231 159,578.53331 161.6679,576.53213 164.33433,574.53231 167,572.53331 167.001,568.86718 167.001,565.19898 167,561.53331 166.00127,557.86664 164.33433,553.53231 163,549.53331 160.66802,544.86634 158.33433,539.53231 156,534.53331 154.00118,531.19927 152.001,527.86564 150,524.53331 155.66717,520.86597 161.33433,517.19898 167,513.53331 180.99813,510.53292 195.001,507.53231 209,504.53331 215.0005,502.19917 221.001,499.86564 227,497.53331 232.66653,497.19904 238.33433,496.86564 244,496.53331 241.33483,507.53026 238.66767,518.53231 236,529.53331 232.00057,530.19905 228.001,530.86564 224,531.53331" />
    <path
       style="fill:none;stroke:#000000;stroke-width:1px;stroke-linecap:butt;stroke-linejoin:miter;stroke-opacity:1"
       d="M 292,174.53331 C 290.66715,177.86543 289.33381,181.19877 290.57655,184.08127 291.81928,186.96376 295.33359,189.20014 296.50027,194.36587 297.66695,199.53161 296.33352,207.53218 293.49994,219.69998 290.66637,231.86778 286.33365,248.1988 281.33352,263.53264 276.3334,278.86647 270.66714,293.19877 267.16712,301.86556 263.66709,310.53236 262.33387,313.53211 256.97464,315.90165 251.61541,318.2712 243.00115,319.86643 237.33418,320.53324 231.66721,321.20005 229.33417,320.86676 229.00082,316.19784 228.66748,311.52892 230.33355,302.53216 231.83345,294.03268 233.33335,285.5332 234.66686,277.53217 234.54694,272.27436 234.42702,267.01654 232.6665,264.19971 232.5,260.19953 232.33349,256.19934 233.66696,250.86546 234.47318,247.36117 235.27941,243.85687 235.66686,241.53217 234.83389,238.36709 234.00093,235.202 231.99979,230.8662 229.50001,226.86655 227.00022,222.86691 223.99991,219.19987 221.16663,215.8666 218.33336,212.53334 215.66661,209.53325 210.16711,207.20004 204.66761,204.86683 196.3341,203.20013 188,201.53331"
       id="path25"
       inkscape:connector-curvature="0"
       inkscape:path-effect="#path-effect27"
       inkscape:original-d="M 292,174.53331 C 290.66767,177.86564 289.33433,181.19898 288,184.53331 291.66899,187.19994 295.33433,189.19898 299,191.53331 297.66776,199.53174 296.33433,207.53231 295,215.53331 290.66705,231.86796 286.33433,248.19898 282,264.53331 276.33392,278.86668 270.66767,293.19898 265,307.53331 263.66755,310.53256 262.33433,313.53231 261,316.53331 251.66391,318.53311 243.001,319.86564 234,321.53331 231.66737,321.19893 229.33433,320.86564 227,320.53331 228.66827,311.52907 230.33433,302.53231 232,293.53331 233.33416,285.53333 234.66767,277.53231 236,269.53331 234.66786,266.86602 232.66767,264.19898 231,261.53331 232.3342,256.19952 233.66767,250.86564 235,245.53331 235.33426,243.86601 235.66767,241.53231 236,239.53331 234.00214,235.20144 232.001,230.86564 230,226.53331 227.00131,222.86602 224.001,219.19898 221,215.53331 218.33441,212.5324 215.66767,209.53231 213,206.53331 204.66784,204.86568 196.33433,203.19898 188,201.53331" />
    <path
       style="fill:none;stroke:#000000;stroke-width:1px;stroke-linecap:butt;stroke-linejoin:miter;stroke-opacity:1"
       d="M 203,527.53331 C 202.66446,531.55982 202.33342,535.53223 203.00017,539.86645 203.66691,544.20066 205.33313,548.86607 209.1673,551.86652 213.00147,554.86697 219.00074,556.20014 226.66702,556.20006 234.3333,556.19998 243.66779,554.86648 249.818,553.01261 255.96822,551.15873 259.66776,548.1991 265.77874,545.21996 271.88972,542.24082 281.00121,538.8662 288.00087,536.03296 295.00053,533.19973 300.00121,530.86608 303.16745,528.53272 306.33369,526.19936 307.66735,523.86545 311.49869,526.53072 315.33003,529.19598 321.66658,536.86654 326.89274,541.55803 332.11889,546.24952 336.0005,547.86685 339.65064,548.14995 343.30079,548.43305 346.0012,547.53291 346.1677,542.70119 346.33421,537.86948 343.66647,529.19935 341.83319,524.03291 339.9999,518.86647 338.99982,517.19969 334.16759,514.53359 329.33535,511.8675 320.66716,508.20019 312.83374,505.53345 305.00032,502.86672 298.00072,501.20015 296.00044,502.53352 294.00017,503.86688 296.99986,508.19977 298.81019,511.14218 300.62051,514.08459 301.33312,515.86612 298.87807,517.51986 296.42302,519.1736 290.66786,520.86629 281.33312,522.53324 271.99838,524.20018 259.00111,525.8665 252.16711,525.19941 245.33311,524.53231 244.6665,521.53257 244.98885,517.57445 245.31119,513.61633 246.66698,508.53213 248.04707,504.46285 249.42715,500.39358 251.33388,496.19878 256.33283,493.19959 261.33178,490.20041 269.66786,487.86631 280.97615,485.40122 292.28444,482.93614 307.33447,480.19977 320.50068,478.03319 333.66688,475.86661 345.33445,474.19982 357.97658,472.37007 370.61872,470.54033 384.33445,468.53315 394.68378,467.85292 405.03312,467.17268 412.66757,467.86673 417.33356,470.3662 421.99955,472.86566 423.9998,477.19954 424.49995,482.03279 425.00011,486.86604 424.00021,492.19883 421.33316,501.70028 418.66611,511.20172 414.33371,524.86544 408.33355,537.866 402.33339,550.86655 394.66739,563.19881 390.00079,570.19897 385.33418,577.19913 383.66767,578.86564 380.16588,578.86574 376.6641,578.86584 371.33396,577.20017 367.6674,577.19972 364.00085,577.19927 362.00108,578.86574 363.00159,582.03408 364.00209,585.20242 367.99993,589.86656 369.99996,594.36614 372,598.86572 372,603.86564 372.33334,608.53289 372.66669,613.20014 373.33321,617.8658 375.83407,620.53301 378.33494,623.20022 382.6675,623.86677 385.7859,621.1849 388.9043,618.50303 391.00038,611.86544 396.33299,599.53384 401.6656,587.20224 410.3339,568.86544 419.50029,550.69937 428.66667,532.5333 438.33397,514.53212 442.66696,501.86587 446.99995,489.19961 445.99988,481.86579 443.00029,476.19983 440.0007,470.53387 435.00012,466.53341 430.33366,463.86677 425.66719,461.20014 421.33396,459.86684 414.84492,459.52023 408.35588,459.17362 399.00107,459.86656 381.16617,461.70005 363.33127,463.53354 336.66777,466.53319 314.16742,470.0332 291.66707,473.53322 273.33449,477.53306 264.00052,477.86597 254.66656,478.19888 254.33324,474.86575 254.49991,469.03344 254.66657,463.20113 255.33342,454.86557 255.96094,449.52253 256.58845,444.1795 257.33363,441.1988 263.99788,439.53284 270.66213,437.86688 283.33438,437.19992 291.83417,436.86662 300.33397,436.53331 304.66767,436.53331 307.69152,438.59176 310.71537,440.65021 312.33313,444.53281 314.70242,446.87436 317.07171,449.21591 320.00074,449.86681 322.33368,447.53345 324.66663,445.2001 326.33371,439.86545 327.3335,431.36684 328.33329,422.86823 328.6667,411.19895 329.33335,399.53277 330,387.86659 331.00009,376.1989 333.00013,366.36587 335.00017,356.53285 338.00045,348.5321 339.66692,342.69911 341.33338,336.86612 341.66676,333.1989 343.99955,332.69913 346.33233,332.19936 350.66695,334.86682 354.158,334.70997 357.64905,334.55313 360.33427,331.53226 360.33417,327.20023 360.33407,322.86821 357.66646,317.19955 354.0002,312.86662 350.33394,308.5337 345.66692,305.53347 341.66696,303.36679 337.66701,301.20011 334.33385,299.86685 330.66715,300.86655 327.00046,301.86626 323.00108,305.19908 320.00087,307.36603 317.00066,309.53298 315.0012,310.53271 308.16315,311.51946 301.32511,312.50622 289.00108,313.53322 283.66751,312.36585 278.33393,311.19847 279.66715,307.86543 282.83305,302.36685 285.99895,296.86826 291.00075,289.19882 294.33404,284.36568 297.66732,279.53253 299.33423,277.53223 304.33213,275.03336 309.33003,272.5345 317.66787,269.53288 327.66703,265.69986 337.66619,261.86684 349.33454,257.1995 358.3342,254.033 367.33386,250.8665 373.66785,249.19967 378.66742,248.36649 383.66698,247.53331 387.33433,247.53331 388.00086,246.53362 388.66739,245.53393 386.33341,243.53338 383.16709,242.36671 380.00077,241.20004 376.00091,240.86672 371.50049,241.86667 367.00007,242.86661 362.0012,245.19942 350.99915,249.53357 339.99711,253.86772 323.0012,260.19953 315.50095,261.199 308.0007,262.19847 310.00056,257.86544 313.3333,251.53327 316.66604,245.2011 321.334,236.86545 324.33372,230.03251 327.33344,223.19956 328.66696,217.86546 328.83351,213.03283 329.00005,208.2002 327.99983,203.86591 326.5,200.03308 325.00016,196.20025 322.99982,192.86635 320.50004,189.69996 318.00026,186.53357 315,183.53331 310.16699,181.03341 305.33397,178.5335 298.66731,176.5335 292,174.53331"
       id="path29"
       inkscape:connector-curvature="0"
       inkscape:path-effect="#path-effect31"
       inkscape:original-d="M 203,527.53331 C 202.33433,531.53231 202.33433,535.53231 202,539.53331 203.66811,544.20023 205.33433,548.86564 207,553.53331 213.00173,554.86581 219.001,556.19898 225,557.53331 234.33318,556.19914 243.66767,554.86564 253,553.53331 256.00064,551.19926 259.66767,548.19898 263,545.53331 271.99804,542.5333 281.001,538.86564 290,535.53331 295.00033,533.19929 300.001,530.86564 305,528.53331 306.33401,526.19954 307.66767,523.86564 309,521.53331 315.33112,529.19508 321.66767,536.86564 328,544.53331 332.00105,546.53234 336.001,547.86564 340,549.53331 343.33392,548.53243 346.001,547.53231 349,546.53331 346.3354,537.86911 343.66767,529.19898 341,520.53331 340.00107,518.86577 339.001,517.19898 338,515.53331 329.33586,511.86629 320.66767,508.19898 312,504.53331 305.0006,502.86555 298.001,501.19898 291,499.53331 294.00131,503.86609 297.001,508.19898 300,512.53331 300.33435,514.19906 301.33433,515.86564 302,517.53331 296.33257,518.86606 290.66767,520.86564 285,522.53331 271.99827,524.19933 259.001,525.86564 246,527.53331 245.33428,524.53205 244.66767,521.53231 244,518.53331 245.00075,513.53355 246.66767,508.53231 248,503.53331 249.00076,500.19977 251.33433,496.19898 253,492.53331 261.33159,490.19974 269.66767,487.86564 278,485.53331 292.33229,483.19931 307.33433,480.19898 322,477.53331 333.66676,475.86577 345.33433,474.19898 357,472.53331 370.66635,470.8658 384.33433,468.53231 398,466.53331 405.00043,467.53223 412.66767,467.86564 420,468.53331 422.00075,472.86511 424.001,477.19898 426,481.53331 425.0009,486.86619 424.001,492.19898 423,497.53331 418.66673,511.20192 414.33433,524.86564 410,538.53331 402.33366,550.86672 394.66767,563.19898 387,575.53331 385.33418,577.19913 383.66767,578.86564 382,580.53331 376.66447,578.86464 371.33433,577.19898 366,575.53331 364.00077,577.19917 362.001,578.86564 360,580.53331 364.00316,585.2015 368.001,589.86564 372,594.53331 372.001,598.86572 372.001,603.86564 372,608.53331 372.66781,613.19998 373.33433,617.86564 374,622.53331 378.33511,623.1991 382.66767,623.86564 387,624.53331 389.00062,618.53345 391.001,611.86564 393,605.53331 401.66603,587.20244 410.33433,568.86564 419,550.53331 428.66703,532.53349 438.33433,514.53231 448,496.53331 447.00107,489.19946 446.001,481.86564 445,474.53331 440.00158,470.53277 435.001,466.53231 430,462.53331 425.66756,461.19894 421.33433,459.86564 417,458.53331 408.33307,458.86569 399.001,459.86564 390,460.53331 363.33117,463.53267 336.66767,466.53231 310,469.53331 291.66691,473.53247 273.33433,477.53231 255,481.53331 254.66765,478.19877 254.33433,474.86564 254,471.53331 254.66749,463.2012 255.33433,454.86564 256,446.53331 256.66758,444.19928 257.33433,441.19898 258,438.53331 270.66208,437.86594 283.33433,437.19898 296,436.53331 300.33397,436.53231 304.66767,436.53231 309,436.53331 311.00054,440.53139 312.33433,444.53231 314,448.53331 317.00137,449.53243 320.001,449.86564 323,450.53331 324.66725,445.20029 326.33433,439.86564 328,434.53331 328.33426,422.86826 328.66767,411.19898 329,399.53331 330.00091,387.86667 331.001,376.19898 332,364.53331 335.00072,356.53305 338.001,348.53231 341,340.53331 341.33428,336.8662 341.66767,333.19898 342,329.53331 346.33305,332.19819 350.66767,334.86564 355,337.53331 358.00081,334.86581 360.33433,331.53231 363,328.53331 360.33527,322.86764 357.66767,317.19898 355,311.53331 350.33469,308.53254 345.66767,305.53231 341,302.53331 337.66749,301.1989 334.33433,299.86564 331,298.53331 327.00038,301.86616 323.001,305.19898 319,308.53331 317.00046,309.53258 315.001,310.53231 313,311.53331 301.32733,312.53291 289.001,313.53231 277,314.53331 278.33445,311.19868 279.66767,307.86564 281,304.53331 285.99919,296.86842 291.001,289.19898 296,281.53331 297.66741,279.53261 299.33433,277.53231 301,275.53331 309.32983,272.53393 317.66767,269.53231 326,266.53331 337.66598,261.86632 349.33433,257.19898 361,252.53331 367.33368,250.86582 373.66767,249.19898 380,247.53331 383.66698,247.53231 387.33433,247.53231 391,247.53331 388.6683,245.53286 386.33433,243.53231 384,241.53331 380.00086,241.19896 376.001,240.86564 372,240.53331 366.99986,242.86617 362.001,245.19898 357,247.53331 339.9969,253.86717 323.001,260.19898 306,266.53331 308.00114,262.19867 310.001,257.86564 312,253.53331 316.66637,245.20129 321.33433,236.86564 326,228.53331 327.33414,223.19974 328.66767,217.86564 330,212.53331 329.00122,208.19993 328.001,203.86564 327,199.53331 325.00134,196.19954 323.001,192.86564 321,189.53331 318.00126,186.53257 315.001,183.53231 312,180.53331 305.33433,178.53231 298.66767,176.53231 292,174.53331" />
    <path
       style="fill:none;stroke:#000000;stroke-width:1px;stroke-linecap:butt;stroke-linejoin:miter;stroke-opacity:1"
       d="M 263.33385,342.86613 C 260.66669,349.19895 260.33336,361.86561 261.33403,367.86593 262.33471,373.86625 264.66786,373.19964 268.16661,372.69985 271.66536,372.20007 276.3344,371.86657 279.86712,372.2999 283.39985,372.73324 286.33373,374.20018 286.66752,375.86609 287.0013,377.53201 285.001,379.53231 281.48234,381.12532 277.96368,382.71833 271.66784,384.1997 268.00096,385.53287 264.33409,386.86604 262.66776,388.1991 261.05304,391.05256 259.43832,393.90603 257.6671,398.86544 257.16693,405.03324 256.66676,411.20104 257.33325,418.86573 258.83385,422.86627 260.33445,426.8668 262.66751,427.2001 266.50005,426.70013 270.33259,426.20016 275.66785,424.86635 281.66694,424.69978 287.66603,424.53321 294.33416,425.53343 298.8341,426.03337 303.33404,426.53331 305.66767,426.53331 306.50057,424.70036 307.33347,422.86742 306.66652,419.19919 307.16682,416.19927 307.66712,413.19934 309.33414,410.86551 310.67721,409.57187 312.02028,408.27824 313.66785,407.86635 314.83358,404.70191 315.99931,401.53746 317.00019,395.53217 318.33339,388.36629 319.66658,381.2004 321.33356,372.86549 323.00009,363.36624 324.66661,353.86699 326.33351,343.19885 327.16675,336.53239 328,329.86593 328,327.19898 327.00058,325.36643 326.00115,323.53389 324.0004,322.53351 319.33339,323.03345 314.66638,323.53339 307.33451,325.53299 299.66722,328.03316 291.99992,330.53334 284.00121,333.53286 277.50073,335.03308 271.00025,336.53331 266.001,336.53331 263.33385,342.86613 Z"
       id="path33"
       inkscape:connector-curvature="0"
       inkscape:path-effect="#path-effect35"
       inkscape:original-d="M 261,336.53331 C 260.66767,349.19898 260.33433,361.86564 260,374.53331 262.33452,373.86559 264.66767,373.19898 267,372.53331 271.66529,372.19915 276.33433,371.86564 281,371.53331 283.66706,372.19882 286.33433,374.19898 289,375.53331 287.0013,377.53201 285.001,379.53231 283,381.53331 277.9985,382.86631 271.66767,384.19898 266,385.53331 264.33399,386.86592 262.66767,388.19898 261,389.53331 259.33324,393.8685 257.66767,398.86564 256,403.53331 256.66784,411.20095 257.33433,418.86564 258,426.53331 260.33461,426.86568 262.66767,427.19898 265,427.53331 270.33241,426.19946 275.66767,424.86564 281,423.53331 287.6662,424.53209 294.33433,425.53231 301,426.53331 303.33404,426.53231 305.66767,426.53231 308,426.53331 307.33462,422.86721 306.66767,419.19898 306,415.53331 307.66731,413.19948 309.33433,410.86564 311,408.53331 312.00051,408.19914 313.66767,407.86564 315,407.53331 316.00012,401.5376 317.001,395.53231 318,389.53331 319.66735,381.20055 321.33433,372.86564 323,364.53331 324.66744,353.86712 326.33433,343.19898 328,332.53331 328.001,329.86593 328.001,327.19898 328,324.53331 326.00175,323.53269 324.001,322.53231 322,321.53331 314.6662,323.53271 307.33433,325.53231 300,327.53331 291.99971,330.53279 284.001,333.53231 276,336.53331 271.00025,336.53231 266.001,336.53231 261,336.53331 Z" />
    <path
       style="fill:none;stroke:#000000;stroke-width:1px;stroke-linecap:butt;stroke-linejoin:miter;stroke-opacity:1"
       d="M 224,531.53331 C 220.23273,530.81574 210.00078,528.86679 203,527.53331"
       id="path37"
       inkscape:connector-curvature="0"
       inkscape:path-effect="#path-effect39"
       inkscape:original-d="M 224,531.53331 C 220.66767,528.53231 210.001,528.86564 203,527.53331" />
    <path
       d="M 376.68989,457.99568 C 374.89276,456.08272 374.16422,453.47703 373.12503,445.24568 371.65028,433.5642 371.47075,432.99098 366.90977,425.4 365.09223,422.375 363.60398,419.38564 363.60257,418.75699 363.59792,416.68848 366.87613,416.29918 374.26375,417.49093 383.58662,418.99487 384.74146,418.28652 392.68225,406.19336 407.5954,383.48189 420.5537,352.66348 424.73751,329.95713 427.06503,317.32523 423.11541,308.98133 413.57556,306.37654 403.51857,303.63056 363.31501,307.99267 306.68772,317.97393 270.73969,324.31023 255.04814,329.15316 250.70544,335.25193 248.32544,338.59432 245.06245,348.24992 244.15475,354.63624 243.55007,358.89059 243.75173,359.64263 246.13668,362.02759 248.78893,364.67984 248.80482,364.6821 260.94589,364.13496 279.48197,363.29963 299.79314,358.66622 301.22012,354.94756 301.54573,354.09905 300.6394,351.16202 299.20606,348.42082 297.77273,345.67961 296.6,342.92102 296.6,342.2906 296.6,338.53586 330.91165,350.58635 337.2946,356.58282 341.31738,360.36202 346.55109,379.75436 344.55491,383.48425 343.41006,385.62343 339.34851,386.01528 335.09257,384.39717 333.64187,383.84562 327.85062,378.97113 322.22313,373.56497 316.59564,368.15882 311.04566,363.4883 309.88983,363.18604 308.66385,362.86544 306.60339,363.44215 304.94416,364.57032 300.20418,367.79317 291.2522,372.15582 280.91004,376.28309 275.51452,378.43629 266.07823,382.66578 259.94052,385.68196 247.23956,391.92342 237.83738,393.91216 224.1,393.26289 209.88489,392.59105 204.7933,387.83383 203.82644,374.32069 203.25231,366.29643 202.2971,366.71691 215.31731,369.26253 224.89924,371.13593 229.15241,370.67621 233.18256,367.33148 235.74969,365.20095 238.65806,358.6165 240.15594,351.54398 242.53201,340.32495 240.23706,335.40291 232.62749,335.39749 230.68737,335.39611 221.9,337.39219 213.1,339.83323 204.3,342.27427 191.025,345.88878 183.6,347.86548 168.80528,351.80416 158.99734,355.91175 155.11332,359.79577 151.45824,363.45085 151.86946,367.54249 156.94014,377.97258 162.57349,389.56006 165.6,398.43156 165.6,403.35693 165.6,411.3818 161.41999,415.10729 158.10044,410.04102 157.25033,408.74358 153.41925,398.95666 149.58695,388.2923 145.75464,377.62795 141.76753,367.77699 140.7267,366.40128 137.6713,362.36283 133.07505,363.14346 117.6,370.32911 98.970517,378.97948 95.451757,379.98547 88.737787,378.58057 78.423516,376.4223 70.805717,369.85684 69.116295,361.66963 L 68.449712,358.43926 71.774856,359.80775 C 77.281828,362.07418 83.010898,362.59483 89.498375,361.41843 98.647524,359.75937 119.75194,352.77521 123.67283,350.10895 126.76501,348.00623 127.09431,347.32735 127.04182,343.1637 127.00178,339.98676 125.97885,336.63211 123.75864,332.39657 120.08092,325.3805 120.12777,325.36159 130.1,329.83659 137.14515,332.99808 141.36701,336.8903 142.74692,341.49605 143.57721,344.26729 144.62292,345.61863 146.25389,346.02798 148.71049,346.64455 159.03058,344.09153 200.6,332.58364 229.41675,324.60615 232.14847,323.61336 236.99786,319.35554 241.82094,315.12082 243.89258,309.07135 244.00621,298.89019 244.13578,287.28133 243.63973,286.85281 230.30495,287.05387 218.68352,287.22911 205.33702,290.24859 193.79786,295.31316 189.92935,297.01106 186.03562,298.12066 185.14512,297.77894 182.74344,296.85733 180.6,292.03347 180.6,287.55004 V 283.60076 L 187.91664,281.97297 C 196.25999,280.11675 199.6,278.18856 199.6,275.22816 199.6,270.57898 190.06528,242.13423 182.96367,225.5973 172.77642,201.87511 171.45322,199.40539 165.6191,193.22409 160.41598,187.71134 159.96611,186.9098 161.53201,185.94202 164.02327,184.40234 193.23121,198.50327 200.16989,204.59551 L 203.6,207.60718 V 217.3061 C 203.6,224.99696 204.32859,229.99624 207.11908,241.45251 213.4781,267.55926 217.8363,273.00788 231.73131,272.22274 236.61101,271.94701 239.32008,271.25288 241.30744,269.76911 245.35376,266.74809 247.79019,258.12673 247.96108,246.22502 248.13643,234.0129 246.83468,231.81497 237.86147,229.17242 233.46282,227.87704 230.94306,226.41582 228.69735,223.8581 223.96559,218.46891 224.48493,217.40263 231.85,217.38526 239.45786,217.36731 242.53812,215.95269 244.91282,211.38609 247.4936,206.42321 246.75452,196.59173 243.28714,189.76066 239.64505,182.5854 238.55289,181.76614 231.57763,180.97698 222.16019,179.91152 213.02753,176.75897 210.66775,173.759 208.23944,170.6719 208.50796,170.09576 213.93406,166.75094 221.4025,162.14715 221.91851,160.27481 218.5179,150.11845 214.64372,138.54772 211.17756,137.22715 198.25897,142.4 189.27787,145.99621 183.91129,146.19295 177.80112,143.15 171.17836,139.85177 161.10646,129.68708 158.13407,123.30175 155.33185,117.28198 154.82769,111.63359 157.01761,110.79324 157.79729,110.49405 161.76349,111.18317 165.83139,112.32463 175.94854,115.1635 185.21448,115.02646 196.08183,111.87723 200.8699,110.4897 206.09524,108.67814 207.6937,107.85155 L 210.6,106.34864 V 96.034282 C 210.6,79.835058 206.28323,66.066508 196.39407,50.723737 193.97504,46.970682 191.6594,43.344276 191.24821,42.665058 190.28634,41.076232 194.27142,41.793458 205.09512,45.157193 212.29859,47.395855 213.68481,48.260828 219.09512,53.892939 225.54393,60.606134 230.96208,68.869441 233.22866,75.448231 234.4675,79.043999 234.43058,80.611278 232.92154,88.483243 231.47964,96.004964 231.39702,98.354606 232.40313,103.22572 234.07458,111.3181 233.9795,112.94219 230.58008,134.3633 228.91912,144.82966 227.84588,154.53148 228.1951,155.9229 229.47782,161.03367 235.10185,161.38722 250.40249,157.31897 262.45381,154.11466 262.98345,153.51174 270.65856,134.2602 283.86515,101.13402 297.6,51.992553 297.6,37.867324 297.6,32.421815 295.96971,27.737338 292.82715,24.153008 291.19596,22.292521 290.89368,16.706318 292.34562,15.254376 293.30974,14.290264 303.86566,17.474556 309.88451,20.545144 319.3437,25.370863 326.80019,37.251209 327.43639,48.510349 327.94571,57.523996 326.12979,63.177141 317.05912,80.815913 312.76207,89.171918 309.61491,96.493677 309.79044,97.726248 310.5341,102.94826 321.13251,100.62726 352.70561,88.328036 362.3887,84.556013 372.0637,81.196448 374.20561,80.862337 378.37774,80.211537 386.21179,82.229621 385.87352,83.86804 385.76359,84.400462 382.39458,85.392372 378.38683,86.072283 374.37907,86.752195 367.61812,88.447704 363.36249,89.840082 352.04698,93.542342 308.96224,110.18275 303.41867,112.99189 298.08448,115.69492 293.88006,120.80572 285.13598,135.21588 275.82794,150.55545 277.49806,153.01214 296.4902,151.91757 311.04075,151.07898 315.40022,149.92121 323.13402,144.84164 332.76175,138.51812 336.48262,138.84583 347.70118,147.00532 355.73516,152.8486 360.87056,162.91838 358.6054,168.38695 357.03718,172.17298 355.19974,172.73853 349.34363,171.23766 342.96048,169.60171 341.52478,170.58436 339.45713,178.00437 338.55356,181.24697 336.62693,187.93658 335.17575,192.87018 331.28893,206.08418 329.78216,217.07055 328.06594,244.71018 327.21865,258.35578 326.12453,271.63078 325.63458,274.21018 323.11361,287.48194 318.7999,289.68274 312.50052,280.911 307.88772,274.4878 305.95097,273.99289 288.27571,274.72068 270.84,275.43861 262.05839,276.79133 258.78003,279.2642 255.81349,281.50187 254.79449,286.13749 254.02406,300.9 253.20663,316.56303 253.45338,316.94537 264.27358,316.78141 268.57811,316.71618 284.475,314.59218 299.6,312.0614 328.64267,307.20187 346.72313,304.76032 378.6,301.39342 402.68921,298.84907 417.86875,298.66183 424.3664,300.82888 435.78279,304.6364 444.6,315.42489 444.6,325.58613 444.6,333.72707 439.0008,348.25926 425.80338,374.37096 411.78512,402.10673 400.84018,425.09714 392.9751,443.32841 390.02617,450.16404 386.63195,456.80154 385.43239,458.07841 382.63323,461.05798 379.53926,461.0287 376.68989,457.99568 Z M 289.6,264.9 H 307.1 L 307.71465,259.18104 C 308.05271,256.03561 309.08015,252.43561 309.99785,251.18104 310.91555,249.92647 312.72023,247.45438 314.00826,245.68752 315.75399,243.29279 317.15668,238.2452 319.51862,225.85843 324.46709,199.90719 327.6256,180.5891 328.27746,172.28761 328.81811,165.40242 328.67101,164.47101 326.73761,162.53761 323.14159,158.94159 317.71647,159.80674 291.1,168.22076 283.95,170.48102 275.52048,173.03125 272.36773,173.88794 265.5869,175.73048 263.29373,177.90416 261.46748,184.22015 259.71594,190.27778 259.69544,207.12047 261.43584,210.21273 262.67937,212.42215 263.08625,212.49503 270.54515,211.84438 275.68807,211.39576 279.58952,211.57147 281.9764,212.35921 288.68075,214.57184 286.29475,216.93989 272.74672,221.51942 268.08835,223.09405 263.45907,225.12255 262.45943,226.02721 261.4598,226.93187 259.69618,230.19833 258.54028,233.28602 254.89274,243.02949 256.02051,262.7136 260.37963,265.39008 261.45858,266.05255 263.9642,266.1581 267.1,265.67319 269.85,265.24794 279.975,264.9 289.6,264.9 Z"
       id="path41"
       inkscape:connector-curvature="0"
       transform="translate(0,161.53331)" />
  </g>
</svg>
