<?xml version="1.0" encoding="UTF-8" standalone="no"?>
<!-- Created with Inkscape (http://www.inkscape.org/) -->

<svg
   xmlns:dc="http://purl.org/dc/elements/1.1/"
   xmlns:cc="http://creativecommons.org/ns#"
   xmlns:rdf="http://www.w3.org/1999/02/22-rdf-syntax-ns#"
   xmlns:svg="http://www.w3.org/2000/svg"
   xmlns="http://www.w3.org/2000/svg"
   xmlns:sodipodi="http://sodipodi.sourceforge.net/DTD/sodipodi-0.dtd"
   xmlns:inkscape="http://www.inkscape.org/namespaces/inkscape"
   width="512"
   height="512"
   viewBox="0 0 512 512"
   version="1.1"
   id="svg8"
   inkscape:version="0.92.4 (5da689c313, 2019-01-14)"
   sodipodi:docname="蓋U+84CB-2.svg">
  <defs
     id="defs2">
    <inkscape:path-effect
       effect="bspline"
       id="path-effect43"
       is_visible="true"
       weight="33.333333"
       steps="2"
       helper_size="0"
       apply_no_weight="true"
       apply_with_weight="true"
       only_selected="false" />
    <inkscape:path-effect
       effect="bspline"
       id="path-effect39"
       is_visible="true"
       weight="33.333333"
       steps="2"
       helper_size="0"
       apply_no_weight="true"
       apply_with_weight="true"
       only_selected="false" />
    <inkscape:path-effect
       effect="bspline"
       id="path-effect35"
       is_visible="true"
       weight="33.333333"
       steps="2"
       helper_size="0"
       apply_no_weight="true"
       apply_with_weight="true"
       only_selected="false" />
    <inkscape:path-effect
       effect="bspline"
       id="path-effect31"
       is_visible="true"
       weight="33.333333"
       steps="2"
       helper_size="0"
       apply_no_weight="true"
       apply_with_weight="true"
       only_selected="false" />
    <inkscape:path-effect
       effect="bspline"
       id="path-effect27"
       is_visible="true"
       weight="33.333333"
       steps="2"
       helper_size="0"
       apply_no_weight="true"
       apply_with_weight="true"
       only_selected="false" />
    <inkscape:path-effect
       effect="bspline"
       id="path-effect23"
       is_visible="true"
       weight="33.333333"
       steps="2"
       helper_size="0"
       apply_no_weight="true"
       apply_with_weight="true"
       only_selected="false" />
  </defs>
  <sodipodi:namedview
     id="base"
     pagecolor="#ffffff"
     bordercolor="#666666"
     borderopacity="1.0"
     inkscape:pageopacity="0.0"
     inkscape:pageshadow="2"
     inkscape:zoom="1"
     inkscape:cx="690.49569"
     inkscape:cy="360"
     inkscape:document-units="px"
     inkscape:current-layer="svg8"
     showgrid="false"
     units="px"
     inkscape:window-width="1920"
     inkscape:window-height="1001"
     inkscape:window-x="-9"
     inkscape:window-y="-9"
     inkscape:window-maximized="1" />
  <metadata
     id="metadata5">
    <rdf:RDF>
      <cc:Work
         rdf:about="">
        <dc:format>image/svg+xml</dc:format>
        <dc:type
           rdf:resource="http://purl.org/dc/dcmitype/StillImage" />
        <dc:title></dc:title>
      </cc:Work>
    </rdf:RDF>
  </metadata>
  <g
     inkscape:label="圖層 1"
     inkscape:groupmode="layer"
     id="layer1"
     transform="translate(0,-161.53331)" />
  <path
     style="fill:none;stroke:#000000;stroke-width:1px;stroke-linecap:butt;stroke-linejoin:miter;stroke-opacity:1"
     d="M 187.0002,40.332933 C 186,42.665667 186,48.332333 188.8338,54.500045 191.66759,60.667758 197.33326,67.333244 202.38049,71.347809 207.42772,75.362375 211.6673,76.666862 215.00065,76.166435 218.33399,75.666008 220.66767,73.332332 220.20392,69.069333 219.74018,64.806335 216.33314,58.332961 214.33315,54.166239 212.33317,49.999516 211.66647,47.999401 208.16783,46.000099 204.66919,44.000797 198.33395,42.000196 194.16708,40.500148 190.0002,39.0001 188.0004,38.0002 187.0002,40.332933 Z"
     id="path21"
     inkscape:connector-curvature="0"
     inkscape:path-effect="#path-effect23"
     inkscape:original-d="M 186,37 C 186.001,42.665667 186.001,48.332333 186,54 191.66867,60.666843 197.33433,67.332333 203,74 207.33439,75.665688 211.66767,76.665667 216,78 218.33399,75.666007 220.66767,73.332333 223,71 220.00229,64.668381 216.33433,58.332333 213,52 212.33437,49.999117 211.66767,47.999 211,46 204.66957,43.9996 198.33433,41.999 192,40 190.0008,38.998902 188.001,37.999 186,37 Z" />
  <path
     style="fill:none;stroke:#000000;stroke-width:1px;stroke-linecap:butt;stroke-linejoin:miter;stroke-opacity:1"
     d="M 317.3336,13.666215 C 315.33346,15.665565 314.6668,21.33223 312.50004,27.499502 310.33327,33.666774 306.66732,40.332142 302.22817,47.085779 297.78902,53.839416 292.33418,60.998887 288.66735,65.832429 285.00052,70.665972 283.00084,73.332213 287.16986,72.665034 291.33888,71.997854 301.66788,67.999532 309.83402,62.166327 318.00017,56.333122 324.00087,48.665561 327.83386,42.499181 331.66686,36.332801 333.33376,31.665464 333.87201,27.858369 334.41025,24.051273 333.66651,20.332564 332.16719,18.333121 330.66787,16.333677 328.33399,15.666854 325.50006,14.499957 322.66612,13.33306 319.33373,11.666865 317.3336,13.666215 Z"
     id="path25"
     inkscape:connector-curvature="0"
     inkscape:path-effect="#path-effect27"
     inkscape:original-d="M 316,10 C 315.33433,15.665667 314.66767,21.332333 314,27 310.33362,33.666964 306.66767,40.332333 303,47 298.00011,54.000249 292.33433,60.999 287,68 285.00068,70.666091 283.001,73.332333 281,76 291.33867,71.99732 301.66767,67.999 312,64 318.0003,56.333228 324.001,48.665667 330,41 331.66743,36.333006 333.33433,31.665667 335,27 334.66775,23.999774 333.66767,20.332333 333,17 330.66821,16.332487 328.33433,15.665667 326,15 322.66672,13.331862 319.33433,11.665667 316,10 Z" />
  <path
     style="fill:none;stroke:#000000;stroke-width:1px;stroke-linecap:butt;stroke-linejoin:miter;stroke-opacity:1"
     d="M 176.83376,112.33308 C 175.33313,114.99956 177.66646,119.99956 180.67688,122.96069 183.68731,125.92183 188.00071,127.00018 194.69468,125.39573 201.38866,123.79129 211.33454,119.33279 218.83403,117.49974 226.33353,115.66669 231.66753,116.33344 234.50038,119.66576 237.33323,122.99809 237.66661,128.99906 237.99998,135.4996 238.33334,142.00015 238.66662,148.99905 238.97962,153.81634 239.29263,158.63363 239.66657,161.99912 232.33168,165.66669 224.9968,169.33426 210.00119,173.66632 199.3342,175.99981 188.66721,178.3333 182.33438,178.66661 178.50077,178.6667 174.66716,178.66679 173.33404,178.33351 171.83361,179.50021 170.33318,180.66691 168.6674,183.33216 169.66778,187.00037 170.66817,190.66858 174.33323,195.3332 179.00035,198.50005 183.66748,201.66691 189.33398,203.33352 194.83392,202.33324 200.33387,201.33297 205.66781,197.66588 213.16679,194.49973 220.66577,191.33358 230.33452,188.66634 236.00108,186.83288 241.66764,184.99942 243.33451,183.9993 244.00072,188.4956 244.66694,192.99191 244.33337,202.99897 244.66664,209.83267 244.99992,216.66637 245.99981,220.33265 244.16675,223.16625 242.33368,225.99985 237.66788,227.99948 229.33294,229.66652 220.998,231.33356 209.0011,232.66654 201.0009,233.49991 193.00071,234.33327 189.00108,234.66658 185.48669,234.37913 181.9723,234.09169 178.33397,233.00019 175.50056,233.83315 172.66715,234.66612 170.33426,237.33227 169.33319,241.32302 168.33211,245.31377 168.66661,250.66574 171.50071,254.33315 174.33482,258.00056 179.66722,260.00021 186.0005,259.33333 192.33379,258.66646 199.66788,255.33278 209.00027,251.66651 218.33267,248.00023 229.66787,243.99957 242.80499,240.6716 255.94211,237.34362 271.00114,234.66646 281.8341,233.66658 292.66705,232.66671 299.33422,233.33342 306.50028,234.66667 313.66633,235.99991 321.33402,238.00018 326.66732,237.16638 332.00062,236.33257 335.00089,232.66558 334.83425,228.99998 334.66761,225.33437 331.33329,221.66662 327.50019,218.66676 323.66709,215.66689 319.33369,213.33352 316.16716,212.00015 313.00064,210.66677 311.00081,210.33347 308.50039,211.00008 305.99997,211.66668 303.00119,213.33267 296.16572,215.16662 289.33026,217.00058 278.66782,218.99978 271.50097,220.49978 264.33412,221.99978 260.66785,222.99968 259.6247,220.65305 258.58155,218.30643 260.33366,211.99881 260.66683,207.4994 261,202.99999 259.9998,199.9994 259.16657,196.33305 258.33334,192.6667 257.66654,188.3325 257.66671,184.99921 257.66688,181.66592 258.33367,179.33214 265.14307,177.33578 271.95247,175.33943 285.00111,173.66652 293.66763,171.66638 302.33415,169.66623 306.66786,167.33269 308.35982,165.06009 310.05178,162.78748 308.99979,160.33285 307.16711,158.66663 305.33443,157.00041 302.66722,156.00021 299.66698,155.16678 296.66675,154.33335 293.3341,153.66682 288.00013,154.50016 282.66617,155.33349 275.33453,157.66629 270.6676,158.83314 266.00067,160 264.001,160 263.83443,157.16465 263.66785,154.32931 265.33368,148.66548 267.00037,144.4991 268.66705,140.33272 270.33406,137.6655 269.83441,135.49987 269.33477,133.33423 266.66694,131.66684 263.74043,129.43951 260.81391,127.21217 258.66674,125.3334 255.8335,123.33344 253.00026,121.33348 250.00034,119.66686 247.16676,117.83337 244.33319,115.99989 241.66683,114.00012 241.66741,112.16631 241.668,110.3325 244.3345,108.66594 249.16626,107.49973 253.99801,106.33352 261.00109,105.66656 270.61783,103.80396 280.23457,101.94136 292.00118,98.999706 303.17263,97.338227 314.34408,95.676747 325.33436,95.333301 333.00045,96.499948 340.66654,97.666595 345.33365,100.33352 350.50036,102.16679 355.66707,104.00007 361.33413,105.00014 366.00073,104.99998 370.66733,104.99982 374.33451,103.99968 374.83433,102.00029 375.33414,100.0009 372.66661,96.99994 370.33329,94.333286 367.99997,91.666632 365.99993,89.333251 363.00053,88.166625 360.00114,87 355.33433,87 348.16651,87 340.99869,87 331.001,87 321.83397,87.499984 312.66693,87.999968 304.33443,88.999868 296.49783,89.97855 288.66122,90.957232 280.66778,91.999855 272.01949,93.431747 263.3712,94.863639 252.33448,96.999778 243.50072,98.499869 234.66697,99.999959 227.33445,100.99985 220.16727,102.16658 213.00009,103.33332 206.00115,104.66645 200.83423,105.83313 195.66731,106.99981 192.33452,107.99964 188.00017,108.66651 183.66582,109.33339 178.33439,109.6666 176.83376,112.33308 Z"
     id="path29"
     inkscape:connector-curvature="0"
     inkscape:path-effect="#path-effect31"
     inkscape:original-d="M 173,110 C 175.33433,114.999 177.66767,119.999 180,125 183.66799,125.99909 188.001,126.999 192,128 201.33269,123.66643 211.33433,119.33233 221,115 226.33367,115.66558 231.66767,116.33233 237,117 237.33428,122.99803 237.66767,128.999 238,135 238.33439,142.0001 238.66767,148.999 239,156 239.001,158.66603 239.66767,161.999 240,165 224.99661,169.3336 210.001,173.66567 195,178 188.66716,178.33236 182.33433,178.66567 176,179 174.66745,178.66561 173.33433,178.33233 172,178 170.33345,180.66708 168.66767,183.33233 167,186 170.66927,190.66771 174.33433,195.33233 178,200 183.66783,201.66571 189.33433,203.33233 195,205 200.33372,201.33275 205.66767,197.66567 211,194 220.66559,191.33291 230.33433,188.66567 240,186 241.66746,184.99912 243.33433,183.999 245,183 244.6679,192.99194 244.33433,202.999 244,213 245.0011,216.66605 246.001,220.33233 247,224 242.33347,225.99937 237.66767,227.999 233,230 220.9979,231.33268 209.001,232.66567 197,234 193.00063,234.33236 189.001,234.66567 185,235 182.00019,233.99873 178.33433,232.999 175,232 172.66722,234.66618 170.33433,237.33233 168,240 168.001,245.33446 168.66767,250.66567 169,256 174.33527,257.99935 179.66767,259.999 185,262 192.33358,258.66601 199.66767,255.33233 207,252 218.33247,247.99966 229.66767,243.999 241,240 255.99941,237.66591 271.001,234.66567 286,232 292.66716,232.66562 299.33433,233.33233 306,234 313.66664,235.99873 321.33433,237.999 329,240 332.00073,236.33266 335.001,232.66567 338,229 334.66866,225.33342 331.33433,221.66567 328,218 323.66773,215.6657 319.33433,213.33233 315,211 313.00083,210.66564 311.001,210.33233 309,210 305.99978,211.66634 303.001,213.33233 300,215 289.33011,216.99979 278.66767,218.999 268,221 264.33394,221.99911 260.66767,222.999 257,224 258.66821,218.3305 260.33433,211.999 262,206 261.0012,202.99959 260.001,199.999 259,197 258.33447,192.66653 257.66767,188.33233 257,184 257.66754,181.66611 258.33433,179.33233 259,177 271.99438,175.66635 285.001,173.66567 298,172 302.33396,169.66587 306.66767,167.33233 311,165 310.33452,162.66631 309.001,160.33233 308,158 305.33488,156.99921 302.66767,155.999 300,155 296.66698,154.3322 293.33433,153.66567 290,153 282.66597,155.33287 275.33433,157.66567 268,160 266.00067,159.999 264.001,159.999 262,160 263.6685,154.3295 265.33433,148.66567 267,143 268.66732,140.33289 270.33433,137.66567 272,135 269.3355,133.33306 266.66767,131.66567 264,130 261.0007,126.9987 258.66767,125.33233 256,123 253.00092,121.33229 250.001,119.66567 247,118 244.33403,115.99877 241.66767,113.999 239,112 241.66783,110.33223 244.33433,108.66567 247,107 253.99793,106.33263 261.001,105.66567 268,105 280.33242,102.33275 292.001,98.999 304,96 314.33332,95.332399 325.33433,95.332333 336,95 340.66722,97.665409 345.33433,100.33233 350,103 355.66727,103.99893 361.33433,104.999 367,106 370.66715,104.99914 374.33433,103.999 378,103 375.33519,99.999969 372.66767,96.999 370,94 368.00104,91.665715 366.001,89.332333 364,87 360.00114,86.999 355.33433,86.999 351,87 340.99869,86.999 331.001,86.999 321,87 312.66683,87.9991 304.33433,88.999 296,90 288.66669,90.999133 280.66767,91.999 273,93 263.33293,94.665908 252.33433,96.999 242,99 234.66685,99.999111 227.33433,100.999 220,102 212.99994,103.33254 206.001,104.66567 199,106 195.66712,106.99916 192.33433,107.999 189,109 183.66576,109.33245 178.33433,109.66567 173,110 Z" />
  <path
     style="fill:none;stroke:#000000;stroke-width:1px;stroke-linecap:butt;stroke-linejoin:miter;stroke-opacity:1"
     d="M 133.00056,299.66646 C 130.66786,298.66633 128.33452,299.33299 126.83386,301.50019 125.3332,303.66739 124.66688,307.33219 125.83386,310.99994 127.00085,314.6677 129.99991,318.33322 132.66656,322.33316 135.33321,326.3331 137.66648,330.66631 140.33386,332.83316 143.00125,335 146.001,335 148.24965,336.79797 150.49831,338.59593 152.33313,342.9995 155.00003,348.33332 157.66693,353.66714 161.33314,360.33298 164.49987,366.99974 167.6666,373.66649 170.33312,380.33281 171.83315,384.33277 173.33318,388.33273 173.66649,389.66596 165.66283,392.00041 157.65918,394.33486 141.33449,397.66643 124.72688,401.86533 108.11927,406.06422 91.66786,410.99964 79.334232,414.49975 67.000605,417.99985 59.001176,419.99971 53.334062,420.66655 47.666947,421.33339 44.334103,420.66682 41.833432,418.8329 39.332761,416.99897 37.666478,413.99966 36.167248,412.83283 34.668018,411.66599 33.334534,412.33273 33.000837,414.83457 32.667139,417.3364 33.333207,421.66584 35.341107,425.67488 37.349008,429.68391 40.66662,433.33328 44.50011,436.66673 48.3336,440.00018 52.666875,443.00014 57.0005,444.50007 61.334125,446 65.667667,446 68.135162,444.49336 70.602656,442.98672 71.333565,439.33218 74.855936,436.39043 78.378308,433.44868 85.334539,430.66618 94.166867,427.8332 102.9992,425.00022 114.00118,421.99968 125.3339,418.66651 136.66661,415.33335 148.33453,411.66629 162.00035,408.66652 175.66618,405.66674 191.33445,403.33317 205.80349,400.38612 220.27252,397.43908 234.33451,393.66635 253.50004,391.3332 272.66557,389.00004 297.33437,387.99996 316.66702,387.15852 335.99967,386.31709 349.33438,385.66662 362.66702,387.16659 375.99967,388.66657 389.00066,392.33352 401.8336,396.66674 414.66654,400.99995 427.33385,406.00021 438.00042,409.66681 448.66699,413.33342 457.33401,415.66685 463.16739,415.33304 469.00076,414.99924 472.001,411.999 472.0009,407.5003 472.0008,403.0016 468.9998,396.9996 464.83349,391.99999 460.66718,387.00039 455.33349,383.00012 449.16683,379.16677 443.00016,375.33342 436.00038,371.66686 430.33363,368.83348 424.66688,366.0001 420.33377,364.0002 416.50044,362.66681 412.6671,361.33342 409.3341,360.66682 407.66705,361.66655 406,362.66628 406,365.33233 403.16613,366.83286 400.33227,368.3334 394.66772,368.6666 388.33059,368.35558 381.99346,368.04456 374.33418,367.00012 369.00591,366.7077 363.67765,366.41529 361.66778,366.66653 357.49996,367.50007 353.33215,368.33361 347.66784,369.66639 345.50082,366.4985 343.33381,363.33061 344.66686,355.66553 348.75592,346.78052 352.84498,337.8955 360.00078,327.33218 366.00041,317.16605 372.00004,306.99991 377.0006,296.9988 376.50062,288.49978 376.00065,280.00076 369.99993,272.99992 365.50005,268.33336 361.00017,263.6668 358.00014,261.33344 352.00039,260.50003 346.00065,259.66662 337.00107,260.33325 324.83353,262.00002 312.66599,263.66678 297.33447,266.33314 284.66745,268.83318 272.00043,271.33323 262.00117,273.66639 251.16715,276.16655 240.33314,278.66671 228.66784,281.33307 218.66739,283.16652 208.66693,284.99997 200.33443,285.99987 193.16732,286.49993 186.0002,287 180.001,287 176.16753,287 172.33406,287 170.66767,287 169.33367,289.16738 167.99967,291.33476 167.00027,295.6655 167.3336,299.33299 167.66693,303.00047 169.33314,305.99966 173.8341,307.83324 178.33506,309.66682 185.66757,310.33342 192.83395,308.66661 200.00033,306.99981 207.00118,302.99932 217.66662,299.66645 228.33206,296.33357 242.66782,293.66645 256.64045,290.87468 270.61308,288.08291 285.00116,284.99975 296.16749,282.49982 307.33381,279.99989 315.66784,277.99972 322.32159,276.2891 328.97534,274.57848 333.33452,273.33299 338.16677,274.1662 342.99903,274.99941 348.00029,278.00018 350.83337,280.66636 353.66644,283.33254 354.33315,285.66601 353.18098,291.61991 352.02882,297.57382 349.00037,307.33214 345.50028,315.66591 342.00018,323.99968 338.00068,330.99882 335.3338,336.16575 332.66692,341.33269 331.33381,344.66546 329.33369,346.99934 327.33357,349.33322 324.66787,350.66607 322.33398,351.33303 320.0001,352 318.001,352 317.44181,353.76524 316.88262,355.53047 317.99982,359.99929 318.9999,363.33294 319.99997,366.66659 320.99979,369.33278 317.16621,370.99975 313.33262,372.66672 304.66774,373.33325 290.66655,374.50002 276.66536,375.66678 257.33441,377.33324 242.66751,379.33322 228.00061,381.33319 218.00117,383.66639 209.52,385.30782 201.03884,386.94925 193.33445,387.99985 189.16726,388.16662 185.00008,388.33339 184.00023,387.66682 183.50012,385.99927 183,384.33172 183,381.66567 183.47546,377.16313 183.95091,372.66058 185.00017,365.66555 184.51682,359.38297 184.03346,353.10039 181.9998,346.9994 179.33331,341.1665 176.66682,335.33359 173.33315,329.66636 169.83352,325.83333 166.33388,322.0003 162.66702,320.00019 158.66674,317.50002 154.66646,314.99986 150.33354,312.00014 147.16692,310.00015 144.0003,308.00015 142.0004,307.0002 139.83327,305.16646 137.66614,303.33273 135.33327,300.6666 133.00056,299.66646 Z"
     id="path33"
     inkscape:connector-curvature="0"
     inkscape:path-effect="#path-effect35"
     inkscape:original-d="M 133,298 C 130.66767,298.66567 128.33433,299.33233 126,300 125.33399,303.66753 124.66767,307.33233 124,311 127.00194,314.66681 130.001,318.33233 133,322 135.3344,326.33246 137.66767,330.66567 140,335 143.00125,334.999 146.001,334.999 149,335 150.33389,338.66444 152.33433,342.999 154,347 157.66812,353.66649 161.33433,360.33233 165,367 167.6678,373.66601 170.33433,380.33233 173,387 173.33436,388.33244 173.66767,389.66567 174,391 157.65902,394.3341 141.33433,397.66567 125,401 107.9998,405.666 91.667667,410.999 75,416 67.000428,417.99914 59.001,419.999 51,422 47.667177,421.33224 44.334333,420.66567 41,420 39.333949,416.99831 37.667667,413.999 36,411 34.667818,411.66559 33.334333,412.33233 32,413 32.668267,417.33623 33.334333,421.66567 34,426 37.001572,429.99976 40.667667,433.33233 44,437 48.334392,439.99904 52.667667,442.999 57,446 61.334125,445.999 65.667667,445.999 70,446 70.667513,442.99969 71.334333,439.33233 72,436 78.332141,433.33326 85.334333,430.66567 92,428 102.99901,424.99954 114.001,421.999 125,419 136.66641,415.33273 148.33433,411.66567 160,408 175.66606,405.66591 191.33433,403.33233 207,401 220.33338,397.66591 234.33433,393.66567 248,390 272.66553,388.99909 297.33433,387.999 322,387 336.00041,386.33236 349.33433,385.66567 363,385 376,388.66539 389.001,392.33233 402,396 414.66702,400.99874 427.33433,405.999 440,411 448.66731,413.33224 457.33433,415.66567 466,418 469.00076,414.99924 472.001,411.999 475,409 472.002,403.001 469.001,396.999 466,391 460.66802,386.99927 455.33433,382.999 450,379 443.00079,375.33222 436.001,371.66567 429,368 424.66744,365.99889 420.33433,363.999 416,362 412.66733,361.33227 409.33433,360.66567 406,360 406.001,362.66628 406.001,365.33233 406,368 400.33221,368.33246 394.66767,368.66567 389,369 381.9997,367.99881 374.33433,366.999 367,366 363.66728,366.33237 361.66767,366.66567 359,367 353.33198,368.33289 347.66767,369.66567 342,371 343.33461,363.33075 344.66767,355.66567 346,348 352.99996,338.00049 360.001,327.33233 367,317 372.00044,307.00011 377.001,296.999 382,287 376.00172,279.99984 370.001,272.999 364,266 361.00104,263.66569 358.001,261.33233 355,259 346.00058,259.6657 337.001,260.33233 328,261 312.66585,263.66598 297.33433,266.33233 282,269 272.00026,271.33251 262.001,273.66567 252,276 240.33297,278.66598 228.66767,281.33233 217,284 208.66683,284.9991 200.33433,285.999 192,287 186.0002,286.999 180.001,286.999 174,287 172.33406,286.999 170.66767,286.999 169,287 168.0004,291.33493 167.001,295.66567 166,300 167.66812,302.99981 169.33433,305.999 171,309 178.33516,309.66574 185.66767,310.33233 193,311 200.00014,306.99949 207.001,302.999 214,299 228.33191,296.33278 242.66767,293.66567 257,291 270.66657,288.33255 285.001,284.999 299,282 307.33364,279.99917 315.66767,277.999 324,276 329.0003,274.66585 333.33433,273.33233 338,272 342.99973,274.99824 348.001,277.999 353,281 353.66763,283.3322 354.33433,285.66567 355,288 352.33358,297.6684 349.001,307.33233 346,317 342.00051,323.99987 338.001,330.999 334,338 332.66744,341.3329 331.33433,344.66567 330,348 327.33337,349.33282 324.66767,350.66567 322,352 320.0001,351.999 318.001,351.999 316,352 316.3345,355.6675 318.001,359.999 319,364 320.00118,366.66614 321.001,369.33233 322,372 313.33255,372.6658 304.66767,373.33233 296,374 276.66528,375.66587 257.33433,377.33233 238,379 228.00044,381.33246 218.001,383.66567 208,386 201.00018,386.66574 193.33433,387.999 186,389 185.00085,388.33223 184.001,387.66567 183,387 183.001,384.33172 183.001,381.66567 183,379 184.00062,372.66804 185.001,365.66567 186,359 184.33461,353.00001 182.001,346.999 180,341 176.668,335.3329 173.33433,329.66567 170,324 166.33453,321.99911 162.66767,319.999 159,318 154.66725,314.99871 150.33433,311.999 146,309 144.0009,307.99895 142.001,306.999 140,306 137.6672,303.3318 135.33433,300.66567 133,298 Z" />
  <path
     style="fill:none;stroke:#000000;stroke-width:1px;stroke-linecap:butt;stroke-linejoin:miter;stroke-opacity:1"
     d="M 218.50034,317.83287 C 216.00019,319.99886 215.00019,325.99886 215.16679,331.33288 215.3334,336.66689 216.66648,341.33267 216.83337,345.16595 217.00026,348.99922 216.0004,351.9988 215.33352,355.33292 214.66663,358.66705 214.33343,362.33225 216.00087,364.83309 217.66831,367.33393 221.33389,368.66687 224.83381,367.3332 228.33372,365.99953 231.66757,361.99892 233.83376,357.33294 235.99994,352.66696 237.00022,347.33218 237.17128,342.69314 237.34235,338.05409 236.66653,333.99919 235.83327,330.4996 235,327.00001 233.9998,323.9994 232.83357,322.16653 231.66733,320.33367 230.33373,319.66687 227.66651,318.49995 224.9993,317.33304 221.0005,315.66687 218.50034,317.83287 Z"
     id="path37"
     inkscape:connector-curvature="0"
     inkscape:path-effect="#path-effect39"
     inkscape:original-d="M 217,314 C 216.001,319.999 215.001,325.999 214,332 215.33459,336.66655 216.66767,341.33233 218,346 217.00086,348.99942 216.001,351.999 215,355 214.66753,358.66713 214.33433,362.33233 214,366 217.66875,367.33273 221.33433,368.66567 225,370 228.33382,365.99961 231.66767,361.999 235,358 236.00073,352.66711 237.001,347.33233 238,342 237.66774,337.99986 236.66767,333.999 236,330 235.0012,326.99961 234.001,323.999 233,321 231.66793,320.33247 230.33433,319.66567 229,319 224.9998,317.33183 221.001,315.66567 217,314 Z" />
  <path
     style="fill:none;stroke:#000000;stroke-width:1px;stroke-linecap:butt;stroke-linejoin:miter;stroke-opacity:1"
     d="M 266.66688,299.16629 C 265.33329,301.99905 265.66662,308.99905 265.9994,315.323 266.33217,321.64696 266.66661,327.33239 266.83331,331.83264 267,336.33289 267,339.66567 267.83348,342.9998 268.66697,346.33393 270.33313,349.66627 272.16689,351.83329 274.00064,354.00032 276.0004,355.0002 277.66686,352.33349 279.33331,349.66677 280.66691,343.33217 281.00013,337.1662 281.33336,331.00022 280.66657,324.99912 280.16661,319.33282 279.66666,313.66652 279.33327,308.3324 278.33351,304.9997 277.33375,301.667 275.66679,300.33343 273.33352,299.0001 271.00024,297.66678 268.00046,296.33354 266.66688,299.16629 Z"
     id="path41"
     inkscape:connector-curvature="0"
     inkscape:path-effect="#path-effect43"
     inkscape:original-d="M 265,295 C 265.33433,301.999 265.66767,308.999 266,316 266.001,321.66644 266.66767,327.33233 267,333 267.001,336.33289 267.001,339.66567 267,343 268.66817,346.33333 270.33433,349.66567 272,353 274.00124,353.99912 276.001,354.999 278,356 279.33407,349.66693 280.66767,343.33233 282,337 281.33446,331.0001 280.66767,324.999 280,319 279.66772,313.66645 279.33433,308.33233 279,303 277.33463,301.6659 275.66767,300.33233 274,299 271.00078,297.66557 268.001,296.33233 265,295 Z" />
  <path
     d="M 207.35451,73.299073 C 202.16049,70.728073 193.84676,61.815674 190.52187,55.254317 187.22857,48.755306 186.22195,41.672516 188.46905,40.810223 190.42116,40.061128 205.46754,45.118057 208.58662,47.571525 211.31836,49.720311 218.15437,63.685826 218.81671,68.470922 219.7405,75.144863 215.06346,77.114943 207.35451,73.299073 Z"
     id="path45"
     inkscape:connector-curvature="0" />
  <path
     d="M 289.49992,66.65 C 296.85007,56.940693 306.92738,41.713502 309.85017,35.9 311.50928,32.6 313.82176,26.689683 314.98902,22.765963 316.15628,18.842243 317.73504,15.114278 318.49737,14.481596 320.36884,12.92842 327.75679,15.728408 330.95531,19.203078 332.93578,21.354522 333.24094,22.536562 332.85441,26.559195 331.44074,41.271555 314.35725,60.884892 296.41521,68.394588 286.15365,72.689593 285.12439,72.429931 289.49992,66.65 Z"
     id="path47"
     inkscape:connector-curvature="0" />
  <path
     d="M 176.29378,256.72719 C 169.7078,253.48143 167.82163,243.25602 172.73238,237.41992 L 175.36907,234.2864 182.98238,234.93704 C 187.75983,235.34532 196.183,234.97411 205.59569,233.94048 231.1833,231.13062 242.99241,227.92517 245.13285,223.20855 245.83456,221.66229 245.91884,215.15638 245.38809,203.50582 244.7403,189.28592 244.30568,185.9293 243.00654,185.1124 240.89521,183.78481 221.11478,189.94618 207.59569,196.14247 195.22656,201.81168 189.53192,202.55541 182.78301,199.38305 177.61497,196.95378 171.646,190.72876 170.63952,186.71863 170.24453,185.14484 170.59747,183.28313 171.57311,181.79411 172.9551,179.68494 173.89706,179.4 179.48775,179.4 191.70081,179.4 218.24122,173.07018 231.76098,166.93297 240.30745,163.05334 240.5344,162.29642 239.26397,141.9088 238.06559,122.67737 237.13588,119.50639 231.90229,116.79999 227.52681,114.53734 221.19943,115.44547 206.64526,120.42498 191.4163,125.63536 187.59092,126.13361 183.33277,123.46137 181.53817,122.33514 179.29553,119.7899 178.34912,117.80526 176.66687,114.27756 176.67754,114.15701 178.82591,112.41737 180.03455,111.43868 183.17719,110.32846 185.80956,109.95022 188.44193,109.57199 193.27546,108.58223 196.55072,107.75075 202.41415,106.26224 245.7738,98.730318 276.09569,93.933149 303.23781,89.639046 317.56454,88.402168 340.09569,88.407802 358.86354,88.412495 361.92965,88.634725 364.22369,90.156589 367.72436,92.478931 374.26319,100.39751 373.80795,101.76322 373.26639,103.38789 367.18976,104.42666 362.09569,103.76537 359.62069,103.44408 352.29516,101.417 345.81674,99.260747 334.85231,95.61139 333.22728,95.337545 322.31674,95.300608 309.40272,95.256889 304.80898,95.851844 279.09569,100.89836 269.47069,102.78738 258.0578,105.00429 253.7337,105.82483 240.2117,108.39078 237.78981,112.08549 245.84767,117.85535 263.55441,130.53433 268.15697,134.09532 268.60162,135.46009 268.88118,136.31814 267.95328,139.86666 266.53963,143.34569 265.12597,146.82473 263.71121,151.85069 263.39572,154.5145 262.61704,161.08924 263.80592,161.3705 277.87334,157.93952 286.50812,155.83353 290.78447,155.27536 295.20993,155.67664 306.91494,156.73802 311.46885,162.66378 303.85963,166.93206 299.96664,169.11577 293.13791,170.86252 274.59569,174.4176 268.54569,175.57756 262.24569,177.30831 260.59569,178.2637 257.94334,179.79948 257.56032,180.61334 257.29043,185.28691 257.12254,188.19428 257.68557,193.95982 258.54162,198.09922 259.77433,204.05999 259.88247,206.97494 259.06155,212.11371 257.94018,219.13318 258.34793,221.89908 260.63339,222.77609 262.73287,223.58174 289.78228,217.98393 301.80816,214.25507 L 312.02064,211.0885 318.30816,214.18703 C 324.70512,217.33949 332.57135,224.17258 333.62493,227.49213 334.37514,229.85582 332.68547,232.96746 329.52849,235.03599 326.73842,236.86411 321.64879,236.61779 307.59569,233.97451 282.57198,229.26775 249.7105,235.49037 197.8049,254.7644 187.06834,258.75119 181.44233,259.26454 176.29378,256.72719 Z"
     id="path49"
     inkscape:connector-curvature="0" />
  <path
     d=""
     id="path51"
     inkscape:connector-curvature="0" />
  <path
     d="M 54.045429,441.93578 C 47.068089,438.29996 39.090389,430.58387 36.453021,424.92028 34.382754,420.4745 33.242183,413.4 34.595689,413.4 34.870689,413.4 36.953958,415.25827 39.225174,417.52948 L 43.354659,421.65897 52.475174,421.13113 C 59.773952,420.70873 66.589203,419.16861 86.595689,413.42057 100.34569,409.47006 124.26416,403.13474 139.74784,399.34206 155.23153,395.54938 169.06903,391.91364 170.49784,391.26263 175.43502,389.0131 173.82973,383.83361 159.03582,354.28039 150.25328,336.73585 150.02942,336.40673 145.35878,334.17196 140.32206,331.76202 136.13364,326.9137 129.71465,316.06301 125.76972,309.39449 125.25568,306.04429 127.65239,302.62251 129.82269,299.52397 132.46723,299.84571 136.84281,303.74062 138.90689,305.57796 146.15875,310.64046 152.95804,314.99062 167.15881,324.07622 172.32825,329.2904 177.33388,339.57746 183.30047,351.83939 184.18372,357.72018 182.78926,375.9 182.30253,382.24562 182.38942,386.44816 183.02702,387.4 184.6033,389.75315 194.40117,389.04422 215.67751,385.03757 239.79874,380.49518 251.14802,379.00942 285.37816,375.91293 312.663,373.44472 319.49879,372.11907 320.66922,369.06899 320.96919,368.28727 320.51286,364.93949 319.65516,361.62949 317.56814,353.57542 317.55638,353.62469 321.84569,352.45074 328.14586,350.72642 330.69852,347.57093 338.97773,331.27281 347.45843,314.57804 354.05434,296.20755 354.39004,288.34747 354.56578,284.23254 354.16823,283.08609 351.65616,280.46363 347.42034,276.04166 341.33985,273.4 335.3973,273.4 332.61048,273.4 322.96505,275.17174 313.96302,277.33719 304.96099,279.50265 283.42069,284.22938 266.09569,287.84104 224.5497,296.50194 220.35162,297.56665 204.2785,303.51904 191.48184,308.25805 190.09814,308.56372 182.9132,308.23876 171.62333,307.72815 166.91835,303.48931 168.46868,295.22533 169.67051,288.81903 169.97666,288.70185 188.63969,287.50459 207.96997,286.26454 219.46089,284.3748 250.09569,277.39786 307.40364,264.34623 345.11511,258.9411 355.33518,262.31402 359.86752,263.80983 368.95014,272.87926 372.56247,279.5163 374.95546,283.91301 375.26188,285.43208 374.92611,291.23395 374.45021,299.45732 371.84646,305.2386 358.67296,327.32194 345.65801,349.1395 341.96193,358.84924 344.21339,365.3078 345.61206,369.32002 348.36591,369.97988 357.43735,368.47648 362.98047,367.55782 367.86749,367.56299 379.09569,368.49939 397.03555,369.99552 402.34693,369.34323 406.15266,365.17649 408.6193,362.47585 409.39748,362.18729 412.74757,362.73093 417.61879,363.52142 440.36312,374.73465 450.09569,381.144 462.38481,389.23696 471.01246,400.10825 471.07373,407.57742 471.08802,409.31981 470.13531,411.01688 468.34569,412.4369 464.06138,415.83639 456.05842,414.60978 435.13677,407.34696 396.07117,393.78558 391.22026,392.18811 382.09569,389.87984 366.52375,385.94055 355.88001,385.08029 331.09569,385.75788 277.00475,387.23668 254.37338,389.44729 217.59569,396.84445 202.74569,399.83126 184.29569,403.45635 176.59569,404.90022 158.47552,408.29802 148.0548,410.94728 117.59569,419.89979 81.242473,430.58469 78.707444,431.62439 72.021261,438.59142 67.04811,443.77347 66.023407,444.39498 62.521261,444.35344 60.362196,444.32783 56.548072,443.23988 54.045429,441.93578 Z"
     id="path53"
     inkscape:connector-curvature="0" />
  <path
     d="M 217.66712,364.82857 C 215.92217,363.08363 215.71109,358.27066 217.07818,351.4 217.64376,348.55755 217.56711,343.5849 216.8701,337.9 215.64608,327.91682 216.24285,322.67478 218.98954,319.28277 220.80122,317.04543 220.86472,317.04008 225.33515,318.74735 231.32595,321.03526 232.72188,322.77935 234.6801,330.42302 238.87036,346.77922 231.97261,366.4 222.03226,366.4 220.49572,366.4 218.5314,365.69286 217.66712,364.82857 Z"
     id="path55"
     inkscape:connector-curvature="0" />
  <path
     d="M 272.81639,350.47992 C 268.8381,345.75199 268.13591,341.73786 267.42845,319.6792 266.83112,301.05443 266.91696,299.40582 268.5159,298.79225 270.6758,297.96341 275.11996,301.10998 276.892,304.72272 279.11645,309.25779 280.6621,335.02285 279.20039,343.2021 278.51032,347.06351 277.38648,350.98764 276.70297,351.92239 275.57171,353.46949 275.22307,353.34009 272.81639,350.47992 Z"
     id="path57"
     inkscape:connector-curvature="0" />
</svg>
