<?xml version="1.0" encoding="UTF-8" standalone="no"?>
<!-- Created with Inkscape (http://www.inkscape.org/) -->

<svg
   xmlns:dc="http://purl.org/dc/elements/1.1/"
   xmlns:cc="http://creativecommons.org/ns#"
   xmlns:rdf="http://www.w3.org/1999/02/22-rdf-syntax-ns#"
   xmlns:svg="http://www.w3.org/2000/svg"
   xmlns="http://www.w3.org/2000/svg"
   xmlns:sodipodi="http://sodipodi.sourceforge.net/DTD/sodipodi-0.dtd"
   xmlns:inkscape="http://www.inkscape.org/namespaces/inkscape"
   width="512"
   height="512"
   viewBox="0 0 512 512"
   version="1.1"
   id="svg8"
   inkscape:version="0.92.4 (5da689c313, 2019-01-14)"
   sodipodi:docname="賴U+8CF4-2.svg">
  <defs
     id="defs2">
    <inkscape:path-effect
       effect="bspline"
       id="path-effect55"
       is_visible="true"
       weight="33.333333"
       steps="2"
       helper_size="0"
       apply_no_weight="true"
       apply_with_weight="true"
       only_selected="false" />
    <inkscape:path-effect
       effect="bspline"
       id="path-effect51"
       is_visible="true"
       weight="33.333333"
       steps="2"
       helper_size="0"
       apply_no_weight="true"
       apply_with_weight="true"
       only_selected="false" />
    <inkscape:path-effect
       effect="bspline"
       id="path-effect47"
       is_visible="true"
       weight="33.333333"
       steps="2"
       helper_size="0"
       apply_no_weight="true"
       apply_with_weight="true"
       only_selected="false" />
    <inkscape:path-effect
       effect="bspline"
       id="path-effect43"
       is_visible="true"
       weight="33.333333"
       steps="2"
       helper_size="0"
       apply_no_weight="true"
       apply_with_weight="true"
       only_selected="false" />
    <inkscape:path-effect
       effect="bspline"
       id="path-effect39"
       is_visible="true"
       weight="33.333333"
       steps="2"
       helper_size="0"
       apply_no_weight="true"
       apply_with_weight="true"
       only_selected="false" />
    <inkscape:path-effect
       effect="bspline"
       id="path-effect35"
       is_visible="true"
       weight="33.333333"
       steps="2"
       helper_size="0"
       apply_no_weight="true"
       apply_with_weight="true"
       only_selected="false" />
    <inkscape:path-effect
       effect="bspline"
       id="path-effect27"
       is_visible="true"
       weight="33.333333"
       steps="2"
       helper_size="0"
       apply_no_weight="true"
       apply_with_weight="true"
       only_selected="false" />
    <inkscape:path-effect
       effect="bspline"
       id="path-effect23"
       is_visible="true"
       weight="33.333333"
       steps="2"
       helper_size="0"
       apply_no_weight="true"
       apply_with_weight="true"
       only_selected="false" />
  </defs>
  <sodipodi:namedview
     id="base"
     pagecolor="#ffffff"
     bordercolor="#666666"
     borderopacity="1.0"
     inkscape:pageopacity="0.0"
     inkscape:pageshadow="2"
     inkscape:zoom="1"
     inkscape:cx="400"
     inkscape:cy="160"
     inkscape:document-units="px"
     inkscape:current-layer="svg8"
     showgrid="false"
     units="px"
     inkscape:window-width="1920"
     inkscape:window-height="1001"
     inkscape:window-x="-9"
     inkscape:window-y="-9"
     inkscape:window-maximized="1" />
  <metadata
     id="metadata5">
    <rdf:RDF>
      <cc:Work
         rdf:about="">
        <dc:format>image/svg+xml</dc:format>
        <dc:type
           rdf:resource="http://purl.org/dc/dcmitype/StillImage" />
        <dc:title></dc:title>
      </cc:Work>
    </rdf:RDF>
  </metadata>
  <g
     inkscape:label="圖層 1"
     inkscape:groupmode="layer"
     id="layer1"
     transform="translate(0,-161.53331)" />
  <path
     style="fill:none;stroke:#000000;stroke-width:1px;stroke-linecap:butt;stroke-linejoin:miter;stroke-opacity:1"
     d="M 162.99998,44.33307 C 160.66646,46.332798 162.33313,50.66613 164.83347,54.333276 167.3338,58.000423 170.66672,61.000051 172.33336,67.332779 174,73.665506 174,83.332333 174,95.833127 174,108.33392 174,123.66567 170.66705,132.33272 167.33409,140.99977 160.66786,142.99964 154.31565,144.33519 147.96344,145.67073 142.0011,146.33321 136.50035,145.66653 130.99961,144.99984 126.00052,143.00021 122.50045,141.66683 119.00039,140.33346 117.0006,139.66687 114.33372,140.33338 111.66685,140.99989 108.33451,142.9993 108.83473,145.83367 109.33495,148.66803 113.66676,152.33341 119.16679,156.16675 124.66682,160.00009 131.33362,164.00017 137.00065,164.99987 142.66767,165.99957 147.33454,163.99948 152.33384,162.16644 157.33315,160.33339 162.66786,158.66629 166.16765,157.99989 169.66744,157.33349 171.3349,157.66698 172.00086,158.99959 172.66683,160.33221 172.33344,162.6659 172.5,166.66585 172.66656,170.6658 173.33341,176.33399 173.50008,181.16646 173.66676,185.99892 173.33304,190.00354 172.6671,192.33472 172.00115,194.6659 171.00082,195.33279 169.00091,195.66639 167.001,196 164.00028,196 160.16736,196.33325 156.33445,196.66651 151.667,197.33329 147.1672,197.16673 142.6674,197.00017 138.33292,195.9999 136.49971,196.83293 134.66649,197.66596 135.33316,200.33262 136.99991,202.99965 138.66667,205.66667 141.33312,208.33312 143.83332,210.49996 146.33352,212.6668 148.66639,214.33314 152.33369,215.16657 156.001,216 160.9986,216 164.66652,215.83325 168.33445,215.66651 170.66808,215.33313 172.33398,218.49949 173.99988,221.66584 175.00001,228.33339 175.00007,235.83281 175.00013,243.33223 174.00443,251.62972 172.33605,255.81486 170.66767,260 168.33396,260 163.50091,260.99984 158.66785,261.99968 151.33231,264.00028 146.99969,264.66691 142.66707,265.33353 141.3344,264.6672 140.6672,263.3331 140,261.999 140,259.99915 138.66657,254.66592 137.33314,249.3327 134.66693,240.66751 133.00007,233.83333 131.33322,226.99915 130.62292,221.67193 128.81137,216.66913 126.99981,211.66634 123.99935,206.33217 120.83327,202.99952 117.66719,199.66688 114.33356,198.33342 109.50039,196.50015 104.66723,194.66687 98.330088,192.33214 94.665344,192.16547 91.0006,191.9988 90.067218,193.86556 90.700222,196.43271 91.333226,198.99986 93.666473,201.99975 96.499965,204.83326 99.333457,207.66677 102.82975,210.4638 105.24811,214.56491 107.66648,218.66602 109.33318,224.3328 114.1665,233.66626 118.99983,242.99972 127.00463,256.00752 130.00291,262.83689 133.0012,269.66627 131.00097,270.33301 124.66775,272.66628 118.33454,274.99955 107.66331,279.00126 101.16549,281.00063 94.667667,283 92.333983,283 87.834158,283 83.334333,283 76.99995,283 74.166542,284.33313 71.333135,285.66627 72.66639,288.33278 76.333364,291.33315 80.000338,294.33352 85.998779,297.66599 91.16662,298.99957 96.334461,300.33316 100.66688,299.66663 105.66738,297.9997 110.66787,296.33276 116.33393,293.66638 124.83424,289.99961 133.33454,286.33284 144.66732,281.6664 151.33371,280.16657 158.0001,278.66675 160.0004,280.33366 161.66677,282.49997 163.33313,284.66627 164.66698,287.33396 164.33387,290.1664 164.00077,292.99885 161.84661,296.23008 158.42373,300.94782 155.00084,305.66555 150.00024,312.33301 143.33396,319.83267 136.66767,327.33233 128.33321,335.66679 119.83386,342.4997 111.3345,349.33261 102.42492,354.81543 94.046359,358.07429 85.667799,361.33315 77.335753,362.66628 74.668108,363.99991 72.000463,365.33354 75.00013,366.66672 80.000455,368.0001 85.000781,369.33348 91.937393,370.65474 97.469297,370.32707 103.0012,369.9994 106.99988,368.00006 110.83388,366.16642 114.66788,364.33278 118.33403,362.66635 124.00088,358.49938 129.66773,354.3324 137.33361,347.66643 146.334,339.83275 155.3344,331.99908 165.67046,322.99669 171.16848,319.83133 176.66649,316.66596 177.41164,319.64658 177.03922,326.65607 176.66679,333.66557 175.33326,345.33401 174.1667,354.83311 173.00015,364.33221 172.00005,371.66627 171.83333,379.99934 171.6666,388.33241 172.33377,397.67275 172.00072,403.00254 171.66767,408.33233 170.33353,409.66647 169.16706,411.33263 168.0006,412.9988 167.00049,414.99903 167.33348,417.49934 167.66648,419.99966 169.33349,423.00028 170.66664,425.8332 171.9998,428.66612 173.00031,431.33416 173.00041,433.83314 173.00052,436.33212 172.00078,438.66484 172.83408,440.16584 173.66738,441.66684 176.33281,442.3332 178.50012,442.83334 180.66744,443.33349 182.33301,443.6666 183.83361,442.99942 185.33421,442.33224 186.66732,440.66585 186.83358,437.6659 186.99983,434.66594 186.07311,430.65015 185.53656,426.15791 185,421.66567 185,417.33268 185,408.99917 185,400.66567 185,388.33335 184.66664,376.49954 184.33328,364.66573 183.66671,353.33415 183.66674,344.16653 183.66677,334.99891 184.33285,328.00509 185.33368,324.33573 186.33451,320.66637 187.66786,320.33304 190.8339,322.99982 193.99994,325.6666 198.99971,331.33301 203.99997,335.83325 209.00023,340.33349 213.99661,343.66441 217.33224,344.99863 220.66788,346.33285 222.33374,345.66651 223.33361,344.16603 224.33349,342.66555 224.66674,340.33284 225.3335,336.99917 226.00027,333.6655 227.00029,329.33206 225.5002,325.49941 224.0001,321.66675 219.99986,318.33321 214.50014,315.00004 209.00043,311.66687 201.9978,308.33228 197.16606,306.66614 192.33433,305 189.66803,305 187.66726,302.49966 185.66648,299.99932 184.33348,295.00057 183.66674,290.49978 183,285.999 183,281.99999 184.83379,277.83279 186.66758,273.66559 190.33272,269.33406 193.50025,267.00029 196.66778,264.66653 199.00536,264.37433 202.00312,264.35388 205.00088,264.33343 208.00032,264.6667 212.66741,263.99986 217.33451,263.33302 223.58373,261.68849 228.62579,259.84392 233.66786,257.99935 237.5917,255.85907 238.12928,254.09627 238.66686,252.33347 236.33492,250.6678 235.00069,249.50037 233.66647,248.33293 233.39989,247.79977 233.86676,244.73263 234.33363,241.66549 235.66664,236.33344 237.33356,231.16612 239.00048,225.99879 240.99968,221.00079 242.50004,216.9998 244.0004,212.9988 245.00017,209.99949 248.00066,206.83269 251.00115,203.6659 255.99991,200.33339 258.16654,197.16632 260.33317,193.99926 259.66652,190.99933 257.66655,187.49962 255.66659,183.9999 252.33301,179.99961 248.16669,176.66657 244.00036,173.33353 238.73687,170.52633 235.70233,169.76274 232.66779,168.99916 231.33413,169.9994 228.66755,172.66585 226.00096,175.33229 221.84661,179.83284 217.59057,182.74954 213.33453,185.66624 208.66701,187.33321 203.16742,188.83315 197.66783,190.33309 191.01891,191.73286 187.84269,191.86613 184.66647,191.9994 184.43325,191.29975 184.38334,188.64934 184.33342,185.99892 184.66672,181.99933 185.00004,174.99915 185.33337,167.99897 185.66654,158.00377 187.0005,152.83514 188.33445,147.66651 190.66737,147.33323 195.16761,146.33314 199.66785,145.33304 206.64648,143.58838 211.9905,141.6272 217.33452,139.66603 221.66726,137.33301 223.16687,134.99968 224.66648,132.66635 223.33279,130.33239 221.00018,128.99957 218.66756,127.66676 215.33303,127.3333 212.00045,127.66647 208.66786,127.99964 205.33378,128.99986 201.00082,130.33308 196.66786,131.66629 190.93842,133.45674 188.46921,133.22787 186,132.999 186,130.99923 186.83343,124.99905 187.66686,118.99886 189.33329,109.00025 191.50016,99.666191 193.66703,90.332137 196.42717,81.361702 196.54682,74.013907 196.66646,66.666112 194.22494,60.039111 190.7792,55.186273 187.33346,50.333436 182.6661,46.666224 177.16686,44.66647 171.66761,42.666717 165.33349,42.333342 162.99998,44.33307 Z"
     id="path21"
     inkscape:connector-curvature="0"
     inkscape:path-effect="#path-effect23"
     inkscape:original-d="M 159,42 C 160.66767,46.332333 162.33433,50.665667 164,55 167.33475,57.999371 170.66767,60.999 174,64 174.001,73.665506 174.001,83.332333 174,93 174.001,108.33392 174.001,123.66567 174,139 167.3339,140.99913 160.66767,142.999 154,145 147.99993,145.99918 142.001,146.33233 136,147 131.00009,144.99863 126.001,142.999 121,141 119.00079,140.33226 117.001,139.66567 115,139 111.66667,140.9996 108.33433,142.999 105,145 109.33586,148.66696 113.66767,152.33233 118,156 124.66753,159.99892 131.33433,163.999 138,168 142.66746,165.99909 147.33433,163.999 152,162 157.33295,160.33276 162.66767,158.66567 168,157 169.66767,157.33233 171.33513,157.66583 173,158 172.66767,160.33233 172.33428,162.66602 172,165 172.66767,170.66567 173.33451,176.33386 174,182 173.66767,185.999 173.33395,190.00362 173,194 172.001,194.66567 171.00067,195.33256 170,196 167.001,195.999 164.00028,195.999 161,196 156.33433,196.66567 151.66688,197.33245 147,198 142.66767,196.999 138.33319,195.99874 134,195 134.66767,197.66567 135.33433,200.33233 136,203 138.66767,205.66567 141.33412,208.33212 144,211 146.33433,212.66567 148.6672,214.332 151,216 156.001,215.999 160.9986,215.66551 166,216 168.33433,215.66567 170.66796,215.33229 173,215 174.001,221.66567 175.00113,228.33322 176,235 175.001,243.33233 174.33376,251.66924 173,260 170.66767,259.999 168.33396,259.999 166,260 158.66767,261.999 151.33213,263.9996 144,266 142.66767,265.33233 141.335,264.666 140,264 140.001,261.999 140.001,259.99915 140,258 137.33433,249.33233 134.66812,240.66714 132,232 131.33433,226.999 130.66771,221.66596 130,217 127.001,211.66567 124.00053,206.33151 121,201 117.66767,199.66567 114.33404,198.33222 111,197 104.66767,194.66567 98.330533,192.33093 92,190 91.001,191.999 90.334272,193.99909 89,196 91.334333,198.999 93.667581,201.99889 96,205 99.334333,207.66567 102.66805,210.66593 106,213 107.66767,218.66567 109.33437,224.33245 111,230 119.001,242.999 127.0058,256.0068 135,269 133.001,269.66567 131.00077,270.33241 129,271 118.33433,274.999 107.6631,279.00071 97,283 94.667667,282.999 92.333983,282.999 90,283 83.334333,282.999 76.99995,282.999 70,283 71.334333,285.66567 72.667591,288.33218 74,291 80.001,294.33233 85.999439,297.6648 92,301 96.334333,300.33233 100.66675,299.66581 105,299 110.66767,296.33233 116.33373,293.66595 122,291 133.33433,286.33233 144.66711,281.6659 156,277 158.001,278.66567 160.0013,280.33258 162,282 163.33433,284.66567 164.66818,287.33336 166,290 164.001,292.999 162.00066,296.33278 160,299 155.001,305.66567 150.0004,312.33313 145,319 136.66767,327.33233 128.33321,335.66679 120,344 111.33433,349.33233 102.3332,354.66639 94,360 85.667667,361.33233 77.335622,362.66546 69,364 72.001,365.33233 75.000665,366.66552 78,368 85.001,369.33233 91.9989,370.33183 99,372 103.001,369.999 106.99968,367.99966 111,366 114.66767,364.33233 118.33382,362.6659 122,361 129.66767,354.33233 137.33354,347.66635 145,341 155.33433,331.999 165.6704,322.99662 176,314 176.66767,316.66567 177.3344,319.66589 178,322 176.66767,333.66567 175.33413,345.33411 174,357 173.001,364.33233 172.0009,371.66639 171,379 171.66767,388.33233 172.33483,397.67267 173,407 171.66767,408.33233 170.33353,409.66647 169,411 168.001,412.999 167.00089,414.99923 166,417 167.66767,419.999 169.33468,422.99962 171,426 172.001,428.66567 173.00152,431.33371 174,434 173.001,436.33233 172.00126,438.66505 171,441 173.66767,441.66567 176.3331,442.33203 179,443 180.66767,443.33233 182.33324,443.66545 184,444 185.33433,442.33233 186.66744,440.66595 188,439 187.001,434.66567 186.00123,430.66674 185,426 185.001,421.66567 185.001,417.33268 185,413 185.001,400.66567 185.001,388.33335 185,376 184.33433,364.66567 183.66777,353.33409 183,342 183.66767,334.999 184.33375,328.00518 185,321 186.33433,320.66567 187.66768,320.33233 189,320 194.001,325.66567 199.00077,331.33207 204,337 209.001,340.33233 213.99738,343.66325 219,347 220.66767,346.33233 222.33353,345.66599 224,345 224.33433,342.66567 224.66758,340.33296 225,338 226.001,333.66567 227.00102,329.33223 228,325 224.001,321.66567 220.00076,318.33213 216,315 209.001,311.66567 201.99837,308.33108 195,305 192.33433,304.999 189.66803,305.33238 187,305 185.66767,299.999 184.33467,295.00025 183,290 183.001,285.999 183.001,281.99999 183,278 186.66767,273.66567 190.33281,269.33413 194,265 196.66767,264.66567 199.00012,264.33243 202,264 205.001,264.33233 208.00044,264.6656 211,265 217.33433,263.33233 223.66561,261.99965 230,260 233.66767,257.999 237.66794,255.99884 241,254 238.66767,252.33233 236.33573,250.66667 234,249 233.66767,248.33233 233.66781,247.66581 233,247 234.33433,241.66567 235.66734,236.33362 237,231 239.001,225.999 241.0002,221.001 243,216 244.001,212.999 245.00077,209.99969 246,207 251.001,203.66567 255.99976,200.33316 261,197 260.33433,193.999 259.66768,190.99907 259,188 255.66767,183.999 252.33409,179.99871 249,176 244.001,173.33233 238.66375,170.66343 234,168 232.66767,168.999 231.33401,169.99924 230,171 226.001,175.33233 221.66672,179.66678 218,184 213.33433,185.66567 208.66681,187.33264 204,189 197.66767,190.33233 191.0046,191.66487 185,193 184.66767,191.999 184.33442,191.33269 184,190 184.33433,185.999 184.66763,181.99941 185,178 185.33433,167.999 185.66751,158.0038 186,148 188.33433,147.66567 190.66725,147.33239 193,147 199.66767,145.33233 206.66592,143.66613 213,142 217.33433,139.66567 221.66707,137.33266 226,135 224.66767,132.66567 223.33398,130.33171 222,128 218.66767,127.66567 215.33314,127.33221 212,127 208.66767,127.999 205.33359,128.99922 202,130 196.66767,131.66567 191.0035,133.665 186,135 186.001,132.999 186.001,130.99923 186,129 187.66767,118.999 189.3341,109.00038 191,99 193.66767,90.332333 196.3341,81.333065 199,73 196.66767,66.665667 194.33427,59.99883 192,54 187.33433,50.332333 182.66697,46.66512 178,43 171.66767,42.665667 165.33355,42.332292 159,42 Z" />
  <path
     style="fill:none;stroke:#000000;stroke-width:1px;stroke-linecap:butt;stroke-linejoin:miter;stroke-opacity:1"
     d="M 295.50022,80.499848 C 294.66646,81.999504 296.33313,85.999502 298.66705,88.499913 301.00097,91.000323 304.0006,92.0002 305.83348,93.999429 307.66637,95.998658 308.33317,98.999258 309.75018,101.58323 311.1672,104.1672 313,106 313.00015,110.83274 313.00031,115.66549 311.00031,123.33215 308.33348,131.16609 305.66666,139.00002 302.33384,146.99879 298.8337,153.66589 295.33357,160.33299 291.66745,165.66552 288.50071,168.83264 285.33397,171.99976 282.66788,172.99955 284.80204,172.23864 286.93621,171.47774 294.66787,168.66623 299.50095,166.33282 304.33402,163.99941 306.66774,161.99908 310.33305,156.50101 313.99837,151.00294 319.00066,141.99881 322.66707,134.33255 326.33347,126.66629 328.66711,120.33212 332.00022,117.4994 335.33334,114.66667 339.6675,115.33346 342.83367,116.33335 345.99985,117.33323 348.00023,118.66682 349.83331,120.33325 351.66639,121.99967 353.33325,123.9999 356.66735,123.99966 360.00146,123.99942 365.00121,121.99952 370.14371,120.53333 375.28622,119.06714 381.33447,117.9998 384.83385,117.99986 388.33322,117.99992 389.66683,119.00012 388.66726,122.66575 387.6677,126.33137 384.33396,132.66548 380.00031,138.49941 375.66666,144.33334 370.33433,149.66567 367.16698,151.4992 363.99963,153.33272 362.99982,151.66638 362.16034,152.53103 361.32086,153.39569 360.6669,156.66552 362.16759,159.3332 363.66829,162.00088 367.33368,164.00019 371.16721,163.49982 375.00074,162.99945 379.00112,159.99916 382.78458,155.74245 386.56804,151.48575 390.33408,145.66551 395.16697,140.33282 399.99985,135.00012 406.00108,129.9991 411.00077,126.33275 416.00046,122.6664 420.00118,120.33264 420.83431,118.16665 421.66744,116.00066 419.33341,114.00007 416.00007,111.50005 412.66672,109.00004 408.33354,106.00014 404.80611,103.89533 401.27869,101.79053 398.00046,100.33354 395.16712,99.500131 392.33378,98.666723 389.66753,98.333441 388.33377,99.166544 387,99.999646 387,101.999 384.1539,103.79008 381.3078,105.58117 375.00119,107.333 369.0005,108.1665 362.99981,109 357.001,109 352.50075,109 348.0005,109 345.001,109 342.50022,108.16643 339.99943,107.33286 338.0001,105.66675 336.66661,103.66632 335.33311,101.66589 334.66648,99.332674 333.66666,96.83318 332.66684,94.333686 331.33313,91.666266 327.66735,89.500018 324.00157,87.33377 318.00067,85.666853 313.45046,84.316801 308.90025,82.96675 306.0006,82.0002 302.83362,81.000096 299.66664,79.999993 296.33397,79.000192 295.50022,80.499848 Z"
     id="path25"
     inkscape:connector-curvature="0"
     inkscape:path-effect="#path-effect27"
     inkscape:original-d="M 293,78 C 294.66767,81.999 296.33433,85.999 298,90 301.00137,90.999124 304.001,91.999 307,93 307.66753,95.9984 308.33433,98.999 309,102 311.00149,104.33291 313.001,105.999 315,108 313.001,115.66567 311.001,123.33233 309,131 305.66715,139.00023 302.33433,146.999 299,155 295.33378,160.33314 291.66767,165.66567 288,171 285.33376,171.99921 282.66767,172.999 280,174 287.00416,171.66461 294.66767,168.66567 302,166 304.33395,163.99933 306.66767,161.999 309,160 313.99871,151.00313 319.001,141.999 324,133 326.33403,126.6665 328.66767,120.33233 331,114 335.33351,114.66554 339.66767,115.33233 344,116 346.00062,117.33208 348.001,118.66567 350,120 351.66747,121.99877 353.33433,123.999 355,126 360.00125,123.9989 365.001,121.999 370,120 375.33305,119.33249 381.33433,117.999 387,117 388.33406,117.9988 389.66767,118.999 391,120 387.66807,126.33157 384.33433,132.66567 381,139 375.66666,144.33334 370.33433,149.66567 365,155 364.00081,153.33202 363.001,151.66567 362,150 361.00118,153.33175 360.66767,156.66567 360,160 363.66894,161.99969 367.33433,163.999 371,166 375.00062,162.99929 379.001,159.999 383,157 386.3334,151.33392 390.33433,145.66567 394,140 399.99977,135.00002 406.001,129.999 412,125 416.00028,122.66609 420.001,120.33233 424,118 421.66836,115.99959 419.33433,113.999 417,112 412.66751,108.99889 408.33433,105.999 404,103 401.33421,101.6656 398.001,100.33233 395,99 392.33392,98.665615 389.66767,98.332333 387,98 387.001,99.999646 387.001,101.999 387,104 381.3315,105.6665 375.001,107.33233 369,109 362.99981,108.999 357.001,108.999 351,109 348.0005,108.999 345.001,108.999 342,109 340.00033,107.33178 338.001,105.66567 336,104 335.3343,101.66555 334.66767,99.332333 334,97 332.66804,94.333088 331.33433,91.665667 330,89 324.0019,87.332583 318.001,85.665667 312,84 309.00066,82.665518 306.001,81.999 303,81 299.667,79.9988 296.33433,78.999 293,78 Z" />
  <path
     style="fill:none;stroke:#000000;stroke-width:1px;stroke-linecap:butt;stroke-linejoin:miter;stroke-opacity:1"
     d="M 317.00055,188.49962 C 324.0011,185.3332 338.0011,183.66654 352.00057,181.6666 366.00004,179.66666 380.00114,177.33314 391.16735,176.49991 402.33357,175.66669 410.66758,176.33341 418.16681,179.49977 425.66603,182.66612 432.33342,188.3334 435.66671,192.99951 439,197.66562 439,201.33233 438.24401,205.13173 437.48802,208.93114 435.66713,213.66546 434.6669,217.83275 433.66666,222.00003 433.33342,225.99892 432.33326,232.5001 431.3331,239.00127 429.66688,247.99885 428.83344,260.49995 428,273.00104 428,289.66567 427.31345,303.49688 426.6269,317.3281 425.33347,327.9989 425.00008,340.49968 424.66669,353.00046 425.33329,366.99905 425.19002,377.33586 425.04676,387.67267 424.00016,394.99888 423.08648,399.46451 422.1728,403.93014 421.00052,406.66546 422.16769,411.00085 423.33486,415.33624 426.66647,421.6663 429.49988,426.83311 432.33329,431.99992 434.66649,435.99969 435.83324,438.99943 437,441.99916 437,444.66567 435.66727,446.4992 434.33453,448.33273 431.66755,449.66623 429.66719,449.83317 427.66683,450.00012 426.12026,448.8402 424.56004,446.75329 422.99982,444.66638 420.99752,441.32919 419.49933,439.99755 418.00115,438.6659 417.00107,439.33262 415.33396,438.83304 413.66686,438.33347 411.33358,436.66684 408.00007,433.00001 404.66655,429.33318 400.33334,423.66668 395.33326,416.49988 390.33317,409.33309 384.66687,400.66698 380.50002,394.16668 376.33316,387.66639 373.66702,383.33391 372.16681,378.83316 370.6666,374.33241 370.33329,369.66613 371.33341,368.16646 372.33352,366.6668 374.6669,368.3335 377.16676,370.66672 379.66661,372.99994 382.33304,375.99967 386.33342,378.6666 390.3338,381.33354 395.66714,383.66687 399.66691,386.16677 403.66667,388.66667 406.33158,391.33158 408.3329,391.83191 410.33421,392.33224 411.66722,390.66598 412.1669,387.9992 412.66658,385.33243 412.3333,381.66633 411.66657,377.33278 410.99985,372.99923 409.99995,367.99976 408.66655,362.16619 407.33316,356.33262 405.66623,349.6649 401.66695,346.33245 397.66767,343 391.33373,343 382.16744,344.16655 373.00115,345.33311 360.99985,347.6667 349.50052,350.49983 338.00119,353.33297 326.99886,356.66701 318.66669,359.3333 310.33453,361.99958 304.37044,364.10455 298.51916,366.55199 292.66787,368.99943 286.33331,372.00001 280.16724,374.16654 274.00117,376.33307 267.93081,377.68204 263.46535,376.34094 258.99988,374.99984 255.88023,370.8403 253.94005,365.41973 251.99988,359.99916 251.00016,353.00114 251.66708,349.834 252.33399,346.66685 254.66724,347.3335 257.00033,348.66678 259.33341,350.00007 261.66611,351.99952 264.66689,352.99976 267.66767,354 271.33286,354 274.66703,353.33307 278.0012,352.66613 280.72227,351.45677 284.69489,351.06178 288.66751,350.66679 293.33025,351.33289 296.16554,350.99922 299.00084,350.66555 300.00076,349.33231 299.16695,345.99929 298.33313,342.66627 295.66704,337.33409 294.00012,332.83331 292.33319,328.33254 291.60796,324.3438 291.13729,320.00477 290.66661,315.66574 290.33333,310.33329 290.16667,304.66614 290,298.999 290,292.99972 290.16669,285.66601 290.33337,278.33229 290.66666,269.66671 290.83333,261.33286 291,252.999 291,244.33308 289.9999,238.49965 288.9998,232.66623 287.00004,228.33343 285.16658,224.33315 283.33313,220.33288 281.66706,216.66754 280.66681,213.66668 279.66655,210.66583 279.37326,208.61279 280.18674,207.97314 281.00023,207.33349 282.99992,208.66661 285.66688,210.00008 288.33385,211.33354 291.66647,212.66659 295.16696,213.6667 298.66746,214.66681 302.33412,215.33348 305.16706,216.66674 308,218 310.16703,220.16703 310.91688,223.74965 311.66673,227.33227 311.33336,232.66618 311.00003,240.16591 310.6667,247.66564 310.33373,257.32194 310.00022,266.66045 309.66671,275.99896 309.33333,285.00007 308.83337,293.83284 308.33342,302.6656 307.66668,311.33319 307.49999,320.16611 307.3333,328.99904 307.66656,337.99724 310.33378,342.49862 313.001,347 318.0005,347 326.33417,345.66653 334.66784,344.33307 346.79529,341.56108 360.39822,338.61375 374.00116,335.66643 389.99562,332.33425 399.66505,330.33367 409.33448,328.3331 412.66746,327.66651 413.83368,323.33282 414.99989,318.99914 413.99997,310.99979 413.83335,300.49937 413.66672,289.99895 414.33331,277.00051 414.66665,266.33309 415,255.66567 415,247.33324 415.50005,238.16608 416.00011,228.99891 416.99985,219.00149 418.33347,211.66681 419.6671,204.33213 421.37139,199.5601 420.8523,195.44663 420.3332,191.33315 417.6214,187.60442 415.47797,186.1353 413.33454,184.66619 411.66749,185.33301 408.33432,186.16639 405.00115,186.99977 400.00055,187.99989 392.50087,189.99977 385.00119,191.99964 374.99968,195.00009 366.00045,198.16646 357.00121,201.33283 348.99998,204.66668 342.50037,205.83342 336.00077,207.00015 331.00011,206.00002 325.83374,204.83343 320.66738,203.66684 315.41363,202.35341 312.70682,199.34287 310,196.33233 310,191.66603 317.00055,188.49962 Z"
     id="path37"
     inkscape:connector-curvature="0"
     inkscape:path-effect="#path-effect39"
     inkscape:original-d="M 310,187 C 324.001,185.33233 338.001,183.66567 352,182 365.9999,179.66585 380.001,177.33233 394,175 402.33366,175.66561 410.66767,176.33233 419,177 425.66694,182.66505 432.33433,188.33233 439,194 439.001,197.66562 439.001,201.33233 439,205 437.6673,209.00009 435.66767,213.66567 434,218 433.66757,222.00011 433.33433,225.999 433,230 431.33389,239.00142 429.66767,247.999 428,257 428.001,273.00104 428.001,289.66567 428,306 426.66759,317.33303 425.33433,327.999 424,339 424.66773,353.00041 425.33433,366.999 426,381 425.00093,387.66612 424.001,394.999 423,402 422.33423,403.99932 421.001,406.66567 420,409 423.33606,415.33561 426.66767,421.66567 430,428 432.33447,431.99923 434.66767,435.999 437,440 437.001,441.99916 437.001,444.66567 437,447 434.33433,448.33233 431.66735,449.66583 429,451 427.66767,449.999 426.00109,448.99909 425,448 423.001,444.66567 420.99869,441.32849 419,438 418.001,438.66567 417.00092,439.33239 416,440 413.66767,438.33233 411.33439,436.66571 409,435 404.66767,429.33233 400.33445,423.66583 396,418 390.33433,409.33233 384.66803,400.66622 379,392 376.33433,387.66567 373.66819,383.33319 371,379 370.66767,374.33233 370.33436,369.66605 370,365 372.33433,366.66567 374.66771,368.33237 377,370 379.66767,372.999 382.3341,375.99873 385,379 390.33433,381.33233 395.66767,383.66567 401,386 403.66767,388.66567 406.33258,391.33058 409,394 410.33433,392.33233 411.66734,390.66608 413,389 412.66767,385.33233 412.33438,381.66623 412,378 411.001,372.999 410.00111,367.99953 409,363 407.33433,356.33233 405.6674,349.66461 404,343 397.66767,342.999 391.33373,342.999 385,343 373.001,345.33233 360.9997,347.66592 349,350 338.001,353.33233 326.99866,356.66637 316,360 310.33433,361.999 304.33332,363.99938 299,366 292.66767,368.999 286.3331,371.99958 280,375 274.001,376.33233 268.00124,377.99896 262,379 259.001,374.999 255.66799,370.99948 253,367 252.001,359.999 251.00128,353.00098 250,346 252.33433,346.66567 254.66758,347.33231 257,348 259.33433,349.999 261.66703,351.99845 264,354 267.66767,353.999 271.33286,353.999 275,354 278.001,352.66567 280.66707,351.33257 284,350 288.66767,350.66567 293.33041,351.33177 298,352 299.001,350.66567 300.00092,349.33243 301,348 298.33433,342.66567 295.66824,337.33349 293,332 292.33433,328.33233 291.66778,324.33292 291,321 290.66767,315.66567 290.33439,310.33322 290,305 290.001,298.999 290.001,292.99972 290,287 290.33433,278.33233 290.66762,269.66675 291,261 291.001,252.999 291.001,244.33308 291,237 289.001,232.66567 287.00125,228.33287 285,224 283.33433,220.33233 281.66827,216.66699 280,213 279.66767,210.66567 279.001,208.66597 279,206 281.001,207.33233 283.00069,208.66546 285,210 288.33433,211.33233 291.66695,212.66538 295,214 298.66767,214.66567 302.33433,215.33233 306,216 308.001,217.999 310.33466,219.9994 312,222 311.66767,227.33233 311.3343,232.66624 311,238 310.66767,247.66567 310.66759,257.33345 310,267 309.66767,275.999 309.33429,285.00011 309,294 308.33433,302.66567 307.6676,311.33326 307,320 307.33433,328.999 307.6676,337.9972 308,347 313.001,346.999 318.0005,346.999 323,347 334.66767,344.33233 346.66685,340.99914 358,339 374.001,335.66567 389.99546,332.33349 406,329 409.33433,328.33233 412.66731,327.66574 416,327 415.001,318.999 414.00108,310.99965 413,303 413.66767,289.999 414.33425,277.00056 415,264 415.001,255.66567 415.001,247.33324 415,239 416.001,228.999 417.00074,219.00158 418,209 419.66767,204.33233 421.6676,199.66589 423,195 420.33433,191.33233 417.99883,187.32992 415,184 413.33433,184.66567 411.66728,185.33249 410,186 405.001,186.999 400.0004,187.99912 395,189 385.001,191.999 374.99949,194.99945 365,198 357.001,201.33233 348.99977,204.66618 341,208 336.001,206.999 331.00034,205.99887 326,205 320.66767,203.66567 315.33548,202.66602 310,201 310.001,196.33233 310.001,191.66603 310,187 Z" />
  <path
     style="fill:none;stroke:#000000;stroke-width:1px;stroke-linecap:butt;stroke-linejoin:miter;stroke-opacity:1"
     d="M 325.00051,238.1664 C 325.33318,240.99977 328.66651,245.99977 332.50392,248.18979 336.34132,250.37981 341.33445,249.66651 346.00055,247.49993 350.66665,245.33334 355.33443,241.6658 359.09672,239.03873 362.859,236.41166 366.00119,234.66601 368.6673,233.833 371.33341,233 374.33433,233 375.66716,231.50006 377,230.00013 377,226.999 375.83422,225.4995 374.66844,224 372.33433,224 369.33365,224.66673 366.33297,225.33347 362.66787,226.66623 358.33365,227.4998 353.99942,228.33337 349.00106,228.6666 345.50092,229.3331 342.00078,229.99961 340.0012,230.9994 337.66705,231.83309 335.33291,232.66677 332.66785,233.33304 330.00059,233.99985 327.33334,234.66667 324.66785,235.33304 325.00051,238.1664 Z"
     id="path41"
     inkscape:connector-curvature="0"
     inkscape:path-effect="#path-effect43"
     inkscape:original-d="M 322,236 C 325.33433,240.999 328.66767,245.999 332,251 336.33453,250.3323 341.33433,249.66567 346,249 350.66655,245.33321 355.33433,241.66567 360,238 363.00029,236.66598 366.001,234.66567 369,233 371.33341,232.999 374.33433,232.999 377,233 377.001,230.00013 377.001,226.999 377,224 374.66844,223.999 372.33433,223.999 370,224 366.33276,225.3329 362.66767,226.66567 359,228 353.99936,228.33244 349.001,228.66567 344,229 342.00058,229.99921 340.001,230.999 338,232 335.33273,232.66607 332.66767,233.33233 330,234 327.33316,234.66596 324.66767,235.33233 322,236 Z" />
  <path
     style="fill:none;stroke:#000000;stroke-width:1px;stroke-linecap:butt;stroke-linejoin:miter;stroke-opacity:1"
     d="M 320.16686,302.33292 C 318.66646,305.66622 320.33313,309.33288 323.66737,311.16644 327.00162,313 332.66767,313 339.66689,312.66669 346.66611,312.33338 355.3344,311.66658 361.00095,310.4997 366.66751,309.33281 369.3345,307.66594 370.16737,305.16671 371.00025,302.66749 369.99981,299.33269 367.8335,296.99978 365.66719,294.66688 362.33325,293.3333 358.33371,292.33338 354.33417,291.33345 349.33976,290.61997 344.83713,290.80986 340.33449,290.99975 335.66666,292 331.00058,293.99963 326.33449,295.99925 321.66725,298.99962 320.16686,302.33292 Z"
     id="path45"
     inkscape:connector-curvature="0"
     inkscape:path-effect="#path-effect47"
     inkscape:original-d="M 317,302 C 318.66767,305.66567 320.33433,309.33233 322,313 327.00162,312.999 332.66767,312.999 338,313 346.66604,312.33246 355.33433,311.66567 364,311 366.66734,309.33254 369.33433,307.66567 372,306 371.00144,302.66713 370.001,299.33233 369,296 365.66767,294.66567 362.33373,293.33209 359,292 354.33433,291.33233 349.33326,290.6655 345,290 340.33433,290.999 335.6665,291.99925 331,293 326.33433,295.999 321.66709,298.99937 317,302 Z" />
  <path
     style="fill:none;stroke:#000000;stroke-width:1px;stroke-linecap:butt;stroke-linejoin:miter;stroke-opacity:1"
     d="M 320.00058,378.49947 C 318.00036,381.66548 316.00036,388.33214 312.1668,394.99946 308.33323,401.66679 302.66758,408.33226 298.00062,413.83261 293.33365,419.33296 289.66758,423.66559 286.50071,426.66597 283.33384,429.66635 280.66784,431.3326 279.16726,433.33292 277.66668,435.33324 277.33349,437.66555 280.16878,437.99888 283.00407,438.3322 289.00119,436.66634 295.83376,433.66659 302.66634,430.66685 310.33452,426.33266 316.80727,422.45809 323.28002,418.58352 329.33449,414.66592 333.00091,411.99929 336.66733,409.33267 338.33433,407.66567 339.16716,405.16667 340,402.66767 340,398.66567 339.83332,395.66607 339.66664,392.66646 339.33321,390.33249 338.50018,388.49982 337.66715,386.66715 336.33333,385.33333 335.16658,383.83318 333.99982,382.33304 332.99982,380.66637 331.50029,379.33338 330.00075,378.00038 328.0004,377.0002 326.00041,376.33347 324.00041,375.66674 322.00081,375.33347 320.00058,378.49947 Z"
     id="path49"
     inkscape:connector-curvature="0"
     inkscape:path-effect="#path-effect51"
     inkscape:original-d="M 320,375 C 318.001,381.66567 316.001,388.33233 314,395 308.33332,401.66686 302.66767,408.33233 297,415 293.33374,419.33303 289.66767,423.66567 286,428 283.33367,429.66608 280.66767,431.33233 278,433 277.66752,435.33336 277.33433,437.66567 277,440 283.00388,438.33153 289.001,436.66567 295,435 302.66615,430.66652 310.33433,426.33233 318,422 323.33351,418.66618 329.33433,414.66567 335,411 336.66733,409.33267 338.33433,407.66567 340,406 340.001,402.66767 340.001,398.66567 340,395 339.66776,392.6663 339.33433,390.33233 339,388 337.66815,386.66615 336.33433,385.33233 335,384 334.001,382.33233 333.001,380.66567 332,379 330.00135,377.99918 328.001,376.999 326,376 324.0006,375.6656 322.001,375.33233 320,375 Z" />
  <path
     style="fill:none;stroke:#000000;stroke-width:1px;stroke-linecap:butt;stroke-linejoin:miter;stroke-opacity:1"
     d="M 185.50058,214.66578 C 184,220.33233 184,229.66567 184,236.33255 184,242.99943 184,246.999 183.83332,251.66631 183.66665,256.33361 183.3334,261.66561 184.16736,263.16537 185.00132,264.66513 187.00092,262.33226 189.41697,259.74962 191.83303,257.16697 195.001,253.999 198.5004,252.16618 201.9998,250.33337 206.00113,249.66648 209.83397,248.83322 213.66682,247.99996 217.33451,246.99968 219.16726,243.33369 221,239.66771 221,233.33233 221.50001,226.99944 222.00002,220.66654 223.00018,214.3322 223.50009,209.66587 224,204.99954 224,201.999 220.50176,201.499 217.00352,200.99899 210.00119,202.99966 205.00084,203.99983 200.00049,205 196.33433,205 193.16729,205.99992 190.00025,206.99983 187.00115,208.99923 185.50058,214.66578 Z"
     id="path53"
     inkscape:connector-curvature="0"
     inkscape:path-effect="#path-effect55"
     inkscape:original-d="M 184,211 C 184.001,220.33233 184.001,229.66567 184,239 184.001,242.99943 184.001,246.999 184,251 183.66758,256.33367 183.33433,261.66567 183,267 185.0014,264.6652 187.001,262.33233 189,260 191.66644,257.00038 195.001,253.999 198,251 201.99967,250.33256 206.001,249.66567 210,249 213.66663,247.99928 217.33433,246.999 221,246 221.001,239.66771 221.001,233.33233 221,227 222.00084,220.66667 223.001,214.33233 224,208 224.001,204.99954 224.001,201.999 224,199 217.00333,200.99833 210.001,202.999 203,205 200.00049,204.66561 196.33433,204.999 193,205 190.0001,206.9996 187.001,208.999 184,211 Z" />
  <path
     d="M 176.35,441.23772 C 173.83649,440.31971 173.59916,439.78901 173.59023,435.06667 173.58382,431.67653 172.72421,428.06068 171.09023,424.5507 168.08591,418.09708 167.97005,414.87109 170.6,410.9 172.36653,408.23264 172.58804,406.18138 172.59781,392.4 172.60488,382.41612 173.49125,369.24861 175.08847,355.4 178.02525,329.93669 178.32171,318.89092 176.09132,318.03504 172.63711,316.70954 168.22537,319.78997 144.1,340.37256 123.32765,358.0945 119.65365,360.80889 110.66585,365.07397 101.5214,369.41338 94.851083,370.16573 84.665285,368.00656 75.270862,366.01515 74.038511,364.87617 79.722796,363.43854 88.079375,361.32505 99.128745,357.18816 104.40425,354.1978 122.57952,343.89534 146.89584,320.0796 161.37484,298.4 165.693,291.93436 166.19407,287.01629 162.97512,282.69289 158.21155,276.29488 152.30719,277.37316 122.1,290.15767 99.731448,299.62465 94.957481,300.32744 85.303101,295.5746 77.65945,291.81164 72.388818,286.77724 74.617564,285.36798 75.432904,284.85244 79.054853,284.42373 82.666341,284.41531 86.277828,284.40689 91.902828,283.90675 95.166341,283.30389 103.20805,281.81837 128.6506,272.66313 130.96345,270.42267 132.62023,268.81774 132.68916,268.18959 131.58496,264.75877 130.90189,262.63645 126.84338,254.6 122.56605,246.9 118.28872,239.2 112.5617,228.175 109.83933,222.4 107.07143,216.52839 103.48389,210.5776 101.70062,208.9 96.719476,204.214 91.6,197.29868 91.6,195.2562 91.6,192.71729 95.85254,192.8097 103.84602,195.5223 114.4551,199.12251 119.31158,202.24961 122.93845,207.81596 127.2377,214.41424 127.73917,215.8367 132.66284,235.4 134.94682,244.475 137.55454,254.825 138.45777,258.4 L 140.1,264.9 144.20828,265.20057 C 150.47426,265.65901 169.74002,260.92658 171.7696,258.43043 174.31336,255.3019 175.60808,247.42717 175.52315,235.60078 175.43246,222.97373 174.05526,217.43657 170.57238,215.69584 169.21257,215.01621 164.64181,214.48164 160.41514,214.5079 155.16992,214.5405 151.59308,214.01602 149.14809,212.8558 144.7155,210.75239 136.6,201.89635 136.6,199.16268 136.6,197.28953 137.02804,197.1901 142.45061,197.80359 149.21423,198.56881 170.40813,196.80413 172.18722,195.32761 174.26097,193.60655 174.75398,187.66346 174.02094,173.22255 173.50668,163.09146 172.91246,158.85532 171.85766,157.80052 169.99456,155.93741 166.28204,156.57395 152.6,161.10239 140.65701,165.05524 137.47085,165.03928 129.18445,160.98512 122.70464,157.81484 111.10444,149.15693 110.20855,146.82229 109.28103,144.4052 112.34336,141.4 115.73393,141.4 117.28711,141.4 122.05487,142.57614 126.32895,144.01365 133.31429,146.36305 135.16162,146.57727 144.6,146.13243 164.28259,145.20478 170.97428,140.15173 173.55116,124.27077 174.91955,115.83755 174.89349,74.866945 173.51565,68.442302 172.86707,65.418089 170.6288,60.753678 167.94605,56.835625 165.47916,53.23283 163.37961,49.073444 163.2804,47.592544 163.1077,45.01494 163.32942,44.886913 168.47423,44.593432 178.26369,44.035002 188.26232,50.861046 192.85156,61.235781 196.07586,68.524846 196.14792,75.42691 193.13518,88.4 189.07884,105.86689 185.66212,124.40797 185.62935,129.13095 185.58986,134.82303 187.62435,135.22556 199.1,131.79621 209.99688,128.53981 218.71971,128.09672 221.29506,130.66876 222.63426,132.00624 222.81405,132.85966 222.03241,134.16876 220.39083,136.91813 210.94859,141.13583 200.1,143.96564 194.6,145.4003 189.31644,147.33099 188.35875,148.25608 185.81746,150.71086 184.65596,158.88786 184.36103,176.4 L 184.1,191.9 188.23097,192.20168 C 193.02791,192.552 206.82789,189.24324 213.34343,186.18057 215.81701,185.01785 221.15721,180.99156 225.21054,177.23327 229.26387,173.47497 233.04913,170.4 233.62223,170.4 235.79934,170.4 242.00401,173.52623 246.76885,177.02395 252.29852,181.0831 258.6,189.66902 258.6,193.14417 258.6,194.64938 256.23305,197.68839 251.57988,202.15752 245.18812,208.29648 244.23681,209.75034 240.95183,218.4 237.1225,228.483 232.6,243.74861 232.6,246.59145 232.6,247.52948 233.725,249.51085 235.1,250.9945 236.475,252.47815 237.6,253.84375 237.6,254.02918 237.6,254.84972 227.55813,259.30288 222.1,260.90278 218.8,261.87009 211.53151,262.9657 205.94781,263.33747 196.96929,263.93528 195.37787,264.33205 192.18215,266.76955 190.19474,268.28541 187.19785,271.85989 185.5224,274.71283 182.65507,279.59527 182.50368,280.36998 182.94536,287.9 183.41137,295.84477 185.2854,302.10744 187.79222,304.09729 188.5115,304.66823 191.575,305.92582 194.6,306.89193 203.00753,309.57709 215.19415,316.20735 220.41191,320.93517 224.93936,325.0375 225.09546,325.36666 224.96751,330.54153 224.76548,338.71286 222.941,344.4 220.52162,344.4 216.55474,344.4 210.38235,340.16616 200.07033,330.37182 194.29595,324.88732 188.71277,320.4 187.66328,320.4 183.49713,320.4 183.08259,325.12018 183.35996,369.4 183.50294,392.225 184.13572,417.29422 184.76613,425.10937 185.68557,436.50769 185.65938,439.62353 184.63372,440.85937 183.19405,442.59406 180.41161,442.72115 176.35,441.23772 Z M 190.14705,260.31789 C 195.38068,254.91325 200.94008,251.7316 207.62268,250.31658 215.25533,248.70039 218.5457,246.78634 220.05666,243.08358 221.18011,240.33047 224.64534,211.07671 224.61181,204.62856 224.60433,203.19067 223.69394,201.9443 222.13097,201.23215 219.7875,200.1644 214.83531,200.81481 193.42902,205.00177 189.61957,205.74688 185.9425,209.52626 184.64783,214.02729 183.41699,218.30642 181.92895,260.20888 182.91644,262.78226 183.90983,265.37097 185.91597,264.68723 190.14705,260.31789 Z"
     id="path57"
     inkscape:connector-curvature="0" />
  <path
     d="M 294.60823,162.50532 C 303.03679,150.15748 312.31503,126.00211 313.2905,113.86707 313.8283,107.17676 313.67475,106.48845 310.13868,99.738287 308.01997,95.693803 305.34315,92.065312 303.9138,91.300351 298.42726,88.36404 293.71387,79.439677 298.35,80.765795 326.29837,88.760143 330.88642,91.177777 333.57621,99.327924 336.70163,108.79803 343.91501,111.22804 363.64889,109.45866 376.22461,108.3311 382.99912,106.25754 387.20485,102.24861 389.73346,99.83831 390.84702,99.413425 393.20485,99.959264 400.53077,101.65522 419.62179,114.12493 419.57202,117.18154 419.55627,118.14872 416.278,121.28029 412.0734,124.34461 402.73408,131.15112 394.07152,139.66281 386.42787,149.54349 379.73381,158.19666 374.36897,162.4 370.01876,162.4 365.77165,162.4 362.6,159.86409 362.6,156.4683 362.6,154.18395 363.12863,153.54428 365.39018,153.09196 372.90781,151.58844 390.47208,127.59133 389.43199,120.24495 389.11879,118.0327 388.70389,117.90362 382.1,117.96392 378.11415,118.00032 372.08585,118.92179 368.1,120.10393 356.31509,123.59914 356.17359,123.60629 352.47835,120.89378 347.21828,117.03261 341.40243,114.44602 337.92672,114.42196 332.86887,114.38696 329.1993,118.39863 323.60877,130.07473 317.65602,142.50731 311.45325,153.40876 307.32327,158.69669 304.69212,162.06556 294.44135,168.4 291.6208,168.4 291.05087,168.4 292.39521,165.7474 294.60823,162.50532 Z"
     id="path59"
     inkscape:connector-curvature="0" />
  <path
     d="M 423.59814,443.70274 C 421.32839,440.65495 419.01364,438.72778 417.00633,438.21466 415.23374,437.76154 411.79768,435.17685 408.95986,432.16192 399.48233,422.09286 376.46714,387.60368 373.41732,378.9 371.69038,373.97159 371.03896,368.4 372.18967,368.4 372.514,368.4 375.5515,370.87105 378.93967,373.89122 382.32785,376.91139 387.8,380.81217 391.1,382.55961 394.4,384.30706 399.34399,387.23601 402.08665,389.06839 413.43414,396.64971 415.56118,391.70542 410.97823,368.4 407.45342,350.47545 403.80756,344.27997 395.91272,342.79889 383.90503,340.54623 330.04544,352.92071 301.43247,364.50615 276.66656,374.53391 274.22288,375.33296 268.21808,375.36683 262.80399,375.39736 262.08092,375.12937 259.12722,371.99754 254.37851,366.96244 250.48675,350.82409 253.5628,348.92299 254.09234,348.59572 256.45484,349.55056 258.8128,351.04486 263.90758,354.27356 271.3819,355.19595 278.31121,353.45113 280.91918,352.79444 285.53856,352.27823 288.57649,352.304 301.41178,352.41288 302.44219,350.73704 297.25086,338.19613 291.62046,324.59452 291.27214,321.04427 291.4641,279.21375 291.57137,255.83829 291.23771,239.74561 290.58544,236.83504 290.00706,234.25419 287.78366,228.03051 285.64454,223.00465 283.50543,217.97879 281.43724,212.5997 281.04857,211.05112 L 280.3419,208.23552 285.27701,210.73633 C 287.99131,212.11177 293.65612,214.23783 297.86547,215.46091 302.60179,216.83711 306.39186,218.6175 307.80941,220.13209 309.98701,222.45877 310.09102,223.25335 309.91788,236.23975 309.81771,243.75289 309.14271,262.5 308.41788,277.9 306.5008,318.63077 306.64021,336.96073 308.90168,341.51144 312.18682,348.12206 316.48845,348.68451 335.1,344.93696 364.60321,338.99631 408.89066,329.31481 410.49827,328.45445 414.78022,326.16281 414.83074,325.7535 415.16391,290.6508 415.52926,252.15838 416.91437,225.6066 419.19638,213.35075 421.38129,201.61633 421.9487,195.92546 421.22231,193.0313 420.29595,189.3404 415.72985,184.4 413.24493,184.4 408.74769,184.4 382.37468,191.68358 362.4838,198.41899 340.3655,205.90864 337.92438,206.28216 326.62649,203.90557 314.98963,201.45768 310.2035,197.87791 312.59446,193.41035 315.06133,188.80097 321.67094,187.06989 357.1,181.75418 377.15354,178.74538 385.06788,177.99301 397.1,177.95161 411.95737,177.90049 412.16441,177.93051 418.87383,181.10861 423.03308,183.07876 427.73402,186.40359 431.05299,189.72256 438.00263,196.6722 438.65801,199.68433 435.62692,210.74453 431.73005,224.96387 428.66433,248.4964 427.59468,272.4 427.04092,284.775 425.93826,307.275 425.14432,322.4 424.35038,337.525 423.75674,358.9 423.82511,369.9 423.92088,385.30798 423.54322,392.01204 422.18024,399.09874 420.04737,410.18848 420.18437,410.75539 429.22196,428.23766 436.00374,441.35632 436.68104,444.1117 433.77126,446.74501 430.47033,449.73231 427.40604,448.81594 423.59814,443.70274 Z"
     id="path61"
     inkscape:connector-curvature="0" />
  <path
     d="M 332.93399,247.11457 C 328.58333,244.67498 324.86726,238.20498 326.90944,236.62529 328.4858,235.40593 344.03107,230.70577 349.1,229.91591 351.3,229.5731 357.44975,228.35415 362.76612,227.20713 373.37312,224.91865 375.91258,225.19926 375.42014,228.6054 375.17239,230.31902 373.74289,231.28608 369.09846,232.88204 365.79762,234.01631 360.17262,237.01705 356.59846,239.55036 344.58705,248.06387 338.2432,250.09164 332.93399,247.11457 Z"
     id="path63"
     inkscape:connector-curvature="0" />
  <path
     d="M 323.23486,309.32742 C 319.847,306.66253 319.88762,303.44177 323.35,300.19711 330.23239,293.7475 342.10268,290.64317 353.14001,292.40639 363.82903,294.11397 369.6,298.15211 369.6,303.924 369.6,308.28743 356.79784,311.29867 337.98486,311.36031 327.20733,311.39562 325.57881,311.17117 323.23486,309.32742 Z"
     id="path65"
     inkscape:connector-curvature="0" />
  <path
     d=""
     id="path67"
     inkscape:connector-curvature="0" />
  <path
     d="M 279.20194,436.56495 C 278.87829,436.04127 282.7928,431.40243 287.90086,426.2564 301.2596,412.79837 311.0692,399.68183 316.66952,387.78946 319.28819,382.22867 322.05489,377.43942 322.81774,377.14669 326.3231,375.80155 333.60774,381.74249 337.45531,389.08426 338.86572,391.77556 338.96548,403.84857 337.59841,406.40297 336.37322,408.69226 322.30031,418.19424 308.97386,425.73017 295.2891,433.46871 280.59365,438.81677 279.20194,436.56495 Z"
     id="path69"
     inkscape:connector-curvature="0" />
</svg>
