<?xml version="1.0" encoding="UTF-8" standalone="no"?>
<!-- Created with Inkscape (http://www.inkscape.org/) -->

<svg
   xmlns:dc="http://purl.org/dc/elements/1.1/"
   xmlns:cc="http://creativecommons.org/ns#"
   xmlns:rdf="http://www.w3.org/1999/02/22-rdf-syntax-ns#"
   xmlns:svg="http://www.w3.org/2000/svg"
   xmlns="http://www.w3.org/2000/svg"
   xmlns:sodipodi="http://sodipodi.sourceforge.net/DTD/sodipodi-0.dtd"
   xmlns:inkscape="http://www.inkscape.org/namespaces/inkscape"
   width="512"
   height="512"
   viewBox="0 0 512 512"
   version="1.1"
   id="svg35"
   inkscape:version="0.92.4 (5da689c313, 2019-01-14)"
   sodipodi:docname="U+4E94.svg">
  <defs
     id="defs29">
    <inkscape:path-effect
       effect="bspline"
       id="path-effect58"
       is_visible="true"
       weight="33.333333"
       steps="2"
       helper_size="0"
       apply_no_weight="true"
       apply_with_weight="true"
       only_selected="false" />
    <inkscape:path-effect
       effect="bspline"
       id="path-effect54"
       is_visible="true"
       weight="33.333333"
       steps="2"
       helper_size="0"
       apply_no_weight="true"
       apply_with_weight="true"
       only_selected="false" />
    <inkscape:path-effect
       effect="bspline"
       id="path-effect50"
       is_visible="true"
       weight="33.333333"
       steps="2"
       helper_size="0"
       apply_no_weight="true"
       apply_with_weight="true"
       only_selected="false" />
  </defs>
  <sodipodi:namedview
     id="base"
     pagecolor="#ffffff"
     bordercolor="#666666"
     borderopacity="1.0"
     inkscape:pageopacity="0.0"
     inkscape:pageshadow="2"
     inkscape:zoom="4"
     inkscape:cx="296.11738"
     inkscape:cy="167.14448"
     inkscape:document-units="px"
     inkscape:current-layer="svg35"
     showgrid="false"
     units="px"
     inkscape:window-width="1920"
     inkscape:window-height="1001"
     inkscape:window-x="-9"
     inkscape:window-y="-9"
     inkscape:window-maximized="1" />
  <metadata
     id="metadata32">
    <rdf:RDF>
      <cc:Work
         rdf:about="">
        <dc:format>image/svg+xml</dc:format>
        <dc:type
           rdf:resource="http://purl.org/dc/dcmitype/StillImage" />
        <dc:title />
      </cc:Work>
    </rdf:RDF>
  </metadata>
  <g
     inkscape:label="圖層 1"
     inkscape:groupmode="layer"
     id="layer1"
     transform="translate(0,-161.53331)" />
  <path
     d="M 150.5426,182.69819 C 145.51732,179.63765 141.96853,176.86403 126.2598,163.71948 123.59769,161.49191 120.11019,157.86177 118.5098,155.6525 115.68426,151.75196 114.6096,146.93571 116.5648,146.93571 117.09544,146.93571 123.09088,149.18227 129.88799,151.92807 144.13949,157.68517 151.07198,159.2724 158.1,158.38735 160.85,158.04104 178.175,154.02595 196.6,149.46492 215.025,144.9039 231.9,140.88577 234.1,140.53575 L 238.1,139.89935 233.50329,144.19116 C 230.44701,147.04472 225.52183,149.94528 218.80637,152.84656 213.25126,155.24653 204.06978,160.1402 198.40309,163.72139 158.32524,189.04943 159.92777,188.41402 150.5426,182.69819 Z"
     id="path60"
     inkscape:connector-curvature="0" />
  <path
     d="M 87.082135,416.05452 C 80.913351,411.83611 69.101308,395.98112 69.113507,391.93571 69.121724,389.21058 73.748581,379.45205 76.347687,376.67806 L 78.463003,374.42041 81.32344,377.89061 C 85.011623,382.36502 88.920977,383.09375 101.1,381.57711 113.02571,380.09201 154.84409,370.89299 156.71025,369.34421 158.67115,367.7168 158.44815,364.81268 155.75165,356.86086 152.80959,348.18489 151.81195,342.91863 152.62509,340.35665 152.97276,339.26125 160.30934,333.11152 168.92861,326.69058 188.05454,312.44268 196.08348,304.51542 211.77407,284.38772 218.44033,275.83632 225.96577,266.41321 228.49727,263.44748 236.06978,254.57607 234.99617,253.29743 218.46227,251.49613 199.23089,249.40094 191.67654,246.83617 185.41133,240.275 179.47341,234.05659 179.25898,228.95927 184.55511,219.92209 187.15802,215.48056 193.30041,210.14166 197.24946,208.88828 199.87432,208.05518 202.1,210.09587 202.1,213.33565 202.1,219.21913 206.09802,221.9749 222.49198,227.3915 235.86367,231.80953 241.41758,231.46358 247.23682,225.85017 252.49906,220.77406 257.92032,212.80399 263.60646,201.78434 270.3033,188.80597 272.45993,180.94583 271.86549,171.68317 271.42465,164.81398 270.81355,163.02709 265.23993,152.3098 261.86297,145.81637 259.1,139.82367 259.1,138.99269 259.1,135.10479 264.64828,133.43334 295.62211,127.99024 309.23463,125.59807 319.26414,123.19943 327.1,120.46202 335.38666,117.56713 340.21564,116.44334 344.38212,116.44015 355.01612,116.432 358.58667,119.29439 366.13281,133.87693 370.3968,142.11688 371.31427,148.03253 368.49596,149.11401 367.61374,149.45255 357.2196,146.46852 345.39788,142.48284 326.26315,136.03158 322.84438,135.178 314.25192,134.70651 304.37268,134.16441 289.87971,135.58009 283.29124,137.73078 277.25206,139.70216 277.68659,142.97125 285.57901,154.94201 298.07245,173.89133 297.41729,179.00508 279.41037,203.09069 264.80287,222.62931 260.05735,234.37218 264.97166,238.81956 266.00107,239.75116 272.28009,242.23554 278.92504,244.34039 297.27933,250.15428 304.7847,255.95245 310.71027,268.89561 313.11082,274.13909 313.31378,275.46982 312.75866,282.32575 312.41976,286.51123 309.43292,301.39146 306.12124,315.39292 302.80956,329.39439 300.1,342.32151 300.1,344.11987 300.1,350.39966 301.86207,350.79929 333.02092,351.58634 373.07833,352.59817 400.15931,356.53329 412.21292,363.09369 422.48436,368.68411 430.81426,381.40644 429.84331,390.02074 429.5714,392.4331 428.60754,395.53835 427.70141,396.92128 424.6184,401.62654 420.84612,400.59487 393.50657,387.56938 364.37845,373.69176 357.81386,371.08775 334.77515,364.27206 319.32738,359.70205 316.39311,359.1462 305.6,358.74529 296.25367,358.39813 291.0569,358.76227 282.1,360.39198 275.775,361.5428 256.2,364.92964 238.6,367.91827 221,370.9069 202.1676,374.50615 196.75023,375.9166 178.32391,380.71402 157.30571,389.33425 126.29646,404.81191 106.86456,414.51097 97.39108,418.43571 93.411579,418.43571 91.845559,418.43571 88.997308,417.36417 87.082135,416.05452 Z M 230.1,362.05695 C 256.06312,359.04663 265.90425,357.14561 272.887,353.79177 281.4115,349.69742 281.58245,349.15869 281.71218,325.97908 281.77775,314.26462 282.53987,299.70254 283.54622,290.93571 286.01102,269.46357 284.97497,265.34897 276.14735,261.55143 269.9968,258.90553 258.41828,256.88803 254.7163,257.81716 250.54714,258.86356 241.96109,267.4599 232.62422,279.93571 225.74963,289.12145 190.41866,339.0966 180.98853,352.97364 177.1765,358.58329 176.5314,361.72425 178.7381,363.93096 180.33894,365.5318 181.95348,365.65433 194.56043,365.13176 202.28219,364.81168 218.275,363.42802 230.1,362.05695 Z"
     id="path62"
     inkscape:connector-curvature="0" />
</svg>
