<?xml version="1.0" encoding="UTF-8" standalone="no"?>
<!-- Created with Inkscape (http://www.inkscape.org/) -->

<svg
   xmlns:dc="http://purl.org/dc/elements/1.1/"
   xmlns:cc="http://creativecommons.org/ns#"
   xmlns:rdf="http://www.w3.org/1999/02/22-rdf-syntax-ns#"
   xmlns:svg="http://www.w3.org/2000/svg"
   xmlns="http://www.w3.org/2000/svg"
   xmlns:sodipodi="http://sodipodi.sourceforge.net/DTD/sodipodi-0.dtd"
   xmlns:inkscape="http://www.inkscape.org/namespaces/inkscape"
   width="512"
   height="512"
   viewBox="0 0 512 512"
   version="1.1"
   id="svg8"
   inkscape:version="0.92.4 (5da689c313, 2019-01-14)"
   sodipodi:docname="U+5316.svg">
  <defs
     id="defs2">
    <inkscape:path-effect
       effect="bspline"
       id="path-effect39"
       is_visible="true"
       weight="33.333333"
       steps="2"
       helper_size="0"
       apply_no_weight="true"
       apply_with_weight="true"
       only_selected="false" />
    <inkscape:path-effect
       effect="bspline"
       id="path-effect35"
       is_visible="true"
       weight="33.333333"
       steps="2"
       helper_size="0"
       apply_no_weight="true"
       apply_with_weight="true"
       only_selected="false" />
    <inkscape:path-effect
       effect="bspline"
       id="path-effect31"
       is_visible="true"
       weight="33.333333"
       steps="2"
       helper_size="0"
       apply_no_weight="true"
       apply_with_weight="true"
       only_selected="false" />
    <inkscape:path-effect
       effect="bspline"
       id="path-effect27"
       is_visible="true"
       weight="33.333333"
       steps="2"
       helper_size="0"
       apply_no_weight="true"
       apply_with_weight="true"
       only_selected="false" />
    <inkscape:path-effect
       effect="bspline"
       id="path-effect23"
       is_visible="true"
       weight="33.333333"
       steps="2"
       helper_size="0"
       apply_no_weight="true"
       apply_with_weight="true"
       only_selected="false" />
  </defs>
  <sodipodi:namedview
     id="base"
     pagecolor="#ffffff"
     bordercolor="#666666"
     borderopacity="1.0"
     inkscape:pageopacity="0.0"
     inkscape:pageshadow="2"
     inkscape:zoom="1"
     inkscape:cx="235.5"
     inkscape:cy="280"
     inkscape:document-units="px"
     inkscape:current-layer="svg8"
     showgrid="false"
     units="px"
     inkscape:window-width="1920"
     inkscape:window-height="1001"
     inkscape:window-x="-9"
     inkscape:window-y="-9"
     inkscape:window-maximized="1" />
  <metadata
     id="metadata5">
    <rdf:RDF>
      <cc:Work
         rdf:about="">
        <dc:format>image/svg+xml</dc:format>
        <dc:type
           rdf:resource="http://purl.org/dc/dcmitype/StillImage" />
        <dc:title />
      </cc:Work>
    </rdf:RDF>
  </metadata>
  <g
     inkscape:label="圖層 1"
     inkscape:groupmode="layer"
     id="layer1"
     transform="translate(0,-161.53331)" />
  <path
     d="M 78.645159,252.11786 C 78.620322,251.68768 84.531686,240.88768 91.781524,228.11786 106.63088,201.96228 137.52704,141.26875 142.4922,128.49996 151.75605,104.67633 151.89451,91.101025 143.03797,74.988524 139.07243,67.774108 138.56854,62.64343 141.5597,59.936466 144.53137,57.247149 147.77603,58.655556 153.56751,65.148682 160.17173,72.553016 162.90728,77.294325 166.15214,86.960597 170.85964,100.98398 170.49004,120.4607 165.27192,133.34624 163.38493,138.00593 147.98177,162.27392 131.28076,186.9 114.76691,211.2501 78.854695,255.74694 78.645159,252.11786 Z"
     id="path41"
     inkscape:connector-curvature="0" />
  <path
     d="M 305.97464,147.93391 C 305.66522,147.12757 306.78522,141.84007 308.46355,136.18391 313.50127,119.2062 314.02224,113.548 312.0325,97.421978 310.16418,82.280012 310.55332,80.064579 314.88677,81.172133 322.68845,83.166106 329.28512,91.697503 333.2337,104.9 338.10372,121.18346 336.20345,131.90197 326.9313,140.44873 319.33542,147.45037 307.42195,151.70556 305.97464,147.93391 Z"
     id="path43"
     inkscape:connector-curvature="0" />
  <path
     d="M 308.1,406.38718 C 283.43662,403.77546 264.7979,392.47956 252.77328,372.8567 246.69524,362.93801 239.516,336.50497 236.62477,313.4 234.82323,299.00314 235.41074,266.24505 238.1313,229.4 241.1589,188.3966 241.53165,159.80412 239.2003,147.4 237.06415,136.0344 237.16207,132.22645 239.67258,129.03486 243.45945,124.22064 247.45702,126.48749 251.80115,135.91246 253.91343,140.49523 254.09597,142.23908 254.0504,157.4 254.00933,171.06196 253.28813,179.06007 249.85747,203.9 244.14383,245.26991 243.05973,262.39891 244.51698,288.28113 246.61964,325.62674 249.63945,345.61963 254.795,356.32759 260.16768,367.48655 279.50895,382.25079 296.09686,387.85554 307.73844,391.78902 327.03157,391.77428 358.1,387.80815 402.11029,382.18988 422.19,373.18975 431.07877,355.09757 435.35222,346.39942 437.60281,336.26436 441.11519,309.90069 442.58065,298.90107 444.10985,289.31136 444.51342,288.59022 445.54328,286.74996 446.9148,291.89552 450.59321,311.4 456.40988,342.24239 458.86695,349.58033 470.62338,371.21944 475.23166,379.70153 475.58136,382.71088 472.21502,384.91659 468.81335,387.14545 451.92297,391.20697 414.43098,398.81155 385.90853,404.59682 379.5622,405.55998 364.43098,406.39985 344.75518,407.49197 318.4771,407.48606 308.1,406.38718 Z"
     id="path45"
     inkscape:connector-curvature="0" />
  <path
     d=""
     id="path47"
     inkscape:connector-curvature="0" />
  <path
     d=""
     id="path49"
     inkscape:connector-curvature="0" />
  <path
     d="M 278.50086,194.16619 C 280.72904,189.90667 293.16892,175.83229 294.16272,176.4465 295.22746,177.10454 294.3211,182.44702 292.55618,185.91619 290.10817,190.72805 282.28724,196.91619 278.65374,196.91619 277.23557,196.91619 277.21893,196.6168 278.50086,194.16619 Z"
     id="path51"
     inkscape:connector-curvature="0" />
  <path
     d="M 135.77398,478.5828 C 134.63422,475.93334 133.2632,469.97084 132.72729,465.3328 131.54616,455.11084 132.62962,418.96907 134.16313,417.43634 134.91363,416.68621 136.18566,416.7082 138.48889,417.51111 140.60636,418.24927 142.09346,418.30654 142.72572,417.67428 144.50589,415.89411 145.78337,372.46066 145.32207,329.4 144.90405,290.37883 144.65653,285.46754 142.29819,269.4 139.24422,248.59303 137.65819,240.89868 133.62429,227.32007 131.96093,221.72098 130.6,216.74843 130.6,216.26996 130.6,212.14589 142.16182,223.66542 145.84774,231.46192 150.092,240.43944 151.45028,250.15799 153.18812,283.98263 154.45257,308.5934 154.68,325.17135 154.18162,356.4 153.00489,430.13428 151.63502,449.40688 146.43405,465.4 144.45255,471.49315 139.01159,483.4 138.20875,483.4 138.0094,483.4 136.91375,481.23226 135.77398,478.5828 Z"
     id="path55"
     inkscape:connector-curvature="0" />
</svg>
