<?xml version="1.0" encoding="UTF-8" standalone="no"?>
<!-- Created with Inkscape (http://www.inkscape.org/) -->

<svg
   xmlns:dc="http://purl.org/dc/elements/1.1/"
   xmlns:cc="http://creativecommons.org/ns#"
   xmlns:rdf="http://www.w3.org/1999/02/22-rdf-syntax-ns#"
   xmlns:svg="http://www.w3.org/2000/svg"
   xmlns="http://www.w3.org/2000/svg"
   xmlns:sodipodi="http://sodipodi.sourceforge.net/DTD/sodipodi-0.dtd"
   xmlns:inkscape="http://www.inkscape.org/namespaces/inkscape"
   width="512"
   height="512"
   viewBox="0 0 512 512"
   version="1.1"
   id="svg8"
   inkscape:version="0.92.4 (5da689c313, 2019-01-14)"
   sodipodi:docname="U+53CA.svg">
  <defs
     id="defs2">
    <inkscape:path-effect
       effect="bspline"
       id="path-effect27"
       is_visible="true"
       weight="33.333333"
       steps="2"
       helper_size="0"
       apply_no_weight="true"
       apply_with_weight="true"
       only_selected="false" />
    <inkscape:path-effect
       effect="bspline"
       id="path-effect23"
       is_visible="true"
       weight="33.333333"
       steps="2"
       helper_size="0"
       apply_no_weight="true"
       apply_with_weight="true"
       only_selected="false" />
  </defs>
  <sodipodi:namedview
     id="base"
     pagecolor="#ffffff"
     bordercolor="#666666"
     borderopacity="1.0"
     inkscape:pageopacity="0.0"
     inkscape:pageshadow="2"
     inkscape:zoom="0.5"
     inkscape:cx="973.38989"
     inkscape:cy="825.85879"
     inkscape:document-units="px"
     inkscape:current-layer="svg8"
     showgrid="false"
     units="px"
     inkscape:window-width="1920"
     inkscape:window-height="1001"
     inkscape:window-x="-9"
     inkscape:window-y="-9"
     inkscape:window-maximized="1" />
  <metadata
     id="metadata5">
    <rdf:RDF>
      <cc:Work
         rdf:about="">
        <dc:format>image/svg+xml</dc:format>
        <dc:type
           rdf:resource="http://purl.org/dc/dcmitype/StillImage" />
        <dc:title />
      </cc:Work>
    </rdf:RDF>
  </metadata>
  <g
     inkscape:label="圖層 1"
     inkscape:groupmode="layer"
     id="layer1"
     transform="translate(0,-161.53332)" />
  <path
     d="M 270.91587,297.28076 C 270.28725,295.64261 270.61034,294.52334 277.00982,276.16958 278.97171,270.54285 282.9121,256.81785 285.76623,245.66958 289.91302,229.47219 290.95334,223.79279 290.94448,217.4 290.9321,208.45557 288.38376,200.93223 283.9493,196.74839 282.58031,195.45678 273.95418,190.575 264.78012,185.9 L 248.1,177.4 247.17741,171.95815 C 245.75677,163.57859 247.68447,153.58737 257.12503,120.4 266.39084,87.82696 267.8848,79.285217 265.21804,74.128256 264.31673,72.385324 262.71354,70.495949 261.65539,69.929644 254.59243,66.149665 236.60984,72.979299 217.1,86.851397 212.7,89.979933 205.5,94.058736 201.1,95.915404 196.7,97.772073 180.5,104.8801 165.1,111.71103 118.26218,132.48672 108.87188,135.64332 102.97583,132.59435 96.408591,129.1983 94.171163,117.16137 98.352367,107.721 100.94615,101.86472 103.32166,100.63015 116.08532,98.505047 126.63827,96.748023 131.03525,95.119617 172.9976,77.427793 198.44809,66.697568 201.66481,65.150316 236.6,46.834815 250.075,39.770266 263.26573,33.419008 265.91273,32.720908 270.46696,31.519809 271.00407,31.598575 275.91273,34.187392 283.42306,38.148328 292.23254,46.256555 293.63163,50.495833 295.6322,56.557641 294.12347,61.860074 288.15735,69.735069 281.86873,78.035756 281.81416,78.175767 272.50219,109.9 259.40279,154.52735 258.6132,159.52031 263.19969,168.7242 266.42211,175.19075 270.43091,178.04586 286.07583,185.01678 303.26423,192.67544 306.58159,196.75853 306.59442,210.27166 306.61327,230.10966 294.1833,278.483 285.81175,291.15096 281.5071,297.66484 272.48754,301.37648 270.91587,297.28076 Z"
     id="path29"
     inkscape:connector-curvature="0" />
  <path
     d="M 389.46687,451.25717 C 382.2921,449.64512 352.91239,433.80165 336.88207,422.9 312.36362,406.22587 276.87144,379.17973 267.08257,369.71063 261.28917,364.10647 255.35406,359.06689 253.89343,358.51156 250.98936,357.40744 248.27192,358.54499 236.65883,365.72616 226.95421,371.7272 225.27474,370.03426 232.35,361.38279 239.38649,352.77874 239.73516,352.01832 237.91654,349.24275 237.05607,347.92951 233.93284,345.55262 230.97602,343.96078 218.38859,337.18415 194.31297,319.06245 172.45226,299.91 166.66742,294.84183 165.4461,294.55332 161.82713,297.4 158.45184,300.055 156.21443,299.92483 149.61815,296.68972 144.51618,294.18748 143.96721,294.10422 142.46635,295.60508 140.2639,297.80752 141.24307,301.1851 145.5936,306.39234 147.52246,308.70104 148.84893,310.99723 148.54129,311.49499 148.23366,311.99274 146.17391,312.4 143.96406,312.4 140.85655,312.4 139.28383,311.73768 137.02308,309.47692 134.16555,306.6194 134.1,306.31968 134.1,296.11178 134.1,286.98553 133.83275,285.32996 131.97912,282.97346 129.56613,279.90584 129.8321,274.984 132.64266,270.69454 133.95615,268.68991 134.79892,268.33017 136.93837,268.86091 143.22273,270.4199 144.7026,270.45055 146.57724,269.06057 151.4053,265.48071 143.4148,257.58894 136.86428,259.4676 132.82812,260.62516 128.87685,263.42032 115.80748,274.36337 109.87159,279.33352 104.58409,283.4 104.05748,283.4 101.27769,283.4 105.45876,275.35914 111.91847,268.28207 122.11216,257.11417 124.25708,251.55708 120.01235,247.31235 116.04808,243.34808 111.21255,242.02525 100.85,242.07021 94.224986,242.09895 91.1,241.74913 91.1,240.97876 91.1,238.78229 94.275354,235.35119 98.12624,233.38661 103.28931,230.75261 110.12755,230.86439 122.6,233.78666 130.64138,235.67074 133.14187,235.91129 135.36658,235.01482 139.11394,233.50479 148.13402,221.19499 157.66085,204.58962 166.51377,189.15887 196.81967,142.78279 199.71195,140.24025 202.96847,137.37752 205.27477,137.6261 207.64436,141.09523 212.64788,148.42049 211.50748,156.08794 203.93839,166.01229 201.46865,169.25053 195.70566,177.525 191.13175,184.4 186.55783,191.275 178.45413,202.525 173.12354,209.4 152.62066,235.84307 150.1,239.76793 150.1,245.24938 150.1,249.08518 152.21828,251.50474 160.08512,256.65463 166.94105,261.14275 167.8644,262.39732 171.24576,271.81881 174.84914,281.85889 176.68958,283.3937 222.02011,314.16133 227.20118,317.67792 236.87618,323.27893 243.52011,326.60802 251.43976,330.57633 258.01076,334.74328 262.6,338.70738 273.72991,348.32118 284.53596,354.79026 310.75556,367.53587 360.36631,391.65215 369.02137,395.00595 407.6,405.06268 445.19952,414.86417 459.52119,419.76985 463.44796,424.1926 466.73679,427.89683 464.4017,429.34178 443.73741,436.38945 435.96183,439.04135 424.875,443.10999 419.1,445.43087 401.9174,452.33628 397.83877,453.1382 389.46687,451.25717 Z"
     id="path31"
     inkscape:connector-curvature="0" />
</svg>
