<?xml version="1.0" encoding="UTF-8" standalone="no"?>
<!-- Created with Inkscape (http://www.inkscape.org/) -->

<svg
   xmlns:dc="http://purl.org/dc/elements/1.1/"
   xmlns:cc="http://creativecommons.org/ns#"
   xmlns:rdf="http://www.w3.org/1999/02/22-rdf-syntax-ns#"
   xmlns:svg="http://www.w3.org/2000/svg"
   xmlns="http://www.w3.org/2000/svg"
   xmlns:sodipodi="http://sodipodi.sourceforge.net/DTD/sodipodi-0.dtd"
   xmlns:inkscape="http://www.inkscape.org/namespaces/inkscape"
   width="512"
   height="512"
   viewBox="0 0 512 512"
   version="1.1"
   id="svg8"
   inkscape:version="0.92.4 (5da689c313, 2019-01-14)"
   sodipodi:docname="U+56DB.svg">
  <defs
     id="defs2">
    <inkscape:path-effect
       effect="bspline"
       id="path-effect35"
       is_visible="true"
       weight="33.333333"
       steps="2"
       helper_size="0"
       apply_no_weight="true"
       apply_with_weight="true"
       only_selected="false" />
    <inkscape:path-effect
       effect="bspline"
       id="path-effect31"
       is_visible="true"
       weight="33.333333"
       steps="2"
       helper_size="0"
       apply_no_weight="true"
       apply_with_weight="true"
       only_selected="false" />
    <inkscape:path-effect
       effect="bspline"
       id="path-effect27"
       is_visible="true"
       weight="33.333333"
       steps="2"
       helper_size="0"
       apply_no_weight="true"
       apply_with_weight="true"
       only_selected="false" />
    <inkscape:path-effect
       effect="bspline"
       id="path-effect23"
       is_visible="true"
       weight="33.333333"
       steps="2"
       helper_size="0"
       apply_no_weight="true"
       apply_with_weight="true"
       only_selected="false" />
  </defs>
  <sodipodi:namedview
     id="base"
     pagecolor="#ffffff"
     bordercolor="#666666"
     borderopacity="1.0"
     inkscape:pageopacity="0.0"
     inkscape:pageshadow="2"
     inkscape:zoom="2.8284271"
     inkscape:cx="264.85562"
     inkscape:cy="269.9412"
     inkscape:document-units="px"
     inkscape:current-layer="svg8"
     showgrid="false"
     units="px"
     inkscape:window-width="1920"
     inkscape:window-height="1001"
     inkscape:window-x="-9"
     inkscape:window-y="-9"
     inkscape:window-maximized="1" />
  <metadata
     id="metadata5">
    <rdf:RDF>
      <cc:Work
         rdf:about="">
        <dc:format>image/svg+xml</dc:format>
        <dc:type
           rdf:resource="http://purl.org/dc/dcmitype/StillImage" />
        <dc:title />
      </cc:Work>
    </rdf:RDF>
  </metadata>
  <g
     inkscape:label="圖層 1"
     inkscape:groupmode="layer"
     id="layer1"
     transform="translate(0,-161.53331)" />
  <path
     d="M 163.1,361.06191 C 158.16443,358.53321 157.62202,357.13754 158.27648,348.65065 158.65012,343.80542 158.42413,339.50621 157.6659,337.03482 156.52813,333.32638 146.97487,313.11694 124.44161,266.75055 118.99939,255.55215 113.61144,243.62715 112.4684,240.25055 108.55896,228.70186 111.17055,214.59619 119.15671,204.1258 122.93896,199.16701 124.264,199.62722 125.59298,206.36126 127.4909,215.97814 131.48032,227.10483 141.10006,249.61126 151.4466,273.81815 155.37104,284.47126 162.10957,306.64276 169.98161,332.54379 171.37733,334.33486 180.90977,330.76832 183.94769,329.63169 190.49874,327.99634 195.46766,327.13422 200.43658,326.2721 212.73659,323.79804 222.80103,321.63631 232.86546,319.47458 246.725,317.00515 253.6,316.14869 260.475,315.29223 270.71926,313.89856 276.36503,313.05165 282.0108,312.20473 287.0733,311.78574 287.61503,312.12055 288.95698,312.94992 288.86416,323.93739 287.48973,326.95394 285.81706,330.62504 282.63437,331.58783 265.13247,333.71718 242.59569,336.45909 205.03996,345.34552 192.44641,350.91613 189.50588,352.21684 184.03406,355.38035 180.28679,357.94616 172.79702,363.07451 168.53597,363.84699 163.1,361.06191 Z"
     id="path37"
     inkscape:connector-curvature="0" />
  <path
     d="M 338.03221,369.19717 C 337.66797,367.74594 337.68354,363.21224 338.0668,359.12228 339.10434,348.05022 337.25539,342.79225 329.07276,333.54529 320.79485,324.19064 314.6,315.23499 314.6,312.62257 314.6,309.82598 315.39031,310.06778 321.1,314.61126 326.27993,318.73318 329.02955,319.43748 331.6,317.30076 335.6358,313.94595 337.99146,310.11529 341.01761,301.98626 342.83473,297.10501 346.57663,288.61126 349.33294,283.11126 352.08926,277.61126 356.02262,268.38626 358.07376,262.61126 360.1249,256.83626 365.76764,241.98626 370.6132,229.61126 380.01294,205.60538 382.32214,197.27413 381.21376,191.36596 379.64645,183.01151 371.12498,177.88037 357.29194,176.96164 347.02561,176.27979 340.8594,177.29806 317.1,183.5988 306.65,186.37003 283.475,192.21634 265.6,196.59061 247.725,200.96488 223.08734,207.72263 210.84965,211.60782 185.30749,219.71688 180.70967,220.75644 176.06229,219.47324 171.86142,218.31333 165.08688,210.87814 160.65547,202.56395 158.10333,197.77565 157.19369,194.66485 156.8205,189.44899 156.55142,185.68824 156.67946,182.61126 157.10503,182.61126 157.53061,182.61126 160.01598,183.92628 162.62808,185.53352 165.24018,187.14076 169.11495,188.93825 171.23868,189.52795 179.70947,191.88001 196.66348,190.50137 220.6,185.51406 278.26198,173.49984 285.25563,172.40434 315.6,170.63309 325.225,170.07126 341.46891,168.87513 351.69759,167.97502 361.92626,167.07492 372.32862,166.6434 374.81395,167.0161 377.71812,167.45161 381.90508,169.3874 386.53199,172.43382 397.93917,179.94443 402.2945,188.17542 401.32441,200.3895 400.88501,205.92193 399.22599,209.96085 387.35868,234.3895 372.25573,265.47866 372.76953,264.33937 367.55518,278.30095 359.9948,298.54412 351.61259,328.86696 347.57338,350.58556 345.18924,363.40495 343.84302,367.24997 340.78524,369.97351 338.72633,371.80737 338.68435,371.79553 338.03221,369.19717 Z"
     id="path39"
     inkscape:connector-curvature="0" />
  <path
     d="M 202.94155,281.50582 C 203.28166,279.63882 204.02897,273.83626 204.60223,268.61126 205.1755,263.38626 206.10962,257.67845 206.67805,255.92723 208.03034,251.76112 215.38452,244.99578 216.9065,246.51777 219.19301,248.80428 213.14268,268.71 206.94865,279.27931 203.56688,285.04987 202.15282,285.83558 202.94155,281.50582 Z"
     id="path41"
     inkscape:connector-curvature="0" />
  <path
     d="M 282.4365,271.86126 C 275.57259,264.65006 266.25905,252.06534 263.7498,246.61126 261.0848,240.81865 259.63619,227.58754 261.05017,221.95378 261.69957,219.36638 262.0512,219.76257 266.39844,227.97958 268.95768,232.81698 274.08522,240.67555 277.79296,245.44306 288.07666,258.66609 289.70734,261.684 289.75299,267.57755 289.78863,272.17924 288.47606,275.61126 286.6805,275.61126 286.30947,275.61126 284.39967,273.92376 282.4365,271.86126 Z"
     id="path43"
     inkscape:connector-curvature="0" />
</svg>
