<?xml version="1.0" encoding="UTF-8" standalone="no"?>
<!-- Created with Inkscape (http://www.inkscape.org/) -->

<svg
   xmlns:dc="http://purl.org/dc/elements/1.1/"
   xmlns:cc="http://creativecommons.org/ns#"
   xmlns:rdf="http://www.w3.org/1999/02/22-rdf-syntax-ns#"
   xmlns:svg="http://www.w3.org/2000/svg"
   xmlns="http://www.w3.org/2000/svg"
   xmlns:sodipodi="http://sodipodi.sourceforge.net/DTD/sodipodi-0.dtd"
   xmlns:inkscape="http://www.inkscape.org/namespaces/inkscape"
   width="512"
   height="512"
   viewBox="0 0 512 512"
   version="1.1"
   id="svg8"
   inkscape:version="0.92.4 (5da689c313, 2019-01-14)"
   sodipodi:docname="U+5E38.svg">
  <defs
     id="defs2">
    <inkscape:path-effect
       effect="bspline"
       id="path-effect51"
       is_visible="true"
       weight="33.333333"
       steps="2"
       helper_size="0"
       apply_no_weight="true"
       apply_with_weight="true"
       only_selected="false" />
    <inkscape:path-effect
       effect="bspline"
       id="path-effect47"
       is_visible="true"
       weight="33.333333"
       steps="2"
       helper_size="0"
       apply_no_weight="true"
       apply_with_weight="true"
       only_selected="false" />
    <inkscape:path-effect
       effect="bspline"
       id="path-effect43"
       is_visible="true"
       weight="33.333333"
       steps="2"
       helper_size="0"
       apply_no_weight="true"
       apply_with_weight="true"
       only_selected="false" />
    <inkscape:path-effect
       effect="bspline"
       id="path-effect39"
       is_visible="true"
       weight="33.333333"
       steps="2"
       helper_size="0"
       apply_no_weight="true"
       apply_with_weight="true"
       only_selected="false" />
    <inkscape:path-effect
       effect="bspline"
       id="path-effect35"
       is_visible="true"
       weight="33.333333"
       steps="2"
       helper_size="0"
       apply_no_weight="true"
       apply_with_weight="true"
       only_selected="false" />
    <inkscape:path-effect
       effect="bspline"
       id="path-effect31"
       is_visible="true"
       weight="33.333333"
       steps="2"
       helper_size="0"
       apply_no_weight="true"
       apply_with_weight="true"
       only_selected="false" />
    <inkscape:path-effect
       effect="bspline"
       id="path-effect27"
       is_visible="true"
       weight="33.333333"
       steps="2"
       helper_size="0"
       apply_no_weight="true"
       apply_with_weight="true"
       only_selected="false" />
    <inkscape:path-effect
       effect="bspline"
       id="path-effect23"
       is_visible="true"
       weight="33.333333"
       steps="2"
       helper_size="0"
       apply_no_weight="true"
       apply_with_weight="true"
       only_selected="false" />
  </defs>
  <sodipodi:namedview
     id="base"
     pagecolor="#ffffff"
     bordercolor="#666666"
     borderopacity="1.0"
     inkscape:pageopacity="0.0"
     inkscape:pageshadow="2"
     inkscape:zoom="4"
     inkscape:cx="248.1994"
     inkscape:cy="380.92406"
     inkscape:document-units="px"
     inkscape:current-layer="svg8"
     showgrid="false"
     units="px"
     inkscape:window-width="1920"
     inkscape:window-height="1001"
     inkscape:window-x="-9"
     inkscape:window-y="-9"
     inkscape:window-maximized="1" />
  <metadata
     id="metadata5">
    <rdf:RDF>
      <cc:Work
         rdf:about="">
        <dc:format>image/svg+xml</dc:format>
        <dc:type
           rdf:resource="http://purl.org/dc/dcmitype/StillImage" />
        <dc:title />
      </cc:Work>
    </rdf:RDF>
  </metadata>
  <g
     inkscape:label="圖層 1"
     inkscape:groupmode="layer"
     id="layer1"
     transform="translate(0,-161.53331)" />
  <path
     d="M 404.48063,172.56493 C 401.65878,170.31815 399.35,167.77154 399.35,166.9058 399.35,166.04007 401.18282,162.90419 403.42293,159.93718 408.11716,153.71972 411.29642,147.20765 411.32804,143.74516 411.35944,140.30695 404.85062,134.53818 398.30617,132.20386 390.9689,129.58676 384.87349,129.7644 332.85,134.11142 268.00342,139.52992 240.40826,143.15454 214.19223,149.69712 200.53583,153.10526 195.94824,154.82608 182.41902,161.61536 170.33428,167.67977 167.71689,167.8797 162.46973,163.1392 158.0225,159.1214 156.05245,155.11148 156.5232,151.03541 156.80807,148.56886 157.4915,148.0342 161.85,146.86817 170.51955,144.5488 177.01539,141.61086 179.61328,138.83421 181.14707,137.19487 182.82193,133.3927 183.91588,129.06669 185.60801,122.37521 185.61424,121.65247 184.02855,116.00109 182.29102,109.80858 181.85228,95.604302 183.16929,88.182622 L 183.87332,84.215245 189.27761,91.682622 C 192.24997,95.78968 197.95065,102.525 201.94581,106.65 210.12281,115.09277 211.43196,117.62008 210.64964,123.45271 209.77016,130.00966 210.82484,132.41012 215.10779,133.59957 219.91734,134.93527 237.41032,134.95776 240.89541,133.63274 243.45213,132.66067 243.49941,132.51627 241.95947,130.38274 241.07312,129.15473 238.73607,125.04962 236.76603,121.26027 233.16041,114.32493 233.23204,112.71152 237.14762,112.66531 237.86131,112.65689 240.67381,110.42143 243.39762,107.69762 247.71017,103.38507 248.35,102.21991 248.35,98.679132 248.35,93.503538 241.91273,73.453376 239.60003,71.4256 234.45759,66.916713 228.48739,65.533349 220.6,67.023078 215.57296,67.972558 215.14921,66.823452 218.32731,60.860162 221.6793,54.570574 226.99572,49.65 230.4393,49.65 231.34365,49.65 237.5298,53.237883 244.1863,57.623072 254.67153,64.530573 256.61736,66.244106 258.74585,70.444471 262.03514,76.935574 264.35,86.221013 264.35,92.924025 264.35,97.920271 263.94112,98.932777 259.76427,104.27968 253.65198,112.10419 251.35,116.7846 251.35,121.38766 251.35,125.97608 253.24436,128.94939 257.21582,130.59442 261.42847,132.33936 296.15852,130.13685 392.0112,122.04598 L 412.17241,120.34418 417.76997,126.39022 C 421.69144,130.62587 425.76498,133.68354 431.37412,136.60174 439.4647,140.81092 443.05269,144.37644 441.98851,147.14965 441.66874,147.98295 439.28376,149.89892 436.68855,151.40737 429.58897,155.53395 424.03219,160.96879 420.88759,166.8616 414.98325,177.92603 412.35942,178.83812 404.48063,172.56493 Z"
     id="path53"
     inkscape:connector-curvature="0" />
  <path
     d="M 282.92444,114.76255 C 282.6237,113.97883 282.78232,111.17143 283.27694,108.52388 283.95242,104.90821 285.27402,102.53653 288.58705,98.994637 291.01299,96.401107 294.00016,92.302712 295.22521,89.887093 296.45026,87.471473 298.74202,84.016899 300.318,82.210261 304.86025,77.003217 303.95675,73.505531 296.91606,69.040459 290.60234,65.036412 289.3248,62.210925 291.5871,57.254588 292.53091,55.186846 294.13492,52.483669 295.15156,51.247528 L 297,49 310.56166,57.58129 C 326.2186,67.488393 329.75813,70.97622 330.72964,77.454681 331.52845,82.781573 330.55674,84.657349 323.63071,91.158372 308.35544,105.49629 284.64466,119.24536 282.92444,114.76255 Z"
     id="path55"
     inkscape:connector-curvature="0" />
  <path
     d="M 117.9997,237.63469 C 115.1327,235.72034 113.56349,228.57801 115.38174,225.71891 115.79485,225.06931 118.15046,224.39431 120.61643,224.21891 L 125.1,223.9 125.91754,206.9 C 126.98269,184.75123 126.06829,179.24719 119.10797,165.91119 111.82773,151.96225 110.308,146.85353 110.76233,137.85658 111.28467,127.51274 112.4721,126.84884 117.41965,134.13442 119.63384,137.39497 124.92845,143.85108 129.18544,148.48134 144.8949,165.56826 146.08972,176.39725 135.90695,209.4 130.2163,227.84361 128.04251,232.84987 124.3902,235.92308 121.33598,238.49304 119.87231,238.88506 117.9997,237.63469 Z"
     id="path57"
     inkscape:connector-curvature="0" />
  <path
     d="M 253.05943,465.42566 C 249.0809,461.2072 248.82467,459.13307 251.5791,453.44318 254.57882,447.24657 255.65132,432.08289 256.28555,386.9 257.05345,332.1942 255.03338,294.30692 251.02041,288.15 248.35377,284.05871 238.89657,286.06412 230.68421,292.46231 225.63133,296.39897 222.74647,297.40456 219.11819,296.49392 216.66001,295.87696 213.6,291.42403 213.6,288.46385 213.6,285.7919 220.67779,282.1975 234.27834,277.96254 245.23054,274.55222 247.90447,273.32686 250.10757,270.70863 253.20439,267.02828 253.01746,264.354 249.03378,255.34619 247.20592,251.21306 246.71442,248.807 247.18529,246.29708 247.96045,242.16512 247.01817,240.86865 239.95695,236.35164 234.28745,232.72491 231.5729,229.21417 233.80688,228.39774 234.51809,228.13782 241.175,226.8083 248.6,225.44326 273.52336,220.86126 277.7716,218.60844 278.87754,209.38722 281.81164,184.923 281.94309,182.94841 280.80394,180.44825 279.08054,176.66581 274.13013,177.10939 260.04403,182.30841 239.46632,189.90342 235.36829,189.57819 225.12793,179.53733 218.78751,173.32044 216.76259,169.11381 218.09287,164.92247 218.88657,162.42173 224.63579,162.14868 228.96431,164.40616 232.47383,166.23651 245.89216,166.39163 266.6,164.84125 288.50788,163.20102 287.36022,163.52552 288.63848,158.60997 290.99711,149.53981 291.06759,149.40809 293.72876,149.09705 295.35262,148.90726 297.39999,149.70227 299.21039,151.22562 300.79971,152.56295 304.57506,155.1149 307.60004,156.89663 314.39281,160.89761 320.6,165.74295 320.6,167.04442 320.6,167.58142 317.07456,171.4811 312.7657,175.71039 302.25051,186.03137 295.64778,199.69373 295.61187,211.20503 295.6004,214.88026 295.79614,215.09644 301.35,217.5424 304.5125,218.93518 307.8875,220.78016 308.85,221.64235 310.64913,223.25399 311.36275,228.48944 309.63799,227.42348 309.10889,227.09648 303.1753,227.50801 296.45224,228.338 277.56338,230.6699 270.31433,235.24282 265.44234,247.9 260.89769,259.70677 262.08849,267.9477 268.52521,269.23504 272.43052,270.0161 292.50641,267.44613 303.7526,264.72549 L 312.40521,262.63227 320.2526,265.88671 C 336.80984,272.75326 337.51494,273.4784 333.21422,279.21672 331.90204,280.96752 329.76454,284.425 328.46422,286.9 326.15544,291.29448 326.1,292.00679 326.1,317.27624 326.1,342.98299 326.0853,343.16226 323.85528,344.64471 320.38334,346.95275 317.59614,344.43477 312.31089,334.21542 309.80334,329.36694 306.32741,324.05 304.58658,322.4 300.83367,318.84289 298.25303,314.24656 298.96584,312.38901 299.38922,311.2857 300.25937,311.29418 304.06222,312.43867 306.58442,313.19774 309.27726,313.57734 310.04632,313.28223 314.23406,311.67524 315.76978,297.8233 313.22043,284.65243 311.52729,275.90509 309.7168,273.9 303.51158,273.9 297.41629,273.9 272.85795,278.41286 267.68103,280.48425 262.01435,282.75161 261.4287,285.20155 262.72511,301.21622 264.05497,317.64402 264.0763,365.86266 262.77718,418.9 261.78014,459.60443 260.97782,467.60739 257.78746,468.67085 257.08972,468.90343 254.96211,467.44309 253.05943,465.42566 Z"
     id="path59"
     inkscape:connector-curvature="0" />
  <path
     d="M 212.20445,252.15 C 209.69246,248.22951 208.69595,242.35112 207.66977,225.4 206.20275,201.16678 203.75344,195.04514 193.43188,189.81481 188.35158,187.24043 185.8605,183.7695 186.98674,180.83454 187.92403,178.39202 194.25292,179.46228 202.30085,183.42426 209.75788,187.09535 215.04533,191.42671 217.23224,195.65572 220.87172,202.6937 221.64541,246.62936 218.22188,251.85434 216.16206,254.99802 214.09437,255.09962 212.20445,252.15 Z"
     id="path61"
     inkscape:connector-curvature="0" />
  <path
     d="M 186.12568,356.44966 C 183.85902,352.06642 184.24892,348.82811 187.43587,345.5679 189.83046,343.11827 190.47434,341.25335 191.57378,333.58294 193.67299,318.93745 192.70218,311.71748 187.2218,301.2168 180.58373,288.49793 181.15389,281.34129 188.43021,286.04893 198.31281,292.44278 204.19159,296.70573 204.91908,298.00568 206.14808,300.20178 202.09533,326.42065 198.70705,338.19376 195.09383,350.74849 191.20748,359.4 189.181,359.4 188.3397,359.4 186.9648,358.07235 186.12568,356.44966 Z"
     id="path63"
     inkscape:connector-curvature="0" />
</svg>
