<?xml version="1.0" encoding="UTF-8" standalone="no"?>
<!-- Created with Inkscape (http://www.inkscape.org/) -->

<svg
   xmlns:dc="http://purl.org/dc/elements/1.1/"
   xmlns:cc="http://creativecommons.org/ns#"
   xmlns:rdf="http://www.w3.org/1999/02/22-rdf-syntax-ns#"
   xmlns:svg="http://www.w3.org/2000/svg"
   xmlns="http://www.w3.org/2000/svg"
   xmlns:sodipodi="http://sodipodi.sourceforge.net/DTD/sodipodi-0.dtd"
   xmlns:inkscape="http://www.inkscape.org/namespaces/inkscape"
   width="512"
   height="512"
   viewBox="0 0 512 512"
   version="1.1"
   id="svg8"
   inkscape:version="0.92.4 (5da689c313, 2019-01-14)"
   sodipodi:docname="U+606D.svg">
  <defs
     id="defs2">
    <inkscape:path-effect
       effect="bspline"
       id="path-effect35"
       is_visible="true"
       weight="33.333333"
       steps="2"
       helper_size="0"
       apply_no_weight="true"
       apply_with_weight="true"
       only_selected="false" />
    <inkscape:path-effect
       effect="bspline"
       id="path-effect31"
       is_visible="true"
       weight="33.333333"
       steps="2"
       helper_size="0"
       apply_no_weight="true"
       apply_with_weight="true"
       only_selected="false" />
    <inkscape:path-effect
       effect="bspline"
       id="path-effect27"
       is_visible="true"
       weight="33.333333"
       steps="2"
       helper_size="0"
       apply_no_weight="true"
       apply_with_weight="true"
       only_selected="false" />
    <inkscape:path-effect
       effect="bspline"
       id="path-effect23"
       is_visible="true"
       weight="33.333333"
       steps="2"
       helper_size="0"
       apply_no_weight="true"
       apply_with_weight="true"
       only_selected="false" />
  </defs>
  <sodipodi:namedview
     id="base"
     pagecolor="#ffffff"
     bordercolor="#666666"
     borderopacity="1.0"
     inkscape:pageopacity="0.0"
     inkscape:pageshadow="2"
     inkscape:zoom="4"
     inkscape:cx="215.88262"
     inkscape:cy="376.8671"
     inkscape:document-units="px"
     inkscape:current-layer="svg8"
     showgrid="false"
     units="px"
     inkscape:window-width="1920"
     inkscape:window-height="1001"
     inkscape:window-x="-9"
     inkscape:window-y="-9"
     inkscape:window-maximized="1" />
  <metadata
     id="metadata5">
    <rdf:RDF>
      <cc:Work
         rdf:about="">
        <dc:format>image/svg+xml</dc:format>
        <dc:type
           rdf:resource="http://purl.org/dc/dcmitype/StillImage" />
        <dc:title />
      </cc:Work>
    </rdf:RDF>
  </metadata>
  <g
     inkscape:label="圖層 1"
     inkscape:groupmode="layer"
     id="layer1"
     transform="translate(0,-161.53331)" />
  <path
     d="M 59.708265,416.48785 C 60.592811,415.92212 64.642811,414.26439 68.708265,412.804 86.582817,406.38311 98.490965,398.23135 118.94496,378.41433 152.30899,346.08931 170.63614,314.76114 186.68724,262.6166 188.2715,257.46988 190.28389,249.72445 191.15921,245.40453 193.6884,232.92247 191.53163,231.18453 179.24944,235.80753 169.83113,239.35257 165.12237,242.68908 154.98218,253.00266 145.7735,262.36881 137.71417,268.4 134.4071,268.4 133.41636,268.4 130.8407,266.80538 128.68341,264.85639 125.75283,262.20879 124.58691,260.24919 124.07231,257.10639 123.69349,254.79288 122.08226,249.81538 120.49178,246.04529 117.42134,238.76709 116.87748,234.96458 118.7421,233.81218 119.37025,233.42396 122.85775,233.02181 126.4921,232.91853 133.82333,232.71017 166.7213,225.64744 177.76613,221.91071 185.17879,219.40283 188.82274,216.7593 191.22069,212.15 193.05449,208.62511 196.67604,208.5332 202.1,211.87391 204.3,213.22893 206.94037,214.35163 207.96749,214.36879 209.68856,214.39755 209.7832,213.79238 209.17456,206.65 208.07687,193.76863 207.43923,190.42303 205.66404,188.23075 204.16534,186.37994 203.68037,186.28562 201.533,187.42732 200.19485,188.13877 196.625,190.84195 193.6,193.43437 181.80454,203.54307 180.54126,203.08284 169.62637,184.7004 161.10124,170.3427 158.95776,165.09502 159.97036,161.06052 161.57844,154.65341 165.29905,154.073 177.76064,158.28529 192.70715,163.33753 200.63157,163.11284 201.42093,157.61443 201.81227,154.88852 197.08522,138.3725 194.37832,133.00796 193.29818,130.86735 190.43903,127.00406 188.02465,124.4229 185.61027,121.84173 183.51452,118.64315 183.36743,117.31493 183.13764,115.23989 183.57243,114.85478 186.45661,114.57869 188.88349,114.34638 192.76129,115.66681 200.45661,119.34585 217.64731,127.5645 218.02495,127.78681 219.23343,130.4 219.8693,131.775 221.16723,139.2 222.1177,146.9 223.97425,161.94026 223.72789,172.08422 221.08555,189.4 218.07383,209.13637 219.48632,213.18302 228.96374,211.9702 235.24482,211.16642 242.37431,207.75935 244.80482,204.4 247.09948,201.22841 250.8025,186.46789 258.4774,149.9 266.2006,113.10198 267.51588,105.36228 268.2774,92.232717 268.87173,81.985764 268.78948,81.361503 266.18996,76.390021 261.12669,66.706698 262.1657,57.121104 268.66929,53.516502 272.3373,51.483514 275.28887,52.587238 281.86989,58.452809 292.7498,68.149914 301.52632,83.171755 301.57626,92.182119 301.60634,97.607344 300.32695,100.61491 292.07638,114.51437 284.3478,127.53443 279.6,138.6852 279.6,143.81659 V 147.4 H 284.95078 C 291.97125,147.4 295.05636,146.26709 307.55253,139.10019 324.68906,129.27192 329.80337,127.14663 333.20525,128.44002 337.2083,129.96197 342.6,134.22373 342.6,135.86591 342.6,138.0844 334.68329,144.33673 320.44737,153.36124 294.48152,169.82167 289.25149,171.59843 278.84216,167.49545 272.51931,165.00322 271.21232,165.80831 267.03891,174.76613 265.21091,178.68976 261.43934,185.48159 258.65764,189.85908 252.65524,199.30492 251.95921,203.82567 256.25579,205.45923 259.1343,206.55364 264.74018,205.67152 285.6,200.84176 295.98821,198.43654 298.11512,198.25526 307.6,198.96668 326.81619,200.40801 333.38848,200.0251 340.31987,197.06038 350.44949,192.72771 352.71631,193.47717 360.19045,203.63006 365.29869,210.56912 365.83224,213.981 362.0349,215.42475 359.28914,216.46869 320.80885,216.80111 318.20875,215.80336 316.82075,215.27073 316.81198,214.82843 318.12696,211.68123 320.56748,205.84026 320.21592,205.11671 315.35,205.96595 313.0125,206.37392 301.425,206.79562 289.6,206.90308 262.84339,207.14623 257.6,208.51812 257.6,215.27565 257.6,222.11079 266.43485,231.6084 305.1,266.33894 347.89049,304.77502 368.03717,320.95436 391.07968,335.38727 413.20974,349.24867 431.34158,357.4 440.04482,357.4 444.47281,357.4 446.04513,360.74657 444.50005,366.88265 443.89327,369.29239 442.73507,371.51793 441.92627,371.82829 441.11746,372.13866 433.40068,372.83721 424.77786,373.38064 416.15504,373.92406 402.9625,375.36024 395.46111,376.57215 378.93457,379.24215 380.55752,379.95363 367.1661,364.16785 361.90877,357.97053 353.52507,348.4 348.53563,342.9 343.5462,337.4 334.22102,326.15 327.81301,317.9 308.05848,292.467 296.79709,278.57812 281.59622,260.9 273.55644,251.55 263.03298,239.05846 258.21074,233.14103 247.76422,220.32196 244.09171,217.29329 238.34362,216.75686 233.26555,216.28296 212.43008,221.30732 211.83657,223.14889 211.61519,223.83579 212.81436,225.18579 214.50138,226.14889 220.33273,229.47797 219.68279,231.83015 211.54343,236.85405 200.91846,243.41216 194.13089,255.13613 182.56943,286.9 169.66199,322.36183 159.00268,344.83104 145.09212,365.9 128.70977,390.71274 105.71194,409.51676 85.1,414.95214 77.983327,416.82881 57.210786,418.08515 59.708265,416.48785 Z"
     id="path37"
     inkscape:connector-curvature="0" />
  <path
     d="M 236.22189,461.53469 C 235.31692,460.5347 232.6253,454.35782 230.24051,447.80827 225.65844,435.22412 222.52227,428.47087 216.98713,419.26919 215.12421,416.17224 213.6,413.35974 213.6,413.01919 213.6,411.30703 218.77287,412.75593 222.1,415.4 226.43138,418.84215 228.49639,419.11573 231.53509,416.65 L 233.69174,414.9 232.67924,379.4 C 232.01781,356.20917 230.96693,338.00547 229.64846,326.9 228.53841,317.55 227.36036,302.25 227.03057,292.9 226.52807,278.65339 226.03973,274.72433 224.01547,268.64115 222.68696,264.64878 221.6,259.08056 221.6,256.26732 V 251.15234 L 227.26476,251.62211 C 232.1952,252.03098 233.35359,252.55462 236.20099,255.66167 239.45209,259.20923 242.6,267.41131 242.6,272.33468 242.6,273.74911 241.68801,278.05493 240.57335,281.90318 239.4587,285.75143 238.27358,292.30216 237.93976,296.46035 236.91601,309.21253 240.47238,336.9613 243.83211,342.43581 244.52945,343.57209 249.06916,346.60031 253.92036,349.16518 265.0146,355.03081 270.23327,359.42508 271.13716,363.66221 271.51705,365.44299 273.43351,371.12115 275.39595,376.28032 278.83523,385.32203 278.89641,385.71009 277.09088,387.03032 276.06065,387.78365 273.05504,388.4 270.41175,388.4 266.3288,388.4 265.0261,387.87631 261.75282,384.9191 259.61336,382.98622 255.7567,377.40258 253.08074,372.36373 241.66717,350.8719 238.66993,360.75609 242.00162,408.9 243.61327,432.18878 243.12022,449.04061 240.54766,458.59436 239.30636,463.20422 238.3321,463.86644 236.22189,461.53469 Z"
     id="path39"
     inkscape:connector-curvature="0" />
  <path
     d="M 184.33616,396.15 C 180.20757,393.01487 179.6361,384.48151 182.21276,364.44258 184.06692,350.02253 186.47331,342.68053 190.74574,338.40811 196.12654,333.0273 196.30278,333.47099 197.17987,354.60631 197.90988,372.19734 196.87616,382.72661 193.71824,389.86559 190.66369,396.77093 187.73617,398.73187 184.33616,396.15 Z"
     id="path41"
     inkscape:connector-curvature="0" />
  <path
     d="M 338.36715,407.06937 C 337.12021,405.71049 335.02731,401.74148 333.71624,398.24934 329.16825,386.13537 321.60347,372.84324 313.0292,361.9 298.14699,342.90603 296.30308,340.36359 296.94455,339.72212 298.51268,338.15399 329.36672,349.59549 331.09028,352.38427 331.43778,352.94654 332.14498,357.494 332.66183,362.48973 333.77292,373.22916 336.63281,384.95283 340.74028,395.60598 344.33979,404.94172 344.78769,408.67907 342.36715,409.18083 341.41408,409.3784 339.61408,408.42824 338.36715,407.06937 Z"
     id="path43"
     inkscape:connector-curvature="0" />
</svg>
