<?xml version="1.0" encoding="UTF-8" standalone="no"?>
<!-- Created with Inkscape (http://www.inkscape.org/) -->

<svg
   xmlns:dc="http://purl.org/dc/elements/1.1/"
   xmlns:cc="http://creativecommons.org/ns#"
   xmlns:rdf="http://www.w3.org/1999/02/22-rdf-syntax-ns#"
   xmlns:svg="http://www.w3.org/2000/svg"
   xmlns="http://www.w3.org/2000/svg"
   xmlns:sodipodi="http://sodipodi.sourceforge.net/DTD/sodipodi-0.dtd"
   xmlns:inkscape="http://www.inkscape.org/namespaces/inkscape"
   width="512"
   height="512"
   viewBox="0 0 512 512"
   version="1.1"
   id="svg8"
   inkscape:version="0.92.4 (5da689c313, 2019-01-14)"
   sodipodi:docname="U+65B9.svg">
  <defs
     id="defs2">
    <inkscape:path-effect
       effect="bspline"
       id="path-effect35"
       is_visible="true"
       weight="33.333333"
       steps="2"
       helper_size="0"
       apply_no_weight="true"
       apply_with_weight="true"
       only_selected="false" />
    <inkscape:path-effect
       effect="bspline"
       id="path-effect31"
       is_visible="true"
       weight="33.333333"
       steps="2"
       helper_size="0"
       apply_no_weight="true"
       apply_with_weight="true"
       only_selected="false" />
    <inkscape:path-effect
       effect="bspline"
       id="path-effect27"
       is_visible="true"
       weight="33.333333"
       steps="2"
       helper_size="0"
       apply_no_weight="true"
       apply_with_weight="true"
       only_selected="false" />
    <inkscape:path-effect
       effect="bspline"
       id="path-effect23"
       is_visible="true"
       weight="33.333333"
       steps="2"
       helper_size="0"
       apply_no_weight="true"
       apply_with_weight="true"
       only_selected="false" />
  </defs>
  <sodipodi:namedview
     id="base"
     pagecolor="#ffffff"
     bordercolor="#666666"
     borderopacity="1.0"
     inkscape:pageopacity="0.0"
     inkscape:pageshadow="2"
     inkscape:zoom="2.8284271"
     inkscape:cx="345.5477"
     inkscape:cy="290.08112"
     inkscape:document-units="px"
     inkscape:current-layer="svg8"
     showgrid="false"
     units="px"
     inkscape:window-width="1920"
     inkscape:window-height="1001"
     inkscape:window-x="-9"
     inkscape:window-y="-9"
     inkscape:window-maximized="1" />
  <metadata
     id="metadata5">
    <rdf:RDF>
      <cc:Work
         rdf:about="">
        <dc:format>image/svg+xml</dc:format>
        <dc:type
           rdf:resource="http://purl.org/dc/dcmitype/StillImage" />
        <dc:title />
      </cc:Work>
    </rdf:RDF>
  </metadata>
  <g
     inkscape:label="圖層 1"
     inkscape:groupmode="layer"
     id="layer1"
     transform="translate(0,-161.53331)" />
  <path
     d="M 251.9947,132.50714 C 250.12434,126.47412 239.46682,116.57804 218.6,101.4984 207.4796,93.462123 202.6,89.378564 202.6,88.108596 202.6,84.660481 232.76605,84.424868 242.51945,87.796803 245.50015,88.827287 251.55251,91.939924 255.96914,94.713776 265.98387,101.0035 268.90745,105.79254 269.39897,116.71287 269.77669,125.10485 267.81438,129.6003 262.53834,132.42988 258.08973,134.81569 252.72258,134.85502 251.9947,132.50714 Z"
     id="path37"
     inkscape:connector-curvature="0" />
  <path
     d="M 70.1,226.75644 C 66.765922,224.84434 65.812559,222.78457 65.111611,215.97885 64.742581,212.39582 63.764826,206.72354 62.938823,203.37378 61.121345,196.00322 62.320251,189.84888 66.049585,187.40533 68.287181,185.9392 68.872222,186.0788 76.443307,189.88547 80.855772,192.10401 86.197106,194.196 88.312939,194.53434 96.416019,195.83008 112.79163,192.22976 195.2941,171.01361 231.751,161.63843 258.31492,157.67543 330.6,150.82769 368.38939,147.2478 402.24995,146.40512 413.1,148.77451 434.82464,153.51867 451.71376,162.76682 458.66231,173.72356 463.19901,180.87719 462.28383,184.96989 456.15,184.95868 450.92037,184.94911 445.61835,183.04141 429.40829,175.33683 409.15716,165.71155 398.98051,163.01229 380.1,162.25826 347.17801,160.94345 281.25559,167.06205 243.31245,174.9542 228.74591,177.98403 178.27082,191.41392 150.6,199.62217 133.0541,204.82698 107.02061,214.58343 89.360083,222.57279 77.269929,228.04219 73.695712,228.81858 70.1,226.75644 Z"
     id="path39"
     inkscape:connector-curvature="0" />
  <path
     d="M 89.127494,398.90703 C 90.212372,398.16447 99.076629,393.3613 108.82584,388.23333 129.02859,377.60691 133.98986,374.07008 160.50028,351.39527 182.78445,332.33525 195.08916,319.67282 211.93327,298.46704 233.37273,271.47599 243.42159,256.26407 256.16489,231.50942 264.37122,215.56812 264.87373,211.77728 259.82485,203.8993 256.27591,198.36173 254.90698,193.55016 256.44334,192.0138 257.93934,190.5178 266.5312,194.94185 276.40443,202.29201 286.57515,209.86364 290.6,214.60385 290.6,219.01067 V 222.3085 L 287.64966,220.78282 C 281.20396,217.44962 281.10566,217.53529 266.45045,239.25714 250.99986,262.15789 223.89269,301.02326 219.37167,306.75714 208.57041,320.45609 198.18537,331.2207 178.1,349.53728 147.9504,377.03181 138.12595,384.10285 119.97897,391.36926 113.03336,394.15041 91.247179,400.25714 88.270811,400.25714 87.657108,400.25714 88.042615,399.64959 89.127494,398.90703 Z"
     id="path41"
     inkscape:connector-curvature="0" />
  <path
     d="M 221.6,407.00396 C 221.6,405.21471 222.5,400.60364 223.6,396.75714 226.64923,386.09455 226.27067,378.91832 222.0876,368.08698 215.41609,350.81223 214.95755,336.84615 221.44099,348.39272 230.51184,364.54728 235.79945,370.25714 241.68849,370.25714 245.37323,370.25714 258.28425,360.51795 270.19054,348.75714 287.30074,331.85601 306.73822,304.80659 318.13538,282.03656 327.39149,263.54408 326.92802,259.16921 314.70752,249.67913 307.93084,244.41657 306.0784,240.93528 306.15115,233.59921 306.21064,227.59992 307.89827,224.9049 310.99118,225.87004 313.80553,226.74825 336.68134,239.55183 343.6,244.12118 346.625,246.11901 352.56746,251.05746 356.80547,255.09551 368.09951,265.85667 371.91793,274.89368 368.19747,282.0568 366.38749,285.54161 362.82186,288.11769 352.91155,293.1005 345.01204,297.07229 340.29138,301.30847 338.4926,306.03963 332.86385,320.84436 273.20969,387.01587 253.83609,399.94506 244.13206,406.42115 234.20573,410.2065 226.85,410.23605 L 221.6,410.25714 Z"
     id="path43"
     inkscape:connector-curvature="0" />
</svg>
