<?xml version="1.0" encoding="UTF-8" standalone="no"?>
<!-- Created with Inkscape (http://www.inkscape.org/) -->

<svg
   xmlns:dc="http://purl.org/dc/elements/1.1/"
   xmlns:cc="http://creativecommons.org/ns#"
   xmlns:rdf="http://www.w3.org/1999/02/22-rdf-syntax-ns#"
   xmlns:svg="http://www.w3.org/2000/svg"
   xmlns="http://www.w3.org/2000/svg"
   xmlns:sodipodi="http://sodipodi.sourceforge.net/DTD/sodipodi-0.dtd"
   xmlns:inkscape="http://www.inkscape.org/namespaces/inkscape"
   width="512"
   height="512"
   viewBox="0 0 512 512"
   version="1.1"
   id="svg8"
   inkscape:version="0.92.4 (5da689c313, 2019-01-14)"
   sodipodi:docname="U+6728.svg">
  <defs
     id="defs2">
    <inkscape:path-effect
       effect="bspline"
       id="path-effect27"
       is_visible="true"
       weight="33.333333"
       steps="2"
       helper_size="0"
       apply_no_weight="true"
       apply_with_weight="true"
       only_selected="false" />
    <inkscape:path-effect
       effect="bspline"
       id="path-effect23"
       is_visible="true"
       weight="33.333333"
       steps="2"
       helper_size="0"
       apply_no_weight="true"
       apply_with_weight="true"
       only_selected="false" />
  </defs>
  <sodipodi:namedview
     id="base"
     pagecolor="#ffffff"
     bordercolor="#666666"
     borderopacity="1.0"
     inkscape:pageopacity="0.0"
     inkscape:pageshadow="2"
     inkscape:zoom="2.8284271"
     inkscape:cx="316.69772"
     inkscape:cy="329.58222"
     inkscape:document-units="px"
     inkscape:current-layer="svg8"
     showgrid="false"
     units="px"
     inkscape:window-width="1920"
     inkscape:window-height="1001"
     inkscape:window-x="-9"
     inkscape:window-y="-9"
     inkscape:window-maximized="1" />
  <metadata
     id="metadata5">
    <rdf:RDF>
      <cc:Work
         rdf:about="">
        <dc:format>image/svg+xml</dc:format>
        <dc:type
           rdf:resource="http://purl.org/dc/dcmitype/StillImage" />
        <dc:title />
      </cc:Work>
    </rdf:RDF>
  </metadata>
  <g
     inkscape:label="圖層 1"
     inkscape:groupmode="layer"
     id="layer1"
     transform="translate(0,-161.53331)" />
  <path
     d="M 243.65794,453.78907 C 235.89525,446.54552 232.29645,441.97034 220.35016,424.15776 212.57995,412.57195 203.80749,400.46571 200.8558,397.25501 195.58214,391.51859 194.65063,389.2724 196.39984,386.51017 197.13095,385.35565 198.03044,385.48365 201.71265,387.26618 211.03017,391.77671 232.75205,394.93519 237.38879,392.45368 238.55423,391.82995 239.20797,390.20693 239.30649,387.69266 239.3887,385.59458 239.90562,379.60792 240.4552,374.38898 241.00478,369.17004 241.46223,354.23701 241.47176,341.20447 241.49085,315.10352 242.60595,298.09799 245.48957,279.93209 247.65594,266.28464 247.07038,263.1422 242.25732,262.58605 239.80634,262.30284 238.91152,263.24421 233.11768,272.20121 218.39044,294.9688 194.08423,319.80535 166.48909,340.28356 157.96409,346.60992 147.49554,354.61812 143.22566,358.07955 134.02358,365.53931 130.7561,367.29749 119.50937,370.84089 106.09526,375.06715 89.793893,377.48467 74.322665,377.54215 59.764898,377.59624 55.041425,376.61404 60.147771,374.59463 61.710495,373.97662 70.530069,371.64408 79.746825,369.4112 88.963581,367.17832 99.763581,364.18056 103.74683,362.74951 132.98749,352.24429 162.12959,329.75254 199.43213,288.9 215.21908,271.61064 237.40641,245.98201 239.95613,242.09064 242.05373,238.8893 241.14965,236.97818 236.1481,234.04099 233.86065,232.69767 228.83909,229.07359 224.98909,225.98748 216.34462,219.05819 211.03129,216.39292 205.92337,216.42374 201.87077,216.44818 200.57188,216.93775 177.148,227.26949 169.5354,230.62723 159.77418,234.5707 155.45642,236.03276 148.47077,238.39819 147.25992,238.54772 144.4651,237.39006 140.07903,235.57329 130.06009,223.38005 125.41992,214.21171 122.45166,208.34682 120.47268,205.79677 117.07566,203.45956 114.62642,201.77444 112.34418,199.5188 112.00401,198.44702 110.72749,194.42507 115.79871,181.37503 119.38373,179.45639 120.89087,178.64979 122.0504,179.07474 125.13046,181.5625 127.25271,183.27663 132.30933,186.86631 136.36739,189.53955 145.48427,195.54528 149.29,195.80669 162.76804,191.35299 175.28265,187.21764 185.59996,184.34342 214.98909,176.80512 230.34253,172.86697 240.43628,169.78956 241.14803,168.82971 244.16876,164.75605 245.44444,142.80077 243.5262,127.9 243.03057,124.05 241.90603,113.025 241.02723,103.4 238.7659,78.633169 238.20318,76.352874 232.68254,69.585407 229.01494,65.089481 228.06314,63.159124 228.13319,60.358809 228.36306,51.169218 236.7464,44.848677 243.80483,48.543322 245.00617,49.17215 252.84307,56.48465 261.22016,64.793322 278.76106,82.190952 278.53453,81.64497 273.14089,93.525156 269.26574,102.06067 266.87956,109.226 266.02271,114.9 265.14639,120.70293 267.17572,160.94594 268.46626,163.35734 270.80184,167.72141 284.64831,164.67106 297.48909,156.96366 301.61409,154.48772 306.20565,152.19186 307.69255,151.86174 311.15462,151.09311 325.30473,153.7194 337.48909,157.39204 342.71409,158.96698 349.549,160.96761 352.67777,161.83789 360.37185,163.97803 361.86786,165.61989 361.11679,171.09959 360.3044,177.02658 357.93462,181.25008 355.00945,181.98424 353.66566,182.32151 346.87363,182.03772 339.91606,181.35359 325.40275,179.92652 312.85878,180.4877 293.98909,183.40822 278.72844,185.77016 273.05415,187.48365 267.73626,191.33591 262.69219,194.98982 259.48266,202.33664 258.80109,211.78909 258.35038,218.03993 258.65582,219.84527 261.3264,226.71532 262.99731,231.01374 265.72714,236.65424 267.39268,239.24975 271.66803,245.91232 283.48257,257.32258 294.86879,265.78568 304.68517,273.08196 363.49073,310.27667 375.48909,316.77829 391.67557,325.54935 421.6403,337.04342 450.21841,345.44344 461.49792,348.75885 472.13566,352.19968 473.85785,353.08972 477.88994,355.17355 496.48909,369.24227 496.48909,370.20838 496.48909,371.04926 476.99747,373.73656 454.99736,375.92883 438.02453,377.62014 410.63094,377.93114 405.71828,376.4883 399.65205,374.70667 392.04037,369.90743 369.46879,353.63269 326.784,322.85575 311.9943,310.21456 284.96448,281.4044 276.17801,272.0392 268.20159,264.12668 267.23909,263.821 263.99278,262.79002 261.63415,264.4679 259.05545,269.64267 256.67076,274.42812 256.48749,275.78756 256.46649,288.84634 256.44362,303.07255 258.85777,365.67728 260.29452,388.11607 260.99274,399.02075 261.33225,400.60415 263.45721,402.86607 264.76649,404.25973 266.43428,405.4 267.1634,405.4 268.16422,405.4 268.48909,407.56372 268.48909,414.22954 268.48909,424.53526 263.61217,444.25124 258.61357,454.15341 253.88056,463.52945 254.10219,463.53485 243.65794,453.78907 Z M 244.40446,216.47347 C 247.02973,214.81171 245.38674,205.36702 242.08939,203.16531 240.18935,201.89663 236.36313,202.32523 229.31004,204.59683 225.55852,205.80509 222.48909,207.36112 222.48909,208.05468 222.48909,210.42999 236.24724,217.13753 241.48909,217.31779 242.31409,217.34616 243.62601,216.96622 244.40446,216.47347 Z"
     id="path29"
     inkscape:connector-curvature="0" />
</svg>
