<?xml version="1.0" encoding="UTF-8" standalone="no"?>
<!-- Created with Inkscape (http://www.inkscape.org/) -->

<svg
   xmlns:dc="http://purl.org/dc/elements/1.1/"
   xmlns:cc="http://creativecommons.org/ns#"
   xmlns:rdf="http://www.w3.org/1999/02/22-rdf-syntax-ns#"
   xmlns:svg="http://www.w3.org/2000/svg"
   xmlns="http://www.w3.org/2000/svg"
   xmlns:sodipodi="http://sodipodi.sourceforge.net/DTD/sodipodi-0.dtd"
   xmlns:inkscape="http://www.inkscape.org/namespaces/inkscape"
   width="512"
   height="512"
   viewBox="0 0 512 512"
   version="1.1"
   id="svg8"
   inkscape:version="0.92.4 (5da689c313, 2019-01-14)"
   sodipodi:docname="U+6B64.svg">
  <defs
     id="defs2">
    <inkscape:path-effect
       effect="bspline"
       id="path-effect27"
       is_visible="true"
       weight="33.333333"
       steps="2"
       helper_size="0"
       apply_no_weight="true"
       apply_with_weight="true"
       only_selected="false" />
    <inkscape:path-effect
       effect="bspline"
       id="path-effect23"
       is_visible="true"
       weight="33.333333"
       steps="2"
       helper_size="0"
       apply_no_weight="true"
       apply_with_weight="true"
       only_selected="false" />
  </defs>
  <sodipodi:namedview
     id="base"
     pagecolor="#ffffff"
     bordercolor="#666666"
     borderopacity="1.0"
     inkscape:pageopacity="0.0"
     inkscape:pageshadow="2"
     inkscape:zoom="4"
     inkscape:cx="223.83555"
     inkscape:cy="259.01333"
     inkscape:document-units="px"
     inkscape:current-layer="svg8"
     showgrid="false"
     units="px"
     inkscape:window-width="1920"
     inkscape:window-height="1001"
     inkscape:window-x="-9"
     inkscape:window-y="-9"
     inkscape:window-maximized="1" />
  <metadata
     id="metadata5">
    <rdf:RDF>
      <cc:Work
         rdf:about="">
        <dc:format>image/svg+xml</dc:format>
        <dc:type
           rdf:resource="http://purl.org/dc/dcmitype/StillImage" />
        <dc:title />
      </cc:Work>
    </rdf:RDF>
  </metadata>
  <g
     inkscape:label="圖層 1"
     inkscape:groupmode="layer"
     id="layer1"
     transform="translate(0,-161.53331)" />
  <path
     d="M 416.68573,428.56659 C 406.43274,426.06875 385.80445,412.76818 368.2204,397.31744 353.28226,384.19161 325.5305,352.40444 319.18347,341.15 315.42961,334.49372 314.42928,329.9143 312.11594,308.79548 309.96646,289.17258 309.2496,286.33561 306.0014,284.59723 302.68253,282.82102 293.55326,284.58339 251.1,295.19573 194.95488,309.23071 188.90927,311.32577 171.8849,322.64712 151.40162,336.26867 147.00157,341.10857 141.42675,356.15 139.84885,360.40732 138.62525,361.77452 133.189,365.3545 129.67748,367.66698 125.45981,370.81698 123.8164,372.3545 118.60714,377.22815 113.33099,386.44903 110.02526,396.45665 104.4893,413.21599 102.05182,416.45724 95.98627,415.12502 93.911318,414.66928 91.496917,412.57302 88.135184,408.30845 85.465121,404.9213 80.795338,400.01284 77.757889,397.40076 74.72044,394.78867 71.96183,391.79003 71.627644,390.7371 71.154507,389.24638 73.970236,385.87114 84.350295,375.48634 91.681939,368.15135 101.37493,357.52244 105.89028,351.86654 115.22066,340.17935 115.66188,338.47538 112.05551,328.05655 110.93104,324.80795 109.12565,316.32319 108.04353,309.20153 105.29723,291.1276 101.51816,274.95599 98.807711,269.67911 96.527165,265.23919 94.24907,263.65071 82.990487,258.65 80.162942,257.39409 79.50023,256.46712 78.917985,252.95356 78.535512,250.64552 76.845964,246.14552 75.163434,242.95356 71.664523,236.31571 71.14817,229.86381 73.638787,223.90293 75.518902,219.40318 76.56795,218.68491 81.288455,218.66531 84.234503,218.65308 86.549205,219.82084 92.788455,224.46701 97.084805,227.66637 103.525,232.29418 107.1,234.75102 114.80408,240.0455 122.29967,249.49154 128.34155,261.51989 L 132.54577,269.88979 133.13393,291.51989 C 133.51766,305.63183 134.14758,313.93205 134.94623,315.4 136.66703,318.56289 139.93786,318.26039 148.01854,314.19102 151.79627,312.28859 159.54754,309.35586 165.24357,307.67386 170.93961,305.99186 179.875,302.4859 185.1,299.88284 L 194.6,295.15 194.52557,291.06078 C 194.47632,288.35479 192.72781,283.28084 189.35651,276.06078 186.55446,270.05985 183.97517,263.73516 183.62475,262.00592 183.03451,259.09325 183.30456,258.68707 187.29381,256.48727 190.80683,254.55007 191.99912,253.10307 193.76687,248.63135 200.95128,230.45758 203.0359,195.58449 198.1295,175.65 194.55075,161.10969 186.97512,136.39641 184.41991,130.92649 181.2987,124.2449 175.59898,119.39764 166.99973,116.11168 156.82783,112.22479 152.1,106.1924 152.1,97.100677 152.1,90.593264 155.96186,86.561863 162.82758,85.902155 172.33985,84.988145 187.42961,90.322685 194.68333,97.163817 198.31957,100.59323 198.33213,100.6338 197.53779,106.3792 196.43567,114.35082 196.72462,117.32443 199.54821,127.06803 202.24403,136.37075 205.85228,152.88693 209.06945,170.65 211.64876,184.89123 213.08905,206.24041 213.16168,231.30855 213.20845,247.45371 212.80655,252.94265 210.60642,266.20626 209.1705,274.8628 208.13164,283.07106 208.29783,284.44685 209.00273,290.2822 212.8351,289.94274 240.86805,281.56187 250.07062,278.81063 264.125,275.41078 272.1,274.00666 291.87028,270.52581 296.47294,269.13945 300.76234,265.37336 305.05877,261.60109 307.19425,257.14261 309.96977,246.15 312.36504,236.66339 318.00283,202.75036 321.60677,176.15 323.02258,165.7 325.80247,147.925 327.7843,136.65 330.06253,123.68875 331.42669,112.65643 331.49382,106.65 331.58906,98.129069 331.30872,96.556822 328.77368,91.394339 325.7469,85.230435 324.87903,84.519324 315.61589,80.613165 309.99291,78.242015 309.60922,77.870201 309.74124,74.92028 309.93087,70.682715 313.28862,66.209809 318.62983,63.079652 325.60103,58.994253 326.72089,59.658684 333.07465,71.65 338.94754,82.733777 342.38526,88.080555 350.41124,98.614063 353.12014,102.1693 356.04481,106.56343 356.9105,108.3788 358.39534,111.49256 358.35416,111.97596 356.1832,116.91474 342.35285,148.37789 330.44511,204.44732 331.28537,234.15 331.58659,244.79772 332.04229,248.00274 333.80383,251.86269 336.62048,258.03463 338.87827,258.58125 350.00544,255.78516 354.73245,254.59733 368.275,251.6329 380.1,249.19753 391.925,246.76216 407.225,243.57327 414.1,242.11111 429.3344,238.87108 434.04448,239.17303 444.31819,244.04833 453.12718,248.22855 455.56428,251.18014 455.58532,257.69398 455.60446,263.61844 453.13551,267.40976 448.85757,268.02512 445.71623,268.47699 432.81707,269.97187 387.19654,275.17099 375.42464,276.51257 358.77464,278.08053 350.19654,278.65535 332.96836,279.80981 329.23567,280.2761 327.27768,281.51843 324.81612,283.08026 324.12283,289.76607 325.19011,301.65 327.95711,332.45986 332.77076,343.27549 352.5948,363.22468 366.77094,377.49032 378.64597,386.54339 399.1,398.67847 408.175,404.06253 417.4,409.89385 419.6,411.63694 423.65964,414.85346 429.1,421.99603 429.1,424.10935 429.1,428.18823 423.45383,430.21544 416.68573,428.56659 Z"
     id="path29"
     inkscape:connector-curvature="0" />
  <path
     d="M 251.96266,243.89682 C 250.36772,241.69507 246.7199,235.26092 243.85639,229.59871 237.34848,216.73019 237.22009,214.1969 242.64088,205.6137 244.83586,202.13819 248.7998,195.04331 251.44962,189.8473 256.10492,180.71878 256.27347,180.08636 256.44446,171.10503 256.63604,161.04199 258.03049,157.9 262.30499,157.9 267.50048,157.9 268.13799,163.66659 264.6662,179.25827 262.5694,188.67487 262.52609,189.83971 263.69947,205.25827 264.3751,214.13622 265.34963,223.2 265.86509,225.4 266.38055,227.6 266.81302,231.81544 266.82614,234.76765 266.84799,239.68352 266.52323,240.46206 262.96765,244.01765 257.98366,249.00164 255.64194,248.97593 251.96266,243.89682 Z"
     id="path31"
     inkscape:connector-curvature="0" />
</svg>
