<?xml version="1.0" encoding="UTF-8" standalone="no"?>
<!-- Created with Inkscape (http://www.inkscape.org/) -->

<svg
   xmlns:dc="http://purl.org/dc/elements/1.1/"
   xmlns:cc="http://creativecommons.org/ns#"
   xmlns:rdf="http://www.w3.org/1999/02/22-rdf-syntax-ns#"
   xmlns:svg="http://www.w3.org/2000/svg"
   xmlns="http://www.w3.org/2000/svg"
   xmlns:sodipodi="http://sodipodi.sourceforge.net/DTD/sodipodi-0.dtd"
   xmlns:inkscape="http://www.inkscape.org/namespaces/inkscape"
   width="512"
   height="512"
   viewBox="0 0 512 512"
   version="1.1"
   id="svg8"
   inkscape:version="0.92.4 (5da689c313, 2019-01-14)"
   sodipodi:docname="U+8349.svg">
  <defs
     id="defs2">
    <inkscape:path-effect
       effect="bspline"
       id="path-effect27"
       is_visible="true"
       weight="33.333333"
       steps="2"
       helper_size="0"
       apply_no_weight="true"
       apply_with_weight="true"
       only_selected="false" />
    <inkscape:path-effect
       effect="bspline"
       id="path-effect23"
       is_visible="true"
       weight="33.333333"
       steps="2"
       helper_size="0"
       apply_no_weight="true"
       apply_with_weight="true"
       only_selected="false" />
  </defs>
  <sodipodi:namedview
     id="base"
     pagecolor="#ffffff"
     bordercolor="#666666"
     borderopacity="1.0"
     inkscape:pageopacity="0.0"
     inkscape:pageshadow="2"
     inkscape:zoom="2.8284271"
     inkscape:cx="298.53834"
     inkscape:cy="90.799856"
     inkscape:document-units="px"
     inkscape:current-layer="svg8"
     showgrid="false"
     units="px"
     inkscape:window-width="1920"
     inkscape:window-height="1001"
     inkscape:window-x="-9"
     inkscape:window-y="-9"
     inkscape:window-maximized="1" />
  <metadata
     id="metadata5">
    <rdf:RDF>
      <cc:Work
         rdf:about="">
        <dc:format>image/svg+xml</dc:format>
        <dc:type
           rdf:resource="http://purl.org/dc/dcmitype/StillImage" />
        <dc:title />
      </cc:Work>
    </rdf:RDF>
  </metadata>
  <g
     inkscape:label="圖層 1"
     inkscape:groupmode="layer"
     id="layer1"
     transform="translate(0,-161.53331)" />
  <path
     d="M 280.91082,496.86267 C 278.54992,495.20902 275.65827,486.99987 275.6644,481.9685 275.66645,480.28082 276.5673,477.42524 277.66627,475.62276 278.76524,473.82027 280.11828,470.3202 280.67302,467.84483 282.01194,461.8703 282.70235,345.05499 281.55768,318.16309 280.62888,296.34264 279.5822,289.07577 276.94903,286.16615 273.24738,282.07587 259.48749,284.55163 213.66066,297.55338 196.33566,302.46874 174.06066,308.52131 164.16066,311.00354 129.43562,319.71015 118.16109,323.52871 93.697096,334.86877 86.252056,338.31985 78.880213,341.44553 77.315222,341.81473 73.346956,342.7509 67.263517,339.59603 61.235087,333.47556 56.805806,328.97866 56.289816,327.97325 55.880958,323.04297 55.514675,318.62608 55.935672,316.47905 58.09129,311.77056 63.206928,300.59653 65.598017,299.98705 74.649176,307.55002 78.963026,311.15459 81.643041,312.67643 83.579973,312.62136 85.102036,312.57808 95.755354,310.0243 107.25401,306.9463 146.10035,296.54775 204.22934,284.50601 245.03864,278.40345 276.82842,273.64966 277.32984,273.27871 273.15718,257.60151 270.08115,246.04445 267.30498,240.7545 262.66066,237.60057 257.9852,234.4255 254.23361,234.99482 237.6842,241.3909 230.51634,244.16116 222.0842,247.0965 218.9461,247.91387 208.78178,250.56134 197.15673,249.44207 195.92199,245.69709 195.70386,245.03549 198.10415,242.56049 201.25597,240.19709 210.8434,233.00792 211.66096,231.98605 211.65806,227.19545 211.65663,224.83295 209.84188,216.375 207.62529,208.4 196.6957,169.07687 191.7883,159.31481 178.36901,150.20194 170.71694,145.00552 168.66066,142.89723 168.66066,140.24803 168.66066,138.14453 168.89149,138.11021 178.91066,138.72409 202.22266,140.15242 214.48237,146.17905 220.23775,159.03967 223.94224,167.31749 230.32799,190.16256 232.09516,201.45964 235.36272,222.34833 235.80308,222.61332 257.02892,216.46349 260.80647,215.36901 269.80647,213.29191 277.02892,211.84772 294.62337,208.32956 298.19901,206.69787 300.699,201.04622 303.88521,193.84326 305.41724,193.98873 315.97558,202.49674 322.65794,207.88144 325.84596,208.58026 328.07977,205.15 328.88563,203.9125 331.17881,195.475 333.17571,186.4 337.39448,167.2276 340.64603,156.97091 347.12449,142.4 349.69215,136.625 352.0464,129.80025 352.35616,127.2339 352.84949,123.14673 352.59878,122.24721 350.33547,119.9839 345.69706,115.34549 340.41825,116.16392 309.40395,126.32996 268.93905,139.59377 244.58525,145.32242 237.26052,143.29996 231.82337,141.79869 219.66066,130.61358 219.66066,127.11472 219.66066,124.50448 221.98112,123.62364 231.51082,122.61646 243.94615,121.30219 244.68609,120.52584 240.86486,112.80216 239.25883,109.55597 236.8872,103.075 235.59456,98.4 231.84307,84.832211 229.73609,83.734151 214.47401,87.392994 199.46393,90.991424 196.9938,90.320442 185.43066,79.503691 175.63438,70.339749 174.16217,64.747717 180.56418,61.018922 183.2928,59.429664 186.76299,58.886995 198.06418,58.282269 205.81725,57.867403 212.69102,57.499175 213.33923,57.463984 215.59078,57.341749 217.66066,54.238496 217.66066,50.985122 217.66066,46.913517 214.45001,37.422638 211.19192,31.863124 209.83923,29.554945 206.01688,24.343987 202.6978,20.283217 199.37872,16.222448 196.66255,12.632244 196.66188,12.304988 196.66121,11.977731 197.57922,10.878692 198.7019,9.8626799 201.57969,7.2583131 208.92053,7.472993 216.223,10.375077 238.62278,19.277004 247.14595,27.468399 252.38893,45.133199 253.8192,49.952099 254.11846,55.666788 254.20953,79.9 254.26948,95.85 254.39551,110.1375 254.48959,111.65 254.76765,116.11998 257.88767,118.4 263.7264,118.4 273.13913,118.4 273.35164,117.99057 277.22186,92.4 278.59433,83.325 280.36807,72.075 281.1635,67.4 281.95894,62.725 283.08055,54.625 283.65598,49.4 284.24676,44.035555 285.99913,36.130007 287.68143,31.239753 290.07746,24.274804 290.66066,20.909561 290.66066,14.04877 290.66066,8.9259174 291.09987,5.2465886 291.7601,4.8385422 292.36479,4.4648217 298.5581,3.9279273 305.523,3.6454436 L 318.18646,3.1318367 324.42356,6.2803135 C 328.81667,8.497945 330.66066,9.9968765 330.66066,11.350276 330.66066,12.407093 328.63284,16.113115 326.15439,19.585881 320.44277,27.588925 315.66247,37.129392 315.66145,40.527555 315.65941,47.315994 320.82283,46.745366 339.32285,37.912651 356.84636,29.546167 361.63655,28.014496 368.16981,28.688789 376.72793,29.572065 385.66066,35.454143 385.66066,40.206276 385.66066,42.743119 377.60707,49.66053 370.15298,53.526171 361.81119,57.85217 354.92438,60.133374 335.85275,64.88787 310.47299,71.214965 305.65587,74.028242 297.98689,87.00215 288.68701,102.73512 286.44509,109.04158 289.17981,111.77629 291.13282,113.7293 291.08751,113.72894 306.16066,111.91027 318.46868,110.42522 344.9239,109.90265 350.57537,111.03294 354.80838,111.87954 362.9932,119.38977 365.63879,124.85482 368.59073,130.95272 368.4583,131.37894 351.6429,169.9 338.71552,199.5143 333.18858,222.92159 336.77897,232.85063 337.61065,235.1506 337.59656,237.39177 336.72402,241.59478 334.53899,252.12002 331.36024,251.16029 324.06225,237.77195 318.73344,227.99612 315.52576,225.40947 308.72455,225.40374 303.20577,225.39909 292.83499,227.9341 285.91066,230.98031 279.78749,233.67407 279.14981,235.90686 283.57024,239.17503 285.1705,240.35815 288.3205,244.66068 290.57024,248.73619 294.0911,255.11443 294.66066,256.98923 294.66066,262.20053 294.66066,273.27403 297.96323,274.12812 332.20791,271.91083 369.65208,269.48639 406.98211,266.47893 420.66066,264.78473 444.79815,261.7951 443.88241,261.77779 447.89333,265.29942 453.95882,270.62499 459.76149,272.53941 473.07347,273.60686 480.57543,274.20842 486.04903,275.14328 487.5025,276.07127 490.0291,277.68442 494.11534,285.97629 495.17975,291.65009 495.89707,295.4737 494.2859,299.6192 490.88707,302.6951 486.78599,306.40653 483.30546,305.92944 460.66066,298.55186 416.67898,284.22281 403.2598,281.36984 370.10287,279.29894 346.6752,277.8357 297.70088,278.60904 292.16066,280.52971 L 288.16066,281.91641 288.17001,289.40821 C 288.17515,293.52869 288.7517,314.225 289.45123,335.4 290.15076,356.575 291.1429,391.675 291.65597,413.4 292.32949,441.91845 293.04962,455.58861 294.24622,462.57077 295.87918,472.09912 295.87086,472.34931 293.68108,479.55867 291.29737,487.40651 288.36957,493.82856 285.88916,496.65 284.01123,498.78612 283.67731,498.80039 280.91082,496.86267 Z"
     id="path29"
     inkscape:connector-curvature="0" />
  <path
     d="M 242.85071,196.18473 C 239.38876,191.2421 248.00745,184.46865 275.03017,170.89478 288.61429,164.07131 293.30972,162.33934 298.22429,162.33934 302.33648,162.33934 308.74645,166.00897 308.74645,168.36314 308.74645,169.24229 297.98768,175.36994 281.24645,184.02575 257.59887,196.25238 253.08897,198.25088 249.05315,198.29178 245.34838,198.32932 244.042,197.88553 242.85071,196.18473 Z"
     id="path31"
     inkscape:connector-curvature="0" />
</svg>
