<?xml version="1.0" encoding="UTF-8" standalone="no"?>
<!-- Created with Inkscape (http://www.inkscape.org/) -->

<svg
   xmlns:dc="http://purl.org/dc/elements/1.1/"
   xmlns:cc="http://creativecommons.org/ns#"
   xmlns:rdf="http://www.w3.org/1999/02/22-rdf-syntax-ns#"
   xmlns:svg="http://www.w3.org/2000/svg"
   xmlns="http://www.w3.org/2000/svg"
   xmlns:sodipodi="http://sodipodi.sourceforge.net/DTD/sodipodi-0.dtd"
   xmlns:inkscape="http://www.inkscape.org/namespaces/inkscape"
   width="512"
   height="512"
   viewBox="0 0 512 512"
   version="1.1"
   id="svg8"
   inkscape:version="0.92.4 (5da689c313, 2019-01-14)"
   sodipodi:docname="U+842C.svg">
  <defs
     id="defs2">
    <inkscape:path-effect
       effect="bspline"
       id="path-effect39"
       is_visible="true"
       weight="33.333333"
       steps="2"
       helper_size="0"
       apply_no_weight="true"
       apply_with_weight="true"
       only_selected="false" />
    <inkscape:path-effect
       effect="bspline"
       id="path-effect35"
       is_visible="true"
       weight="33.333333"
       steps="2"
       helper_size="0"
       apply_no_weight="true"
       apply_with_weight="true"
       only_selected="false" />
    <inkscape:path-effect
       effect="bspline"
       id="path-effect31"
       is_visible="true"
       weight="33.333333"
       steps="2"
       helper_size="0"
       apply_no_weight="true"
       apply_with_weight="true"
       only_selected="false" />
    <inkscape:path-effect
       effect="bspline"
       id="path-effect27"
       is_visible="true"
       weight="33.333333"
       steps="2"
       helper_size="0"
       apply_no_weight="true"
       apply_with_weight="true"
       only_selected="false" />
    <inkscape:path-effect
       effect="bspline"
       id="path-effect23"
       is_visible="true"
       weight="33.333333"
       steps="2"
       helper_size="0"
       apply_no_weight="true"
       apply_with_weight="true"
       only_selected="false" />
  </defs>
  <sodipodi:namedview
     id="base"
     pagecolor="#ffffff"
     bordercolor="#666666"
     borderopacity="1.0"
     inkscape:pageopacity="0.0"
     inkscape:pageshadow="2"
     inkscape:zoom="1.4142136"
     inkscape:cx="258.78501"
     inkscape:cy="308.45079"
     inkscape:document-units="px"
     inkscape:current-layer="layer1"
     showgrid="false"
     units="px"
     inkscape:window-width="1920"
     inkscape:window-height="1001"
     inkscape:window-x="-9"
     inkscape:window-y="-9"
     inkscape:window-maximized="1" />
  <metadata
     id="metadata5">
    <rdf:RDF>
      <cc:Work
         rdf:about="">
        <dc:format>image/svg+xml</dc:format>
        <dc:type
           rdf:resource="http://purl.org/dc/dcmitype/StillImage" />
        <dc:title />
      </cc:Work>
    </rdf:RDF>
  </metadata>
  <g
     inkscape:label="圖層 1"
     inkscape:groupmode="layer"
     id="layer1"
     transform="translate(0,-161.53331)">
    <path
       d="M 382.34674,628.01427 C 380.54961,626.10131 379.82107,623.49562 378.78188,615.26427 377.30713,603.58279 377.1276,603.00957 372.56662,595.41859 370.74908,592.39359 369.26083,589.40423 369.25942,588.77558 369.25477,586.70707 372.53298,586.31777 379.9206,587.50952 389.24347,589.01346 390.39831,588.30511 398.3391,576.21195 413.25225,553.50048 426.21055,522.68207 430.39436,499.97572 432.72188,487.34382 428.77226,478.99992 419.23241,476.39513 409.17542,473.64915 368.97186,478.01126 312.34457,487.99252 276.39654,494.32882 260.70499,499.17175 256.36229,505.27052 253.98229,508.61291 250.7193,518.26851 249.8116,524.65483 249.20692,528.90918 249.40858,529.66122 251.79353,532.04618 254.44578,534.69843 254.46167,534.70069 266.60274,534.15355 285.13882,533.31822 305.44999,528.68481 306.87697,524.96615 307.20258,524.11764 306.29625,521.18061 304.86291,518.43941 303.42958,515.6982 302.25685,512.93961 302.25685,512.30919 302.25685,508.55445 336.5685,520.60494 342.95145,526.60141 346.97423,530.38061 352.20794,549.77295 350.21176,553.50284 349.06691,555.64202 345.00536,556.03387 340.74942,554.41576 339.29872,553.86421 333.50747,548.98972 327.87998,543.58356 322.25249,538.17741 316.70251,533.50689 315.54668,533.20463 314.3207,532.88403 312.26024,533.46074 310.60101,534.58891 305.86103,537.81176 296.90905,542.17441 286.56689,546.30168 281.17137,548.45488 271.73508,552.68437 265.59737,555.70055 252.89641,561.94201 243.49423,563.93075 229.75685,563.28148 215.54174,562.60964 210.45015,557.85242 209.48329,544.33928 208.90916,536.31502 207.95395,536.7355 220.97416,539.28112 230.55609,541.15452 234.80926,540.6948 238.83941,537.35007 241.40654,535.21954 244.31491,528.63509 245.81279,521.56257 248.18886,510.34354 245.89391,505.4215 238.28434,505.41608 236.34422,505.4147 227.55685,507.41078 218.75685,509.85182 209.95685,512.29286 196.68185,515.90737 189.25685,517.88407 174.46213,521.82275 164.65419,525.93034 160.77017,529.81436 157.11509,533.46944 157.52631,537.56108 162.59699,547.99117 168.23034,559.57865 171.25685,568.45015 171.25685,573.37552 171.25685,581.40039 167.07684,585.12588 163.75729,580.05961 162.90718,578.76217 159.0761,568.97525 155.2438,558.31089 151.41149,547.64654 147.42438,537.79558 146.38355,536.41987 143.32815,532.38142 138.7319,533.16205 123.25685,540.3477 104.62737,548.99807 101.10861,550.00406 94.394636,548.59916 84.080366,546.44089 76.462571,539.87543 74.773149,531.68822 L 74.106566,528.45785 77.431706,529.82634 C 82.938686,532.09277 88.667756,532.61342 95.155226,531.43702 104.30437,529.77796 125.40879,522.7938 129.32968,520.12754 132.42186,518.02482 132.75116,517.34594 132.69867,513.18229 132.65863,510.00535 131.6357,506.6507 129.41549,502.41516 125.73777,495.39909 125.78462,495.38018 135.75685,499.85518 142.802,503.01667 147.02386,506.90889 148.40377,511.51464 149.23406,514.28588 150.27977,515.63722 151.91074,516.04657 154.36734,516.66314 164.68743,514.11012 206.25685,502.60223 235.0736,494.62474 237.80532,493.63195 242.65471,489.37413 247.47779,485.13941 249.54943,479.08994 249.66306,468.90878 249.79263,457.29992 249.29658,456.8714 235.9618,457.07246 224.34037,457.2477 210.99387,460.26718 199.45471,465.33175 195.5862,467.02965 191.69247,468.13925 190.80197,467.79753 188.40029,466.87592 186.25685,462.05206 186.25685,457.56863 V 453.61935 L 193.57349,451.99156 C 201.91684,450.13534 205.25685,448.20715 205.25685,445.24675 205.25685,440.59757 195.72213,412.15282 188.62052,395.61589 178.43327,371.8937 177.11007,369.42398 171.27595,363.24268 166.07283,357.72993 165.62296,356.92839 167.18886,355.96061 169.68012,354.42093 198.88806,368.52186 205.82674,374.6141 L 209.25685,377.62577 V 387.32469 C 209.25685,395.01555 209.98544,400.01483 212.77593,411.4711 219.13495,437.57785 223.49315,443.02647 237.38816,442.24133 242.26786,441.9656 244.97693,441.27147 246.96429,439.7877 251.01061,436.76668 253.44704,428.14532 253.61793,416.24361 253.79328,404.03149 252.49153,401.83356 243.51832,399.19101 239.11967,397.89563 236.59991,396.43441 234.3542,393.87669 229.62244,388.4875 230.14178,387.42122 237.50685,387.40385 245.11471,387.3859 248.19497,385.97128 250.56967,381.40468 253.15045,376.4418 252.41137,366.61032 248.94399,359.77925 245.3019,352.60399 244.20974,351.78473 237.23448,350.99557 227.81704,349.93011 218.68438,346.77756 216.3246,343.77759 213.89629,340.69049 214.16481,340.11435 219.59091,336.76953 227.05935,332.16574 227.57536,330.2934 224.17475,320.13704 220.30057,308.56631 216.83441,307.24574 203.91582,312.41859 194.93472,316.0148 189.56814,316.21154 183.45797,313.16859 176.83521,309.87036 166.76331,299.70567 163.79092,293.32034 160.9887,287.30057 160.48454,281.65218 162.67446,280.81183 163.45414,280.51264 167.42034,281.20176 171.48824,282.34322 181.60539,285.18209 190.87133,285.04505 201.73868,281.89582 206.52675,280.50829 211.75209,278.69673 213.35055,277.87014 L 216.25685,276.36723 V 266.05287 C 216.25685,249.85365 211.94008,236.0851 202.05092,220.74232 199.63189,216.98927 197.31625,213.36286 196.90506,212.68365 195.94319,211.09482 199.92827,211.81205 210.75197,215.17578 217.95544,217.41444 219.34166,218.27942 224.75197,223.91153 231.20078,230.62472 236.61893,238.88803 238.88551,245.46682 240.12435,249.06259 240.08743,250.62987 238.57839,258.50183 237.13649,266.02355 237.05387,268.37319 238.05998,273.24431 239.73143,281.33669 239.63635,282.96078 236.23693,304.38189 234.57597,314.84825 233.50273,324.55007 233.85195,325.94149 235.13467,331.05226 240.7587,331.40581 256.05934,327.33756 268.11066,324.13325 268.6403,323.53033 276.31541,304.27879 289.522,271.15261 303.25685,222.01114 303.25685,207.88591 303.25685,202.4404 301.62656,197.75593 298.484,194.1716 296.85281,192.31111 296.55053,186.72491 298.00247,185.27296 298.96659,184.30885 309.52251,187.49314 315.54136,190.56373 325.00055,195.38945 332.45704,207.2698 333.09324,218.52894 333.60256,227.54258 331.78664,233.19573 322.71597,250.8345 318.41892,259.19051 315.27176,266.51226 315.44729,267.74484 316.19095,272.96685 326.78936,270.64585 358.36246,258.34662 368.04555,254.5746 377.72055,251.21504 379.86246,250.88092 384.03459,250.23012 391.86864,252.24821 391.53037,253.88663 391.42044,254.41905 388.05143,255.41096 384.04368,256.09087 380.03592,256.77078 373.27497,258.46629 369.01934,259.85867 357.70383,263.56093 314.61909,280.20134 309.07552,283.01048 303.74133,285.71351 299.53691,290.82431 290.79283,305.23447 281.48479,320.57404 283.15491,323.03073 302.14705,321.93616 316.6976,321.09757 321.05707,319.9398 328.79087,314.86023 338.4186,308.53671 342.13947,308.86442 353.35803,317.02391 361.39201,322.86719 366.52741,332.93697 364.26225,338.40554 362.69403,342.19157 360.85659,342.75712 355.00048,341.25625 348.61733,339.6203 347.18163,340.60295 345.11398,348.02296 344.21041,351.26556 342.28378,357.95517 340.8326,362.88877 336.94578,376.10277 335.43901,387.08914 333.72279,414.72877 332.8755,428.37437 331.78138,441.64937 331.29143,444.22877 328.77046,457.50053 324.45675,459.70133 318.15737,450.92959 313.54457,444.50639 311.60782,444.01148 293.93256,444.73927 276.49685,445.4572 267.71524,446.80992 264.43688,449.28279 261.47034,451.52046 260.45134,456.15608 259.68091,470.91859 258.86348,486.58162 259.11023,486.96396 269.93043,486.8 274.23496,486.73477 290.13185,484.61077 305.25685,482.07999 334.29952,477.22046 352.37998,474.77891 384.25685,471.41201 408.34606,468.86766 423.5256,468.68042 430.02325,470.84747 441.43964,474.65499 450.25685,485.44348 450.25685,495.60472 450.25685,503.74566 444.65765,518.27785 431.46023,544.38955 417.44197,572.12532 406.49703,595.11573 398.63195,613.347 395.68302,620.18263 392.2888,626.82013 391.08924,628.097 388.29008,631.07657 385.19611,631.04729 382.34674,628.01427 Z M 295.25685,434.91859 H 312.75685 L 313.3715,429.19963 C 313.70956,426.0542 314.737,422.4542 315.6547,421.19963 316.5724,419.94506 318.37708,417.47297 319.66511,415.70611 321.41084,413.31138 322.81353,408.26379 325.17547,395.87702 330.12394,369.92578 333.28245,350.60769 333.93431,342.3062 334.47496,335.42101 334.32786,334.4896 332.39446,332.5562 328.79844,328.96018 323.37332,329.82533 296.75685,338.23935 289.60685,340.49961 281.17733,343.04984 278.02458,343.90653 271.24375,345.74907 268.95058,347.92275 267.12433,354.23874 265.37279,360.29637 265.35229,377.13906 267.09269,380.23132 268.33622,382.44074 268.7431,382.51362 276.202,381.86297 281.34492,381.41435 285.24637,381.59006 287.63325,382.3778 294.3376,384.59043 291.9516,386.95848 278.40357,391.53801 273.7452,393.11264 269.11592,395.14114 268.11628,396.0458 267.11665,396.95046 265.35303,400.21692 264.19713,403.30461 260.54959,413.04808 261.67736,432.73219 266.03648,435.40867 267.11543,436.07114 269.62105,436.17669 272.75685,435.69178 275.50685,435.26653 285.63185,434.91859 295.25685,434.91859 Z"
       id="path41"
       inkscape:connector-curvature="0" />
  </g>
</svg>
