<?xml version="1.0" encoding="UTF-8" standalone="no"?>
<!-- Created with Inkscape (http://www.inkscape.org/) -->

<svg
   xmlns:dc="http://purl.org/dc/elements/1.1/"
   xmlns:cc="http://creativecommons.org/ns#"
   xmlns:rdf="http://www.w3.org/1999/02/22-rdf-syntax-ns#"
   xmlns:svg="http://www.w3.org/2000/svg"
   xmlns="http://www.w3.org/2000/svg"
   xmlns:sodipodi="http://sodipodi.sourceforge.net/DTD/sodipodi-0.dtd"
   xmlns:inkscape="http://www.inkscape.org/namespaces/inkscape"
   width="512"
   height="512"
   viewBox="0 0 512 512"
   version="1.1"
   id="svg8"
   inkscape:version="0.92.4 (5da689c313, 2019-01-14)"
   sodipodi:docname="U+84CB.svg">
  <defs
     id="defs2">
    <inkscape:path-effect
       effect="bspline"
       id="path-effect43"
       is_visible="true"
       weight="33.333333"
       steps="2"
       helper_size="0"
       apply_no_weight="true"
       apply_with_weight="true"
       only_selected="false" />
    <inkscape:path-effect
       effect="bspline"
       id="path-effect39"
       is_visible="true"
       weight="33.333333"
       steps="2"
       helper_size="0"
       apply_no_weight="true"
       apply_with_weight="true"
       only_selected="false" />
    <inkscape:path-effect
       effect="bspline"
       id="path-effect35"
       is_visible="true"
       weight="33.333333"
       steps="2"
       helper_size="0"
       apply_no_weight="true"
       apply_with_weight="true"
       only_selected="false" />
    <inkscape:path-effect
       effect="bspline"
       id="path-effect31"
       is_visible="true"
       weight="33.333333"
       steps="2"
       helper_size="0"
       apply_no_weight="true"
       apply_with_weight="true"
       only_selected="false" />
    <inkscape:path-effect
       effect="bspline"
       id="path-effect27"
       is_visible="true"
       weight="33.333333"
       steps="2"
       helper_size="0"
       apply_no_weight="true"
       apply_with_weight="true"
       only_selected="false" />
    <inkscape:path-effect
       effect="bspline"
       id="path-effect23"
       is_visible="true"
       weight="33.333333"
       steps="2"
       helper_size="0"
       apply_no_weight="true"
       apply_with_weight="true"
       only_selected="false" />
  </defs>
  <sodipodi:namedview
     id="base"
     pagecolor="#ffffff"
     bordercolor="#666666"
     borderopacity="1.0"
     inkscape:pageopacity="0.0"
     inkscape:pageshadow="2"
     inkscape:zoom="2.8284271"
     inkscape:cx="147.08327"
     inkscape:cy="458.26568"
     inkscape:document-units="px"
     inkscape:current-layer="svg8"
     showgrid="false"
     units="px"
     inkscape:window-width="1920"
     inkscape:window-height="1001"
     inkscape:window-x="-9"
     inkscape:window-y="-9"
     inkscape:window-maximized="1" />
  <metadata
     id="metadata5">
    <rdf:RDF>
      <cc:Work
         rdf:about="">
        <dc:format>image/svg+xml</dc:format>
        <dc:type
           rdf:resource="http://purl.org/dc/dcmitype/StillImage" />
        <dc:title />
      </cc:Work>
    </rdf:RDF>
  </metadata>
  <g
     inkscape:label="圖層 1"
     inkscape:groupmode="layer"
     id="layer1"
     transform="translate(0,-161.53331)" />
  <path
     d="M 207.35451,73.299073 C 202.16049,70.728073 193.84676,61.815674 190.52187,55.254317 187.22857,48.755306 186.22195,41.672516 188.46905,40.810223 190.42116,40.061128 205.46754,45.118057 208.58662,47.571525 211.31836,49.720311 218.15437,63.685826 218.81671,68.470922 219.7405,75.144863 215.06346,77.114943 207.35451,73.299073 Z"
     id="path45"
     inkscape:connector-curvature="0" />
  <path
     d="M 288.08571,67.003553 C 295.43586,57.294246 305.51317,42.067055 308.43596,36.253553 310.09507,32.953553 312.40755,27.043236 313.57481,23.119516 314.74207,19.195796 316.32083,15.467831 317.08316,14.835149 318.95463,13.281973 326.34258,16.081961 329.5411,19.556631 331.52157,21.708075 331.82673,22.890115 331.4402,26.912748 330.02653,41.625108 312.94304,61.238445 295.001,68.748141 284.73944,73.043146 283.71018,72.783484 288.08571,67.003553 Z"
     id="path47"
     inkscape:connector-curvature="0" />
  <path
     d="M 175.58667,258.49496 C 169.00069,255.2492 167.11452,245.02379 172.02527,239.18769 L 174.66196,236.05417 182.27527,236.70481 C 187.05272,237.11309 195.47589,236.74188 204.88858,235.70825 230.47619,232.89839 242.2853,229.69294 244.42574,224.97632 245.12745,223.43006 245.21173,216.92415 244.68098,205.27359 244.03319,191.05369 243.59857,187.69707 242.29943,186.88017 240.1881,185.55258 220.40767,191.71395 206.88858,197.91024 194.51945,203.57945 188.82481,204.32318 182.0759,201.15082 176.90786,198.72155 170.93889,192.49653 169.93241,188.4864 169.53742,186.91261 169.89036,185.0509 170.866,183.56188 172.24799,181.45271 173.18995,181.16777 178.78064,181.16777 190.9937,181.16777 217.53411,174.83795 231.05387,168.70074 239.60034,164.82111 239.82729,164.06419 238.55686,143.67657 237.35848,124.44514 236.42877,121.27416 231.19518,118.56776 226.8197,116.30511 220.49232,117.21324 205.93815,122.19275 190.70919,127.40313 186.88381,127.90138 182.62566,125.22914 180.83106,124.10291 178.58842,121.55767 177.64201,119.57303 175.95976,116.04533 175.97043,115.92478 178.1188,114.18514 179.32744,113.20645 182.47008,112.09623 185.10245,111.71799 187.73482,111.33976 192.56835,110.35 195.84361,109.51852 201.70704,108.03001 245.06669,100.49808 275.38858,95.700916 302.5307,91.406813 316.85743,90.169935 339.38858,90.175569 358.15643,90.180262 361.22254,90.402492 363.51658,91.924356 367.01725,94.246698 373.55608,102.16528 373.10084,103.53099 372.55928,105.15566 366.48265,106.19443 361.38858,105.53314 358.91358,105.21185 351.58805,103.18477 345.10963,101.02851 334.1452,97.379157 332.52017,97.105312 321.60963,97.068375 308.69561,97.024656 304.10187,97.619611 278.38858,102.66613 268.76358,104.55515 257.35069,106.77206 253.02659,107.5926 239.50459,110.15855 237.0827,113.85326 245.14056,119.62312 262.8473,132.3021 267.44986,135.86309 267.89451,137.22786 268.17407,138.08591 267.24617,141.63443 265.83252,145.11346 264.41886,148.5925 263.0041,153.61846 262.68861,156.28227 261.90993,162.85701 263.09881,163.13827 277.16623,159.70729 285.80101,157.6013 290.07736,157.04313 294.50282,157.44441 306.20783,158.50579 310.76174,164.43155 303.15252,168.69983 299.25953,170.88354 292.4308,172.63029 273.88858,176.18537 267.83858,177.34533 261.53858,179.07608 259.88858,180.03147 257.23623,181.56725 256.85321,182.38111 256.58332,187.05468 256.41543,189.96205 256.97846,195.72759 257.83451,199.86699 259.06722,205.82776 259.17536,208.74271 258.35444,213.88148 257.23307,220.90095 257.64082,223.66685 259.92628,224.54386 262.02576,225.34951 289.07517,219.7517 301.10105,216.02284 L 311.31353,212.85627 317.60105,215.9548 C 323.99801,219.10726 331.86424,225.94035 332.91782,229.2599 333.66803,231.62359 331.97836,234.73523 328.82138,236.80376 326.03131,238.63188 320.94168,238.38556 306.88858,235.74228 281.86487,231.03552 249.00339,237.25814 197.09779,256.53217 186.36123,260.51896 180.73522,261.03231 175.58667,258.49496 Z"
     id="path49"
     inkscape:connector-curvature="0" />
  <path
     d=""
     id="path51"
     inkscape:connector-curvature="0" />
  <path
     d="M 55.106089,442.64289 C 48.128749,439.00707 40.151049,431.29098 37.513681,425.62739 35.443414,421.18161 34.302843,414.10711 35.656349,414.10711 35.931349,414.10711 38.014618,415.96538 40.285834,418.23659 L 44.415319,422.36608 53.535834,421.83824 C 60.834612,421.41584 67.649863,419.87572 87.656349,414.12768 101.40635,410.17717 125.32482,403.84185 140.8085,400.04917 156.29219,396.25649 170.12969,392.62075 171.5585,391.96974 176.49568,389.72021 174.89039,384.54072 160.09648,354.9875 151.31394,337.44296 151.09008,337.11384 146.41944,334.87907 141.38272,332.46913 137.1943,327.62081 130.77531,316.77012 126.83038,310.1016 126.31634,306.7514 128.71305,303.32962 130.88335,300.23108 133.52789,300.55282 137.90347,304.44773 139.96755,306.28507 147.21941,311.34757 154.0187,315.69773 168.21947,324.78333 173.38891,329.99751 178.39454,340.28457 184.36113,352.5465 185.24438,358.42729 183.84992,376.60711 183.36319,382.95273 183.45008,387.15527 184.08768,388.10711 185.66396,390.46026 195.46183,389.75133 216.73817,385.74468 240.8594,381.20229 252.20868,379.71653 286.43882,376.62004 313.72366,374.15183 320.55945,372.82618 321.72988,369.7761 322.02985,368.99438 321.57352,365.6466 320.71582,362.3366 318.6288,354.28253 318.61704,354.3318 322.90635,353.15785 329.20652,351.43353 331.75918,348.27804 340.03839,331.97992 348.51909,315.28515 355.115,296.91466 355.4507,289.05458 355.62644,284.93965 355.22889,283.7932 352.71682,281.17074 348.481,276.74877 342.40051,274.10711 336.45796,274.10711 333.67114,274.10711 324.02571,275.87885 315.02368,278.0443 306.02165,280.20976 284.48135,284.93649 267.15635,288.54815 225.61036,297.20905 221.41228,298.27376 205.33916,304.22615 192.5425,308.96516 191.1588,309.27083 183.97386,308.94587 172.68399,308.43526 167.97901,304.19642 169.52934,295.93244 170.73117,289.52614 171.03732,289.40896 189.70035,288.2117 209.03063,286.97165 220.52155,285.08191 251.15635,278.10497 308.4643,265.05334 346.17577,259.64821 356.39584,263.02113 360.92818,264.51694 370.0108,273.58637 373.62313,280.22341 376.01612,284.62012 376.32254,286.13919 375.98677,291.94106 375.51087,300.16443 372.90712,305.94571 359.73362,328.02905 346.71867,349.84661 343.02259,359.55635 345.27405,366.01491 346.67272,370.02713 349.42657,370.68699 358.49801,369.18359 364.04113,368.26493 368.92815,368.2701 380.15635,369.2065 398.09621,370.70263 403.40759,370.05034 407.21332,365.8836 409.67996,363.18296 410.45814,362.8944 413.80823,363.43804 418.67945,364.22853 441.42378,375.44176 451.15635,381.85111 463.44547,389.94407 472.07312,400.81536 472.13439,408.28453 472.14868,410.02692 471.19597,411.72399 469.40635,413.14401 465.12204,416.5435 457.11908,415.31689 436.19743,408.05407 397.13183,394.49269 392.28092,392.89522 383.15635,390.58695 367.58441,386.64766 356.94067,385.7874 332.15635,386.46499 278.06541,387.94379 255.43404,390.1544 218.65635,397.55156 203.80635,400.53837 185.35635,404.16346 177.65635,405.60733 159.53618,409.00513 149.11546,411.65439 118.65635,420.6069 82.303133,431.2918 79.768104,432.3315 73.081921,439.29853 68.10877,444.48058 67.084067,445.10209 63.581921,445.06055 61.422856,445.03494 57.608732,443.94699 55.106089,442.64289 Z"
     id="path53"
     inkscape:connector-curvature="0" />
  <path
     d="M 217.66712,364.82857 C 215.92217,363.08363 215.71109,358.27066 217.07818,351.4 217.64376,348.55755 217.56711,343.5849 216.8701,337.9 215.64608,327.91682 216.24285,322.67478 218.98954,319.28277 220.80122,317.04543 220.86472,317.04008 225.33515,318.74735 231.32595,321.03526 232.72188,322.77935 234.6801,330.42302 238.87036,346.77922 231.97261,366.4 222.03226,366.4 220.49572,366.4 218.5314,365.69286 217.66712,364.82857 Z"
     id="path55"
     inkscape:connector-curvature="0" />
  <path
     d="M 271.40218,350.47992 C 267.42389,345.75199 266.7217,341.73786 266.01424,319.6792 265.41691,301.05443 265.50275,299.40582 267.10169,298.79225 269.26159,297.96341 273.70575,301.10998 275.47779,304.72272 277.70224,309.25779 279.24789,335.02285 277.78618,343.2021 277.09611,347.06351 275.97227,350.98764 275.28876,351.92239 274.1575,353.46949 273.80886,353.34009 271.40218,350.47992 Z"
     id="path57"
     inkscape:connector-curvature="0" />
</svg>
