<?xml version="1.0" encoding="UTF-8" standalone="no"?>
<!-- Created with Inkscape (http://www.inkscape.org/) -->

<svg
   xmlns:dc="http://purl.org/dc/elements/1.1/"
   xmlns:cc="http://creativecommons.org/ns#"
   xmlns:rdf="http://www.w3.org/1999/02/22-rdf-syntax-ns#"
   xmlns:svg="http://www.w3.org/2000/svg"
   xmlns="http://www.w3.org/2000/svg"
   xmlns:sodipodi="http://sodipodi.sourceforge.net/DTD/sodipodi-0.dtd"
   xmlns:inkscape="http://www.inkscape.org/namespaces/inkscape"
   width="512"
   height="512"
   viewBox="0 0 512 512"
   version="1.1"
   id="svg8"
   inkscape:version="0.92.4 (5da689c313, 2019-01-14)"
   sodipodi:docname="U+88AB.svg">
  <defs
     id="defs2">
    <inkscape:path-effect
       effect="bspline"
       id="path-effect47"
       is_visible="true"
       weight="33.333333"
       steps="2"
       helper_size="0"
       apply_no_weight="true"
       apply_with_weight="true"
       only_selected="false" />
    <inkscape:path-effect
       effect="bspline"
       id="path-effect43"
       is_visible="true"
       weight="33.333333"
       steps="2"
       helper_size="0"
       apply_no_weight="true"
       apply_with_weight="true"
       only_selected="false" />
    <inkscape:path-effect
       effect="bspline"
       id="path-effect39"
       is_visible="true"
       weight="33.333333"
       steps="2"
       helper_size="0"
       apply_no_weight="true"
       apply_with_weight="true"
       only_selected="false" />
    <inkscape:path-effect
       effect="bspline"
       id="path-effect35"
       is_visible="true"
       weight="33.333333"
       steps="2"
       helper_size="0"
       apply_no_weight="true"
       apply_with_weight="true"
       only_selected="false" />
    <inkscape:path-effect
       effect="bspline"
       id="path-effect31"
       is_visible="true"
       weight="33.333333"
       steps="2"
       helper_size="0"
       apply_no_weight="true"
       apply_with_weight="true"
       only_selected="false" />
    <inkscape:path-effect
       effect="bspline"
       id="path-effect27"
       is_visible="true"
       weight="33.333333"
       steps="2"
       helper_size="0"
       apply_no_weight="true"
       apply_with_weight="true"
       only_selected="false" />
    <inkscape:path-effect
       effect="bspline"
       id="path-effect23"
       is_visible="true"
       weight="33.333333"
       steps="2"
       helper_size="0"
       apply_no_weight="true"
       apply_with_weight="true"
       only_selected="false" />
  </defs>
  <sodipodi:namedview
     id="base"
     pagecolor="#ffffff"
     bordercolor="#666666"
     borderopacity="1.0"
     inkscape:pageopacity="0.0"
     inkscape:pageshadow="2"
     inkscape:zoom="2"
     inkscape:cx="310.09703"
     inkscape:cy="318.46508"
     inkscape:document-units="px"
     inkscape:current-layer="svg8"
     showgrid="false"
     units="px"
     inkscape:window-width="1920"
     inkscape:window-height="1001"
     inkscape:window-x="-9"
     inkscape:window-y="-9"
     inkscape:window-maximized="1" />
  <metadata
     id="metadata5">
    <rdf:RDF>
      <cc:Work
         rdf:about="">
        <dc:format>image/svg+xml</dc:format>
        <dc:type
           rdf:resource="http://purl.org/dc/dcmitype/StillImage" />
        <dc:title />
      </cc:Work>
    </rdf:RDF>
  </metadata>
  <g
     inkscape:label="圖層 1"
     inkscape:groupmode="layer"
     id="layer1"
     transform="translate(0,-161.53331)" />
  <path
     d="M 151.16959,432.93497 C 147.53784,424.81272 147.41217,422.66416 149.4623,403.74538 152.49733,375.73786 153.29487,351.3158 152.70483,304.45323 152.00344,248.74667 151.17076,240.9 145.96063,240.9 143.54342,240.9 139.89055,245.62311 123.53193,269.9 101.45093,302.66918 90.159283,317.36032 65.886789,344.9 51.327494,361.41904 44.016126,368.91677 44.016126,367.32815 44.016126,366.79039 48.302674,360.73656 53.541788,353.8752 78.871382,320.70252 89.729943,305.95605 101.0181,289.4 107.76807,279.5 119.47592,263.075 127.03555,252.9 152.89859,218.08922 157.02496,209.89878 148.69874,209.90076 142.81531,209.90215 111.7721,226.1147 67.522694,252.29557 51.287053,261.90165 43.617705,265.9 41.427682,265.9 35.247682,265.9 32.125538,258.97354 32.060018,245.11788 32.034333,239.68607 31.455901,234.49496 30.665567,232.60342 29.528739,229.88261 29.532489,228.62523 30.689267,224.65804 32.271376,219.23217 33.51806,218.35905 41.613719,217.00704 44.860043,216.46489 49.049651,215.69856 50.92396,215.30409 L 54.331794,214.58687 53.715763,219.78828 C 52.562204,229.52828 55.569731,232.15437 65.248469,229.85833 72.455825,228.14857 128.97348,207.7577 140.32174,202.77282 151.04189,198.06386 162.65076,190.52118 172.51613,181.85503 180.48423,174.85553 183.27004,173.43034 186.06252,174.92483 188.42462,176.18899 193.01613,182.7994 193.01613,184.93597 193.01613,186.74763 188.97753,190.66579 180.72778,196.85782 173.99755,201.90934 160.71311,215.73457 158.22787,220.27365 156.09532,224.16857 155.96042,243.50839 157.79102,282.9 158.46835,297.475 159.45866,326.5 159.99172,347.4 162.4385,443.33323 162.46284,431.94996 159.8025,435.89308 156.09827,441.38343 154.73893,440.91764 151.16959,432.93497 Z"
     id="path49"
     inkscape:connector-curvature="0" />
  <path
     d="M 152.07437,107.54655 C 148.22462,102.40215 142.58099,96.062543 139.53296,93.458533 130.30041,85.570922 124.51182,75.099358 128.12088,72.814095 129.98652,71.63277 136.52409,71.672489 143.12964,72.90528 154.13191,74.958635 167.93611,83.99692 171.48175,91.468797 176.25514,101.52798 170.46955,116.9 161.91016,116.9 159.49621,116.9 158.03173,115.50734 152.07437,107.54655 Z"
     id="path51"
     inkscape:connector-curvature="0" />
  <path
     d="M 197.97968,243.63576 C 195.55868,240.89836 193.98785,240.09478 190.22968,239.67118 186.08023,239.20348 185.51613,238.85496 185.51613,236.75905 185.51613,233.99409 189.07153,226.01387 191.02612,224.39171 192.02795,223.56026 193.32417,223.76288 196.18992,225.1989 198.29433,226.25342 201.25363,227.41363 202.76613,227.77715 204.91296,228.29314 205.51613,229.0227 205.51613,231.10345 205.51613,234.00123 202.5921,245.53707 201.61743,246.48452 201.28671,246.80601 199.64972,245.52407 197.97968,243.63576 Z"
     id="path53"
     inkscape:connector-curvature="0" />
  <path
     d="M 213.01613,315.45931 C 210.54113,314.16815 205.99563,310.46776 202.91503,307.23622 196.78835,300.80936 178.01613,273.13012 178.01613,270.52333 178.01613,264.81124 203.4577,277.44827 211.2179,287.01491 217.27689,294.48433 223.01613,307.88194 223.01613,314.55655 223.01613,317.54857 222.72707,317.89511 220.26613,317.85344 218.75363,317.82783 215.49113,316.75047 213.01613,315.45931 Z"
     id="path55"
     inkscape:connector-curvature="0" />
  <path
     d="M 205.01613,424.50595 C 205.01613,424.01422 208.62409,420.35936 213.03383,416.38404 222.66215,407.70424 230.89154,395.83761 239.02865,378.9 253.41589,348.95256 258.48939,327.9125 260.99559,287.80203 263.65568,245.22844 257.26548,217.24852 238.65811,189.99592 231.9339,180.14756 230.3358,176.61528 231.37689,173.90224 232.24099,171.65045 235.03076,172.06723 241.82733,175.46352 249.1791,179.13724 254.93843,185.34354 259.63828,194.6567 265.96063,207.18501 266.32768,210.58795 265.59683,249.9 264.00806,335.35891 260.06584,361.70762 244.42598,391.4 237.07543,405.35506 228.6552,414.54807 216.54362,421.84128 211.03075,425.16096 205.01613,426.55128 205.01613,424.50595 Z"
     id="path57"
     inkscape:connector-curvature="0" />
  <path
     d="M 301.27327,249.18702 C 300.80474,247.79827 301.37995,245.49641 306.96756,226.4 313.88172,202.76994 316.31018,181.83714 312.66031,177.32974 310.94962,175.21712 310.55568,175.14098 307.6225,176.35594 305.84907,177.09052 301.9119,180.78063 298.72831,184.69202 292.02721,192.92506 290.6817,193.90936 287.29154,193.05848 281.26976,191.54711 267.7437,175.57648 269.22223,171.72349 270.21584,169.13419 275.53192,167.31625 293.42629,163.44646 313.57668,159.08878 317.09524,157.68361 317.91318,153.66738 318.9407,148.62206 320.3778,135.05125 321.06543,123.9 322.17422,105.91883 318.49483,68.37207 314.87682,60.747688 312.77294,56.314081 310.12882,55.298503 304.05965,56.592931 299.91719,57.47643 298.92637,57.355982 296.64708,55.69184 293.13848,53.130151 290.15296,46.983101 290.92446,43.909221 291.25842,42.578614 293.166,40.24336 295.16354,38.719766 298.1345,36.453701 300.05339,35.878514 305.70826,35.558986 314.54027,35.059932 320.27735,37.161124 326.83776,43.297623 337.09557,52.892603 339.29185,62.319831 336.87692,86.389445 335.13025,103.79857 335.48995,109.99559 338.54798,115.17855 341.06823,119.45007 340.53305,122.61563 337.02002,124.21627 333.65461,125.74966 332.60424,128.8514 331.84944,139.48501 331.12615,149.67477 331.89199,151.4 337.13857,151.4 340.63616,151.4 344.51613,148.57186 344.51613,146.02244 344.51613,142.86824 347.1618,142.24742 351.33466,144.42243 354.88598,146.27349 355.86625,146.38357 359.68716,145.36046 369.39856,142.76008 372.0648,139.4019 375.02393,126.04348 376.27668,120.38815 377.58731,117.24959 379.7018,114.84132 385.41897,108.32981 387.66204,109.19364 395.63506,120.97737 398.97464,125.9131 401.08589,127.93269 404.51613,129.47284 417.80967,135.44152 419.16607,136.91455 420.61124,146.95193 422.22479,158.15882 421.57785,159.74086 413.21323,165.04306 402.87008,171.59942 396.28391,178.38023 388.08039,190.91866 384.11534,196.97893 379.55381,202.80094 377.94367,203.85646 373.8904,206.51356 365.28217,207.13195 362.02807,204.99979 359.74094,203.5012 359.51613,202.72658 359.51613,196.34469 359.51613,190.87563 358.82291,187.53791 356.3613,181.15474 353.08375,172.65578 352.19116,166.39736 354.15803,165.70649 354.78608,165.48589 357.99623,167.80168 361.29169,170.8527 369.47824,178.432 370.7873,178.25912 375.04869,169.03591 376.92002,164.98565 379.02122,159.54022 379.71803,156.93493 380.93581,152.38179 380.88928,152.12058 378.51865,150.20096 374.85786,147.23663 368.52576,148.47671 353.06692,155.18544 342.43074,159.80126 339.07324,161.78466 334.91992,165.90556 328.36366,172.41063 326.89656,176.34179 318.87449,208.9 311.93808,237.052 309.06966,246.71657 307.20978,248.20193 304.96979,249.99086 301.72605,250.52912 301.27327,249.18702 Z"
     id="path59"
     inkscape:connector-curvature="0" />
  <path
     d="M 428.2506,416.37792 C 418.39789,413.88403 409.44481,406.26279 380.01613,375.31872 369.56613,364.33061 359.02675,353.76804 356.59529,351.84635 347.09321,344.33641 344.29738,345.59519 332.3022,362.78392 321.6237,378.0859 307.44972,392.8782 300.01613,396.47841 295.8486,398.49682 293.51767,398.89714 286.01613,398.88284 278.40697,398.86833 276.3207,398.49017 272.51613,396.43584 L 268.01613,394.00601 274.70821,392.75288 C 278.38886,392.06365 283.33886,390.52623 285.70821,389.33638 294.40191,384.97056 306.40539,376.28692 311.79781,370.46246 318.62041,363.09324 327.36816,350.07769 331.65417,340.9187 338.03842,327.27587 335.80513,318.34231 321.27493,299.4 315.26776,291.56874 312.12218,288.572 303.36736,282.33978 280.30322,265.92128 275.66623,259.89214 292.19522,267.81345 308.10574,275.43836 318.77902,284.10225 330.88965,299.22311 342.98874,314.32957 348.28414,312.65437 355.7112,291.37084 358.94899,282.09239 359.01315,281.57919 358.86982,266.10745 358.63046,240.27026 358.59451,240.24618 334.01613,249.45626 327.53779,251.88384 318.30616,252.58501 316.50438,250.78634 315.14522,249.42952 318.86908,247.08089 330.45957,241.98485 349.56804,233.58335 357.17933,232.53219 364.64095,237.26421 373.22556,242.7084 376.15165,248.94908 374.56946,258.43943 373.0091,267.79885 369.8174,280.2535 364.45707,297.9 358.43367,317.7294 357.56122,326.28512 361.08061,331.01127 363.22625,333.89263 394.44318,353.22332 417.01613,365.64864 424.16613,369.58437 441.04113,377.91401 454.51613,384.15896 489.33828,400.29718 492.60049,402.74377 485.26613,407.2207 475.11861,413.41479 439.28277,419.17036 428.2506,416.37792 Z"
     id="path61"
     inkscape:connector-curvature="0" />
</svg>
