<?xml version="1.0" encoding="UTF-8" standalone="no"?>
<!-- Created with Inkscape (http://www.inkscape.org/) -->

<svg
   xmlns:dc="http://purl.org/dc/elements/1.1/"
   xmlns:cc="http://creativecommons.org/ns#"
   xmlns:rdf="http://www.w3.org/1999/02/22-rdf-syntax-ns#"
   xmlns:svg="http://www.w3.org/2000/svg"
   xmlns="http://www.w3.org/2000/svg"
   xmlns:sodipodi="http://sodipodi.sourceforge.net/DTD/sodipodi-0.dtd"
   xmlns:inkscape="http://www.inkscape.org/namespaces/inkscape"
   width="512"
   height="512"
   viewBox="0 0 512 512"
   version="1.1"
   id="svg8"
   inkscape:version="0.92.4 (5da689c313, 2019-01-14)"
   sodipodi:docname="被U+88AB-2.svg">
  <defs
     id="defs2">
    <inkscape:path-effect
       effect="bspline"
       id="path-effect47"
       is_visible="true"
       weight="33.333333"
       steps="2"
       helper_size="0"
       apply_no_weight="true"
       apply_with_weight="true"
       only_selected="false" />
    <inkscape:path-effect
       effect="bspline"
       id="path-effect43"
       is_visible="true"
       weight="33.333333"
       steps="2"
       helper_size="0"
       apply_no_weight="true"
       apply_with_weight="true"
       only_selected="false" />
    <inkscape:path-effect
       effect="bspline"
       id="path-effect39"
       is_visible="true"
       weight="33.333333"
       steps="2"
       helper_size="0"
       apply_no_weight="true"
       apply_with_weight="true"
       only_selected="false" />
    <inkscape:path-effect
       effect="bspline"
       id="path-effect35"
       is_visible="true"
       weight="33.333333"
       steps="2"
       helper_size="0"
       apply_no_weight="true"
       apply_with_weight="true"
       only_selected="false" />
    <inkscape:path-effect
       effect="bspline"
       id="path-effect31"
       is_visible="true"
       weight="33.333333"
       steps="2"
       helper_size="0"
       apply_no_weight="true"
       apply_with_weight="true"
       only_selected="false" />
    <inkscape:path-effect
       effect="bspline"
       id="path-effect27"
       is_visible="true"
       weight="33.333333"
       steps="2"
       helper_size="0"
       apply_no_weight="true"
       apply_with_weight="true"
       only_selected="false" />
    <inkscape:path-effect
       effect="bspline"
       id="path-effect23"
       is_visible="true"
       weight="33.333333"
       steps="2"
       helper_size="0"
       apply_no_weight="true"
       apply_with_weight="true"
       only_selected="false" />
  </defs>
  <sodipodi:namedview
     id="base"
     pagecolor="#ffffff"
     bordercolor="#666666"
     borderopacity="1.0"
     inkscape:pageopacity="0.0"
     inkscape:pageshadow="2"
     inkscape:zoom="1"
     inkscape:cx="493.91613"
     inkscape:cy="280"
     inkscape:document-units="px"
     inkscape:current-layer="svg8"
     showgrid="false"
     units="px"
     inkscape:window-width="1920"
     inkscape:window-height="1001"
     inkscape:window-x="-9"
     inkscape:window-y="-9"
     inkscape:window-maximized="1" />
  <metadata
     id="metadata5">
    <rdf:RDF>
      <cc:Work
         rdf:about="">
        <dc:format>image/svg+xml</dc:format>
        <dc:type
           rdf:resource="http://purl.org/dc/dcmitype/StillImage" />
        <dc:title></dc:title>
      </cc:Work>
    </rdf:RDF>
  </metadata>
  <g
     inkscape:label="圖層 1"
     inkscape:groupmode="layer"
     id="layer1"
     transform="translate(0,-161.53331)" />
  <path
     style="fill:none;stroke:#000000;stroke-width:1px;stroke-linecap:butt;stroke-linejoin:miter;stroke-opacity:1"
     d="M 125.16711,74.166479 C 124.99982,77.666373 128.99982,84.333039 132.80019,88.566659 136.60056,92.800279 139.66707,94.333535 143.38449,98.243205 147.10192,102.15288 150.99985,107.99977 153.99996,111.99992 157.00008,116.00008 159,118 161.83392,117.83296 164.66783,117.66592 168.3345,115.33259 170.83383,111.00006 173.33315,106.66752 174.66691,100.33217 173.66705,95.166403 172.6672,90.000635 169.33325,85.9999 165.00016,82.333409 160.66707,78.666918 155.3336,75.3335 150.00043,73.333454 144.66726,71.333408 139.33419,70.666774 134.50062,70.500039 129.66704,70.333305 125.3344,70.666585 125.16711,74.166479 Z"
     id="path21"
     inkscape:connector-curvature="0"
     inkscape:path-effect="#path-effect23"
     inkscape:original-d="M 121,71 C 125.001,77.665667 129.001,84.332333 133,91 136.33448,93.332436 139.66767,94.332333 143,96 147.33381,101.99828 151.001,107.999 155,114 157.00108,115.99908 159.001,117.999 161,120 164.66767,117.66567 168.33433,115.33233 172,113 173.33391,106.66768 174.66767,100.33233 176,94 172.66828,89.999732 169.33433,85.999 166,82 160.6678,78.665749 155.33433,75.332333 150,72 144.6674,71.3323 139.33433,70.665667 134,70 129.66697,70.332387 125.33433,70.665667 121,71 Z" />
  <path
     style="fill:none;stroke:#000000;stroke-width:1px;stroke-linecap:butt;stroke-linejoin:miter;stroke-opacity:1"
     d="M 33.833949,215.66609 C 36.334333,214 40.667667,214 45.000603,213.16663 49.333539,212.33325 53.667872,210.6662 55.017696,212.28182 56.367521,213.89744 54.667067,218.9988 54.833773,222.49964 55.00048,226.00048 57,228 63.16727,226.99977 69.33454,225.99953 79.667873,221.99953 91.167133,217.83315 102.66639,213.66676 115.33453,209.33292 126.47489,205.10605 137.61524,200.87918 146.66788,196.99948 154.16743,192.4996 161.66699,187.99972 167.33439,182.99907 172.16734,178.66607 177.00029,174.33307 181.00104,170.66571 184.50007,170.83226 187.9991,170.9988 190.99988,174.99984 192.83319,178.1663 194.66651,181.33277 195.33315,183.66601 192.99975,186.33309 190.66635,189.00018 185.33452,191.99933 179.50038,196.83323 173.66623,201.66712 167.33431,208.33231 163.33402,213.16579 159.33374,217.99927 157.66733,220.99881 157.33383,228.66806 157.00032,236.33731 157.99993,248.66576 158.99998,269.83351 160.00004,291.00125 160.99997,320.99903 161.66665,347.66607 162.33333,374.3331 162.66665,397.66568 163.01646,411.16416 163.36626,424.66263 163.66658,427.66578 163.00019,430.33261 162.33379,432.99945 160.66757,434.99892 159.16726,436.66598 157.66695,438.33305 156.33433,439.66567 154.8331,438.33109 153.33188,436.9965 151.66646,432.9995 150.16655,429.66638 148.66663,426.33326 147.33313,423.66627 147.16663,420.16621 147.00012,416.66615 148.00027,412.33216 149.32092,399.16759 150.64157,386.00302 152.33341,363.33226 152.83338,339.16627 153.33334,315.00028 152.66664,288.99903 151.99997,271.33256 151.33329,253.6661 150.6666,244.33241 148.92067,240.72568 147.17474,237.11895 144.66779,238.99916 137.45457,249.30852 130.24134,259.61788 118.00074,278.99883 105.33375,296.33269 92.666761,313.66656 79.334248,329.33226 68.834008,341.33256 58.333767,353.33286 50.667622,361.66563 46.167414,365.66622 41.667207,369.6668 40.334038,369.33351 43.002543,364.83057 45.671049,360.32764 52.334187,351.66556 60.500239,341.16635 68.666292,330.66714 78.334201,318.33223 87.000463,306.16607 95.666726,293.99991 103.33408,281.99884 112.00034,269.8328 120.6666,257.66676 130.3342,245.33223 137.47162,235.38012 144.60904,225.42801 149.33405,217.6655 151.3595,213.62773 153.38494,209.58996 152.00023,208.66682 150.50039,208.33341 149.00054,208 147.001,208 137.96046,212.26614 128.91993,216.53228 112.33453,225.3327 96.878605,234.07345 81.422683,242.81419 67.33451,251.33262 58.167682,256.83273 49.000855,262.33283 45.00118,264.66598 42.000295,264.83269 38.999409,264.99941 37,263 35.333242,260.83317 33.666484,258.66635 32.333147,256.33301 31.999918,251.99973 31.66669,247.66645 32.333449,241.33224 31.83345,236.83288 31.333451,232.33352 29.6665,229.6664 29.166934,227.83267 28.667369,225.99895 29.334102,224.99885 30.000116,222.8341 30.666129,220.66936 31.333565,217.33218 33.833949,215.66609 Z"
     id="path25"
     inkscape:connector-curvature="0"
     inkscape:path-effect="#path-effect27"
     inkscape:original-d="M 32,214 C 36.334333,213.999 40.667667,213.999 45,214 49.333334,212.33272 53.667667,210.66567 58,209 56.668038,213.99761 54.667667,218.999 53,224 55.00148,225.99948 57.001,227.999 59,230 69.334334,225.999 79.667667,221.999 90,218 102.66619,213.66617 115.33433,209.33233 128,205 137.66675,200.99938 146.66767,196.999 156,193 161.66693,187.99965 167.33433,182.999 173,178 177.00025,174.33302 181.001,170.66567 185,167 188.00022,170.99796 191.001,174.999 194,179 194.66769,181.33243 195.33433,183.66567 196,186 190.66616,188.99985 185.33433,191.999 180,195 173.66626,201.66715 167.33433,208.33233 161,215 159.33408,217.99946 157.66767,220.999 156,224 157.0014,236.33722 158.001,248.66567 159,261 160.00107,291.00122 161.001,320.999 162,351 162.33434,374.33309 162.66767,397.66567 163,421 163.33435,424.66582 163.66767,427.66567 164,431 162.33389,432.99953 160.66767,434.999 159,437 157.66695,438.33305 156.33433,439.66567 155,441 153.33308,436.996 151.66767,432.999 150,429 148.66783,426.33266 147.33433,423.66567 146,421 147.00085,416.66632 148.001,412.33233 149,408 150.66722,386.00493 152.33433,363.33233 154,341 153.33437,315.00025 152.66767,288.999 152,263 151.33436,253.66602 150.66767,244.33233 150,235 147.3346,237.3321 144.66767,238.999 142,241 130.32943,259.67351 118.001,278.999 106,298 92.666848,313.66663 79.334333,329.33233 66,345 58.333808,353.3329 50.667667,361.66567 43,370 41.6675,369.66563 40.334333,369.33233 39,369 45.671196,360.32775 52.334333,351.66567 59,343 68.666427,330.66725 78.334333,318.33233 88,306 95.66698,294.00007 103.33433,281.999 111,270 120.66673,257.66686 130.33433,245.33233 140,233 145.00055,225.66632 149.33433,217.66567 154,210 153.33444,209.66572 152.001,208.66567 151,208 149.00054,207.999 147.001,207.999 145,208 128.993,216.67 112.33433,225.33233 96,234 81.33326,242.6663 67.334333,251.33233 53,260 49.000672,262.33252 45.001,264.66567 41,267 39.000409,264.99841 37.001,262.999 35,261 33.667667,258.66567 32.334333,256.33233 31,254 31.667574,247.66654 32.334333,241.33233 33,235 31.334621,232.33279 29.667667,229.66567 28,227 28.667599,225.9991 29.334333,224.999 30,224 30.666897,220.66951 31.334333,217.33233 32,214 Z" />
  <path
     style="fill:none;stroke:#000000;stroke-width:1px;stroke-linecap:butt;stroke-linejoin:miter;stroke-opacity:1"
     d="M 181.33364,267.66621 C 187.00045,269.00021 198.00045,274.00021 205.38724,279.80237 212.77402,285.60453 216.99982,292.99968 219.66652,299.33294 222.33322,305.6662 223.6665,311.33261 223.83368,314.66587 224.00087,317.99913 223.001,318.999 219.9983,318.66543 216.9956,318.33187 212.0006,316.66687 207.16664,312.99971 202.33268,309.33254 197.66658,303.66657 194.33321,298.99981 190.99985,294.33305 188.99981,290.66632 186.00004,286.16667 183.00026,281.66702 178.99988,276.33317 177.16668,272.4994 175.33348,268.66562 175.66683,266.33221 181.33364,267.66621 Z"
     id="path29"
     inkscape:connector-curvature="0"
     inkscape:path-effect="#path-effect31"
     inkscape:original-d="M 176,264 C 187.001,268.999 198.001,273.999 209,279 212.66752,285.66539 217.001,292.999 221,300 222.33439,305.66593 223.66767,311.33233 225,317 224.00087,317.99913 223.001,318.999 222,320 216.996,318.33067 212.001,316.66567 207,315 202.33377,309.33165 197.66767,303.66567 193,298 191.00104,294.3324 189.001,290.66567 187,287 183.00138,281.66618 179.001,276.33233 175,271 175.33432,268.66574 175.66767,266.33233 176,264 Z" />
  <path
     style="fill:none;stroke:#000000;stroke-width:1px;stroke-linecap:butt;stroke-linejoin:miter;stroke-opacity:1"
     d="M 190.6669,223.16602 C 188.33387,224.9988 185.6672,230.99879 184.6669,234.666 183.6666,238.3332 184.33313,239.66627 186.16921,240.18287 188.00529,240.69947 191.66776,240.33322 194.00025,241.16617 196.33275,241.99912 197.66651,243.99977 198.83323,245.83317 199.99994,247.66657 200.99982,249.33304 202.00015,248.16557 203.00047,246.99811 204.00029,242.99882 204.77696,240.03055 205.55364,237.06227 206.33367,234.33214 206.66684,232.33266 207,230.33318 207,228.66567 205.33478,227.66631 203.66956,226.66696 200.33422,226.33342 197.66681,224.99969 194.9994,223.66596 192.99993,221.33325 190.6669,223.16602 Z"
     id="path33"
     inkscape:connector-curvature="0"
     inkscape:path-effect="#path-effect35"
     inkscape:original-d="M 191,219 C 188.33433,224.999 185.66767,230.999 183,237 183.6678,238.3326 184.33433,239.66567 185,241 188.0019,240.66557 191.66767,240.33233 195,240 196.3339,241.99835 197.66767,243.999 199,246 200.00112,247.66586 201.001,249.33233 202,251 203.00118,246.99829 204.001,242.999 205,239 205.33424,236.99959 206.33433,234.33233 207,232 207.001,230.33318 207.001,228.66567 207,227 203.66967,226.66587 200.33433,226.33233 197,226 195.00047,223.66504 193.001,221.33233 191,219 Z" />
  <path
     style="fill:none;stroke:#000000;stroke-width:1px;stroke-linecap:butt;stroke-linejoin:miter;stroke-opacity:1"
     d="M 232.83355,170.4996 C 230,171.33233 230,175.66567 232.00044,179.99998 234.00088,184.33429 237.99996,188.66663 241.9999,194.83315 245.99984,200.99968 249.9998,208.9996 252.99986,216.99965 255.99992,224.99969 257.99982,232.99929 259.33325,242.33299 260.66667,251.66668 261.33327,262.3324 261.16663,274.16623 260.99999,286.00007 260.00008,298.99893 258.50006,311.33271 257.00003,323.66649 255.0002,335.33219 250.63817,348.56233 246.27615,361.79248 239.66722,376.33212 233.83381,387.16578 228.0004,397.99944 223.00081,404.99886 218.00059,409.99932 213.00036,414.99978 208.00118,417.99929 205.8241,420.79371 203.64703,423.58813 204.33316,426.33262 208.50153,425.66547 212.6699,424.99832 220.33453,420.99938 227.16723,415.1664 233.99993,409.33343 240.00086,401.66556 245.16702,392.33297 250.33318,383.00038 254.66714,371.99879 258.0002,359.4996 261.33327,347.0004 263.66686,332.99886 265.00009,312.66667 266.33332,292.33448 266.66668,265.66566 267.16669,247.16583 267.66671,228.666 268.3334,218.33227 266.60015,209.03303 264.86689,199.73378 260.9998,191.9996 257.33334,186.4999 253.66689,181.0002 250.33339,178.00005 245.83353,175.16677 241.33367,172.33349 235.6671,169.66687 232.83355,170.4996 Z"
     id="path37"
     inkscape:connector-curvature="0"
     inkscape:path-effect="#path-effect39"
     inkscape:original-d="M 230,167 C 230.001,171.33233 230.001,175.66567 230,180 234.00192,184.33333 238.001,188.66567 242,193 246.00104,200.99908 250.001,208.999 254,217 256.0011,224.9994 258.001,232.999 260,241 260.66773,251.66661 261.33433,262.33233 262,273 261.00091,286.00014 260.001,298.999 259,312 257.00084,323.66663 255.001,335.33233 253,347 246.00032,361.6671 239.66767,376.33233 233,391 228.00059,397.99958 223.001,404.999 218,412 213.00019,414.99949 208.001,417.999 203,421 203.33441,423.66629 204.33433,426.33233 205,429 212.6697,424.99794 220.33433,420.999 228,417 234.00006,409.33353 240.001,401.66567 246,394 250.33371,383.00059 254.66767,371.999 259,361 261.33408,347.00054 263.66767,332.999 266,319 266.33431,292.33449 266.66767,265.66567 267,239 267.66764,228.66606 268.33433,218.33233 269,208 265.00141,199.66652 261.001,191.999 257,184 253.66783,180.99915 250.33433,177.999 247,175 241.33424,172.33229 235.66767,169.66567 230,167 Z" />
  <path
     style="fill:none;stroke:#000000;stroke-width:1px;stroke-linecap:butt;stroke-linejoin:miter;stroke-opacity:1"
     d="M 296.00112,35.166118 C 292.33442,36.999111 288.66776,39.999107 288.66768,44.333605 288.6676,48.668103 292.33317,54.333083 295.83393,56.332871 299.33468,58.33266 302.66787,56.666065 305.33398,55.999707 308.00009,55.333348 310.00081,55.666802 311.6667,57.665709 313.33259,59.664617 314.66646,63.332772 316.14981,73.168885 317.63316,83.004999 319.33324,99.665778 319.33332,113.99933 319.33339,128.33289 317.66682,140.66555 316.83341,147.499 316,154.33245 316,155.66567 309.63779,157.5365 303.27558,159.40732 291.33448,161.66645 283.65393,163.28722 275.97339,164.90798 272.33452,165.99964 270.0008,167.3329 267.66707,168.66616 266.33421,170.33224 267.3348,173.50089 268.33539,176.66955 271.66653,181.33314 275.50009,185.33336 279.33366,189.33358 283.66682,192.66678 286.91822,193.40355 290.16963,194.14032 292.66774,191.99908 295.33356,188.6667 297.99937,185.33431 301.00075,180.66551 304.13645,177.88655 307.27216,175.10759 311.33451,173.99968 312.33427,179.66396 313.33402,185.32824 311.66682,197.66555 309.33346,208.66595 307.0001,219.66634 304.00037,229.33214 301.73362,236.46575 299.46688,243.59937 298.33373,246.9988 299.33458,248.83263 300.33542,250.66646 303.66776,250.33322 306.0006,248.6665 308.33343,246.99977 309.6672,243.99879 311.99974,235.50163 314.33227,227.00446 317.66695,212.99883 320.66683,200.16599 323.66671,187.33314 326.3336,175.6655 331.83365,168.33268 337.3337,160.99987 345.66787,157.99957 351.33432,155.66624 357.00076,153.33291 360.00119,151.66601 363.03902,150.52532 366.07686,149.38463 369.66782,148.66644 372.66714,148.66652 375.66645,148.66661 378.33404,149.33351 378.66756,151.83225 379.00108,154.33098 377.00055,158.66546 375.18579,163.11331 373.37102,167.56115 371.6671,172.33213 369.8334,173.9993 367.99971,175.66647 366.00023,174.33349 363.64843,172.01468 361.29663,169.69588 357.99991,165.66656 355.33393,164.33301 352.66795,162.99945 350.33454,163.99948 350.50119,167.6678 350.66784,171.33612 353.33313,177.66618 355.14595,182.11145 356.95877,186.55673 357.99979,189.33278 357.97419,191.89305 357.94858,194.45332 357.00052,196.66546 357.16717,199.16656 357.33382,201.66765 358.66647,204.33293 361.33403,205.66647 364.0016,207 368.001,207 371.66735,206.16657 375.3337,205.33315 378.66787,203.66607 382.0003,199.5003 385.33273,195.33453 388.66727,188.66547 392.58373,183.08264 396.50019,177.49981 401.33433,172.66567 405.6966,169.39617 410.05887,166.12668 414.66787,163.99944 417.33415,162.16603 420.00043,160.33262 421.0007,158.66549 421.16721,154.66787 421.33371,150.67025 420.66657,144.33245 419.73224,140.44496 418.7979,136.55748 416.66659,133.9999 414.16697,132.33342 411.66735,130.66694 408.33385,129.33354 405.83384,128.50015 403.33384,127.66677 401.66744,127.33349 399.49969,124.99894 397.33193,122.66439 394.66649,118.33305 392.33325,114.8332 390.00001,111.33334 387.99988,108.66651 385.50059,108.49942 383.00129,108.33233 380.00111,110.66581 378.00067,112.83267 376.00023,114.99954 375.0006,116.9988 374.163,120.19186 373.3254,123.38493 372.66684,127.66554 371.66685,131.33256 370.66686,134.99957 369.33387,137.9988 365.99979,140.33288 362.66572,142.66696 357.33453,144.33296 353.92731,143.98256 350.5201,143.63216 348.6665,140.6664 347.00045,140.33256 345.3344,139.99872 343.66757,141.99892 342.83378,143.83274 342,145.66657 342,147.33233 339.83262,148.66633 337.66524,150.00033 333.3345,150.99973 331.8342,147.83164 330.3339,144.66355 331.66688,137.33219 332.33344,132.83239 333,128.33259 333,126.66567 333.97296,125.67068 334.94591,124.67568 337.00114,124.33314 338.50054,122.99996 339.99995,121.66678 341.00052,119.33212 340.50089,117.49982 340.00126,115.66751 338.00023,114.33349 336.8334,110.9993 335.66657,107.66512 335.33327,102.3324 335.83328,95.666331 336.33329,89.000266 337.66686,80.998864 338.0001,73.49948 338.33334,66.000097 337.66658,58.999104 335.15507,53.010159 332.64356,47.021215 327.66661,41.333264 322.82389,38.039278 317.98117,34.745292 312.33404,33.333509 307.83401,33.000028 303.33399,32.666547 299.66781,33.333125 296.00112,35.166118 Z"
     id="path41"
     inkscape:connector-curvature="0"
     inkscape:path-effect="#path-effect43"
     inkscape:original-d="M 296,34 C 292.33433,36.999 288.66767,39.999 285,43 288.66876,48.66735 292.33433,54.332333 296,60 299.33448,58.33226 302.66767,56.665667 306,55 308.00028,55.332213 310.001,55.665667 312,56 313.33379,59.66418 314.66767,63.332333 316,67 317.66792,83.001452 319.33433,99.665667 321,116 319.33424,128.333 317.66767,140.66567 316,153 316.001,154.33245 316.001,155.66567 316,157 303.32483,159.66767 291.33433,161.66567 279,164 276.00072,164.99909 272.33433,165.999 269,167 267.66719,168.66626 266.33433,170.33233 265,172 268.33653,176.66874 271.66767,181.33233 275,186 279.33451,189.33247 283.66767,192.66567 288,196 290.33426,194.33239 292.66767,191.999 295,190 297.99962,185.33447 301.001,180.66567 304,176 307.3335,175.3325 311.33433,173.999 315,173 313.33487,185.32835 311.66767,197.66567 310,210 307.00073,219.66654 304.001,229.33233 301,239 299.6675,243.66624 298.33433,246.999 297,251 300.33533,250.66557 303.66767,250.33233 307,250 308.3339,246.99998 309.66767,243.999 311,241 314.33299,227.00463 317.66767,212.999 321,199 323.66744,187.33331 326.33433,175.66567 329,164 337.3335,160.9993 345.66767,157.999 354,155 357.00057,153.33257 360.001,151.66567 363,150 365.99981,148.9994 369.66767,148.66567 373,148 375.66674,148.66544 378.33433,149.33233 381,150 379.00153,154.33119 377.001,158.66567 375,163 373.6673,167.66696 371.66767,172.33233 370,177 368.00048,175.66532 366.001,174.33233 364,173 361.33403,169.66528 358.001,165.66567 355,162 352.66774,162.99897 350.33433,163.999 348,165 350.66905,171.33561 353.33433,177.66567 356,184 356.66772,186.66587 358.001,189.33233 359,192 357.66739,194.33281 357.001,196.66567 356,199 357.33502,201.66705 358.66767,204.33233 360,207 364.0016,206.999 368.001,206.999 372,207 375.3335,205.33275 378.66767,203.66567 382,202 385.33313,195.33473 388.66767,188.66567 392,182 396.33355,177.33317 401.33433,172.66567 406,168 410.00014,165.99943 414.66767,163.999 419,162 420.00072,160.3328 421.001,158.66567 422,157 421.3348,150.67014 420.66767,144.33233 420,138 418.66785,136.66585 416.66767,133.999 415,132 411.66783,130.66573 408.33433,129.33233 405,128 403.33407,127.66561 401.66767,127.33233 400,127 397.3331,122.66367 394.66767,118.33233 392,114 390.00113,111.3325 388.001,108.66567 386,106 383.00118,108.33219 380.001,110.66567 377,113 376.00063,114.99974 375.001,116.999 374,119 373.0004,123.33493 372.66767,127.66567 372,132 370.66732,134.99978 369.33433,137.999 368,141 362.66552,142.66634 357.33433,144.33233 352,146 351.00078,143.33174 348.66767,140.66567 347,138 345.3345,139.9988 343.66767,141.999 342,144 342.001,145.66657 342.001,147.33233 342,149 337.66507,149.9996 333.33433,150.999 329,152 330.33469,144.66369 331.66767,137.33233 333,130 333.001,128.33259 333.001,126.66567 333,125 334.9998,124.999 337.001,124.33233 339,124 340.00043,121.66699 341.001,119.33233 342,117 340.00203,115.66636 338.001,114.33233 336,113 335.66763,107.66505 335.33433,102.33233 335,97 336.3341,89.000401 337.66767,80.999 339,73 338.33443,65.999993 337.66767,58.999 337,52 332.66822,46.99964 327.66767,41.332333 323,36 318.00107,34.665684 312.33433,33.332333 307,32 303.33385,32.665755 299.66767,33.332333 296,34 Z" />
  <path
     style="fill:none;stroke:#000000;stroke-width:1px;stroke-linecap:butt;stroke-linejoin:miter;stroke-opacity:1"
     d="M 280.33361,262.16677 C 279.66667,263.66667 285.33333,269.33333 291.83348,274.33342 298.33363,279.33351 305.66697,283.66685 310.50002,287.66655 315.33307,291.66625 317.6665,295.33307 321.91898,301.06429 326.17145,306.79551 332.66657,314.99987 334.0002,322.9994 335.33383,330.99893 331.66722,338.99879 327.00025,346.99943 322.33328,355.00007 316.66747,362.99886 311.00057,368.99931 305.33367,374.99976 299.66781,378.99919 294.334,382.33288 289.00019,385.66656 284.0012,388.3327 280.33415,389.66635 276.66711,391 273.66767,391 271.16723,391 268.66679,391 266.33433,391 266.33437,392.00046 266.33442,393.00093 268.66675,395.00007 272.5003,396.66677 276.33386,398.33346 281.66738,399.66684 287.00059,399.6667 292.33381,399.66655 297.66785,398.33304 303.50041,394.66669 309.33297,391.00035 315.66769,384.99903 321.50047,377.99959 327.33324,371.00014 332.66744,362.99884 337.00055,356.66586 341.33366,350.33287 344.66748,345.66553 350.49937,347.99827 356.33125,350.331 364.66662,359.66661 375.0022,370.66892 385.33778,381.67124 397.66665,394.33332 406.33342,402.50006 415.00018,410.6668 420.00017,414.33346 426.33409,416.00698 432.66802,417.6805 441.00104,417.33329 449.66715,416.33332 458.33326,415.33335 467.66781,413.66646 474.66756,411.66641 481.6673,409.66635 486.33453,407.33273 488.66727,404.9995 491,402.66627 491,400.33233 482.83708,395.66777 474.67415,391.00321 458.33381,384.00021 444.16692,377.33344 430.00002,370.66668 418.00037,364.33353 406.01661,357.40566 394.03286,350.4778 382.66693,343.3335 374.30028,338.40016 365.93362,333.46681 360.33373,330.66687 359.66723,323.66574 359.00072,316.66462 363.00043,305.33213 366.33356,294.49935 369.66669,283.66658 372.33364,273.33215 374.16686,265.16585 376.00008,256.99954 377.00019,250.99886 375.00063,245.99986 373.00107,241.00086 368.00012,237.0001 364.13949,234.59188 360.27887,232.18366 356.33397,231.00019 348.77278,233.02619 341.21158,235.05218 329.66788,239.99948 322.83437,243.33271 316.00087,246.66594 314.00108,248.33243 315.00192,249.83334 316.00276,251.33425 320.0006,252.66687 325.16709,252.00005 330.33359,251.33323 336.66788,248.66616 341.00099,246.83292 345.3341,244.99967 347.66788,243.99948 350.16701,243.66638 352.66615,243.33327 355.33419,243.66677 356.50052,245.99882 357.66686,248.33086 357.33342,252.6656 357.66675,256.99964 358.00008,261.33367 358.99983,265.66594 358.66657,271.49967 358.33332,277.3334 356.66693,284.6655 354.16681,291.9994 351.66668,299.33329 348.33388,306.66547 343.9998,307.1655 339.66571,307.66554 334.33325,301.33324 330.16658,295.99988 325.9999,290.66652 322.99985,286.33312 317.33359,281.5001 311.66732,276.66709 303.33358,271.33349 295.66696,267.33348 288.00033,263.33346 281.00054,260.66687 280.33361,262.16677 Z"
     id="path45"
     inkscape:connector-curvature="0"
     inkscape:path-effect="#path-effect47"
     inkscape:original-d="M 274,258 C 279.66767,263.66567 285.33433,269.33233 291,275 298.33433,279.33233 305.66767,283.66567 313,288 315.33424,291.66551 317.66767,295.33233 320,299 326.33478,306.66621 332.66767,314.999 339,323 335.33427,330.99913 331.66767,338.999 328,347 322.33348,355.00021 316.66767,362.999 311,371 305.33353,374.99957 299.66767,378.999 294,383 289,385.6662 284.001,388.33233 279,391 276.66711,390.999 273.66767,390.999 271,391 268.66679,390.999 266.33433,390.999 264,391 266.33533,392.99986 268.66767,394.999 271,397 276.33415,398.33229 281.66767,399.66567 287,401 292.33363,399.66584 297.66767,398.33233 303,397 309.33294,391.00032 315.66767,384.999 322,379 327.33347,371.0003 332.66767,362.999 338,355 341.33385,350.33301 344.66767,345.66567 348,341 356.33231,350.33006 364.66767,359.66567 373,369 385.00108,381.99908 397.66767,394.33233 410,407 415.00101,410.66567 420.001,414.33233 425,418 432.6674,417.66568 441.001,417.33233 449,417 458.33312,415.33255 467.66767,413.66567 477,412 481.6671,409.66595 486.33433,407.33233 491,405 491.001,402.66627 491.001,400.33233 491,398 474.67467,391.002 458.33433,383.999 442,377 430.00065,370.66548 418.001,364.33233 406,358 394.33397,349.99875 382.66767,343.33233 371,336 366.00089,333.33227 360.33433,330.66567 355,328 359.0013,316.66482 363.001,305.33233 367,294 369.66738,283.66676 372.33433,273.33233 375,263 376.00089,256.99968 377.001,250.999 378,245 373.00195,240.99976 368.001,236.999 363,233 360.33427,231.99898 356.33433,230.999 353,230 341.33209,235.33336 329.66767,239.999 318,245 316.00079,246.66584 314.001,248.33233 312,250 316.00316,251.33305 320.001,252.66567 324,254 330.33338,251.33273 336.66767,248.66567 343,246 345.33389,244.99919 347.66767,243.999 350,243 352.66629,243.33216 355.33433,243.66567 358,244 357.66777,248.33093 357.33433,252.66567 357,257 358.00125,261.3334 359.001,265.66567 360,270 358.33405,277.33357 356.66767,284.66567 355,292 351.66714,299.3335 348.33433,306.66567 345,314 339.66679,307.66463 334.33433,301.33233 329,295 326.00104,290.66573 323.001,286.33233 320,282 311.66807,276.66592 303.33433,271.33233 295,266 288.00079,263.33225 281.001,260.66567 274,258 Z" />
  <path
     d="M 151.66959,430.43497 C 148.03784,422.31272 147.91217,420.16416 149.9623,401.24538 152.99733,373.23786 153.79487,348.8158 153.20483,301.95323 152.50344,246.24667 151.67076,238.4 146.46063,238.4 144.04342,238.4 140.39055,243.12311 124.03193,267.4 101.95093,300.16918 90.659283,314.86032 66.386789,342.4 51.827494,358.91904 44.516126,366.41677 44.516126,364.82815 44.516126,364.29039 48.802674,358.23656 54.041788,351.3752 79.371382,318.20252 90.229943,303.45605 101.5181,286.9 108.26807,277 119.97592,260.575 127.53555,250.4 153.39859,215.58922 157.52496,207.39878 149.19874,207.40076 143.31531,207.40215 112.2721,223.6147 68.022694,249.79557 51.787053,259.40165 44.117705,263.4 41.927682,263.4 35.747682,263.4 32.625538,256.47354 32.560018,242.61788 32.534333,237.18607 31.955901,231.99496 31.165567,230.10342 30.028739,227.38261 30.032489,226.12523 31.189267,222.15804 32.771376,216.73217 34.01806,215.85905 42.113719,214.50704 45.360043,213.96489 49.549651,213.19856 51.42396,212.80409 L 54.831794,212.08687 54.215763,217.28828 C 53.062204,227.02828 56.069731,229.65437 65.748469,227.35833 72.955825,225.64857 129.47348,205.2577 140.82174,200.27282 151.54189,195.56386 163.15076,188.02118 173.01613,179.35503 180.98423,172.35553 183.77004,170.93034 186.56252,172.42483 188.92462,173.68899 193.51613,180.2994 193.51613,182.43597 193.51613,184.24763 189.47753,188.16579 181.22778,194.35782 174.49755,199.40934 161.21311,213.23457 158.72787,217.77365 156.59532,221.66857 156.46042,241.00839 158.29102,280.4 158.96835,294.975 159.95866,324 160.49172,344.9 162.9385,440.83323 162.96284,429.44996 160.3025,433.39308 156.59827,438.88343 155.23893,438.41764 151.66959,430.43497 Z"
     id="path49"
     inkscape:connector-curvature="0" />
  <path
     d="M 151.57437,107.04655 C 147.72462,101.90215 142.08099,95.562543 139.03296,92.958533 129.80041,85.070922 124.01182,74.599358 127.62088,72.314095 129.48652,71.13277 136.02409,71.172489 142.62964,72.40528 153.63191,74.458635 167.43611,83.49692 170.98175,90.968797 175.75514,101.02798 169.96955,116.4 161.41016,116.4 158.99621,116.4 157.53173,115.00734 151.57437,107.04655 Z"
     id="path51"
     inkscape:connector-curvature="0" />
  <path
     d="M 197.97968,243.63576 C 195.55868,240.89836 193.98785,240.09478 190.22968,239.67118 186.08023,239.20348 185.51613,238.85496 185.51613,236.75905 185.51613,233.99409 189.07153,226.01387 191.02612,224.39171 192.02795,223.56026 193.32417,223.76288 196.18992,225.1989 198.29433,226.25342 201.25363,227.41363 202.76613,227.77715 204.91296,228.29314 205.51613,229.0227 205.51613,231.10345 205.51613,234.00123 202.5921,245.53707 201.61743,246.48452 201.28671,246.80601 199.64972,245.52407 197.97968,243.63576 Z"
     id="path53"
     inkscape:connector-curvature="0" />
  <path
     d="M 212.51613,314.95931 C 210.04113,313.66815 205.49563,309.96776 202.41503,306.73622 196.28835,300.30936 177.51613,272.63012 177.51613,270.02333 177.51613,264.31124 202.9577,276.94827 210.7179,286.51491 216.77689,293.98433 222.51613,307.38194 222.51613,314.05655 222.51613,317.04857 222.22707,317.39511 219.76613,317.35344 218.25363,317.32783 214.99113,316.25047 212.51613,314.95931 Z"
     id="path55"
     inkscape:connector-curvature="0" />
  <path
     d="M 205.51613,423.50595 C 205.51613,423.01422 209.12409,419.35936 213.53383,415.38404 223.16215,406.70424 231.39154,394.83761 239.52865,377.9 253.91589,347.95256 258.98939,326.9125 261.49559,286.80203 264.15568,244.22844 257.76548,216.24852 239.15811,188.99592 232.4339,179.14756 230.8358,175.61528 231.87689,172.90224 232.74099,170.65045 235.53076,171.06723 242.32733,174.46352 249.6791,178.13724 255.43843,184.34354 260.13828,193.6567 266.46063,206.18501 266.82768,209.58795 266.09683,248.9 264.50806,334.35891 260.56584,360.70762 244.92598,390.4 237.57543,404.35506 229.1552,413.54807 217.04362,420.84128 211.53075,424.16096 205.51613,425.55128 205.51613,423.50595 Z"
     id="path57"
     inkscape:connector-curvature="0" />
  <path
     d="M 300.27327,248.18702 C 299.80474,246.79827 300.37995,244.49641 305.96756,225.4 312.88172,201.76994 315.31018,180.83714 311.66031,176.32974 309.94962,174.21712 309.55568,174.14098 306.6225,175.35594 304.84907,176.09052 300.9119,179.78063 297.72831,183.69202 291.02721,191.92506 289.6817,192.90936 286.29154,192.05848 280.26976,190.54711 266.7437,174.57648 268.22223,170.72349 269.21584,168.13419 274.53192,166.31625 292.42629,162.44646 312.57668,158.08878 316.09524,156.68361 316.91318,152.66738 317.9407,147.62206 319.3778,134.05125 320.06543,122.9 321.17422,104.91883 317.49483,67.37207 313.87682,59.747688 311.77294,55.314081 309.12882,54.298503 303.05965,55.592931 298.91719,56.47643 297.92637,56.355982 295.64708,54.69184 292.13848,52.130151 289.15296,45.983101 289.92446,42.909221 290.25842,41.578614 292.166,39.24336 294.16354,37.719766 297.1345,35.453701 299.05339,34.878514 304.70826,34.558986 313.54027,34.059932 319.27735,36.161124 325.83776,42.297623 336.09557,51.892603 338.29185,61.319831 335.87692,85.389445 334.13025,102.79857 334.48995,108.99559 337.54798,114.17855 340.06823,118.45007 339.53305,121.61563 336.02002,123.21627 332.65461,124.74966 331.60424,127.8514 330.84944,138.48501 330.12615,148.67477 330.89199,150.4 336.13857,150.4 339.63616,150.4 343.51613,147.57186 343.51613,145.02244 343.51613,141.86824 346.1618,141.24742 350.33466,143.42243 353.88598,145.27349 354.86625,145.38357 358.68716,144.36046 368.39856,141.76008 371.0648,138.4019 374.02393,125.04348 375.27668,119.38815 376.58731,116.24959 378.7018,113.84132 384.41897,107.32981 386.66204,108.19364 394.63506,119.97737 397.97464,124.9131 400.08589,126.93269 403.51613,128.47284 416.80967,134.44152 418.16607,135.91455 419.61124,145.95193 421.22479,157.15882 420.57785,158.74086 412.21323,164.04306 401.87008,170.59942 395.28391,177.38023 387.08039,189.91866 383.11534,195.97893 378.55381,201.80094 376.94367,202.85646 372.8904,205.51356 364.28217,206.13195 361.02807,203.99979 358.74094,202.5012 358.51613,201.72658 358.51613,195.34469 358.51613,189.87563 357.82291,186.53791 355.3613,180.15474 352.08375,171.65578 351.19116,165.39736 353.15803,164.70649 353.78608,164.48589 356.99623,166.80168 360.29169,169.8527 368.47824,177.432 369.7873,177.25912 374.04869,168.03591 375.92002,163.98565 378.02122,158.54022 378.71803,155.93493 379.93581,151.38179 379.88928,151.12058 377.51865,149.20096 373.85786,146.23663 367.52576,147.47671 352.06692,154.18544 341.43074,158.80126 338.07324,160.78466 333.91992,164.90556 327.36366,171.41063 325.89656,175.34179 317.87449,207.9 310.93808,236.052 308.06966,245.71657 306.20978,247.20193 303.96979,248.99086 300.72605,249.52912 300.27327,248.18702 Z"
     id="path59"
     inkscape:connector-curvature="0" />
  <path
     d="M 428.2506,415.37792 C 418.39789,412.88403 409.44481,405.26279 380.01613,374.31872 369.56613,363.33061 359.02675,352.76804 356.59529,350.84635 347.09321,343.33641 344.29738,344.59519 332.3022,361.78392 321.6237,377.0859 307.44972,391.8782 300.01613,395.47841 295.8486,397.49682 293.51767,397.89714 286.01613,397.88284 278.40697,397.86833 276.3207,397.49017 272.51613,395.43584 L 268.01613,393.00601 274.70821,391.75288 C 278.38886,391.06365 283.33886,389.52623 285.70821,388.33638 294.40191,383.97056 306.40539,375.28692 311.79781,369.46246 318.62041,362.09324 327.36816,349.07769 331.65417,339.9187 338.03842,326.27587 335.80513,317.34231 321.27493,298.4 315.26776,290.56874 312.12218,287.572 303.36736,281.33978 280.30322,264.92128 275.66623,258.89214 292.19522,266.81345 308.10574,274.43836 318.77902,283.10225 330.88965,298.22311 342.98874,313.32957 348.28414,311.65437 355.7112,290.37084 358.94899,281.09239 359.01315,280.57919 358.86982,265.10745 358.63046,239.27026 358.59451,239.24618 334.01613,248.45626 327.53779,250.88384 318.30616,251.58501 316.50438,249.78634 315.14522,248.42952 318.86908,246.08089 330.45957,240.98485 349.56804,232.58335 357.17933,231.53219 364.64095,236.26421 373.22556,241.7084 376.15165,247.94908 374.56946,257.43943 373.0091,266.79885 369.8174,279.2535 364.45707,296.9 358.43367,316.7294 357.56122,325.28512 361.08061,330.01127 363.22625,332.89263 394.44318,352.22332 417.01613,364.64864 424.16613,368.58437 441.04113,376.91401 454.51613,383.15896 489.33828,399.29718 492.60049,401.74377 485.26613,406.2207 475.11861,412.41479 439.28277,418.17036 428.2506,415.37792 Z"
     id="path61"
     inkscape:connector-curvature="0" />
</svg>
