<?xml version="1.0" encoding="UTF-8" standalone="no"?>
<!-- Created with Inkscape (http://www.inkscape.org/) -->

<svg
   xmlns:dc="http://purl.org/dc/elements/1.1/"
   xmlns:cc="http://creativecommons.org/ns#"
   xmlns:rdf="http://www.w3.org/1999/02/22-rdf-syntax-ns#"
   xmlns:svg="http://www.w3.org/2000/svg"
   xmlns="http://www.w3.org/2000/svg"
   xmlns:sodipodi="http://sodipodi.sourceforge.net/DTD/sodipodi-0.dtd"
   xmlns:inkscape="http://www.inkscape.org/namespaces/inkscape"
   width="512"
   height="512"
   viewBox="0 0 512 512"
   version="1.1"
   id="svg8"
   inkscape:version="0.92.4 (5da689c313, 2019-01-14)"
   sodipodi:docname="U+8CF4.svg">
  <defs
     id="defs2">
    <inkscape:path-effect
       effect="bspline"
       id="path-effect55"
       is_visible="true"
       weight="33.333333"
       steps="2"
       helper_size="0"
       apply_no_weight="true"
       apply_with_weight="true"
       only_selected="false" />
    <inkscape:path-effect
       effect="bspline"
       id="path-effect51"
       is_visible="true"
       weight="33.333333"
       steps="2"
       helper_size="0"
       apply_no_weight="true"
       apply_with_weight="true"
       only_selected="false" />
    <inkscape:path-effect
       effect="bspline"
       id="path-effect47"
       is_visible="true"
       weight="33.333333"
       steps="2"
       helper_size="0"
       apply_no_weight="true"
       apply_with_weight="true"
       only_selected="false" />
    <inkscape:path-effect
       effect="bspline"
       id="path-effect43"
       is_visible="true"
       weight="33.333333"
       steps="2"
       helper_size="0"
       apply_no_weight="true"
       apply_with_weight="true"
       only_selected="false" />
    <inkscape:path-effect
       effect="bspline"
       id="path-effect39"
       is_visible="true"
       weight="33.333333"
       steps="2"
       helper_size="0"
       apply_no_weight="true"
       apply_with_weight="true"
       only_selected="false" />
    <inkscape:path-effect
       effect="bspline"
       id="path-effect35"
       is_visible="true"
       weight="33.333333"
       steps="2"
       helper_size="0"
       apply_no_weight="true"
       apply_with_weight="true"
       only_selected="false" />
    <inkscape:path-effect
       effect="bspline"
       id="path-effect27"
       is_visible="true"
       weight="33.333333"
       steps="2"
       helper_size="0"
       apply_no_weight="true"
       apply_with_weight="true"
       only_selected="false" />
    <inkscape:path-effect
       effect="bspline"
       id="path-effect23"
       is_visible="true"
       weight="33.333333"
       steps="2"
       helper_size="0"
       apply_no_weight="true"
       apply_with_weight="true"
       only_selected="false" />
  </defs>
  <sodipodi:namedview
     id="base"
     pagecolor="#ffffff"
     bordercolor="#666666"
     borderopacity="1.0"
     inkscape:pageopacity="0.0"
     inkscape:pageshadow="2"
     inkscape:zoom="4"
     inkscape:cx="271.57366"
     inkscape:cy="480.37581"
     inkscape:document-units="px"
     inkscape:current-layer="svg8"
     showgrid="false"
     units="px"
     inkscape:window-width="1920"
     inkscape:window-height="1001"
     inkscape:window-x="-9"
     inkscape:window-y="-9"
     inkscape:window-maximized="1" />
  <metadata
     id="metadata5">
    <rdf:RDF>
      <cc:Work
         rdf:about="">
        <dc:format>image/svg+xml</dc:format>
        <dc:type
           rdf:resource="http://purl.org/dc/dcmitype/StillImage" />
        <dc:title />
      </cc:Work>
    </rdf:RDF>
  </metadata>
  <g
     inkscape:label="圖層 1"
     inkscape:groupmode="layer"
     id="layer1"
     transform="translate(0,-161.53331)" />
  <path
     d="M 177.1,439.48772 C 174.58649,438.56971 174.34916,438.03901 174.34023,433.31667 174.33382,429.92653 173.47421,426.31068 171.84023,422.8007 168.83591,416.34708 168.72005,413.12109 171.35,409.15 173.11653,406.48264 173.33804,404.43138 173.34781,390.65 173.35488,380.66612 174.24125,367.49861 175.83847,353.65 178.77525,328.18669 179.07171,317.14092 176.84132,316.28504 173.38711,314.95954 168.97537,318.03997 144.85,338.62256 124.07765,356.3445 120.40365,359.05889 111.41585,363.32397 102.2714,367.66338 95.601083,368.41573 85.415285,366.25656 76.020862,364.26515 74.788511,363.12617 80.472796,361.68854 88.829375,359.57505 99.878745,355.43816 105.15425,352.4478 123.32952,342.14534 147.64584,318.3296 162.12484,296.65 166.443,290.18436 166.94407,285.26629 163.72512,280.94289 158.96155,274.54488 153.05719,275.62316 122.85,288.40767 100.48145,297.87465 95.707481,298.57744 86.053101,293.8246 78.40945,290.06164 73.138818,285.02724 75.367564,283.61798 76.182904,283.10244 79.804853,282.67373 83.416341,282.66531 87.027828,282.65689 92.652828,282.15675 95.916341,281.55389 103.95805,280.06837 129.4006,270.91313 131.71345,268.67267 133.37023,267.06774 133.43916,266.43959 132.33496,263.00877 131.65189,260.88645 127.59338,252.85 123.31605,245.15 119.03872,237.45 113.3117,226.425 110.58933,220.65 107.82143,214.77839 104.23389,208.8276 102.45062,207.15 97.469476,202.464 92.35,195.54868 92.35,193.5062 92.35,190.96729 96.60254,191.0597 104.59602,193.7723 115.2051,197.37251 120.06158,200.49961 123.68845,206.06596 127.9877,212.66424 128.48917,214.0867 133.41284,233.65 135.69682,242.725 138.30454,253.075 139.20777,256.65 L 140.85,263.15 144.95828,263.45057 C 151.22426,263.90901 170.49002,259.17658 172.5196,256.68043 175.06336,253.5519 176.35808,245.67717 176.27315,233.85078 176.18246,221.22373 174.80526,215.68657 171.32238,213.94584 169.96257,213.26621 165.39181,212.73164 161.16514,212.7579 155.91992,212.7905 152.34308,212.26602 149.89809,211.1058 145.4655,209.00239 137.35,200.14635 137.35,197.41268 137.35,195.53953 137.77804,195.4401 143.20061,196.05359 149.96423,196.81881 171.15813,195.05413 172.93722,193.57761 175.01097,191.85655 175.50398,185.91346 174.77094,171.47255 174.25668,161.34146 173.66246,157.10532 172.60766,156.05052 170.74456,154.18741 167.03204,154.82395 153.35,159.35239 141.40701,163.30524 138.22085,163.28928 129.93445,159.23512 123.45464,156.06484 111.85444,147.40693 110.95855,145.07229 110.03103,142.6552 113.09336,139.65 116.48393,139.65 118.03711,139.65 122.80487,140.82614 127.07895,142.26365 134.06429,144.61305 135.91162,144.82727 145.35,144.38243 165.03259,143.45478 171.72428,138.40173 174.30116,122.52077 175.66955,114.08755 175.64349,73.116945 174.26565,66.692302 173.61707,63.668089 171.3788,59.003678 168.69605,55.085625 166.22916,51.48283 164.12961,47.323444 164.0304,45.842544 163.8577,43.26494 164.07942,43.136913 169.22423,42.843432 179.01369,42.285002 189.01232,49.111046 193.60156,59.485781 196.82586,66.774846 196.89792,73.67691 193.88518,86.65 189.82884,104.11689 186.41212,122.65797 186.37935,127.38095 186.33986,133.07303 188.37435,133.47556 199.85,130.04621 210.74688,126.78981 219.46971,126.34672 222.04506,128.91876 223.38426,130.25624 223.56405,131.10966 222.78241,132.41876 221.14083,135.16813 211.69859,139.38583 200.85,142.21564 195.35,143.6503 190.06644,145.58099 189.10875,146.50608 186.56746,148.96086 185.40596,157.13786 185.11103,174.65 L 184.85,190.15 188.98097,190.45168 C 193.77791,190.802 207.57789,187.49324 214.09343,184.43057 216.56701,183.26785 221.90721,179.24156 225.96054,175.48327 230.01387,171.72497 233.79913,168.65 234.37223,168.65 236.54934,168.65 242.75401,171.77623 247.51885,175.27395 253.04852,179.3331 259.35,187.91902 259.35,191.39417 259.35,192.89938 256.98305,195.93839 252.32988,200.40752 245.93812,206.54648 244.98681,208.00034 241.70183,216.65 237.8725,226.733 233.35,241.99861 233.35,244.84145 233.35,245.77948 234.475,247.76085 235.85,249.2445 237.225,250.72815 238.35,252.09375 238.35,252.27918 238.35,253.09972 228.30813,257.55288 222.85,259.15278 219.55,260.12009 212.28151,261.2157 206.69781,261.58747 197.71929,262.18528 196.12787,262.58205 192.93215,265.01955 190.94474,266.53541 187.94785,270.10989 186.2724,272.96283 183.40507,277.84527 183.25368,278.61998 183.69536,286.15 184.16137,294.09477 186.0354,300.35744 188.54222,302.34729 189.2615,302.91823 192.325,304.17582 195.35,305.14193 203.75753,307.82709 215.94415,314.45735 221.16191,319.18517 225.68936,323.2875 225.84546,323.61666 225.71751,328.79153 225.51548,336.96286 223.691,342.65 221.27162,342.65 217.30474,342.65 211.13235,338.41616 200.82033,328.62182 195.04595,323.13732 189.46277,318.65 188.41328,318.65 184.24713,318.65 183.83259,323.37018 184.10996,367.65 184.25294,390.475 184.88572,415.54422 185.51613,423.35937 186.43557,434.75769 186.40938,437.87353 185.38372,439.10937 183.94405,440.84406 181.16161,440.97115 177.1,439.48772 Z M 190.89705,258.56789 C 196.13068,253.16325 201.69008,249.9816 208.37268,248.56658 216.00533,246.95039 219.2957,245.03634 220.80666,241.33358 221.93011,238.58047 225.39534,209.32671 225.36181,202.87856 225.35433,201.44067 224.44394,200.1943 222.88097,199.48215 220.5375,198.4144 215.58531,199.06481 194.17902,203.25177 190.36957,203.99688 186.6925,207.77626 185.39783,212.27729 184.16699,216.55642 182.67895,258.45888 183.66644,261.03226 184.65983,263.62097 186.66597,262.93723 190.89705,258.56789 Z"
     id="path57"
     inkscape:connector-curvature="0" />
  <path
     d="M 294.60823,163.25532 C 303.03679,150.90748 312.31503,126.75211 313.2905,114.61707 313.8283,107.92676 313.67475,107.23845 310.13868,100.48829 308.01997,96.443803 305.34315,92.815312 303.9138,92.050351 298.42726,89.11404 293.71387,80.189677 298.35,81.515795 326.29837,89.510143 330.88642,91.927777 333.57621,100.07792 336.70163,109.54803 343.91501,111.97804 363.64889,110.20866 376.22461,109.0811 382.99912,107.00754 387.20485,102.99861 389.73346,100.58831 390.84702,100.16343 393.20485,100.70926 400.53077,102.40522 419.62179,114.87493 419.57202,117.93154 419.55627,118.89872 416.278,122.03029 412.0734,125.09461 402.73408,131.90112 394.07152,140.41281 386.42787,150.29349 379.73381,158.94666 374.36897,163.15 370.01876,163.15 365.77165,163.15 362.6,160.61409 362.6,157.2183 362.6,154.93395 363.12863,154.29428 365.39018,153.84196 372.90781,152.33844 390.47208,128.34133 389.43199,120.99495 389.11879,118.7827 388.70389,118.65362 382.1,118.71392 378.11415,118.75032 372.08585,119.67179 368.1,120.85393 356.31509,124.34914 356.17359,124.35629 352.47835,121.64378 347.21828,117.78261 341.40243,115.19602 337.92672,115.17196 332.86887,115.13696 329.1993,119.14863 323.60877,130.82473 317.65602,143.25731 311.45325,154.15876 307.32327,159.44669 304.69212,162.81556 294.44135,169.15 291.6208,169.15 291.05087,169.15 292.39521,166.4974 294.60823,163.25532 Z"
     id="path59"
     inkscape:connector-curvature="0" />
  <path
     d="M 423.59814,443.70274 C 421.32839,440.65495 419.01364,438.72778 417.00633,438.21466 415.23374,437.76154 411.79768,435.17685 408.95986,432.16192 399.48233,422.09286 376.46714,387.60368 373.41732,378.9 371.69038,373.97159 371.03896,368.4 372.18967,368.4 372.514,368.4 375.5515,370.87105 378.93967,373.89122 382.32785,376.91139 387.8,380.81217 391.1,382.55961 394.4,384.30706 399.34399,387.23601 402.08665,389.06839 413.43414,396.64971 415.56118,391.70542 410.97823,368.4 407.45342,350.47545 403.80756,344.27997 395.91272,342.79889 383.90503,340.54623 330.04544,352.92071 301.43247,364.50615 276.66656,374.53391 274.22288,375.33296 268.21808,375.36683 262.80399,375.39736 262.08092,375.12937 259.12722,371.99754 254.37851,366.96244 250.48675,350.82409 253.5628,348.92299 254.09234,348.59572 256.45484,349.55056 258.8128,351.04486 263.90758,354.27356 271.3819,355.19595 278.31121,353.45113 280.91918,352.79444 285.53856,352.27823 288.57649,352.304 301.41178,352.41288 302.44219,350.73704 297.25086,338.19613 291.62046,324.59452 291.27214,321.04427 291.4641,279.21375 291.57137,255.83829 291.23771,239.74561 290.58544,236.83504 290.00706,234.25419 287.78366,228.03051 285.64454,223.00465 283.50543,217.97879 281.43724,212.5997 281.04857,211.05112 L 280.3419,208.23552 285.27701,210.73633 C 287.99131,212.11177 293.65612,214.23783 297.86547,215.46091 302.60179,216.83711 306.39186,218.6175 307.80941,220.13209 309.98701,222.45877 310.09102,223.25335 309.91788,236.23975 309.81771,243.75289 309.14271,262.5 308.41788,277.9 306.5008,318.63077 306.64021,336.96073 308.90168,341.51144 312.18682,348.12206 316.48845,348.68451 335.1,344.93696 364.60321,338.99631 408.89066,329.31481 410.49827,328.45445 414.78022,326.16281 414.83074,325.7535 415.16391,290.6508 415.52926,252.15838 416.91437,225.6066 419.19638,213.35075 421.38129,201.61633 421.9487,195.92546 421.22231,193.0313 420.29595,189.3404 415.72985,184.4 413.24493,184.4 408.74769,184.4 382.37468,191.68358 362.4838,198.41899 340.3655,205.90864 337.92438,206.28216 326.62649,203.90557 314.98963,201.45768 310.2035,197.87791 312.59446,193.41035 315.06133,188.80097 321.67094,187.06989 357.1,181.75418 377.15354,178.74538 385.06788,177.99301 397.1,177.95161 411.95737,177.90049 412.16441,177.93051 418.87383,181.10861 423.03308,183.07876 427.73402,186.40359 431.05299,189.72256 438.00263,196.6722 438.65801,199.68433 435.62692,210.74453 431.73005,224.96387 428.66433,248.4964 427.59468,272.4 427.04092,284.775 425.93826,307.275 425.14432,322.4 424.35038,337.525 423.75674,358.9 423.82511,369.9 423.92088,385.30798 423.54322,392.01204 422.18024,399.09874 420.04737,410.18848 420.18437,410.75539 429.22196,428.23766 436.00374,441.35632 436.68104,444.1117 433.77126,446.74501 430.47033,449.73231 427.40604,448.81594 423.59814,443.70274 Z"
     id="path61"
     inkscape:connector-curvature="0" />
  <path
     d="M 332.93399,247.11457 C 328.58333,244.67498 324.86726,238.20498 326.90944,236.62529 328.4858,235.40593 344.03107,230.70577 349.1,229.91591 351.3,229.5731 357.44975,228.35415 362.76612,227.20713 373.37312,224.91865 375.91258,225.19926 375.42014,228.6054 375.17239,230.31902 373.74289,231.28608 369.09846,232.88204 365.79762,234.01631 360.17262,237.01705 356.59846,239.55036 344.58705,248.06387 338.2432,250.09164 332.93399,247.11457 Z"
     id="path63"
     inkscape:connector-curvature="0" />
  <path
     d="M 323.23486,309.32742 C 319.847,306.66253 319.88762,303.44177 323.35,300.19711 330.23239,293.7475 342.10268,290.64317 353.14001,292.40639 363.82903,294.11397 369.6,298.15211 369.6,303.924 369.6,308.28743 356.79784,311.29867 337.98486,311.36031 327.20733,311.39562 325.57881,311.17117 323.23486,309.32742 Z"
     id="path65"
     inkscape:connector-curvature="0" />
  <path
     d=""
     id="path67"
     inkscape:connector-curvature="0" />
  <path
     d="M 279.20194,436.56495 C 278.87829,436.04127 282.7928,431.40243 287.90086,426.2564 301.2596,412.79837 311.0692,399.68183 316.66952,387.78946 319.28819,382.22867 322.05489,377.43942 322.81774,377.14669 326.3231,375.80155 333.60774,381.74249 337.45531,389.08426 338.86572,391.77556 338.96548,403.84857 337.59841,406.40297 336.37322,408.69226 322.30031,418.19424 308.97386,425.73017 295.2891,433.46871 280.59365,438.81677 279.20194,436.56495 Z"
     id="path69"
     inkscape:connector-curvature="0" />
</svg>
