<?xml version="1.0" encoding="UTF-8" standalone="no"?>
<!-- Created with Inkscape (http://www.inkscape.org/) -->

<svg
   xmlns:osb="http://www.openswatchbook.org/uri/2009/osb"
   xmlns:dc="http://purl.org/dc/elements/1.1/"
   xmlns:cc="http://creativecommons.org/ns#"
   xmlns:rdf="http://www.w3.org/1999/02/22-rdf-syntax-ns#"
   xmlns:svg="http://www.w3.org/2000/svg"
   xmlns="http://www.w3.org/2000/svg"
   xmlns:sodipodi="http://sodipodi.sourceforge.net/DTD/sodipodi-0.dtd"
   xmlns:inkscape="http://www.inkscape.org/namespaces/inkscape"
   width="512"
   height="512"
   viewBox="0 0 512 512"
   version="1.1"
   id="svg8"
   inkscape:version="0.92.4 (5da689c313, 2019-01-14)"
   sodipodi:docname="U+8EAB.svg">
  <defs
     id="defs2">
    <linearGradient
       id="linearGradient10377"
       osb:paint="solid">
      <stop
         style="stop-color:#000000;stop-opacity:1;"
         offset="0"
         id="stop10375" />
    </linearGradient>
    <inkscape:path-effect
       effect="bspline"
       id="path-effect31"
       is_visible="true"
       weight="33.333333"
       steps="2"
       helper_size="0"
       apply_no_weight="true"
       apply_with_weight="true"
       only_selected="false" />
    <inkscape:path-effect
       effect="bspline"
       id="path-effect27"
       is_visible="true"
       weight="33.333333"
       steps="2"
       helper_size="0"
       apply_no_weight="true"
       apply_with_weight="true"
       only_selected="false" />
    <inkscape:path-effect
       effect="bspline"
       id="path-effect23"
       is_visible="true"
       weight="33.333333"
       steps="2"
       helper_size="0"
       apply_no_weight="true"
       apply_with_weight="true"
       only_selected="false" />
  </defs>
  <sodipodi:namedview
     id="base"
     pagecolor="#ffffff"
     bordercolor="#666666"
     borderopacity="1.0"
     inkscape:pageopacity="0.0"
     inkscape:pageshadow="2"
     inkscape:zoom="1.4283557"
     inkscape:cx="28.583998"
     inkscape:cy="249.60626"
     inkscape:document-units="px"
     inkscape:current-layer="svg8"
     showgrid="false"
     units="px"
     inkscape:window-width="1920"
     inkscape:window-height="1001"
     inkscape:window-x="-9"
     inkscape:window-y="-9"
     inkscape:window-maximized="1" />
  <metadata
     id="metadata5">
    <rdf:RDF>
      <cc:Work
         rdf:about="">
        <dc:format>image/svg+xml</dc:format>
        <dc:type
           rdf:resource="http://purl.org/dc/dcmitype/StillImage" />
        <dc:title />
      </cc:Work>
    </rdf:RDF>
  </metadata>
  <g
     inkscape:label="圖層 1"
     inkscape:groupmode="layer"
     id="layer1"
     transform="translate(0,-161.53331)" />
  <path
     style="fill:none;stroke:none;stroke-width:1px;stroke-linecap:butt;stroke-linejoin:round;stroke-opacity:1;paint-order:fill markers stroke"
     d="M 233.82884,30.811634 C 233.9932,34.11184 237.29353,40.382467 239.27378,45.497876 241.25403,50.613284 241.91406,54.573446 240.26388,60.184561 238.6137,65.795676 234.65412,73.054913 230.5941,79.24525 226.53408,85.435587 222.1131,90.876796 217.88176,95.081865 213.65042,99.286933 209.90211,102.09817 206.60138,104.73872 203.30064,107.37926 200.66113,109.68884 198.35057,111.33937 196.04001,112.9899 194.06061,113.9796 190.49429,113.18714 186.92797,112.39468 181.51855,109.68997 177.39283,106.88447 173.2671,104.07898 170.29703,101.10891 167.65686,98.798748 165.01669,96.488584 162.70646,94.838419 161.05639,95.332906 159.40631,95.827393 158.41629,98.467441 159.40674,102.75963 160.3972,107.05182 163.36614,112.9897 166.99688,117.2805 170.62763,121.57131 174.91777,124.21139 178.46333,127.28205 182.00889,130.3527 184.48835,133.45203 185.80853,137.57709 187.12871,141.70215 187.12871,146.65247 187.74561,153.75495 188.36251,160.85743 189.76886,171.40509 190.26398,179.49107 190.7591,187.57705 190.4291,193.84713 190.75913,200.28344 191.08915,206.71975 192.07909,213.3193 192.72658,218.60101 193.37407,223.88271 193.72931,228.50073 194.71953,231.96668 195.70976,235.43264 197.35957,238.07234 198.51472,240.87753 199.66987,243.68273 200.32987,246.65273 197.68953,248.79835 195.04919,250.94396 189.11007,252.26377 183.33394,253.41901 177.5578,254.57425 171.94833,255.56416 166.50228,257.04938 161.05624,258.53461 155.77679,260.5144 151.15581,261.66973 146.53483,262.82507 142.57534,263.15503 139.43921,262.32975 136.30308,261.50448 133.99348,259.52482 132.01321,257.70957 130.03294,255.89433 128.38284,254.24422 126.23809,254.90376 124.09334,255.5633 121.45309,258.53359 119.47248,261.33927 117.49188,264.14495 116.17222,266.78428 116.17213,269.26049 116.17203,271.7367 117.49156,274.04588 119.47201,276.68648 121.45246,279.32709 124.09235,282.29697 127.72335,283.45203 131.35435,284.60709 135.97472,283.94704 141.08956,283.12205 146.2044,282.29707 151.81632,281.30673 160.23105,278.99677 168.64578,276.68682 179.86919,273.05572 191.58471,269.26055 203.30023,265.46538 215.51275,261.50456 227.55837,257.21432 239.60399,252.92408 251.48636,248.30316 260.3838,245.12333 269.28125,241.94349 274.58865,240.38249 280.03364,238.56746 285.47863,236.75244 290.76028,234.77182 293.89518,232.79148 297.03008,230.81113 298.0204,228.83048 298.02031,227.01625 298.02022,225.20203 297.02953,223.55087 294.55531,223.22074 292.08109,222.89062 288.11999,223.8809 281.51796,225.5314 274.91593,227.18191 265.67775,229.49146 256.93136,231.96683 248.18497,234.4422 239.93519,237.08212 233.82929,239.39239 227.7234,241.70266 223.76358,243.68257 220.95795,244.67297 218.15232,245.66337 216.50265,245.66337 215.34673,244.83753 214.19081,244.01168 213.53115,242.36252 213.5312,237.90793 213.53125,233.45334 214.19152,226.19034 215.01658,219.59009 215.84163,212.98984 216.83187,207.04837 218.31694,204.57369 219.802,202.09902 221.78258,203.08931 224.91758,204.24429 228.05257,205.39927 232.34386,206.71966 236.46924,207.04955 240.59461,207.37944 244.5556,206.71928 250.33011,204.4094 256.10463,202.09952 263.69757,198.13799 269.14286,195.4979 274.58815,192.85781 277.889,191.53747 280.03378,190.05228 282.17856,188.56708 283.16903,186.91631 282.50732,185.94727 281.84562,184.97823 278.87875,184.60737 276.56827,184.4423 274.25778,184.27723 272.27823,184.27723 270.46209,183.28658 268.64595,182.29593 266.99662,180.31673 264.85209,180.15136 262.70757,179.98598 260.06718,181.63623 256.27072,183.28693 252.47426,184.93762 247.52595,186.58706 242.77701,188.63631 238.02807,190.68557 233.99459,192.85745 230.19866,194.01288 226.40272,195.16832 223.10331,195.16832 220.78642,195.03507 218.46952,194.90183 216.50242,194.50841 215.34675,186.25325 214.19108,177.9981 213.53132,161.83402 212.87124,151.10816 212.21115,140.38229 211.55105,135.10145 210.891,131.30636 210.23094,127.51127 209.57077,125.20066 210.56092,121.73571 211.55107,118.27076 214.19209,113.64898 218.81197,109.6893 223.43185,105.72962 230.0342,102.42844 237.12922,99.12845 244.22425,95.828458 251.81639,92.527528 257.73984,91.587184 263.66329,90.64684 267.32733,91.868186 270.79207,94.837908 274.25682,97.807629 277.22756,102.42879 281.18871,104.57408 285.14985,106.71938 290.10007,106.38937 294.5551,104.57412 299.01013,102.75888 302.97138,99.457842 307.09624,96.32299 311.22109,93.188137 315.51269,90.21703 319.63751,88.732278 323.76232,87.247525 327.72377,87.247525 329.37362,89.061676 331.02348,90.875827 330.36324,94.507106 329.86806,101.10933 329.37287,107.71156 329.04294,117.2795 328.21783,128.00618 327.39272,138.73286 326.07273,150.61276 325.57762,160.67922 325.0825,170.74568 325.4125,178.99574 326.07254,184.27664 326.73258,189.55754 327.72256,191.86751 330.04334,193.47927 332.36411,195.09103 336.63437,196.15859 338.61421,193.18832 340.59406,190.21806 340.59406,183.28613 341.22961,175.05467 341.86516,166.82321 343.23448,156.55335 344.85548,147.75934 346.47649,138.96533 348.51515,130.8107 350.28076,124.52391 352.04637,118.23711 353.79578,112.9889 356.60082,108.03905 359.40585,103.08921 363.36721,98.137513 365.34697,93.847537 367.32673,89.557561 367.32673,85.926393 365.5121,82.627017 363.69748,79.327642 360.06612,76.356528 357.09573,73.716183 354.12534,71.075838 351.81518,68.765677 347.36023,67.610561 342.90529,66.455446 336.30463,66.455446 328.71329,67.280543 321.12196,68.105641 312.5424,69.755556 305.61138,71.405755 298.68036,73.055954 293.40054,74.705897 288.7796,75.86118 284.15866,77.016462 280.19916,77.676378 278.71367,74.869729 277.22818,72.063079 278.218,65.79425 278.05292,61.504434 277.88784,57.214617 276.56747,54.90397 273.76266,52.099138 270.95784,49.294305 266.66681,45.993512 262.70628,42.528047 258.74575,39.062581 255.11551,35.432341 251.32038,32.792181 247.52525,30.152021 243.56486,28.501858 240.09962,27.841648 236.63439,27.181438 233.66447,27.511429 233.82884,30.811634 Z"
     id="path21"
     inkscape:connector-curvature="0"
     inkscape:path-effect="#path-effect23"
     inkscape:original-d="M 230.69307,27.841584 C 233.9944,34.111211 237.29473,40.381838 240.59406,46.653465 241.25516,50.613096 241.91519,54.573257 242.57426,58.534653 238.61405,65.795866 234.65447,73.055106 230.69307,80.316832 226.73302,85.597226 222.11321,90.876888 217.82178,96.158416 213.53147,99.128327 209.90199,102.09801 205.94059,105.06931 203.30058,107.37919 200.66107,109.68877 198.0198,112 196.03981,112.9895 194.06041,113.9792 192.07921,114.9703 186.79648,112.65767 181.51915,109.68877 176.23762,107.0495 173.2681,104.07798 170.29803,101.10791 167.32673,98.138614 165.0175,96.487449 162.70727,94.837284 160.39604,93.188119 159.40686,95.827599 158.41684,98.467647 157.42574,101.10891 160.3984,107.05122 163.36734,112.9891 166.33663,118.93069 170.62835,121.57013 174.91849,124.21022 179.20792,126.85149 181.84901,130.48061 184.48945,133.45115 187.12871,136.75248 187.12971,141.70215 187.12971,146.65247 187.12871,151.60396 188.45011,160.84575 189.76998,171.40494 191.08911,181.30693 190.76005,187.5771 190.43004,193.84718 190.09901,200.11881 191.09027,206.71958 192.08021,213.31913 193.06931,219.92079 193.40038,223.88069 193.73037,228.50065 194.05941,232.79208 195.71092,235.43191 197.36074,238.07161 199.0099,240.71287 199.67103,243.68247 200.33103,246.65247 200.9901,249.62376 195.04902,250.94322 189.10991,252.26303 183.16832,253.58416 177.55766,254.57345 171.94819,255.56336 166.33663,256.55446 161.05603,258.53406 155.77658,260.51385 150.49505,262.49505 146.53475,262.82416 142.57526,263.15412 138.61386,263.48515 136.304,261.50341 133.9944,259.52375 131.68317,257.54455 130.03394,255.89333 128.38384,254.24322 126.73267,252.59406 124.09341,255.56336 121.45315,258.53365 118.81188,261.50495 117.49228,264.14515 116.17262,266.78448 114.85149,269.42574 116.17322,271.73602 117.49275,274.0452 118.81188,276.35644 121.45351,279.32615 124.09341,282.29603 126.73267,285.26733 131.35423,284.60625 135.9746,283.94619 140.59406,283.28713 146.20426,282.29627 151.81618,281.30593 157.42574,280.31683 168.64558,276.68621 179.86899,273.05511 191.08911,269.42574 203.30003,265.46477 215.51255,261.50395 227.72277,257.54455 239.60379,252.92355 251.48615,248.30263 263.36634,243.68317 269.30733,242.03217 274.58846,240.38184 280.19802,238.73267 285.47843,236.7519 290.76008,234.77128 296.0396,232.79208 297.03048,230.81133 298.0208,228.83068 299.0099,226.85149 298.0214,225.20132 297.0307,223.55016 296.0396,221.90099 292.08091,222.88991 288.11981,223.88019 284.15842,224.87129 274.91575,227.1812 265.67757,229.49075 256.43564,231.80198 248.18477,234.44158 239.93499,237.08151 231.68317,239.72277 227.7232,241.70226 223.76338,243.68217 219.80198,245.66337 218.15232,245.66237 216.50265,245.66237 214.85149,245.66337 214.19202,244.0112 213.53235,242.36204 212.87129,240.71287 213.53215,233.45342 214.19242,226.19042 214.85149,218.93069 215.84244,212.98998 216.83268,207.0485 217.82178,201.10891 219.8026,202.09782 221.78318,203.08811 223.76238,204.07921 228.05294,205.39807 232.34423,206.71847 236.63366,208.0396 240.59448,207.37864 244.55546,206.71847 248.51485,206.05941 256.10443,202.09914 263.69737,198.13761 271.28713,194.17822 274.58794,192.85729 277.88879,191.53695 281.18812,190.21782 282.17886,188.56726 283.16932,186.91649 284.15842,185.26733 281.85083,184.93653 278.87889,184.60626 276.23762,184.27723 274.25778,184.27623 272.27823,184.27623 270.29703,184.27723 268.64703,182.29503 266.9977,180.31583 265.34653,178.33663 262.7074,179.98572 260.06701,181.63596 257.42574,183.28713 252.47406,184.93702 247.52575,186.58646 242.57426,188.23762 237.95368,190.54741 233.9944,192.85709 229.70297,195.16832 226.40272,195.16732 223.10331,195.16732 219.80198,195.16832 218.48245,194.83718 216.50265,194.50725 214.85149,194.17822 214.19211,177.99806 213.53235,161.83398 212.87129,145.66337 212.21226,140.38215 211.55216,135.10131 210.89109,129.82178 210.23213,127.51093 209.57196,125.20032 208.91089,122.89109 211.5514,118.27095 214.19242,113.64917 216.83168,109.0297 223.43165,105.72922 230.034,102.42804 236.63366,99.128713 244.22404,95.827983 251.81618,92.527053 259.40594,89.227723 263.69669,90.546645 267.32773,91.866987 271.28713,93.188119 274.25798,97.806881 277.22872,102.42804 280.19802,107.0495 285.14979,106.71845 290.10001,106.38844 295.0495,106.05941 299.01005,102.75878 302.9713,99.457746 306.93069,96.158416 311.22095,93.18793 315.51255,90.216822 319.80198,87.247525 323.76232,87.246525 327.72377,87.246525 331.68317,87.247525 331.02427,90.875971 330.36404,94.507251 329.70297,98.138614 329.37383,107.71159 329.0439,117.27953 328.71287,126.85149 327.3936,138.73296 326.07361,150.61286 324.75248,162.49505 325.08354,170.74564 325.41354,178.9957 325.74257,187.24752 326.73379,189.55702 327.72377,191.86699 328.71287,194.17822 332.34499,195.16752 336.63466,196.15742 340.59406,197.14851 340.59506,190.21806 340.59506,183.28613 340.59406,176.35644 341.58502,166.78586 343.23532,156.55346 344.55446,146.65347 346.86543,139.06256 348.51585,130.81088 350.49505,122.89109 352.14597,118.27031 353.79638,112.9891 355.44554,108.0396 359.40598,103.08931 363.36734,98.137614 367.32673,93.188119 367.32773,89.557561 367.32773,85.926393 367.32673,82.29703 363.69837,79.326551 360.06701,76.355436 356.43564,73.386139 354.12634,71.074838 351.81618,68.764677 349.50495,66.455446 342.90529,66.454446 336.30463,66.454446 329.70297,66.455446 321.12181,68.104861 312.54225,69.754776 303.9604,71.405941 298.68016,73.055327 293.40034,74.705271 288.11881,76.356436 284.15852,77.015651 280.19902,77.675568 276.23762,78.336634 277.22901,72.06321 278.21882,65.79438 279.20792,59.524752 277.88903,57.213938 276.56866,54.90329 275.24752,52.594059 270.9587,49.293191 266.66767,45.992399 262.37624,42.693069 258.74675,39.061583 255.11651,35.431343 251.48515,31.80198 247.52575,30.150815 243.56536,28.50065 239.60396,26.851485 236.63429,27.18056 233.66437,27.510551 230.69307,27.841584 Z" />
  <path
     style="stroke-width:0.99009901"
     d="M 125.67175,281.16701 C 121.6922,278.74048 117.42574,272.5213 117.42574,269.14688 117.42574,266.28686 121.84805,259.09147 124.9345,256.92964 126.70952,255.68637 127.47912,255.93419 132.66173,259.41798 140.10895,264.42408 144.53936,264.49945 160.56666,259.89267 167.06193,258.02571 177.19538,255.51091 183.08544,254.30422 194.53563,251.95843 199.89473,249.2893 200.41622,245.67253 200.59069,244.46252 199.55148,240.91348 198.10687,237.78576 194.95111,230.95326 191.73051,208.7238 191.70178,193.57603 191.68068,182.45631 188.11918,142.96232 186.62126,137.23753 185.6394,133.48502 182.23536,129.61222 171.04246,119.51343 163.21202,112.44841 157.16679,97.697559 161.51813,96.273281 162.08083,96.0891 165.42241,98.404036 168.94388,101.41758 180.78181,111.54808 190.35627,115.7788 196.02525,113.38418 204.2174,109.92374 223.54704,91.564877 231.14732,80.026008 242.6638,62.541487 244.23758,54.020951 238.41862,40.658704 234.36831,31.357839 234.26652,28.630179 237.9703,28.643336 243.13764,28.661692 250.88586,33.415193 262.81936,43.888143 269.40442,49.667253 275.25107,55.253055 275.81193,56.301035 276.37279,57.349015 276.83168,61.8001 276.83168,66.192336 276.83168,72.858086 277.15903,74.50556 278.81188,76.158416 279.90099,77.247525 281.40575,78.138614 282.1558,78.138614 282.90585,78.138614 289.47763,76.598252 296.75976,74.715588 314.80813,70.049508 327.13548,68.014694 337.72277,67.954028 348.32435,67.893279 350.3679,68.756321 358.85209,76.877445 367.59145,85.242815 367.859,88.000809 360.9915,98.930693 358.76749,102.4703 355.61748,108.168 353.99148,111.59227 348.29312,123.59265 342.27033,151.90755 340.19546,176.45128 338.92228,191.51168 338.17467,193.9802 334.88666,193.9802 326.5261,193.9802 324.62166,180.7515 327.7598,144.47525 328.53707,135.4901 329.70711,119.56653 330.35987,109.08953 331.70418,87.513305 331.59546,87.049505 325.1935,87.049505 319.83341,87.049505 315.37173,89.12317 305.85503,96.037516 296.27235,102.9998 292.22582,104.87129 286.75468,104.87129 283.17875,104.87129 281.9712,104.14667 275.412,98.064901 267.21416,90.463754 264.14612,89.32581 256.38591,91.008054 244.20962,93.647609 223.23058,104.11124 216.38037,110.96146 209.77179,117.57003 208.84992,121.04858 210.30568,133.88346 210.93554,139.43666 211.92941,152 212.51429,161.80198 214.47343,194.6353 215.1051,196.44682 224.35401,195.75605 228.23862,195.46592 234.76648,193.2755 247.10216,188.1229 L 264.40233,180.89663 268.38929,182.93968 C 270.58211,184.06336 274.46945,185.24881 277.02781,185.57403 280.26143,185.98508 281.52981,186.5551 281.18872,187.44396 280.68878,188.7468 252.36107,202.79191 246.2384,204.77261 241.11767,206.42919 234.19091,206.08223 226.79827,203.79887 220.32375,201.7991 220.06583,201.79157 218.31932,203.55135 216.21695,205.66968 213.82601,218.13079 212.84549,232.07982 212.28826,240.00715 212.4482,241.81124 213.90538,244.03519 216.05665,247.31845 217.2072,247.14591 232.40251,241.2614 250.94561,234.08044 291.89741,223.06765 295.25958,224.35784 297.62255,225.26459 296.83673,229.34881 293.91089,231.36756 290.52645,233.70274 285.14481,235.80787 261.9802,243.85782 251.90594,247.35873 235.59368,253.11081 225.73074,256.64022 208.88155,262.66961 184.35664,270.70517 164.7554,276.6187 154.51217,279.70901 137.63969,283.09059 132.48965,283.08541 130.46688,283.08338 127.39882,282.22009 125.67175,281.16701 Z"
     id="path33"
     inkscape:connector-curvature="0" />
  <path
     style="fill-opacity:1;fill-rule:nonzero;stroke:none"
     d="M 233.76238,158.4455 C 229.04232,156.26706 224.89082,152.04142 225.61544,150.15309 225.90112,149.40861 229.5214,147.81549 233.66049,146.61283 237.79959,145.41016 244.63954,142.83323 248.86039,140.88631 264.24727,133.7889 273.82051,131.66435 277.32163,134.57002 279.98703,136.78211 278.91784,139.21336 272.78104,144.89495 265.39728,151.73101 246.87845,158.34533 246.87845,158.34533 236.89921,157.42498 238.58359,160.67064 233.76238,158.4455 Z"
     id="path35"
     inkscape:connector-curvature="0"
     sodipodi:nodetypes="cccscssc" />
  <path
     style="fill-opacity:1;fill-rule:nonzero;fill:#1a1a1a;stroke:none"
     d="M 322.48753,428.78997 C 321.38548,427.24227 317.72286,420.67049 314.3484,414.18601 306.65968,399.41115 304.7809,396.66896 292.52789,382.33786 283.84336,372.18046 282.86101,370.6715 284.74654,370.38523 285.93343,370.20502 289.23596,371.00385 292.08551,372.1604 305.66107,377.67031 316.60517,378.70847 320.2471,374.83181 323.05374,371.84428 323.93118,368.63041 324.75373,358.32494 325.38761,350.38321 325.08995,345.05906 322.29884,314.4165 321.42391,304.81102 321.41383,297.6386 322.25778,285.20858 322.87696,276.0892 323.01343,267.40644 322.56341,265.76238 320.8688,259.57144 318.94542,260.46239 284.48363,283.40167 266.93348,295.08382 240.9901,311.98012 226.83168,320.94899 212.67327,329.91786 186.16337,346.81201 167.92079,358.49155 149.67822,370.1711 127.04176,384.60483 117.61754,390.56651 108.19333,396.5282 93.134551,406.97525 84.15359,413.78218 63.728704,429.26279 61.554204,430.57714 56.333716,430.59757 51.605831,430.61608 47.128713,428.90958 47.128713,427.08901 47.128713,426.41426 48.799505,423.6785 50.841584,421.00951 52.883663,418.34053 56.440386,413.69859 58.745413,410.69408 64.027829,403.80866 71.614488,398.2714 80.279651,394.9769 82.45065,394.1515 82.935821,394.39479 84.272194,396.97905 85.134002,398.6456 86.593683,399.92079 87.639548,399.92079 88.654915,399.92079 97.442978,394.7207 107.16858,388.36504 116.89418,382.00938 137.99505,368.37606 154.05941,358.06878 232.46265,307.76338 309.8995,254.63098 316.84779,246.3734 318.21144,244.7528 319.54675,241.99195 319.81516,240.23818 320.08356,238.48441 320.56456,235.39183 320.88405,233.36578 321.57234,229.00093 325.72115,223.68317 328.43824,223.68317 329.58938,223.68317 331.18612,225.07687 332.40842,227.14851 335.89545,233.05859 336.00373,232.99573 362.9703,209.40765 395.82005,180.67344 412.21418,162.9478 429.20935,137.78874 435.05771,129.13101 438.11386,125.47869 439.88113,125.03513 444.7137,123.82223 455.98295,128.85626 459.4199,133.76319 461.66257,136.96505 461.38271,139.1 458.104,143.80181 451.74771,152.91697 439.15423,163.55034 384.78481,205.70924 343.07265,238.0535 340.28753,240.40438 335.4808,247.32587 L 331.78218,252.65174 331.87583,281.48429 C 331.9773,312.71818 332.75538,322.33651 338.81374,367.24752 344.03641,405.96351 343.24551,416.48173 334.39602,425.99929 331.79686,428.79466 327.31932,431.60396 325.46312,431.60396 324.9286,431.60396 323.58959,430.33766 322.48753,428.78997 Z"
     id="path37"
     inkscape:connector-curvature="0" />
</svg>
