<?xml version="1.0" encoding="UTF-8" standalone="no"?>
<!-- Created with Inkscape (http://www.inkscape.org/) -->

<svg
   xmlns:dc="http://purl.org/dc/elements/1.1/"
   xmlns:cc="http://creativecommons.org/ns#"
   xmlns:rdf="http://www.w3.org/1999/02/22-rdf-syntax-ns#"
   xmlns:svg="http://www.w3.org/2000/svg"
   xmlns="http://www.w3.org/2000/svg"
   xmlns:sodipodi="http://sodipodi.sourceforge.net/DTD/sodipodi-0.dtd"
   xmlns:inkscape="http://www.inkscape.org/namespaces/inkscape"
   width="512"
   height="512"
   viewBox="0 0 512 512"
   version="1.1"
   id="svg8"
   inkscape:version="0.92.4 (5da689c313, 2019-01-14)"
   sodipodi:docname="U+9AEE.svg">
  <defs
     id="defs2">
    <inkscape:path-effect
       effect="bspline"
       id="path-effect69"
       is_visible="true"
       weight="33.333333"
       steps="2"
       helper_size="0"
       apply_no_weight="true"
       apply_with_weight="true"
       only_selected="false" />
    <inkscape:path-effect
       effect="bspline"
       id="path-effect65"
       is_visible="true"
       weight="33.333333"
       steps="2"
       helper_size="0"
       apply_no_weight="true"
       apply_with_weight="true"
       only_selected="false" />
    <inkscape:path-effect
       effect="bspline"
       id="path-effect61"
       is_visible="true"
       weight="33.333333"
       steps="2"
       helper_size="0"
       apply_no_weight="true"
       apply_with_weight="true"
       only_selected="false" />
    <inkscape:path-effect
       effect="bspline"
       id="path-effect57"
       is_visible="true"
       weight="33.333333"
       steps="2"
       helper_size="0"
       apply_no_weight="true"
       apply_with_weight="true"
       only_selected="false" />
    <inkscape:path-effect
       effect="bspline"
       id="path-effect53"
       is_visible="true"
       weight="33.333333"
       steps="2"
       helper_size="0"
       apply_no_weight="true"
       apply_with_weight="true"
       only_selected="false" />
    <inkscape:path-effect
       effect="bspline"
       id="path-effect49"
       is_visible="true"
       weight="33.333333"
       steps="2"
       helper_size="0"
       apply_no_weight="true"
       apply_with_weight="true"
       only_selected="false" />
    <inkscape:path-effect
       effect="bspline"
       id="path-effect45"
       is_visible="true"
       weight="33.333333"
       steps="2"
       helper_size="0"
       apply_no_weight="true"
       apply_with_weight="true"
       only_selected="false" />
    <inkscape:path-effect
       effect="bspline"
       id="path-effect41"
       is_visible="true"
       weight="33.333333"
       steps="2"
       helper_size="0"
       apply_no_weight="true"
       apply_with_weight="true"
       only_selected="false" />
    <inkscape:path-effect
       effect="spiro"
       id="path-effect37"
       is_visible="true" />
    <inkscape:path-effect
       effect="bspline"
       id="path-effect31"
       is_visible="true"
       weight="33.333333"
       steps="2"
       helper_size="0"
       apply_no_weight="true"
       apply_with_weight="true"
       only_selected="false" />
    <inkscape:path-effect
       effect="bspline"
       id="path-effect27"
       is_visible="true"
       weight="33.333333"
       steps="2"
       helper_size="0"
       apply_no_weight="true"
       apply_with_weight="true"
       only_selected="false" />
    <inkscape:path-effect
       effect="bspline"
       id="path-effect23"
       is_visible="true"
       weight="33.333333"
       steps="2"
       helper_size="0"
       apply_no_weight="true"
       apply_with_weight="true"
       only_selected="false" />
  </defs>
  <sodipodi:namedview
     id="base"
     pagecolor="#ffffff"
     bordercolor="#666666"
     borderopacity="1.0"
     inkscape:pageopacity="0.0"
     inkscape:pageshadow="2"
     inkscape:zoom="1"
     inkscape:cx="30.02163"
     inkscape:cy="209.44866"
     inkscape:document-units="px"
     inkscape:current-layer="svg8"
     showgrid="false"
     units="px"
     inkscape:window-width="1920"
     inkscape:window-height="1001"
     inkscape:window-x="-9"
     inkscape:window-y="-9"
     inkscape:window-maximized="1" />
  <metadata
     id="metadata5">
    <rdf:RDF>
      <cc:Work
         rdf:about="">
        <dc:format>image/svg+xml</dc:format>
        <dc:type
           rdf:resource="http://purl.org/dc/dcmitype/StillImage" />
        <dc:title />
      </cc:Work>
    </rdf:RDF>
  </metadata>
  <g
     inkscape:label="圖層 1"
     inkscape:groupmode="layer"
     id="layer1"
     transform="translate(0,-161.53331)" />
  <path
     d="M 125.23521,382.33049 C 122.24336,379.33863 120.42306,376.31921 119.12684,372.19818 L 117.28038,366.32778 122.36072,361.71008 C 128.65766,355.98659 132.2264,348.91745 138.82726,329.09239 145.08601,310.29478 145.71658,302.31832 141.2941,297.88743 139.18185,295.77116 137.6409,295.15008 134.69423,295.22735 125.262,295.47467 100.96763,305.87007 89.339882,314.63418 84.412166,318.34831 81.391639,321.67846 77.967476,327.1723 75.403078,331.28671 72.489601,335.0894 71.493083,335.62272 67.390677,337.81826 64.306784,336.7409 58.994595,331.25637 48.645347,320.57136 46.103073,312.83816 50.699748,306.02475 53.914621,301.25951 57.272165,300.49122 59.788133,303.94508 60.848769,305.4011 62.466528,306.59764 63.383155,306.60406 64.299781,306.61049 69.099748,304.61251 74.049748,302.16411 78.999748,299.71572 92.499748,294.4984 104.04975,290.57008 126.19767,283.03724 131.0406,280.77194 132.09426,277.45215 132.45053,276.32964 132.19763,272.52603 131.53226,268.9997 130.23406,262.11951 130.19404,262.25201 135.60048,255.52873 136.91221,253.8975 137.99696,250.44226 138.58295,246.02873 140.17449,234.04155 143.55132,183.33227 143.51486,171.96711 143.44281,149.50776 138.8066,135.82499 128.7254,128.3192 119.43434,121.40169 117.70492,117.99487 117.69611,106.59239 117.68677,94.50191 116.70841,94.725368 135.04975,102.62884 143.84975,106.42085 151.72475,109.52819 152.54975,109.53404 153.3862,109.53996 156.46269,105.46331 159.50434,100.31853 L 164.95894,91.092389 166.61234,96.545055 C 167.52171,99.544021 168.75609,102.16117 169.35541,102.36094 170.4038,102.7104 202.60521,94.776581 217.04657,90.610735 226.01072,88.024879 228.71739,88.06893 231.28037,90.842389 233.73954,93.50351 235.88504,100.17258 235.3963,103.63634 235.09632,105.76231 233.36985,106.76661 222.54975,111.10923 210.75952,115.84121 205.47928,118.91412 185.72491,132.53998 177.86003,137.96489 175.5465,138.46176 169.04975,136.12123 161.70668,133.47579 160.88971,134.13926 158.48798,144.69856 156.33073,154.18301 154.9355,175.39886 156.33657,177.41314 157.09105,178.49784 158.30918,178.43811 163.15249,177.07895 177.23051,173.12829 187.09311,168.55973 197.49503,161.17077 204.84264,155.95143 208.05468,155.47746 211.90373,159.04464 218.93524,165.56123 212.55091,170.44364 177.33565,185.48056 158.34872,193.58798 153.96572,195.94663 152.3796,198.91033 150.73593,201.98154 150.14663,231.40173 151.69149,233.26318 153.54132,235.49208 156.123,234.41763 175.01407,223.55666 184.54633,218.07631 193.321,213.59239 194.51334,213.59239 197.75833,213.59239 200.35184,215.309 202.04051,218.57451 203.46626,221.33161 203.42431,221.58898 201.30086,223.11318 198.88731,224.8456 186.93932,231.52456 166.04975,242.81864 145.21702,254.08199 142.56004,256.79465 142.55349,266.80721 142.54732,276.2436 142.46584,276.23758 179.35548,269.52795 206.06514,264.6699 226.42485,262.30216 237.48411,262.76784 245.29934,263.09692 246.50811,263.43356 251.28178,266.61046 262.04365,273.77251 258.60402,274.80188 221.04975,275.65788 197.07672,276.20432 188.88196,276.75488 180.25932,278.39838 160.32269,282.19837 148.54166,287.36199 148.55439,292.29464 148.55694,293.2834 151.49119,297.69239 155.07495,302.09239 161.42871,309.89329 165.54975,318.16089 165.54975,323.10685 165.54975,326.09401 162.94791,327.84866 155.30421,330.01631 152.14358,330.91262 148.00417,333.01053 146.10348,334.67935 142.03686,338.2499 138.72955,346.2933 137.97358,354.45131 136.64165,368.82491 144.73332,369.07258 165.85512,355.3047 170.3795,352.35556 175.80557,348.42867 177.91305,346.57827 181.39218,343.52355 181.69048,342.87393 181.15415,339.51991 180.24643,333.84332 182.00513,332.92316 190.88074,334.4309 194.8237,335.10072 200.07475,336.64856 202.54975,337.87057 206.31985,339.73201 207.57093,341.14669 210.26294,346.59239 214.30692,354.77302 216.89725,365.5482 215.62457,368.89559 213.45986,374.58921 208.3417,372.86603 197.28012,362.71937 191.48557,357.40411 188.79344,355.59239 186.68973,355.59239 183.20269,355.59239 172.33095,362.05998 154.54975,374.71244 138.43032,386.18245 137.68979,386.59239 133.08918,386.59239 130.19499,386.59239 128.66911,385.76438 125.23521,382.33049 Z"
     id="path71"
     inkscape:connector-curvature="0" />
  <path
     d="M 299.6,133.02348 C 299.6,132.81639 305.47505,128.46801 312.65566,123.36041 327.99057,112.45263 335.91894,104.99366 337.60339,99.889721 338.55327,97.011557 338.55334,94.528374 337.60373,88.423952 336.93705,84.138378 336.71061,79.626868 337.10051,78.398376 337.71669,76.456973 338.31901,76.233101 341.70442,76.68718 347.45598,77.458626 354.27985,81.852136 356.50702,86.217739 358.91004,90.928052 360.85601,100.68716 360.42805,105.88179 360.07229,110.19985 360.37862,110.00692 350.13512,112.36455 347.40444,112.99305 338.54453,116.62682 330.44644,120.43962 317.45086,126.55827 301.41737,133.4 300.07397,133.4 299.81329,133.4 299.6,133.23056 299.6,133.02348 Z"
     id="path73"
     inkscape:connector-curvature="0" />
  <path
     d="M 283.6,194.1504 C 283.875,193.8672 289.05,190.69783 295.1,187.10736 311.15054,177.58191 320.32679,170.82901 322.23544,167.13809 323.96083,163.80155 324.30296,157.87704 323.08934,152.35148 322.3992,149.20928 322.41008,149.19927 325.74818,149.90691 337.02161,152.29675 345.13915,159.24443 347.86872,168.83953 349.75471,175.46925 349.26346,177.89757 345.75478,179.28916 342.62695,180.52969 292.92388,192.9765 287.1,193.97768 284.9,194.35588 283.325,194.43361 283.6,194.1504 Z"
     id="path75"
     inkscape:connector-curvature="0" />
  <path
     d="M 291.67569,252.7822 C 293.00906,251.34241 297.47832,247.5803 301.60738,244.42195 310.07583,237.94437 316.1738,231.59316 317.76079,227.59772 318.35013,226.11398 319.3606,221.33149 320.00627,216.96997 320.65193,212.60845 321.69039,208.86987 322.31395,208.66202 324.82533,207.82489 336.41105,226.55295 338.04094,234.08434 338.91824,238.13819 337.72063,238.95578 323.1,244.28426 317.05,246.48918 308.05,249.87731 303.1,251.81343 298.15,253.74955 293.00906,255.34858 291.67569,255.36683 L 289.25137,255.4 Z"
     id="path77"
     inkscape:connector-curvature="0" />
  <path
     d="M 264.61471,329.4 259.12943,328.9 259.44206,324.6378 C 259.67545,321.45605 258.9626,318.74967 256.62998,313.96154 253.91274,308.3839 253.54404,306.66802 253.80263,300.80343 253.98024,296.77533 254.57204,293.90351 255.27215,293.67231 255.91683,293.45942 260.41683,296.91755 265.27215,301.35705 274.9242,310.18248 279.59114,317.76504 279.59688,324.63095 279.59945,327.69885 279.20014,328.44336 277.35,328.82027 272.73522,329.76041 269.95635,329.88691 264.61471,329.4 Z"
     id="path79"
     inkscape:connector-curvature="0" />
  <path
     d="M 303.50726,302.18518 C 303.45626,301.47833 303.49245,298.95168 303.58769,296.5704 303.70054,293.74871 302.46467,288.60271 300.03919,281.79496 297.99228,276.04975 296.54528,271.12139 296.82363,270.84304 297.10198,270.56469 301.68423,272.42752 307.0064,274.98266 314.32984,278.4986 317.28094,280.50821 319.14154,283.24632 323.02678,288.96397 322.48257,290.59761 314.84107,296.15557 305.91211,302.64994 303.62847,303.86485 303.50726,302.18518 Z"
     id="path81"
     inkscape:connector-curvature="0" />
  <path
     d="M 337.60428,305.15 C 337.60664,304.4625 338.98016,301.875 340.65655,299.4 345.03527,292.93533 347.6,287.78492 347.6,285.45638 347.6,284.34357 345.95478,280.10816 343.94396,276.04437 341.93314,271.98057 340.54217,267.99307 340.85293,267.18327 341.16368,266.37347 343.48085,265.13332 346.00219,264.42738 351.63102,262.85141 353.15497,263.80642 354.11927,269.51408 354.60328,272.37887 355.95883,274.63144 358.89889,277.45651 361.15609,279.62543 363.35068,281.4 363.77576,281.4 365.29813,281.4 367.6,287.37538 367.6,291.32729 367.6,296.45664 366.40202,297.2592 351.04329,302.41905 337.83078,306.85787 337.59827,306.90512 337.60428,305.15 Z"
     id="path83"
     inkscape:connector-curvature="0" />
  <path
     d="M 223.55276,409.11889 C 219.12554,407.44172 211.89652,402.48648 208.6,398.86927 L 206.1,396.12608 208.6,396.66908 C 209.975,396.96773 213.8,398.36868 217.1,399.78231 222.05031,401.90287 224.67454,402.35461 232.1,402.3644 251.99587,402.39063 264.9037,395.36434 275.05673,378.98119 280.35274,370.43543 284.34082,360.83222 292.7401,336.4 L 299.1,317.9 299.39157,325.03894 C 299.77425,334.40884 297.06636,347.36088 290.01242,369.9 280.5049,400.27898 276.6599,405.3872 261.06827,408.35334 251.29675,410.21227 227.70951,410.69359 223.55276,409.11889 Z"
     id="path85"
     inkscape:connector-curvature="0" />
  <path
     d="M 396.01902,446.5026 C 389.43142,443.51069 383.384,435.12112 364.45545,402.71455 352.10947,381.57766 347.41804,374.22728 337.12877,359.9 329.71756,349.58027 321.48684,333.17983 322.9731,331.69357 323.19005,331.47661 327.56646,336.38431 332.69844,342.59955 347.03566,359.96307 358.70865,370.9196 383.09645,389.90425 396.17297,400.08365 408.86266,408.50524 432.1,422.42579 442.55,428.68595 452.9,435.49167 455.1,437.54961 458.94453,441.14589 459.03059,441.36144 457.31411,443.09566 455.71843,444.70783 453.32213,444.91732 434.81411,445.0626 419.87906,445.17984 412.28655,445.66395 407.6,446.79782 399.72956,448.702 400.92898,448.73258 396.01902,446.5026 Z"
     id="path87"
     inkscape:connector-curvature="0" />
</svg>
