<?xml version="1.0" encoding="UTF-8" standalone="no"?>
<!-- Created with Inkscape (http://www.inkscape.org/) -->

<svg
   xmlns:dc="http://purl.org/dc/elements/1.1/"
   xmlns:cc="http://creativecommons.org/ns#"
   xmlns:rdf="http://www.w3.org/1999/02/22-rdf-syntax-ns#"
   xmlns:svg="http://www.w3.org/2000/svg"
   xmlns="http://www.w3.org/2000/svg"
   xmlns:sodipodi="http://sodipodi.sourceforge.net/DTD/sodipodi-0.dtd"
   xmlns:inkscape="http://www.inkscape.org/namespaces/inkscape"
   width="512"
   height="512"
   viewBox="0 0 512 512"
   version="1.1"
   id="svg8"
   inkscape:version="0.92.4 (5da689c313, 2019-01-14)"
   sodipodi:docname="化U+5316-2.svg">
  <defs
     id="defs2">
    <inkscape:path-effect
       effect="bspline"
       id="path-effect39"
       is_visible="true"
       weight="33.333333"
       steps="2"
       helper_size="0"
       apply_no_weight="true"
       apply_with_weight="true"
       only_selected="false" />
    <inkscape:path-effect
       effect="bspline"
       id="path-effect35"
       is_visible="true"
       weight="33.333333"
       steps="2"
       helper_size="0"
       apply_no_weight="true"
       apply_with_weight="true"
       only_selected="false" />
    <inkscape:path-effect
       effect="bspline"
       id="path-effect31"
       is_visible="true"
       weight="33.333333"
       steps="2"
       helper_size="0"
       apply_no_weight="true"
       apply_with_weight="true"
       only_selected="false" />
    <inkscape:path-effect
       effect="bspline"
       id="path-effect27"
       is_visible="true"
       weight="33.333333"
       steps="2"
       helper_size="0"
       apply_no_weight="true"
       apply_with_weight="true"
       only_selected="false" />
    <inkscape:path-effect
       effect="bspline"
       id="path-effect23"
       is_visible="true"
       weight="33.333333"
       steps="2"
       helper_size="0"
       apply_no_weight="true"
       apply_with_weight="true"
       only_selected="false" />
  </defs>
  <sodipodi:namedview
     id="base"
     pagecolor="#ffffff"
     bordercolor="#666666"
     borderopacity="1.0"
     inkscape:pageopacity="0.0"
     inkscape:pageshadow="2"
     inkscape:zoom="1"
     inkscape:cx="400"
     inkscape:cy="280"
     inkscape:document-units="px"
     inkscape:current-layer="svg8"
     showgrid="false"
     units="px"
     inkscape:window-width="1920"
     inkscape:window-height="1001"
     inkscape:window-x="-9"
     inkscape:window-y="-9"
     inkscape:window-maximized="1" />
  <metadata
     id="metadata5">
    <rdf:RDF>
      <cc:Work
         rdf:about="">
        <dc:format>image/svg+xml</dc:format>
        <dc:type
           rdf:resource="http://purl.org/dc/dcmitype/StillImage" />
        <dc:title></dc:title>
      </cc:Work>
    </rdf:RDF>
  </metadata>
  <g
     inkscape:label="圖層 1"
     inkscape:groupmode="layer"
     id="layer1"
     transform="translate(0,-161.53331)" />
  <path
     style="fill:none;stroke:#000000;stroke-width:1px;stroke-linecap:butt;stroke-linejoin:miter;stroke-opacity:1"
     d="M 143.5006,60.4993 C 142,62.999 142,66.999 143.66704,70.999952 145.33409,75.000903 148.66659,78.999903 150.66659,84.666258 152.6666,90.332612 153.33325,97.665765 152.16664,105.83284 151.00003,113.99991 148.0004,122.9988 142.83335,134.66642 137.6663,146.33404 130.33394,160.66547 124.00038,173.16592 117.66682,185.66636 112.33393,196.33213 104.9578,209.73892 97.581668,223.14571 88.334022,238.99882 83.350521,247.94888 78.367019,256.89894 77.667067,258.9988 81.169656,255.99649 84.672245,252.99418 92.334311,244.99898 99.333829,236.66615 106.33335,228.33331 112.66749,219.66554 119.3937,210.58616 126.11991,201.50678 133.00084,192.33221 139.28352,182.96963 145.56619,173.60706 150.66737,164.99882 155.66714,157.49925 160.66692,149.99968 165.33419,143.99889 168.28478,138.52872 171.23536,133.05856 172.66696,127.33215 173.50014,121.66621 174.33332,116.00027 174.66673,109.99895 174.52507,104.99556 174.38341,99.99217 173.66654,95.332507 172.33336,90.333173 171.00018,85.333838 168.9998,79.666092 166.33338,74.999875 163.66696,70.333658 160.33329,66.666615 157.8078,63.831318 155.2823,60.996021 152.99993,58.333251 150.50062,57.666407 148.00131,56.999563 145.0012,57.9996 143.5006,60.4993 Z"
     id="path21"
     inkscape:connector-curvature="0"
     inkscape:path-effect="#path-effect23"
     inkscape:original-d="M 142,59 C 142.001,62.999 142.001,66.999 142,71 145.33517,75 148.66767,78.999 152,83 152.66768,90.332514 153.33433,97.665667 154,105 151.00063,114.00011 148.001,122.999 145,132 137.66669,146.33424 130.33433,160.66567 123,175 117.66722,185.66656 112.33433,196.33233 107,207 97.333246,223.0008 88.334333,238.999 79,255 78.667642,256.99915 77.667667,258.999 77,261 84.672267,252.9942 92.334333,244.999 100,237 106.33352,228.33344 112.66767,219.66567 119,211 126.33338,201.66688 133.001,192.33233 140,183 145.66699,173.66679 150.66767,164.999 156,156 160.66706,149.99979 165.33433,143.999 170,138 171.00082,132.99992 172.66767,127.33233 174,122 174.33426,116.00032 174.66767,109.999 175,104 174.33445,99.999702 173.66767,95.332333 173,91 171.00138,85.333414 169.001,79.665667 167,74 163.66801,70.332706 160.33433,66.665667 157,63 155.66768,60.665698 153.001,58.332333 151,56 148.00111,56.998965 145.001,57.999 142,59 Z" />
  <path
     style="fill:none;stroke:#000000;stroke-width:1px;stroke-linecap:butt;stroke-linejoin:miter;stroke-opacity:1"
     d="M 136.49994,213.49975 C 134.66647,214.66609 137.33313,222.33275 139.49987,229.33293 141.66661,236.33312 143.33315,242.66598 145.16407,253.81291 146.99498,264.95985 148.99989,280.99914 149.99995,292.66593 151,304.33273 151,312.33233 151,322.49982 151,332.66732 151,345.33233 150.83334,357.33277 150.66667,369.3332 150.33336,380.66564 150.00003,389.16588 149.6667,397.66612 149.3334,403.33228 149.1667,407.99931 149,412.66635 149,416.33233 146.91644,416.25623 144.83287,416.18013 141.00005,412.66671 139.16668,415.66626 137.3333,418.66582 137.66663,428.33237 137.49999,437.6661 137.33335,446.99983 136.66675,455.99893 137.33339,463.33285 138.00003,470.66677 139.9998,476.33275 141.49989,479.83303 142.99998,483.33331 143.99988,484.66651 146.33376,481.16549 148.66764,477.66446 152.33386,469.33213 154.83358,460.16623 157.33329,451.00034 158.66682,440.99889 159.33341,428.33313 160,415.66737 160,400.33233 160.50115,384.14665 161.0023,367.96098 162.00006,350.99894 162.00003,334.66616 162,318.33338 160.99994,302.66574 160.3333,287.66614 159.66666,272.66654 159.33331,258.33235 157.83331,247.66615 156.33331,236.99994 153.66646,229.99946 149.16686,223.83331 144.66725,217.66716 138.33342,212.33341 136.49994,213.49975 Z"
     id="path25"
     inkscape:connector-curvature="0"
     inkscape:path-effect="#path-effect27"
     inkscape:original-d="M 132,207 C 134.66767,214.66567 137.33433,222.33233 140,230 141.66779,236.33281 143.33433,242.66567 145,249 146.66785,265.00074 149.001,280.999 151,297 151.001,304.33273 151.001,312.33233 151,320 151.001,332.66732 151.001,345.33233 151,358 150.66764,369.33323 150.33433,380.66567 150,392 149.66764,397.66618 149.33433,403.33233 149,409 149.001,412.66635 149.001,416.33233 149,420 144.99991,415.99791 141.001,412.66567 137,409 137.33434,418.66578 137.66767,428.33233 138,438 137.33427,446.9999 136.66767,455.999 136,465 138.00124,470.66634 140.001,476.33233 142,482 143.0011,483.33247 144.001,484.66567 145,486 148.66811,477.66467 152.33433,469.33233 156,461 157.33414,451.00045 158.66767,440.999 160,431 160.001,415.66737 160.001,400.33233 160,385 161.66756,368.00011 162.001,350.999 163,334 162.00106,318.33331 161.001,302.66567 160,287 159.66769,272.66652 159.33433,258.33233 159,244 156.33451,236.99948 153.66767,229.999 151,223 144.66816,217.66608 138.33433,212.33233 132,207 Z" />
  <path
     style="fill:none;stroke:#000000;stroke-width:1px;stroke-linecap:butt;stroke-linejoin:miter;stroke-opacity:1"
     d="M 241.16719,124.1659 C 239.99987,128.33251 240.99987,134.66585 241.99992,139.99951 242.99996,145.33317 243.99983,149.66594 244.1732,160.00076 244.34658,170.33558 243.66671,187.33229 242.6667,202.49936 241.66669,217.66643 240.33344,231.33224 239.33338,246.66628 238.33332,262.00031 237.66671,278.99896 238.50002,293.83281 239.33333,308.66665 241.66652,321.33254 244.16658,332.49957 246.66665,343.6666 249.33315,353.33266 253.1667,361.33315 257.00024,369.33364 261.9999,375.66654 267.57921,381.05718 273.15852,386.44782 279.00018,390.6668 286.5003,394.00012 294.00042,397.33344 303.00069,399.66685 314.83363,400.66676 326.66656,401.66667 341.33435,401.33331 353.66214,401.00553 365.98994,400.67774 376.6677,400.3333 386.66729,398.99996 396.66687,397.66662 406.3345,395.33305 414.83404,393.49984 423.33358,391.66662 430.66781,390.33312 440.50019,388.33331 450.33257,386.3335 462.66783,383.66641 470.00104,381.49955 477.33425,379.33268 479.6678,377.66586 479.6677,374.33392 479.6676,371.00199 477.33313,365.99956 474.47108,361.18776 471.60903,356.37595 467.66654,350.99983 464.4999,342.16642 461.33327,333.33301 458.66651,320.66591 456.4999,309.33285 454.3333,297.99979 452.66653,287.99919 451.16715,282.99959 449.66777,278 448.33433,278 447.33364,281.33529 446.33294,284.67058 445.66678,291.33224 444.50315,300.64383 443.33953,309.95541 441.66682,321.99888 439.88352,330.84911 438.10022,339.69933 436.0004,345.9988 432.50022,351.33272 429.00003,356.66664 424.00103,361.33237 417.50029,365.16627 410.99956,369.00017 403.00121,371.99955 393.83372,374.33314 384.66624,376.66674 374.33446,378.33315 362.50038,379.83326 350.6663,381.33337 337.33442,382.66656 326.66734,382.99996 316.00026,383.33336 308.00091,382.66674 299.83346,379.83318 291.66601,376.99961 283.33363,372.00018 276.33341,367.00003 269.3332,361.99988 263.66673,357.00006 259.83328,349.33292 255.99983,341.66577 253.99985,331.33255 252.66659,320.99953 251.33332,310.66651 250.66661,300.3324 249.99997,290.16618 249.33333,279.99997 248.6666,269.99907 248.8333,258.33296 248.99999,246.66684 250.00008,233.33226 251.66259,219.35868 253.3251,205.3851 255.66685,190.66554 257.33343,177.83265 259.00002,164.99977 260.0001,153.99892 259.84211,145.7032 259.68411,137.40748 258.33316,131.66594 256.33337,127.16646 254.33357,122.66697 251.66657,119.33321 248.66727,118.66622 245.66796,117.99922 242.33451,119.9993 241.16719,124.1659 Z"
     id="path29"
     inkscape:connector-curvature="0"
     inkscape:path-effect="#path-effect31"
     inkscape:original-d="M 239,122 C 240.001,128.33233 241.001,134.66567 242,141 243.00113,145.3329 244.001,149.66567 245,154 244.33422,170.33509 243.66767,187.33233 243,204 241.66758,217.66652 240.33433,231.33233 239,245 238.33428,262.00035 237.66767,278.999 237,296 239.33448,308.66644 241.66767,321.33233 244,334 246.66783,343.66627 249.33433,353.33233 252,363 257.00135,369.33277 262.001,375.66567 267,382 273.00112,386.66576 279.001,390.66567 285,395 294.00073,397.33226 303.001,399.66567 312,402 326.66654,401.66569 341.33433,401.33233 356,401 366.0003,400.999 376.66767,400.33233 387,400 396.6667,397.6659 406.33433,395.33233 416,393 423.33344,391.66583 430.66767,390.33233 438,389 450.33241,386.33275 462.66767,383.66567 475,381 477.33411,379.33249 479.66767,377.66567 482,376 479.6688,371.00143 477.33433,365.999 475,361 471.66796,356.33274 467.66767,350.999 464,346 461.33443,333.33277 458.66767,320.66567 456,308 454.33443,297.9996 452.66767,287.999 451,278 449.66777,277.999 448.33433,277.999 447,278 446.33383,284.67067 445.66767,291.33233 445,298 443.66745,310.00096 441.66767,321.999 440,334 438.00081,339.66619 436.001,345.999 434,352 429,356.6666 424.001,361.33233 419,366 410.99935,368.99962 403.001,371.999 395,375 384.66611,376.66592 374.33433,378.33233 364,380 350.66621,381.33248 337.33433,382.66567 324,384 316.00035,383.33228 308.001,382.66567 300,382 291.66672,376.99843 283.33433,371.999 275,367 269.33413,361.99882 263.66767,356.999 258,352 256.00098,341.66555 254.001,331.33233 252,321 251.33438,310.66644 250.66767,300.33233 250,290 249.33439,279.9999 248.66767,269.999 248,260 249.00091,246.66691 250.001,233.33233 251,220 253.00084,205.33351 255.66767,190.66567 258,176 259.00092,164.99985 260.001,153.999 261,143 260.0011,137.33289 258.33433,131.66567 257,126 254.33467,122.66609 251.66767,119.33233 249,116 245.66779,117.99893 242.33433,119.999 239,122 Z" />
  <path
     style="fill:none;stroke:#000000;stroke-width:1px;stroke-linecap:butt;stroke-linejoin:miter;stroke-opacity:1"
     d="M 273.50086,187.16619 C 275.0009,183.99892 280.0009,177.99892 283.83405,173.66586 287.66719,169.33281 290.33433,166.66567 291.5006,167.66476 292.66687,168.66385 292.33341,173.33226 290.66683,177.33265 289.00026,181.33304 286.00094,184.66562 283.33404,186.83271 280.66714,188.9998 278.33454,189.99948 276.16716,190.33306 273.99978,190.66663 272.00081,190.33347 273.50086,187.16619 Z"
     id="path33"
     inkscape:connector-curvature="0"
     inkscape:path-effect="#path-effect35"
     inkscape:original-d="M 270,190 C 275.001,183.999 280.001,177.999 285,172 287.66719,169.33281 290.33433,166.66567 293,164 292.66779,168.66392 292.33433,173.33233 292,178 289.00031,181.33309 286.001,184.66567 283,188 280.66693,188.99931 278.33433,189.999 276,191 273.99997,190.66549 272.001,190.33233 270,190 Z" />
  <path
     style="fill:none;stroke:#000000;stroke-width:1px;stroke-linecap:butt;stroke-linejoin:miter;stroke-opacity:1"
     d="M 310.50016,81.16639 C 308.66651,83.999242 310.33318,91.999241 311.33324,98.832751 312.33331,105.66626 312.66661,111.33239 312,117.1661 311.33339,122.9998 309.667,128.99881 307.88583,134.68447 306.10466,140.37012 304.00043,146.33213 305.1679,148.83257 306.33538,151.33302 310.6678,150.66649 315.42927,148.87335 320.19074,147.08021 325.66786,143.99933 329.5006,139.83299 333.33334,135.66665 335.6672,130.33212 336.68072,125.83154 337.69425,121.33095 337.33326,116.99909 336.66664,113.8329 336.00002,110.66672 334.99979,108.33285 334.16656,105.33307 333.33333,102.3333 332.66652,98.665876 331.50007,95.833104 330.33361,93.000332 328.66659,90.999903 327.29478,89.192184 325.92298,87.384464 324.33318,84.999768 321.00047,82.833455 317.66775,80.667142 312.3338,78.333539 310.50016,81.16639 Z"
     id="path37"
     inkscape:connector-curvature="0"
     inkscape:path-effect="#path-effect39"
     inkscape:original-d="M 307,76 C 308.66767,83.999 310.33433,91.999 312,100 312.33436,105.6662 312.66767,111.33233 313,117 311.33406,122.99999 309.66767,128.999 308,135 306.0006,140.33339 304.001,146.33233 302,152 306.33525,151.33219 310.66767,150.66567 315,150 320.33295,147.33303 325.66767,143.999 331,141 333.33381,135.66685 335.66767,130.33233 338,125 337.66774,121.33316 337.33433,116.999 337,113 336.00123,110.6662 335.001,108.33233 334,106 333.33447,102.33309 332.66767,98.665667 332,95 330.33469,92.999432 328.66767,90.999 327,89 326.00105,87.332415 324.33433,84.999 323,83 317.66828,80.665936 312.33433,78.332333 307,76 Z" />
  <path
     d="M 82.645159,252.11786 C 82.620322,251.68768 88.531686,240.88768 95.781524,228.11786 110.63088,201.96228 141.52704,141.26875 146.4922,128.49996 155.75605,104.67633 155.89451,91.101025 147.03797,74.988524 143.07243,67.774108 142.56854,62.64343 145.5597,59.936466 148.53137,57.247149 151.77603,58.655556 157.56751,65.148682 164.17173,72.553016 166.90728,77.294325 170.15214,86.960597 174.85964,100.98398 174.49004,120.4607 169.27192,133.34624 167.38493,138.00593 151.98177,162.27392 135.28076,186.9 118.76691,211.2501 82.854695,255.74694 82.645159,252.11786 Z"
     id="path41"
     inkscape:connector-curvature="0" />
  <path
     d="M 305.97464,147.93391 C 305.66522,147.12757 306.78522,141.84007 308.46355,136.18391 313.50127,119.2062 314.02224,113.548 312.0325,97.421978 310.16418,82.280012 310.55332,80.064579 314.88677,81.172133 322.68845,83.166106 329.28512,91.697503 333.2337,104.9 338.10372,121.18346 336.20345,131.90197 326.9313,140.44873 319.33542,147.45037 307.42195,151.70556 305.97464,147.93391 Z"
     id="path43"
     inkscape:connector-curvature="0" />
  <path
     d="M 312.1,399.38718 C 287.43662,396.77546 268.7979,385.47956 256.77328,365.8567 250.69524,355.93801 243.516,329.50497 240.62477,306.4 238.82323,292.00314 239.41074,259.24505 242.1313,222.4 245.1589,181.3966 245.53165,152.80412 243.2003,140.4 241.06415,129.0344 241.16207,125.22645 243.67258,122.03486 247.45945,117.22064 251.45702,119.48749 255.80115,128.91246 257.91343,133.49523 258.09597,135.23908 258.0504,150.4 258.00933,164.06196 257.28813,172.06007 253.85747,196.9 248.14383,238.26991 247.05973,255.39891 248.51698,281.28113 250.61964,318.62674 253.63945,338.61963 258.795,349.32759 264.16768,360.48655 283.50895,375.25079 300.09686,380.85554 311.73844,384.78902 331.03157,384.77428 362.1,380.80815 406.11029,375.18988 426.19,366.18975 435.07877,348.09757 439.35222,339.39942 441.60281,329.26436 445.11519,302.90069 446.58065,291.90107 448.10985,282.31136 448.51342,281.59022 449.54328,279.74996 450.9148,284.89552 454.59321,304.4 460.40988,335.24239 462.86695,342.58033 474.62338,364.21944 479.23166,372.70153 479.58136,375.71088 476.21502,377.91659 472.81335,380.14545 455.92297,384.20697 418.43098,391.81155 389.90853,397.59682 383.5622,398.55998 368.43098,399.39985 348.75518,400.49197 322.4771,400.48606 312.1,399.38718 Z"
     id="path45"
     inkscape:connector-curvature="0" />
  <path
     d=""
     id="path47"
     inkscape:connector-curvature="0" />
  <path
     d=""
     id="path49"
     inkscape:connector-curvature="0" />
  <path
     d="M 274.98718,186.65 C 277.21536,182.39048 289.65524,168.3161 290.64904,168.93031 291.71378,169.58835 290.80742,174.93083 289.0425,178.4 286.59449,183.21186 278.77356,189.4 275.14006,189.4 273.72189,189.4 273.70525,189.10061 274.98718,186.65 Z"
     id="path51"
     inkscape:connector-curvature="0" />
  <path
     d="M 274.6,188.36571 C 274.6,187.33519 285.53873,173.65179 288.48642,170.99501 290.57428,169.11321 290.6,169.11664 290.6,171.27713 290.6,175.29371 287.9179,179.9502 283.22508,184.08098 278.71686,188.04928 274.6,190.09443 274.6,188.36571 Z"
     id="path53"
     inkscape:connector-curvature="0" />
  <path
     d="M 141.77398,477.5828 C 140.63422,474.93334 139.2632,468.97084 138.72729,464.3328 137.54616,454.11084 138.62962,417.96907 140.16313,416.43634 140.91363,415.68621 142.18566,415.7082 144.48889,416.51111 146.60636,417.24927 148.09346,417.30654 148.72572,416.67428 150.50589,414.89411 151.78337,371.46066 151.32207,328.4 150.90405,289.37883 150.65653,284.46754 148.29819,268.4 145.24422,247.59303 143.65819,239.89868 139.62429,226.32007 137.96093,220.72098 136.6,215.74843 136.6,215.26996 136.6,211.14589 148.16182,222.66542 151.84774,230.46192 156.092,239.43944 157.45028,249.15799 159.18812,282.98263 160.45257,307.5934 160.68,324.17135 160.18162,355.4 159.00489,429.13428 157.63502,448.40688 152.43405,464.4 150.45255,470.49315 145.01159,482.4 144.20875,482.4 144.0094,482.4 142.91375,480.23226 141.77398,477.5828 Z"
     id="path55"
     inkscape:connector-curvature="0" />
</svg>
