<?xml version="1.0" encoding="UTF-8" standalone="no"?>
<!-- Created with Inkscape (http://www.inkscape.org/) -->

<svg
   xmlns:dc="http://purl.org/dc/elements/1.1/"
   xmlns:cc="http://creativecommons.org/ns#"
   xmlns:rdf="http://www.w3.org/1999/02/22-rdf-syntax-ns#"
   xmlns:svg="http://www.w3.org/2000/svg"
   xmlns="http://www.w3.org/2000/svg"
   xmlns:sodipodi="http://sodipodi.sourceforge.net/DTD/sodipodi-0.dtd"
   xmlns:inkscape="http://www.inkscape.org/namespaces/inkscape"
   width="512"
   height="512"
   viewBox="0 0 512 512"
   version="1.1"
   id="svg8"
   inkscape:version="0.92.4 (5da689c313, 2019-01-14)"
   sodipodi:docname="及U+53CA-2.svg">
  <defs
     id="defs2">
    <inkscape:path-effect
       effect="bspline"
       id="path-effect27"
       is_visible="true"
       weight="33.333333"
       steps="2"
       helper_size="0"
       apply_no_weight="true"
       apply_with_weight="true"
       only_selected="false" />
    <inkscape:path-effect
       effect="bspline"
       id="path-effect23"
       is_visible="true"
       weight="33.333333"
       steps="2"
       helper_size="0"
       apply_no_weight="true"
       apply_with_weight="true"
       only_selected="false" />
  </defs>
  <sodipodi:namedview
     id="base"
     pagecolor="#ffffff"
     bordercolor="#666666"
     borderopacity="1.0"
     inkscape:pageopacity="0.0"
     inkscape:pageshadow="2"
     inkscape:zoom="1"
     inkscape:cx="400"
     inkscape:cy="320"
     inkscape:document-units="px"
     inkscape:current-layer="svg8"
     showgrid="false"
     units="px"
     inkscape:window-width="1920"
     inkscape:window-height="1001"
     inkscape:window-x="-9"
     inkscape:window-y="-9"
     inkscape:window-maximized="1" />
  <metadata
     id="metadata5">
    <rdf:RDF>
      <cc:Work
         rdf:about="">
        <dc:format>image/svg+xml</dc:format>
        <dc:type
           rdf:resource="http://purl.org/dc/dcmitype/StillImage" />
        <dc:title></dc:title>
      </cc:Work>
    </rdf:RDF>
  </metadata>
  <g
     inkscape:label="圖層 1"
     inkscape:groupmode="layer"
     id="layer1"
     transform="translate(0,-161.53332)" />
  <path
     style="fill:none;stroke:#000000;stroke-width:1px;stroke-linecap:butt;stroke-linejoin:miter;stroke-opacity:1"
     d="M 100.834,101.49941 C 97.00034,104.99881 95.00034,111.99881 95.000236,117.83289 95.000133,123.66698 96.999792,128.33285 99.667056,131.16657 102.33432,134.0003 105.66731,135.00019 112.49993,133.50025 119.33255,132.0003 129.66788,127.99953 143.33355,121.99995 156.99922,116.00036 174.0012,107.99943 186.00095,102.83293 198.0007,97.666433 205.0012,95.332933 209.83417,92.666196 214.66715,89.999459 217.33427,86.998946 223.16615,83.166651 228.99803,79.334356 238.0012,74.666046 244.5009,71.999639 251.00061,69.333232 255.00114,68.666477 258.00033,69.166376 260.99953,69.666275 263.0001,71.333415 264.33328,73.666263 265.66647,75.999111 266.33317,78.999258 265.66652,83.833189 264.99986,88.66712 263.00036,95.33214 260.66677,103.49968 258.33318,111.66721 255.66699,121.33214 252.97327,130.75683 250.27955,140.18152 247.66702,148.99881 246.50017,156.16596 245.33332,163.33311 245.66661,168.66574 246.16659,172.16609 246.66658,175.66644 247.33312,177.33281 248.83392,178.49994 250.33472,179.66706 252.66733,180.33352 256.99959,182.49967 261.33186,184.66581 267.66698,188.33352 272.5004,190.66683 277.33381,193.00014 280.66731,194.00019 283.29922,196.59215 285.93113,199.18411 287.9998,203.66623 289.16655,207.99954 290.3333,212.33286 290.6666,216.66575 290.16665,221.33282 289.6667,225.99988 288.33365,230.99882 285.99991,240.33377 283.66616,249.66873 280.33362,263.33216 277.00031,273.33242 273.66701,283.33268 270.33396,289.66548 269.66717,293.83293 269.00038,298.00038 271,300 274.16726,299.83301 277.33452,299.66603 281.66786,297.33269 284.83391,293.83305 287.99997,290.33341 290.00052,285.66546 292.8003,277.76896 295.60008,269.87247 299.33372,258.33213 302.17135,246.63911 305.00899,234.94609 307.00019,222.99886 307.50008,213.666 307.99997,204.33313 306.99988,197.66584 302.83401,192.99985 298.66814,188.33387 291.33389,185.66687 285.46698,183.23345 279.60006,180.80003 274.66707,178.33353 271.50013,176.33336 268.33319,174.33319 266.66667,172.66667 264.83323,169.66645 262.9998,166.66623 260.99979,162.33289 261.62032,154.81905 262.24085,147.3052 265.66703,135.99881 269.00018,124.9994 272.33333,114 275.66703,102.99881 278.00025,94.665791 280.33346,86.332777 281.66694,80.665496 284.33358,75.999317 287.00021,71.333138 291.00104,67.665712 293.00052,64.665993 295,61.666274 295,59.332333 295.16665,56.499669 295.3333,53.667006 295.66678,50.332244 293.6675,47.000055 291.66823,43.667866 287.33348,40.333443 283.16675,37.166732 279.00003,34.000022 275.00016,31.00012 270.83393,30.499823 266.6677,29.999525 262.33454,31.999445 255.66662,35.333394 248.9987,38.667343 240.0012,43.332713 229.66708,48.833121 219.33297,54.33353 207.66786,60.666018 196.64679,65.778188 185.62572,70.890357 174.66788,74.999547 164.53473,79.239405 154.40158,83.479263 144.0012,88.332771 136.00084,91.499654 128.00047,94.666537 122.00119,96.333004 116.1672,97.166502 110.33321,98 104.66767,98 100.834,101.49941 Z"
     id="path21"
     inkscape:connector-curvature="0"
     inkscape:path-effect="#path-effect23"
     inkscape:original-d="M 99,98 C 97.001,104.999 95.001,111.999 93,119 95.00134,123.66646 97.001,128.33233 99,133 102.33468,133.9991 105.66767,134.999 109,136 119.33234,131.99977 129.66767,127.999 140,124 156.99902,115.99993 174.001,107.999 191,100 198.0005,97.665832 205.001,95.332333 212,93 214.66721,89.999514 217.33433,86.999 220,84 228.99783,79.333975 238.001,74.665667 247,70 251.00047,69.332422 255.001,68.665667 259,68 261.00043,69.665194 263.001,71.332333 265,73 265.66763,75.998853 266.33433,78.999 267,82 265.00051,88.667314 263.001,95.332333 261,102 258.33386,111.6674 255.66767,121.33233 253,131 249.66726,140.0001 247.66767,148.999 245,158 245.33438,163.33304 245.66767,168.66567 246,174 246.66778,175.66596 247.33433,177.33233 248,179 250.33506,179.66587 252.66767,180.33233 255,181 261.33254,184.66463 267.66767,188.33233 274,192 277.33417,192.99895 280.66767,193.999 284,195 286.33388,198.99823 288.001,203.66567 290,208 290.33437,212.33278 290.66767,216.66567 291,221 289.66738,226.00006 288.33433,230.999 287,236 283.66688,249.6689 280.33433,263.33233 277,277 273.66738,283.33288 270.33433,289.66567 267,296 269.00138,297.99938 271.001,299.999 273,302 277.33433,299.66567 281.66767,297.33233 286,295 288.00045,290.33362 290.001,285.66567 292,281 295.99997,270.00184 299.33433,258.33233 303,247 305.33409,235.00027 307.001,222.999 309,211 308.00109,204.33296 307.001,197.66567 306,191 298.66858,188.33267 291.33433,185.66567 284,183 279.66733,180.66549 274.66767,178.33233 270,176 268.00083,174.66555 266.66767,172.66567 265,171 263.001,166.66567 261.001,162.33233 259,158 262.33399,147.33343 265.66767,135.999 269,125 272.33397,114.00019 275.66767,102.999 279,92 280.33419,86.332948 281.66767,80.665667 283,75 287.00017,71.333091 291.001,67.665667 295,64 295.001,61.666274 295.001,59.332333 295,57 295.33419,53.667095 295.66767,50.332333 296,47 291.66908,43.666756 287.33433,40.332333 283,37 279.00087,33.9989 275.001,30.999 271,28 266.66749,29.99908 262.33433,31.999 258,34 248.9985,38.666964 240.001,43.332333 231,48 219.33278,54.333176 207.66767,60.665667 196,67 185.66661,70.999409 174.66767,74.999 164,79 154.33324,83.332823 144.001,88.332333 134,93 128.00028,94.665867 122.001,96.332333 116,98 110.33321,97.999 104.66767,97.999 99,98 Z" />
  <path
     style="fill:none;stroke:#000000;stroke-width:1px;stroke-linecap:butt;stroke-linejoin:miter;stroke-opacity:1"
     d="M 202.00056,139.16618 C 197.33404,143.99883 190.66738,154.99882 184.50046,164.49927 178.33354,173.99971 172.66747,181.99886 167.83375,189.9994 163.00003,197.99994 159.0006,205.9988 154.66705,212.9993 150.33349,219.99979 145.66753,225.99889 142.83417,229.49904 140.00082,232.99918 139.001,233.999 136.66567,233.99909 134.33035,233.99919 130.66735,233.00019 126.16687,231.83339 121.66639,230.6666 116.33404,229.33351 111.66734,229.16667 107.00065,228.99984 103.00118,229.99971 99.83401,231.99974 96.666843,233.99977 94.334195,236.99889 93.577429,239.11494 92.820664,241.231 93.333179,241.99977 95.640585,242.17089 97.947992,242.342 102.00113,241.66648 106.02743,241.67105 110.05372,241.67562 114.00081,242.33347 117.50021,243.66661 120.99962,244.99975 124.00023,247.00015 124.66715,249.66602 125.33406,252.33188 123.66727,255.66547 121.16687,258.9995 118.66647,262.33353 115.33433,265.66567 112.50055,268.99943 109.66677,272.33319 107.33413,275.66553 106.33373,278.66612 105.33334,281.66672 105.66656,284.33247 108.66804,282.99822 111.66953,281.66397 117.33436,276.33236 123.16719,271.33284 129.00002,266.33332 135.00111,261.66581 139.10691,259.80706 143.21271,257.94831 145.66715,259.00021 147.66667,260.66643 149.66619,262.33266 151.3332,264.66648 150.99062,266.12723 150.64805,267.58799 147.66785,268.33304 145.50037,268.16639 143.33289,267.99974 141.66696,267.00018 140.33389,266.50009 139.00082,266 137.33433,266 136.00022,267.83411 134.6661,269.66821 133.33377,273.33213 132.83353,275.99928 132.33329,278.66644 132.66651,280.33256 133.50058,281.33311 134.33466,282.33366 135.66738,282.66684 136.33369,284.99844 137,287.33004 137,291.66567 136.83334,295.99946 136.66667,300.33326 136.33342,304.6656 138.00072,307.66644 139.66802,310.66728 143.33378,312.33354 146.66731,312.66663 150.00083,312.99972 153.0012,311.9996 153.3344,310.3336 153.6676,308.6676 151.33333,306.33333 149.49995,304.33327 147.66657,302.33321 146.33324,300.66655 145.83335,298.66613 145.33347,296.66572 145.66683,294.33221 147.83257,294.49888 149.99831,294.66554 154.00023,297.33349 156.8339,298.66674 159.66757,300 161.33433,300 162.66737,299.4998 164.0004,298.9996 165.66767,297.33233 167.0006,296.33278 168.33353,295.33323 169.66787,294.66607 171.09159,295.54529 172.51532,296.42451 174.33316,299.33306 176.02977,300.88233 177.72637,302.43159 178.66738,302.66684 181.8324,304.99897 184.99743,307.3311 190.00008,311.66673 195.58201,316.40167 201.16394,321.13662 207.0001,326.00008 212.83346,330.33342 218.66682,334.66677 224.33358,338.33349 228.66696,340.83349 233.00033,343.33348 236.00047,344.66687 238.41535,346.43158 240.83024,348.19628 242.33325,349.9999 241.00041,352.66627 239.66756,355.33264 235.33444,358.66581 232.83392,361.99943 230.33339,365.33304 229.6669,368.66552 231.20136,369.3988 232.73583,370.13209 237.0012,367.9994 240.66734,365.83299 244.33347,363.66657 247.66781,361.33253 249.66773,359.99936 251.66764,358.66618 252.33453,358.33273 253.66603,357.99991 254.99753,357.66708 257.00114,357.33314 260.66568,360.3314 264.33023,363.32965 269.66659,369.66658 275.00011,374.66672 280.33362,379.66687 285.66688,383.33348 292.83334,388.5 299.99981,393.66652 309.00017,400.33346 317.66675,406.83339 326.33333,413.33333 334.66682,419.66679 343.03764,425.09721 351.40846,430.52763 360.33369,435.33352 368.16686,439.66677 376.00003,444.00002 383.00032,448.00018 389.33383,450.16678 395.66734,452.33337 401.33427,452.66672 407.83379,451.00003 414.33332,449.33334 421.66787,445.66607 431.83347,441.83318 441.99907,438.00029 455.00119,433.99963 461.92738,431.28851 468.85357,428.57739 470.0007,426.66549 469.50106,424.83345 469.00141,423.00141 467,421 462.16696,418.66677 457.33391,416.33353 449.66725,413.66687 440.66691,411.00009 431.66658,408.33331 421.33403,405.66685 410.83367,403.00009 400.33332,400.33333 389.66738,397.66684 379.50028,394.33339 369.33319,390.99994 359.66717,387.00021 349.83353,382.50007 339.99988,377.99994 330.0004,373.0002 319.83355,368.16678 309.66671,363.33335 299.33379,358.66687 290.50015,353.66672 281.66652,348.66656 274.33351,343.33346 269.58263,339.42773 264.83174,335.52199 262.33327,332.6666 258.66696,330.33343 255.00065,328.00026 250.00052,326.00021 244.50012,323.33336 238.99972,320.66651 233.00034,317.33352 226.83339,313.16667 220.66644,308.99982 214.33346,304.0001 208.33349,299.83344 202.33353,295.66678 196.66697,292.33351 191.33341,288.6667 185.99985,284.99988 181.00012,281.0001 178.16667,276.33289 175.33321,271.66568 174.66656,266.33247 172.83363,262.66647 171.00071,259.00047 168.00023,257.00015 164.52231,254.93511 161.0444,252.87006 156.33369,250.33352 154.86618,246.89391 153.39868,243.45429 154.66704,239.33213 160.66583,230.83394 166.66463,222.33575 177.33424,209.66559 185.66722,198.33263 194.0002,186.99967 200.00071,176.99882 204.66732,170.33244 209.33394,163.66606 212.66767,160.33233 214.16718,156.66631 215.66669,153.00029 215.33326,148.99909 214.66664,145.66624 214.00002,142.33339 212.9998,139.66612 211.16704,137.66663 209.33428,135.66714 206.66707,134.33353 202.00056,139.16618 Z"
     id="path25"
     inkscape:connector-curvature="0"
     inkscape:path-effect="#path-effect27"
     inkscape:original-d="M 204,133 C 197.33433,143.999 190.66767,154.999 184,166 178.33373,173.99985 172.66767,181.999 167,190 163.00043,198.00014 159.001,205.999 155,214 150.33363,219.9999 145.66767,225.999 141,232 140.00082,232.99918 139.001,233.999 138,235 134.33067,233.998 130.66767,232.999 127,232 121.66668,230.66542 116.33433,229.33233 111,228 107.00047,228.99913 103.001,229.999 99,231 96.66698,233.99988 94.334333,236.999 92,240 92.667913,241.33283 93.334333,241.999 94,243 98.001923,242.66559 102.001,241.66567 106,241 109.99987,241.99872 114.001,242.33233 118,243 121.00039,244.99859 124.001,246.999 127,249 125.33446,252.33208 123.66767,255.66567 122,259 118.66647,262.33353 115.33433,265.66567 112,269 109.66697,272.33333 107.33433,275.66567 105,279 105.33445,281.66658 105.66767,284.33233 106,287 111.6695,281.66394 117.33433,276.33233 123,271 128.99991,266.33318 135.001,261.66567 141,257 143.3339,257.66554 145.66767,258.999 148,260 149.66732,262.33185 151.33433,264.66567 153,267 150.66748,267.66572 147.66767,268.33233 145,269 143.3336,267.99856 141.66767,266.999 140,266 139.00082,265.999 137.33433,265.999 136,266 134.66667,269.66842 133.33433,273.33233 132,277 132.33444,278.66621 132.66767,280.33233 133,282 134.33495,282.33249 135.66767,282.66567 137,283 137.001,287.33004 137.001,291.66567 137,296 136.66759,300.33333 136.33433,304.66567 136,309 139.66857,310.66608 143.33433,312.33233 147,314 150.00063,312.99912 153.001,311.999 156,311 153.6686,308.6666 151.33433,306.33233 149,304 147.66767,302.33233 146.33433,300.66567 145,299 145.33431,296.66584 145.66767,294.33233 146,292 149.99908,294.66439 154.001,297.33233 158,300 159.66757,299.999 161.33433,299.999 163,300 164.0004,298.9996 165.66767,297.33233 167,296 168.33333,295.33283 169.66767,294.66567 171,294 172.66617,296.33023 174.33433,299.33233 176,302 177.66784,302.66573 178.66767,302.66567 180,303 184.99835,307.33004 190.001,311.66567 195,316 201.00091,321.33225 207.001,325.999 213,331 218.66757,334.66561 224.33433,338.33233 230,342 233.00087,343.33227 236.001,344.66567 239,346 240.66741,348.33197 242.33433,349.999 244,352 239.66745,355.3325 235.33433,358.66567 231,362 230.33416,365.33319 229.66767,368.66567 229,372 232.66894,369.99831 237.001,367.999 241,366 244.33333,363.66637 247.66767,361.33233 251,359 251.66744,358.66578 252.33433,358.33233 253,358 254.9974,357.66627 257.001,357.33233 259,357 264.33131,363.32874 269.66767,369.66567 275,376 280.33441,379.66572 285.66767,383.33233 291,387 300.00064,393.6654 309.001,400.33233 318,407 326.33418,413.33222 334.66767,419.66567 343,426 351.33418,430.66558 360.33433,435.33233 369,440 376.00071,443.99883 383.001,447.999 390,452 395.6674,452.33232 401.33433,452.66567 407,453 414.33312,449.33294 421.66767,445.66567 429,442 441.99887,437.99965 455.001,433.999 468,430 469.00091,428.66579 470.001,426.66567 471,425 469.00241,423.00041 467.001,420.999 465,419 457.33433,416.33233 449.66767,413.66567 442,411 431.66688,408.33213 421.33433,405.66567 411,403 400.33361,400.33215 389.66767,397.66567 379,395 369.33369,390.99874 359.66767,386.999 350,383 340.00048,377.99874 330.001,372.999 320,368 309.66725,363.33215 299.33433,358.66567 289,354 281.66734,348.66543 274.33433,343.33233 267,338 264.66761,335.66561 262.33433,332.66567 260,330 255.00113,327.99905 250.001,325.999 245,324 239.00038,320.66532 233.001,317.33233 227,314 220.66731,308.99872 214.33433,303.999 208,299 202.33422,295.6656 196.66767,292.33233 191,289 186.00073,284.99878 181.001,280.999 176,277 175.33432,271.66554 174.66767,266.33233 174,261 171.00148,258.99932 168.001,256.999 165,255 161.33405,252.33213 156.33433,250.33233 152,248 153.00108,243.33195 154.66767,239.33233 156,235 166.66473,222.33583 177.33433,209.66567 188,197 194.00049,186.99985 200.001,176.999 206,167 209.33394,163.66606 212.66767,160.33233 216,157 215.66777,153.0002 215.33433,148.999 215,145 214.00123,142.33294 213.001,139.66567 212,137 209.33488,135.66594 206.66767,134.33233 204,133 Z" />
  <path
     d="M 270.91587,296.78076 C 270.28725,295.14261 270.61034,294.02334 277.00982,275.66958 278.97171,270.04285 282.9121,256.31785 285.76623,245.16958 289.91302,228.97219 290.95334,223.29279 290.94448,216.9 290.9321,207.95557 288.38376,200.43223 283.9493,196.24839 282.58031,194.95678 273.95418,190.075 264.78012,185.4 L 248.1,176.9 247.17741,171.45815 C 245.75677,163.07859 247.68447,153.08737 257.12503,119.9 266.39084,87.32696 267.8848,78.785217 265.21804,73.628256 264.31673,71.885324 262.71354,69.995949 261.65539,69.429644 254.59243,65.649665 236.60984,72.479299 217.1,86.351397 212.7,89.479933 205.5,93.558736 201.1,95.415404 196.7,97.272073 180.5,104.3801 165.1,111.21103 118.26218,131.98672 108.87188,135.14332 102.97583,132.09435 96.408591,128.6983 94.171163,116.66137 98.352367,107.221 100.94615,101.36472 103.32166,100.13015 116.08532,98.005047 126.63827,96.248023 131.03525,94.619617 172.9976,76.927793 198.44809,66.197568 201.66481,64.650316 236.6,46.334815 250.075,39.270266 263.26573,32.919008 265.91273,32.220908 270.46696,31.019809 271.00407,31.098575 275.91273,33.687392 283.42306,37.648328 292.23254,45.756555 293.63163,49.995833 295.6322,56.057641 294.12347,61.360074 288.15735,69.235069 281.86873,77.535756 281.81416,77.675767 272.50219,109.4 259.40279,154.02735 258.6132,159.02031 263.19969,168.2242 266.42211,174.69075 270.43091,177.54586 286.07583,184.51678 303.26423,192.17544 306.58159,196.25853 306.59442,209.77166 306.61327,229.60966 294.1833,277.983 285.81175,290.65096 281.5071,297.16484 272.48754,300.87648 270.91587,296.78076 Z"
     id="path29"
     inkscape:connector-curvature="0" />
  <path
     d="M 392.96687,450.25717 C 385.7921,448.64512 356.41239,432.80165 340.38207,421.9 315.86362,405.22587 280.37144,378.17973 270.58257,368.71063 264.78917,363.10647 258.85406,358.06689 257.39343,357.51156 254.48936,356.40744 251.77192,357.54499 240.15883,364.72616 230.45421,370.7272 228.77474,369.03426 235.85,360.38279 242.88649,351.77874 243.23516,351.01832 241.41654,348.24275 240.55607,346.92951 237.43284,344.55262 234.47602,342.96078 221.88859,336.18415 197.81297,318.06245 175.95226,298.91 170.16742,293.84183 168.9461,293.55332 165.32713,296.4 161.95184,299.055 159.71443,298.92483 153.11815,295.68972 148.01618,293.18748 147.46721,293.10422 145.96635,294.60508 143.7639,296.80752 144.74307,300.1851 149.0936,305.39234 151.02246,307.70104 152.34893,309.99723 152.04129,310.49499 151.73366,310.99274 149.67391,311.4 147.46406,311.4 144.35655,311.4 142.78383,310.73768 140.52308,308.47692 137.66555,305.6194 137.6,305.31968 137.6,295.11178 137.6,285.98553 137.33275,284.32996 135.47912,281.97346 133.06613,278.90584 133.3321,273.984 136.14266,269.69454 137.45615,267.68991 138.29892,267.33017 140.43837,267.86091 146.72273,269.4199 148.2026,269.45055 150.07724,268.06057 154.9053,264.48071 146.9148,256.58894 140.36428,258.4676 136.32812,259.62516 132.37685,262.42032 119.30748,273.36337 113.37159,278.33352 108.08409,282.4 107.55748,282.4 104.77769,282.4 108.95876,274.35914 115.41847,267.28207 125.61216,256.11417 127.75708,250.55708 123.51235,246.31235 119.54808,242.34808 114.71255,241.02525 104.35,241.07021 97.724986,241.09895 94.6,240.74913 94.6,239.97876 94.6,237.78229 97.775354,234.35119 101.62624,232.38661 106.78931,229.75261 113.62755,229.86439 126.1,232.78666 134.14138,234.67074 136.64187,234.91129 138.86658,234.01482 142.61394,232.50479 151.63402,220.19499 161.16085,203.58962 170.01377,188.15887 200.31967,141.78279 203.21195,139.24025 206.46847,136.37752 208.77477,136.6261 211.14436,140.09523 216.14788,147.42049 215.00748,155.08794 207.43839,165.01229 204.96865,168.25053 199.20566,176.525 194.63175,183.4 190.05783,190.275 181.95413,201.525 176.62354,208.4 156.12066,234.84307 153.6,238.76793 153.6,244.24938 153.6,248.08518 155.71828,250.50474 163.58512,255.65463 170.44105,260.14275 171.3644,261.39732 174.74576,270.81881 178.34914,280.85889 180.18958,282.3937 225.52011,313.16133 230.70118,316.67792 240.37618,322.27893 247.02011,325.60802 254.93976,329.57633 261.51076,333.74328 266.1,337.70738 277.22991,347.32118 288.03596,353.79026 314.25556,366.53587 363.86631,390.65215 372.52137,394.00595 411.1,404.06268 448.69952,413.86417 463.02119,418.76985 466.94796,423.1926 470.23679,426.89683 467.9017,428.34178 447.23741,435.38945 439.46183,438.04135 428.375,442.10999 422.6,444.43087 405.4174,451.33628 401.33877,452.1382 392.96687,450.25717 Z"
     id="path31"
     inkscape:connector-curvature="0" />
</svg>
