<?xml version="1.0" encoding="UTF-8" standalone="no"?>
<!-- Created with Inkscape (http://www.inkscape.org/) -->

<svg
   xmlns:dc="http://purl.org/dc/elements/1.1/"
   xmlns:cc="http://creativecommons.org/ns#"
   xmlns:rdf="http://www.w3.org/1999/02/22-rdf-syntax-ns#"
   xmlns:svg="http://www.w3.org/2000/svg"
   xmlns="http://www.w3.org/2000/svg"
   xmlns:sodipodi="http://sodipodi.sourceforge.net/DTD/sodipodi-0.dtd"
   xmlns:inkscape="http://www.inkscape.org/namespaces/inkscape"
   width="512"
   height="512"
   viewBox="0 0 512 512"
   version="1.1"
   id="svg8"
   inkscape:version="0.92.4 (5da689c313, 2019-01-14)"
   sodipodi:docname="恭U+606D-2.svg">
  <defs
     id="defs2">
    <inkscape:path-effect
       effect="bspline"
       id="path-effect35"
       is_visible="true"
       weight="33.333333"
       steps="2"
       helper_size="0"
       apply_no_weight="true"
       apply_with_weight="true"
       only_selected="false" />
    <inkscape:path-effect
       effect="bspline"
       id="path-effect31"
       is_visible="true"
       weight="33.333333"
       steps="2"
       helper_size="0"
       apply_no_weight="true"
       apply_with_weight="true"
       only_selected="false" />
    <inkscape:path-effect
       effect="bspline"
       id="path-effect27"
       is_visible="true"
       weight="33.333333"
       steps="2"
       helper_size="0"
       apply_no_weight="true"
       apply_with_weight="true"
       only_selected="false" />
    <inkscape:path-effect
       effect="bspline"
       id="path-effect23"
       is_visible="true"
       weight="33.333333"
       steps="2"
       helper_size="0"
       apply_no_weight="true"
       apply_with_weight="true"
       only_selected="false" />
  </defs>
  <sodipodi:namedview
     id="base"
     pagecolor="#ffffff"
     bordercolor="#666666"
     borderopacity="1.0"
     inkscape:pageopacity="0.0"
     inkscape:pageshadow="2"
     inkscape:zoom="1"
     inkscape:cx="400"
     inkscape:cy="160"
     inkscape:document-units="px"
     inkscape:current-layer="svg8"
     showgrid="false"
     units="px"
     inkscape:window-width="1920"
     inkscape:window-height="1001"
     inkscape:window-x="-9"
     inkscape:window-y="-9"
     inkscape:window-maximized="1" />
  <metadata
     id="metadata5">
    <rdf:RDF>
      <cc:Work
         rdf:about="">
        <dc:format>image/svg+xml</dc:format>
        <dc:type
           rdf:resource="http://purl.org/dc/dcmitype/StillImage" />
        <dc:title></dc:title>
      </cc:Work>
    </rdf:RDF>
  </metadata>
  <g
     inkscape:label="圖層 1"
     inkscape:groupmode="layer"
     id="layer1"
     transform="translate(0,-161.53331)" />
  <path
     style="fill:none;stroke:#000000;stroke-width:1px;stroke-linecap:butt;stroke-linejoin:miter;stroke-opacity:1"
     d="M 182.83366,114.16639 C 180.99982,115.66599 181.99981,119.33265 184.45236,122.40879 186.9049,125.48494 190.33359,127.66683 192.83333,131.83283 195.33308,135.99884 196.6665,141.99926 198.33327,147.33301 200.00004,152.66676 201.99979,157.33285 200.16674,159.49977 198.33369,161.66669 192.66761,161.33339 187.83372,160.33333 182.99984,159.33327 179.0005,157.66687 174.66695,156.16678 170.33341,154.66669 165.66733,153.33352 162.66707,154.99983 159.66682,156.66614 158.33367,161.33214 159.00043,165.83315 159.66718,170.33416 162.33316,174.66639 165.07431,179.12076 167.81546,183.57513 170.33316,187.66639 172.33319,191.16641 174.33322,194.66644 175.66647,197.33293 177.83376,199.16664 180.00105,201.00035 183.0006,202.0002 186.66701,200.16672 190.33343,198.33323 194.66763,193.66563 198.16745,190.666 201.66727,187.66636 204.33453,186.33273 205.83384,189.66409 207.33314,192.99544 207.66663,200.99904 208.11658,205.84933 208.56654,210.69961 209.33313,212.9994 208.9999,213.66637 208.66667,214.33333 207.33373,213.66687 204.99985,212.33322 202.66596,210.99958 199.33362,209.00017 197.03518,208.25274 194.73673,207.50531 192.66788,208.33285 191.33378,210.16691 189.99968,212.00097 189.0004,214.9988 185.83306,217.33288 182.66573,219.66696 177.33453,221.33296 170.80581,223.04408 164.2771,224.7552 157.3345,226.33307 150.83403,227.66651 144.33357,228.99996 138.66781,229.9998 134.66761,230.99974 130.66741,231.99968 128.33454,232.99948 126.00016,232.83282 123.66578,232.66616 121.33365,231.33352 119.5004,231.833 117.66716,232.33248 116.33401,234.66549 116.26721,237.03315 116.20041,239.40082 117.66647,242.33293 118.9999,244.9998 120.33333,247.66667 121.66647,250.33293 122.33323,253.16619 123,255.99945 123,258.999 124.16715,261.33318 125.3343,263.66736 127.66686,265.33347 129.33333,266.83327 130.9998,268.33307 131.99988,269.66651 134.66747,269.33286 137.33506,268.99921 141.66787,266.99944 146.66694,262.66678 151.666,258.33412 157.33424,251.6656 162.16739,247.16597 167.00054,242.66635 171.00118,240.33264 174.85064,238.54964 178.7001,236.76663 183.0012,235.33293 186.0008,234.66647 189.0004,234 190.33433,234 191.01443,235.83285 191.69453,237.66569 191.33342,241.99892 189.15194,250.54747 186.97045,259.09602 183.00037,271.99881 177.93982,285.64026 172.87927,299.28171 167.00052,312.99879 159.3336,326.33271 151.66669,339.66663 142.33416,352.33221 131.66707,364.16612 120.99997,376.00003 109.00104,386.99905 99.834172,394.33267 90.667302,401.6663 84.334517,405.33265 78.000599,408.16632 71.666681,411 65.33453,412.99962 61.167676,414.49961 57.000822,415.99959 55.0012,416.9994 57.336407,417.66649 59.671614,418.33358 66.334281,418.66671 73.50051,418.00002 80.66674,417.33332 88.334495,415.66641 96.051848,412.24347 103.7692,408.82053 112.00116,403.33256 119.6672,396.83299 127.33325,390.33342 134.66764,382.66565 141.92808,372.62455 149.18852,362.58346 156.66735,349.66549 163.16699,336.49944 169.66664,323.3334 175.33383,309.66546 179.83362,297.49927 184.33341,285.33308 187.66704,274.66547 191.66695,265.49925 195.66686,256.33302 200.33405,248.6655 204.33403,243.99924 208.33402,239.33299 211.66787,237.66607 214.00096,236.49952 216.33405,235.33297 217.66787,234.66607 218.50055,233.33337 219.33322,232.00067 219.66686,229.99886 219.00072,228.4998 218.33457,227.00074 216.66696,226.00018 214.83361,225.1668 213.00025,224.33342 211.0006,223.66687 213.30315,222.67286 215.6057,221.67886 222.33448,220.3331 227.33422,219.16646 232.33395,217.99981 235.66786,216.99964 239.07365,217.54365 242.47944,218.08766 245.66696,220.00018 249.83319,224.49969 253.99942,228.99919 258.99986,235.99981 267.91633,246.59172 276.8328,257.18362 289.33328,270.99995 302.14559,286.80469 314.95789,302.60944 327.99987,320.33316 337.58807,332.08315 347.17627,343.83314 353.00003,349.33336 358.49995,355.33327 363.99987,361.33317 368.9999,367.66654 372.49993,371.99992 375.99997,376.3333 377.99993,378.66659 381.66731,379.16646 385.3347,379.66633 390.66785,378.33304 397.33359,377.16656 403.99934,376.00008 412.00111,374.99986 420.0005,374.49993 427.99989,374 436.001,374 440.1288,373.35848 444.25661,372.71695 444.6669,370.66552 445.16672,368.6663 445.66655,366.66709 446.33367,364.33214 446.16699,362.16638 446.00031,360.00062 444.9998,357.9996 443.85958,357.12786 442.71936,356.25613 440.66782,356.66644 436.99898,356.16617 433.33013,355.66591 427.66739,354.3335 416.83283,348.99958 405.99826,343.66565 390.00031,334.33351 374.16671,323 358.33312,311.66648 342.66675,298.33341 329.1667,286.50003 315.66665,274.66665 304.33338,264.33337 295.66671,256.50003 287.00003,248.6667 281.00006,243.33339 275.32843,237.82812 269.6568,232.32285 264.3333,226.66664 261.33323,222.49964 258.33316,218.33264 257.66649,215.66596 258.50017,213.49946 259.33386,211.33296 261.6678,209.66586 267.16564,208.66632 272.66349,207.66679 281.33437,207.33329 289.33386,207.49998 297.33336,207.66667 304.66757,208.33342 310.0675,207.79985 315.46744,207.26628 318.66787,205.66607 318.74707,207.05464 318.82628,208.44321 315.33414,213.3322 316.16821,215.49936 317.00228,217.66651 322.00106,217.33326 329.16669,217.33328 336.33231,217.3333 345.66763,217.6667 352.66747,217.49997 359.66731,217.33324 364.33445,216.66651 365.66737,214.50018 367.00029,212.33386 364.99981,208.66632 362.5,204.99995 360.0002,201.33357 356.99991,197.66656 354.83366,195.66671 352.66742,193.66685 351.33404,193.33351 349.66706,193.33341 348.00008,193.33332 346.00113,193.66648 344.16735,194.33317 342.33356,194.99986 340.66785,195.99929 337.49954,197.16661 334.33123,198.33393 329.66786,199.66633 324.3335,199.49971 318.99914,199.33309 313.00067,197.66685 307.50061,197.16672 302.00055,196.66659 297.00111,197.33318 291.83389,198.33326 286.66666,199.33334 281.33451,200.66637 275.33377,202.16656 269.33304,203.66674 262.66785,205.33304 258.69782,205.05334 254.7278,204.77365 253.33315,202.33301 254.66674,198.6663 256.00033,194.99959 260.00088,189.9989 263.00046,184.9994 266.00004,179.99989 268.00048,174.99879 269.50047,171.66568 271.00046,168.33256 272.0007,166.66549 273.99941,166.83212 275.99811,166.99874 279.00023,169.00015 282.33381,170.00008 285.66738,171 290.001,171 294.5922,169.38019 299.18339,167.76038 304.66784,164.3326 311.167,160.33312 317.66616,156.33364 325.3345,151.66595 331.00085,147.83276 336.6672,143.99957 340.33442,140.99911 342.16721,138.99921 344,136.9993 344,135.33233 343.16735,134.00005 342.3347,132.66776 340.66679,131.33343 338.83352,130.16678 337.00025,129.00013 335.0004,128.0002 333.16708,127.33348 331.33377,126.66675 329.66744,126.33349 324.95687,128.42824 320.24631,130.52299 312.00118,135.33264 306.33426,138.66612 300.66735,141.99959 297.33451,143.9993 294.00054,145.16632 290.66658,146.33334 287.33442,146.66656 284.66738,146.83328 282.00035,147 280.001,147 280.16797,143.83115 280.33494,140.6623 282.66711,134.33212 285.50025,128.33268 288.33339,122.33323 291.66736,116.66549 294.66715,111.99923 297.66693,107.33297 300.33415,103.66554 301.66708,99.166425 303,94.66731 303,89.332333 300.83366,83.333335 298.66732,77.334337 294.33317,70.666419 290.50001,65.83329 286.66685,61.000161 283.33339,58.000048 280.16678,55.500084 277.00018,53.000121 274.00023,51.000154 271.00053,51.333044 268.00082,51.665934 265.00106,54.332395 263.50053,56.9995 262,59.666605 262,62.332333 262,64.83277 262,67.333208 262,69.665667 263.00037,72.166659 264.00074,74.667651 265.99988,77.333173 266.99994,79.9995 268,82.665827 268,85.332333 267.69666,90.002942 267.39331,94.673552 266.66676,102.66559 265.33336,110.99957 263.99995,119.33355 262.00025,128.66551 260.16681,137.33267 258.33337,145.99984 256.66691,153.99884 254.83343,162.66618 252.99996,171.33352 251.00025,180.66551 249.50024,186.99903 248.00023,193.33256 247.00036,196.66548 246.00023,199.66595 245.00009,202.66642 244.00045,205.33212 240.98988,207.29365 237.9793,209.25518 232.33451,210.66637 228.16736,211.16653 224.00022,211.66669 221.00088,211.33343 220.50084,205.99796 220.00081,200.66249 222.00022,190.33218 223.16678,181.33266 224.33334,172.33315 224.66671,164.66563 224.16671,156.9996 223.66671,149.33357 222.33319,141.66587 221.6666,137.16584 221,132.66581 221,130.66567 220.16723,129.16662 219.33445,127.66756 217.66679,126.33343 214.50017,124.83342 211.33356,123.33341 206.66724,121.66687 203.00021,119.83338 199.33317,117.99988 196.66683,116.00012 193.00036,114.66677 189.33389,113.33341 184.66751,112.66679 182.83366,114.16639 Z"
     id="path21"
     inkscape:connector-curvature="0"
     inkscape:path-effect="#path-effect23"
     inkscape:original-d="M 180,112 C 181.001,115.66567 182.001,119.33233 183,123 187.00174,125.33276 190.33433,127.66567 194,130 195.33424,135.99858 196.66767,141.999 198,148 200.00125,152.66624 202.001,157.33233 204,162 198.33375,161.66563 192.66767,161.33233 187,161 183.00034,159.33206 179.001,157.66567 175,156 170.33375,154.6655 165.66767,153.33233 161,152 159.66748,156.66633 158.33433,161.33233 157,166 159.66835,170.33344 162.33433,174.66567 165,179 167.66784,183.66597 170.33433,187.66567 173,192 174.33442,194.66584 175.66767,197.33233 177,200 180.00145,200.99915 183.001,201.999 186,203 190.33347,198.33327 194.66767,193.66567 199,189 201.66707,187.66596 204.33433,186.33233 207,185 207.33418,192.9954 207.66767,200.999 208,209 208.66775,210.66587 209.33433,212.999 210,215 208.66727,214.33213 207.33433,213.66567 206,213 202.66667,210.9984 199.33433,208.999 196,207 194.66755,207.33236 192.66767,208.33233 191,209 190.00028,212.00117 189.001,214.999 188,218 182.66553,219.66633 177.33433,221.33233 172,223 164.33261,224.99945 157.33433,226.33233 150,228 144.33343,228.99916 138.66767,229.999 133,231 130.6672,231.9992 128.33433,232.999 126,234 123.66646,232.66498 121.33433,231.33233 119,230 117.66748,232.33266 116.33433,234.66567 115,237 116.33501,239.33352 117.66767,242.33233 119,245 120.33453,247.66607 121.66767,250.33233 123,253 123.001,255.99945 123.001,258.999 123,262 125.33511,263.66622 127.66767,265.33233 130,267 131.00092,268.33223 132.001,269.66567 133,271 137.33485,268.99876 141.66767,266.999 146,265 151.66609,258.33419 157.33433,251.66567 163,245 167.00036,242.66604 171.001,240.33233 175,238 178.66658,236.66606 183.001,235.33233 187,234 189.0004,233.66577 190.33433,233.999 192,234 191.66787,237.66347 191.33433,241.999 191,246 186.6665,259.0025 183.001,271.999 179,285 173.00045,299.33365 167.001,312.999 161,327 151.66686,339.66676 142.33433,352.33233 133,365 120.99993,375.99998 109.001,386.999 97,398 90.667117,401.66598 84.334333,405.33233 78,409 71.666484,410.99937 65.334333,412.999 59,415 57.000622,415.99919 55.001,416.999 53,418 59.671667,418.33253 66.334333,418.66567 73,419 80.666577,417.33257 88.334333,415.66567 96,414 103.6665,408.66648 112.001,403.33233 120,398 127.33328,390.33344 134.66767,382.66567 142,375 149.33336,362.66731 156.66767,349.66567 164,337 169.66714,323.33361 175.33433,309.66567 181,296 184.33404,285.33328 187.66767,274.66567 191,264 195.66714,256.33319 200.33433,248.66567 205,241 208.33382,239.33259 211.66767,237.66567 215,236 216.33385,235.33257 217.66767,234.66567 219,234 219.33403,232.0008 219.66767,229.999 220,228 218.33528,226.99957 216.66767,225.999 215,225 213.00065,224.33222 211.001,223.66567 209,223 215.66967,221.9987 222.33433,220.33233 229,219 232.33376,217.99917 235.66767,216.999 239,216 242.33314,218.3315 245.66767,219.999 249,222 254.00056,228.99838 259.001,235.999 264,243 276.66801,257.33272 289.33433,270.999 302,285 315.33438,302.3324 328.001,320.33233 341,338 347.33439,343.66572 353.001,349.33233 359,355 364.00098,361.3323 369.001,367.66567 374,374 376.00104,376.33238 378.001,378.66567 380,381 385.33452,379.66562 390.66767,378.33233 396,377 403.99923,375.99922 412.001,374.999 420,374 427.99989,373.999 436.001,373.999 444,374 444.001,372.66583 444.66767,370.66567 445,369 445.66721,366.66728 446.33433,364.33233 447,362 446.00151,360.00002 445.001,357.999 444,356 442.66793,355.999 440.66767,356.66567 439,357 433.33041,355.66474 427.66767,354.33233 422,353 405.99895,343.66447 390.001,334.33233 374,325 358.33403,311.66541 342.66767,298.33233 327,285 315.6676,274.66561 304.33433,264.33233 293,254 287.00097,248.66564 281.001,243.33233 275,238 270.00095,231.99894 264.33433,226.66567 259,221 258.33434,218.33235 257.66767,215.66567 257,213 259.33372,211.33277 261.66767,209.66567 264,208 272.66345,207.66583 281.33433,207.33233 290,207 297.33346,207.66559 304.66767,208.33233 312,209 315.33392,206.99925 318.66767,205.66567 322,204 318.66887,208.33077 315.33433,213.33233 312,218 317.00222,217.66559 322.001,217.33233 327,217 336.33235,217.33226 345.66767,217.66567 355,218 359.66719,217.3324 364.33433,216.66567 369,216 367.00148,212.33321 365.001,208.66567 363,205 360.00129,201.33268 357.001,197.66567 354,194 352.66771,193.66568 351.33433,193.33233 350,193 347.99994,193.33251 346.001,193.66567 344,194 342.33339,194.99957 340.66767,195.999 339,197 334.33104,198.33327 329.66767,199.66567 325,201 318.99947,199.33191 313.001,197.66567 307,196 302.00044,196.66574 297.001,197.33233 292,198 286.66648,199.33263 281.33433,200.66567 276,202 269.33286,203.66603 262.66767,205.33233 256,207 254.33404,204.99865 253.33433,202.33233 252,200 256.00045,194.99969 260.001,189.999 264,185 266.00056,180.0001 268.001,174.999 270,170 271.00076,168.33274 272.001,166.66567 273,165 275.99888,166.99759 279.001,168.999 282,171 285.66738,170.999 290.001,170.999 294,171 299.333,167.99975 304.66767,164.33233 310,161 317.66599,156.33336 325.33433,151.66567 333,147 336.66711,143.99946 340.33433,140.999 344,138 344.001,136.9993 344.001,135.33233 344,134 342.33558,132.66667 340.66767,131.33233 339,130 337.00085,128.99893 335.001,127.999 333,127 331.334,126.6656 329.66767,126.33233 328,126 320.33079,130.66782 312.001,135.33233 304,140 300.66717,141.9993 297.33433,143.999 294,146 290.66649,146.33245 287.33433,146.66567 284,147 282.00035,146.999 280.001,146.999 278,147 280.3355,140.6625 282.66767,134.33233 285,128 288.3337,122.33341 291.66767,116.66567 295,111 297.66711,107.3331 300.33433,103.66567 303,100 303.001,94.66731 303.001,89.332333 303,84 298.66848,77.333583 294.33433,70.665667 290,64 286.66779,60.999111 283.33433,57.999 280,55 277.00095,52.998967 274.001,50.999 271,49 268.00077,51.665872 265.001,54.332333 262,57 262.001,59.666605 262.001,62.332333 262,65 262.001,67.333208 262.001,69.665667 262,72 264.00186,74.666809 266.001,77.332333 268,80 268.001,82.665827 268.001,85.332333 268,88 267.33408,94.668167 266.66767,102.66567 266,110 264.0007,119.33371 262.001,128.66567 260,138 258.33413,146 256.66767,153.999 255,162 253.00071,171.33368 251.001,180.66567 249,190 248.00088,193.33275 247.001,196.66567 246,200 245.00064,202.66662 244.001,205.33233 243,208 237.99874,209.33294 232.33433,210.66567 227,212 224.00034,211.66559 221.001,211.33233 218,211 220.00159,200.66264 222.001,190.33233 224,180 224.3343,172.33319 224.66767,164.66567 225,157 223.66785,149.33337 222.33433,141.66567 221,134 221.001,132.66581 221.001,130.66567 221,129 219.33533,127.66647 217.66767,126.33233 216,125 211.33399,123.33221 206.66767,121.66567 202,120 199.33401,117.99876 196.66767,115.999 194,114 189.33405,113.33229 184.66767,112.66567 180,112 Z" />
  <path
     style="fill:none;stroke:#000000;stroke-width:1px;stroke-linecap:butt;stroke-linejoin:miter;stroke-opacity:1"
     d="M 220.33344,254.49895 C 220.33326,257.33241 220.6666,261.66575 221.83343,265.33308 223.00027,269.00041 224.99985,271.99977 225.66661,277.83301 226.33336,283.66626 225.66675,292.33226 226.33344,303.49989 227.00012,314.66751 228.99988,328.33249 230.1666,340.49942 231.33332,352.66635 231.66664,363.33236 231.83332,373.16609 232,382.99982 232,391.33233 232.16665,397.66594 232.3333,403.99955 232.66659,407.99909 232.67312,410.80043 232.67964,413.60178 232.33356,415.33218 231.16332,416.30944 229.99307,417.2867 227.33445,417.66651 225.33342,416.66593 223.3324,415.66536 221.66653,413.33314 219.00053,411.99996 216.33453,410.66678 212.66757,410.33342 212.37686,412.1727 212.08615,414.01199 215.66656,418.66653 218.9999,424.49983 222.33324,430.33313 225.66646,437.66622 227.99985,443.99959 230.33324,450.33296 231.66649,455.66596 233.50011,459.33315 235.33372,463.00033 237.66675,465.00007 239.33349,463.83286 241.00023,462.66565 242.00027,458.33216 242.83342,451.83338 243.66657,445.3346 244.33342,436.6656 244.16672,427.83292 244.00003,419.00023 242.9999,409.99912 242.33328,400.83287 241.66666,391.66662 241.3333,382.33237 241.47499,375.66197 241.61668,368.99158 242.33351,364.3322 243.66654,362.99926 244.99958,361.66631 247.0001,363.33341 248.99989,366.66632 250.99969,369.99923 252.99979,374.99948 255.50003,379.16655 258.00026,383.33362 260.99995,386.66661 264.33384,388.33331 267.66773,390 271.33433,390 274.33411,389.33318 277.33388,388.66635 279.66786,387.33265 279.3346,384.16745 279.00135,381.00224 275.99982,375.99971 274.33322,371.33285 272.66662,366.666 272.33326,362.33241 270.63383,359.3998 268.93439,356.46719 265.33373,354.66687 262.0001,352.6667 258.66647,350.66653 255.33353,348.33347 252.16711,347.00011 249.0007,345.66674 246.00088,345.33343 243.83352,340.16482 241.66616,334.99622 240.33322,324.99915 239.49994,316.33274 238.66665,307.66634 238.33329,300.33238 239.00007,294.16591 239.66685,287.99945 241.33373,282.9988 242.33357,279.33246 243.33341,275.66611 243.66683,273.33221 243.34336,270.20591 243.0199,267.07961 241.99982,262.99929 240.50003,259.66647 239.00023,256.33364 236.99988,253.66651 233.66717,252 230.33445,250.33349 225.66751,249.66679 223.16721,249.99959 220.6669,250.33239 220.33363,251.66549 220.33344,254.49895 Z"
     id="path25"
     inkscape:connector-curvature="0"
     inkscape:path-effect="#path-effect27"
     inkscape:original-d="M 220,253 C 220.33433,257.33233 220.66767,261.66567 221,266 223.00142,268.99964 225.001,271.999 227,275 226.33428,283.66633 225.66767,292.33233 225,301 227.00125,314.66735 229.001,328.33233 231,342 231.33435,352.66632 231.66767,363.33233 232,374 231.66764,382.99982 232.001,391.33233 232,400 232.33437,403.99946 232.66767,407.999 233,412 233.001,413.66605 232.33433,415.33233 232,417 229.99962,417.33256 227.33433,417.66567 225,418 223.33353,415.66455 221.66767,413.33233 220,411 216.33463,410.66569 212.66767,410.33233 209,410 211.66832,414.3334 215.66767,418.66567 219,423 222.33444,430.33258 225.66767,437.66567 229,445 230.33442,450.33266 231.66767,455.66567 233,461 235.33464,462.99926 237.66767,464.999 240,467 241.00096,462.66582 242.001,458.33233 243,454 243.66749,445.33467 244.33433,436.66567 245,428 244.00112,419.00011 243.001,409.999 242,401 241.6677,391.66658 241.33433,382.33233 241,373 241.6676,368.99941 242.33433,364.33233 243,360 245.00048,361.66523 247.001,363.33233 249,365 251.0009,369.99875 253.001,374.999 255,380 258.00131,383.33268 261.001,386.66567 264,390 267.66773,389.999 271.33433,389.999 275,390 277.3337,388.66603 279.66767,387.33233 282,386 279.00252,381.00154 276.001,375.999 273,371 272.66769,366.66592 272.33433,362.33233 272,358 269.00164,356.33269 265.33433,354.66567 262,353 258.66727,350.66539 255.33433,348.33233 252,346 249.00082,345.66565 246.001,345.33233 243,345 241.66728,334.99607 240.33433,324.999 239,315 238.6677,307.66629 238.33433,300.33233 238,293 239.66745,287.99965 241.33433,282.999 243,278 243.33425,275.66623 243.66767,273.33233 244,271 243.33465,267.00092 242.001,262.999 241,259 239.00135,256.3328 237.001,253.66567 235,251 230.33461,250.33237 225.66767,249.66567 221,249 220.66761,250.33257 220.33433,251.66567 220,253 Z" />
  <path
     style="fill:none;stroke:#000000;stroke-width:1px;stroke-linecap:butt;stroke-linejoin:miter;stroke-opacity:1"
     d="M 195.16717,334.66576 C 193.00108,334.33243 189.00108,337.66577 186.49485,342.0299 183.98862,346.39403 183.00021,351.66552 182.33345,356.16595 181.66669,360.66638 181.33343,364.33225 180.83337,368.33287 180.33331,372.33348 179.66684,376.66554 179.5001,381.16625 179.33335,385.66696 179.6666,390.33241 181.16698,393.66646 182.66735,397.00052 185.33349,399.00012 188.00044,398.33294 190.66738,397.66577 193.33421,394.33224 195.13731,389.68816 196.94041,385.04408 198.00018,378.3322 198.33342,372.3328 198.66667,366.3334 198.33328,360.66573 198.16664,355.8327 198,350.99966 198,346.999 197.83334,342.99954 197.66667,339.00009 197.33326,334.99909 195.16717,334.66576 Z"
     id="path29"
     inkscape:connector-curvature="0"
     inkscape:path-effect="#path-effect31"
     inkscape:original-d="M 197,331 C 193.001,334.33233 189.001,337.66567 185,341 183.66731,346.33378 183.001,351.66567 182,357 181.66759,360.66646 181.33433,364.33233 181,368 180.33414,372.33361 179.66767,376.66567 179,381 179.33442,385.66688 179.66767,390.33233 180,395 182.66819,396.9994 185.33433,398.999 188,401 190.66751,397.66587 193.33433,394.33233 196,391 196.66745,385.00098 198.001,378.33233 199,372 198.66773,366.33334 198.33433,360.66567 198,355 198.001,350.99966 198.001,346.999 198,343 197.66775,339 197.33433,334.999 197,331 Z" />
  <path
     style="fill:none;stroke:#000000;stroke-width:1px;stroke-linecap:butt;stroke-linejoin:miter;stroke-opacity:1"
     d="M 297.5003,338.4996 C 295,338.33233 295,339.66567 296.50108,342.16749 298.00216,344.66931 300.99991,348.33322 305.5,353.83333 310.00009,359.33344 315.99991,366.66656 320.70043,373.90428 325.40095,381.142 328.66646,387.99957 331.03129,393.943 333.39612,399.88643 334.66648,404.33267 336.83375,407.16651 339.00102,410.00034 342.0006,411.0002 343.64649,410.33055 345.29239,409.66089 345.6668,406.66556 344.83372,403.50004 344.00064,400.33451 341.99981,396.66632 339.99991,390.99985 338.00001,385.33338 335.99982,377.66598 334.84597,371.83173 333.69211,365.99748 333.33326,361.33241 333.16663,358.16592 333,354.99942 333,352.999 332.16734,351.66644 331.33469,350.33388 329.66719,349.66688 327.50005,348.66666 325.33291,347.66645 322.66707,346.33353 319.66694,345.16679 316.66681,344.00004 313.33397,343.00019 309.16681,341.6667 304.99964,340.33321 300.0006,338.66687 297.5003,338.4996 Z"
     id="path33"
     inkscape:connector-curvature="0"
     inkscape:path-effect="#path-effect35"
     inkscape:original-d="M 295,337 C 295.001,338.33233 295.001,339.66567 295,341 298.00325,344.66842 301.001,348.33233 304,352 310.00118,359.33255 316.001,366.66567 322,374 325.00104,381.33244 328.66767,387.999 332,395 333.00106,399.99931 334.66767,404.33233 336,409 339.00142,409.99914 342.001,410.999 345,412 345.33427,409.66613 345.66767,406.66567 346,404 344.00183,400.33386 342.001,396.66567 340,393 338.00119,385.33307 336.001,377.66567 334,370 333.6677,365.99936 333.33433,361.33233 333,357 333.001,354.99942 333.001,352.999 333,351 331.33517,350.33267 329.66767,349.66567 328,349 325.33351,347.66525 322.66767,346.33233 320,345 316.66717,343.99885 313.33433,342.999 310,342 305.00004,340.33201 300.001,338.66567 295,337 Z" />
  <path
     d="M 59.708265,416.48785 C 60.592811,415.92212 64.642811,414.26439 68.708265,412.804 86.582817,406.38311 98.490965,398.23135 118.94496,378.41433 152.30899,346.08931 170.63614,314.76114 186.68724,262.6166 188.2715,257.46988 190.28389,249.72445 191.15921,245.40453 193.6884,232.92247 191.53163,231.18453 179.24944,235.80753 169.83113,239.35257 165.12237,242.68908 154.98218,253.00266 145.7735,262.36881 137.71417,268.4 134.4071,268.4 133.41636,268.4 130.8407,266.80538 128.68341,264.85639 125.75283,262.20879 124.58691,260.24919 124.07231,257.10639 123.69349,254.79288 122.08226,249.81538 120.49178,246.04529 117.42134,238.76709 116.87748,234.96458 118.7421,233.81218 119.37025,233.42396 122.85775,233.02181 126.4921,232.91853 133.82333,232.71017 166.7213,225.64744 177.76613,221.91071 185.17879,219.40283 188.82274,216.7593 191.22069,212.15 193.05449,208.62511 196.67604,208.5332 202.1,211.87391 204.3,213.22893 206.94037,214.35163 207.96749,214.36879 209.68856,214.39755 209.7832,213.79238 209.17456,206.65 208.07687,193.76863 207.43923,190.42303 205.66404,188.23075 204.16534,186.37994 203.68037,186.28562 201.533,187.42732 200.19485,188.13877 196.625,190.84195 193.6,193.43437 181.80454,203.54307 180.54126,203.08284 169.62637,184.7004 161.10124,170.3427 158.95776,165.09502 159.97036,161.06052 161.57844,154.65341 165.29905,154.073 177.76064,158.28529 192.70715,163.33753 200.63157,163.11284 201.42093,157.61443 201.81227,154.88852 197.08522,138.3725 194.37832,133.00796 193.29818,130.86735 190.43903,127.00406 188.02465,124.4229 185.61027,121.84173 183.51452,118.64315 183.36743,117.31493 183.13764,115.23989 183.57243,114.85478 186.45661,114.57869 188.88349,114.34638 192.76129,115.66681 200.45661,119.34585 217.64731,127.5645 218.02495,127.78681 219.23343,130.4 219.8693,131.775 221.16723,139.2 222.1177,146.9 223.97425,161.94026 223.72789,172.08422 221.08555,189.4 218.07383,209.13637 219.48632,213.18302 228.96374,211.9702 235.24482,211.16642 242.37431,207.75935 244.80482,204.4 247.09948,201.22841 250.8025,186.46789 258.4774,149.9 266.2006,113.10198 267.51588,105.36228 268.2774,92.232717 268.87173,81.985764 268.78948,81.361503 266.18996,76.390021 261.12669,66.706698 262.1657,57.121104 268.66929,53.516502 272.3373,51.483514 275.28887,52.587238 281.86989,58.452809 292.7498,68.149914 301.52632,83.171755 301.57626,92.182119 301.60634,97.607344 300.32695,100.61491 292.07638,114.51437 284.3478,127.53443 279.6,138.6852 279.6,143.81659 V 147.4 H 284.95078 C 291.97125,147.4 295.05636,146.26709 307.55253,139.10019 324.68906,129.27192 329.80337,127.14663 333.20525,128.44002 337.2083,129.96197 342.6,134.22373 342.6,135.86591 342.6,138.0844 334.68329,144.33673 320.44737,153.36124 294.48152,169.82167 289.25149,171.59843 278.84216,167.49545 272.51931,165.00322 271.21232,165.80831 267.03891,174.76613 265.21091,178.68976 261.43934,185.48159 258.65764,189.85908 252.65524,199.30492 251.95921,203.82567 256.25579,205.45923 259.1343,206.55364 264.74018,205.67152 285.6,200.84176 295.98821,198.43654 298.11512,198.25526 307.6,198.96668 326.81619,200.40801 333.38848,200.0251 340.31987,197.06038 350.44949,192.72771 352.71631,193.47717 360.19045,203.63006 365.29869,210.56912 365.83224,213.981 362.0349,215.42475 359.28914,216.46869 320.80885,216.80111 318.20875,215.80336 316.82075,215.27073 316.81198,214.82843 318.12696,211.68123 320.56748,205.84026 320.21592,205.11671 315.35,205.96595 313.0125,206.37392 301.425,206.79562 289.6,206.90308 262.84339,207.14623 257.6,208.51812 257.6,215.27565 257.6,222.11079 266.43485,231.6084 305.1,266.33894 347.89049,304.77502 368.03717,320.95436 391.07968,335.38727 413.20974,349.24867 431.34158,357.4 440.04482,357.4 444.47281,357.4 446.04513,360.74657 444.50005,366.88265 443.89327,369.29239 442.73507,371.51793 441.92627,371.82829 441.11746,372.13866 433.40068,372.83721 424.77786,373.38064 416.15504,373.92406 402.9625,375.36024 395.46111,376.57215 378.93457,379.24215 380.55752,379.95363 367.1661,364.16785 361.90877,357.97053 353.52507,348.4 348.53563,342.9 343.5462,337.4 334.22102,326.15 327.81301,317.9 308.05848,292.467 296.79709,278.57812 281.59622,260.9 273.55644,251.55 263.03298,239.05846 258.21074,233.14103 247.76422,220.32196 244.09171,217.29329 238.34362,216.75686 233.26555,216.28296 212.43008,221.30732 211.83657,223.14889 211.61519,223.83579 212.81436,225.18579 214.50138,226.14889 220.33273,229.47797 219.68279,231.83015 211.54343,236.85405 200.91846,243.41216 194.13089,255.13613 182.56943,286.9 169.66199,322.36183 159.00268,344.83104 145.09212,365.9 128.70977,390.71274 105.71194,409.51676 85.1,414.95214 77.983327,416.82881 57.210786,418.08515 59.708265,416.48785 Z"
     id="path37"
     inkscape:connector-curvature="0" />
  <path
     d="M 236.22189,461.53469 C 235.31692,460.5347 232.6253,454.35782 230.24051,447.80827 225.65844,435.22412 222.52227,428.47087 216.98713,419.26919 215.12421,416.17224 213.6,413.35974 213.6,413.01919 213.6,411.30703 218.77287,412.75593 222.1,415.4 226.43138,418.84215 228.49639,419.11573 231.53509,416.65 L 233.69174,414.9 232.67924,379.4 C 232.01781,356.20917 230.96693,338.00547 229.64846,326.9 228.53841,317.55 227.36036,302.25 227.03057,292.9 226.52807,278.65339 226.03973,274.72433 224.01547,268.64115 222.68696,264.64878 221.6,259.08056 221.6,256.26732 V 251.15234 L 227.26476,251.62211 C 232.1952,252.03098 233.35359,252.55462 236.20099,255.66167 239.45209,259.20923 242.6,267.41131 242.6,272.33468 242.6,273.74911 241.68801,278.05493 240.57335,281.90318 239.4587,285.75143 238.27358,292.30216 237.93976,296.46035 236.91601,309.21253 240.47238,336.9613 243.83211,342.43581 244.52945,343.57209 249.06916,346.60031 253.92036,349.16518 265.0146,355.03081 270.23327,359.42508 271.13716,363.66221 271.51705,365.44299 273.43351,371.12115 275.39595,376.28032 278.83523,385.32203 278.89641,385.71009 277.09088,387.03032 276.06065,387.78365 273.05504,388.4 270.41175,388.4 266.3288,388.4 265.0261,387.87631 261.75282,384.9191 259.61336,382.98622 255.7567,377.40258 253.08074,372.36373 241.66717,350.8719 238.66993,360.75609 242.00162,408.9 243.61327,432.18878 243.12022,449.04061 240.54766,458.59436 239.30636,463.20422 238.3321,463.86644 236.22189,461.53469 Z"
     id="path39"
     inkscape:connector-curvature="0" />
  <path
     d="M 184.33616,396.15 C 180.20757,393.01487 179.6361,384.48151 182.21276,364.44258 184.06692,350.02253 186.47331,342.68053 190.74574,338.40811 196.12654,333.0273 196.30278,333.47099 197.17987,354.60631 197.90988,372.19734 196.87616,382.72661 193.71824,389.86559 190.66369,396.77093 187.73617,398.73187 184.33616,396.15 Z"
     id="path41"
     inkscape:connector-curvature="0" />
  <path
     d="M 338.36715,407.06937 C 337.12021,405.71049 335.02731,401.74148 333.71624,398.24934 329.16825,386.13537 321.60347,372.84324 313.0292,361.9 298.14699,342.90603 296.30308,340.36359 296.94455,339.72212 298.51268,338.15399 329.36672,349.59549 331.09028,352.38427 331.43778,352.94654 332.14498,357.494 332.66183,362.48973 333.77292,373.22916 336.63281,384.95283 340.74028,395.60598 344.33979,404.94172 344.78769,408.67907 342.36715,409.18083 341.41408,409.3784 339.61408,408.42824 338.36715,407.06937 Z"
     id="path43"
     inkscape:connector-curvature="0" />
</svg>
