<?xml version="1.0" encoding="UTF-8" standalone="no"?>
<!-- Created with Inkscape (http://www.inkscape.org/) -->

<svg
   xmlns:dc="http://purl.org/dc/elements/1.1/"
   xmlns:cc="http://creativecommons.org/ns#"
   xmlns:rdf="http://www.w3.org/1999/02/22-rdf-syntax-ns#"
   xmlns:svg="http://www.w3.org/2000/svg"
   xmlns="http://www.w3.org/2000/svg"
   xmlns:sodipodi="http://sodipodi.sourceforge.net/DTD/sodipodi-0.dtd"
   xmlns:inkscape="http://www.inkscape.org/namespaces/inkscape"
   width="512"
   height="512"
   viewBox="0 0 512 512"
   version="1.1"
   id="svg8"
   inkscape:version="0.92.4 (5da689c313, 2019-01-14)"
   sodipodi:docname="髮U+9AEE-2.svg">
  <defs
     id="defs2">
    <inkscape:path-effect
       effect="bspline"
       id="path-effect69"
       is_visible="true"
       weight="33.333333"
       steps="2"
       helper_size="0"
       apply_no_weight="true"
       apply_with_weight="true"
       only_selected="false" />
    <inkscape:path-effect
       effect="bspline"
       id="path-effect65"
       is_visible="true"
       weight="33.333333"
       steps="2"
       helper_size="0"
       apply_no_weight="true"
       apply_with_weight="true"
       only_selected="false" />
    <inkscape:path-effect
       effect="bspline"
       id="path-effect61"
       is_visible="true"
       weight="33.333333"
       steps="2"
       helper_size="0"
       apply_no_weight="true"
       apply_with_weight="true"
       only_selected="false" />
    <inkscape:path-effect
       effect="bspline"
       id="path-effect57"
       is_visible="true"
       weight="33.333333"
       steps="2"
       helper_size="0"
       apply_no_weight="true"
       apply_with_weight="true"
       only_selected="false" />
    <inkscape:path-effect
       effect="bspline"
       id="path-effect53"
       is_visible="true"
       weight="33.333333"
       steps="2"
       helper_size="0"
       apply_no_weight="true"
       apply_with_weight="true"
       only_selected="false" />
    <inkscape:path-effect
       effect="bspline"
       id="path-effect49"
       is_visible="true"
       weight="33.333333"
       steps="2"
       helper_size="0"
       apply_no_weight="true"
       apply_with_weight="true"
       only_selected="false" />
    <inkscape:path-effect
       effect="bspline"
       id="path-effect45"
       is_visible="true"
       weight="33.333333"
       steps="2"
       helper_size="0"
       apply_no_weight="true"
       apply_with_weight="true"
       only_selected="false" />
    <inkscape:path-effect
       effect="bspline"
       id="path-effect41"
       is_visible="true"
       weight="33.333333"
       steps="2"
       helper_size="0"
       apply_no_weight="true"
       apply_with_weight="true"
       only_selected="false" />
    <inkscape:path-effect
       effect="spiro"
       id="path-effect37"
       is_visible="true" />
    <inkscape:path-effect
       effect="bspline"
       id="path-effect31"
       is_visible="true"
       weight="33.333333"
       steps="2"
       helper_size="0"
       apply_no_weight="true"
       apply_with_weight="true"
       only_selected="false" />
    <inkscape:path-effect
       effect="bspline"
       id="path-effect27"
       is_visible="true"
       weight="33.333333"
       steps="2"
       helper_size="0"
       apply_no_weight="true"
       apply_with_weight="true"
       only_selected="false" />
    <inkscape:path-effect
       effect="bspline"
       id="path-effect23"
       is_visible="true"
       weight="33.333333"
       steps="2"
       helper_size="0"
       apply_no_weight="true"
       apply_with_weight="true"
       only_selected="false" />
  </defs>
  <sodipodi:namedview
     id="base"
     pagecolor="#ffffff"
     bordercolor="#666666"
     borderopacity="1.0"
     inkscape:pageopacity="0.0"
     inkscape:pageshadow="2"
     inkscape:zoom="1"
     inkscape:cx="400"
     inkscape:cy="320"
     inkscape:document-units="px"
     inkscape:current-layer="svg8"
     showgrid="false"
     units="px"
     inkscape:window-width="1920"
     inkscape:window-height="1001"
     inkscape:window-x="-9"
     inkscape:window-y="-9"
     inkscape:window-maximized="1" />
  <metadata
     id="metadata5">
    <rdf:RDF>
      <cc:Work
         rdf:about="">
        <dc:format>image/svg+xml</dc:format>
        <dc:type
           rdf:resource="http://purl.org/dc/dcmitype/StillImage" />
        <dc:title></dc:title>
      </cc:Work>
    </rdf:RDF>
  </metadata>
  <g
     inkscape:label="圖層 1"
     inkscape:groupmode="layer"
     id="layer1"
     transform="translate(0,-161.53331)" />
  <path
     style="fill:none;stroke:#000000;stroke-width:1px;stroke-linecap:butt;stroke-linejoin:miter;stroke-opacity:1"
     d="M 113,85 C 112.00023,89.998846 111.00023,94.998846 111.37867,100.48652 111.75711,105.97418 113.33314,111.33268 116.58856,114.85834 119.84398,118.38399 124.33399,119.66685 128.16668,124.16595 131.99937,128.66505 134.99979,136.3328 136.4999,145.16625 138,153.99969 138,163.999 137.16663,179.16665 136.33325,194.33429 134.66675,214.66559 133.66675,226.83236 132.66674,238.99913 132.33342,242.99892 130.51687,245.54941 128.70031,248.0999 126.0012,248.9996 125.16744,252.00046 124.33368,255.00132 125.66648,259.99932 126.33324,263.66598 127,267.33265 127,269.66567 119.87704,272.98629 112.75409,276.3069 98.334525,280.66631 88.000936,284.16634 77.667346,287.66638 71.334541,290.33282 67.000917,292.66614 62.667293,294.99946 60.334404,296.99908 58.56201,296.63786 56.789617,296.27664 55.333127,292.99954 53.667286,291.66631 52.001444,290.33309 50.001135,290.66648 47.500113,293.00056 44.999091,295.33465 42.00079,299.66552 42.07874,304.11259 42.15669,308.55966 44.999858,312.66646 48.333298,317.16661 51.666738,321.66676 55.333227,326.3332 59.16727,327.99971 63.001313,329.66623 67.001201,328.33293 69.667225,325.16663 72.333249,322.00032 73.666982,316.99882 78.549654,311.74269 83.432326,306.48656 92.33449,300.66591 100.83395,296.49961 109.33342,292.33331 117.66787,289.66628 123.00099,288.16642 128.33412,286.66655 130.66779,286.33317 133.16662,287.33272 135.66546,288.33228 138.3334,290.66673 138.54351,295.84478 138.75361,301.02284 136.33366,309.66548 133.50015,318.33278 130.66664,327.00008 127.33378,335.9988 124.50053,341.83238 121.66728,347.66596 119.33426,350.33227 117.0006,351.99943 114.66693,353.66659 112.33452,354.33299 112.00092,357.16747 111.66732,360.00195 113.33313,364.9994 115.33337,368.6665 117.33361,372.33361 119.66667,374.66667 122.33357,376.5001 125.00046,378.33354 128.00047,379.66687 132.66696,377.83339 137.33346,375.9999 143.66777,370.99913 151.33368,365.4997 158.99959,360.00028 168.00115,353.99923 173.60736,350.52528 179.21356,347.05133 181.66788,345.99948 185.49919,348.66472 189.3305,351.32996 194.66659,357.66658 199.33378,361 204.00097,364.33341 208.00091,364.66674 210.16713,362.83329 212.33335,360.99983 212.66676,356.99892 211.5003,351.66677 210.33384,346.33461 207.66646,339.66615 205.6409,335.29458 203.61534,330.92301 202.33318,328.99977 197.32628,327.03537 192.31939,325.07097 183.00074,323.00016 178.66701,323.66644 174.33327,324.33272 174.66658,327.66578 175.16663,329.83291 175.66669,332.00004 176.33318,332.99977 173.16635,336.00006 169.99952,339.00034 163.00114,343.99919 156.66737,347.83286 150.33361,351.66653 144.66787,354.33276 141.14439,355.39056 137.62091,356.44836 135.66719,355.66688 134.63677,353.16838 133.60635,350.66988 133.33325,347.66577 134.16658,342.83302 134.99991,338.00028 137.0004,331.9988 139.5005,328.3326 142.00061,324.6664 145.00121,323.3328 148.33377,322.3331 151.66633,321.33339 155.33447,320.66646 157.96418,319.33705 160.59388,318.00765 161.66754,316.66557 161.50089,313.33413 161.33423,310.00269 159.66647,304.9994 157.16674,300.66656 154.66702,296.33372 151.33329,292.66662 148.83328,289.83327 146.33328,286.99993 144.66659,284.9999 144.66703,282.99946 144.66748,280.99902 146.33423,278.99892 151.16555,276.83325 155.99686,274.66758 164.00119,272.33299 173.66697,270.49986 183.33275,268.66674 194.66777,267.3332 205.33385,267.1666 215.99992,266.99999 226.00089,268.00009 234.00076,267.83331 242.00063,267.66653 248.00117,266.33307 250.83387,264.83298 253.66658,263.33289 253.33318,261.6659 252.0007,260.33328 250.66822,259.00067 248.33381,258.00021 246.62826,256.69213 244.9227,255.38405 243.33318,252.99977 235.83458,252.49979 228.33598,251.99981 214.66774,252.99992 202.16734,254.6666 189.66694,256.33328 178.33449,258.66643 170.33423,260.1665 162.33398,261.66657 157.66779,262.33317 153.66741,262.99988 149.66702,263.6666 146.33448,264.3331 143.6672,264.3332 140.99991,264.3333 139.0006,263.66687 138.33381,260.99884 137.66703,258.33081 138.33349,253.66555 139.50038,250.49914 140.66727,247.33273 143.001,244.999 148.53217,241.73367 154.06333,238.46833 163.66787,233.66607 171.16749,229.49956 178.6671,225.33305 184.33449,221.66592 188.83417,219.33288 193.33384,216.99985 196.66786,215.99964 198.16726,214.33315 199.66667,212.66666 199.33321,210.33249 197.83383,208.16666 196.33445,206.00084 193.66683,204.00012 191.50063,203.33317 189.33444,202.66623 187.66788,203.33285 183.332,205.66753 178.99611,208.00222 172.00118,211.99932 166.33414,215.33286 160.6671,218.6664 156.3345,221.33261 153.00087,222.99956 149.66723,224.66651 147.33452,225.33299 146.66759,222.16415 146.00067,218.99531 147.00016,211.99888 147.14169,206.16992 147.28322,200.34096 146.66654,196.3325 147.1669,193.1659 147.66725,189.9993 149.33423,187.99892 154.47573,185.27601 159.61723,182.55311 167.66788,179.33285 175.66732,175.99974 183.66677,172.66662 191.33454,169.33281 197.16753,166.3329 203.00053,163.33298 207.00115,160.6659 209.00058,158.16612 211,155.66634 211,153.33233 209.66732,151.16665 208.33464,149.00098 205.66683,147.00012 203.14673,146.44507 200.62664,145.89001 197.66788,146.99955 195.0005,148.83321 192.33313,150.66687 189.66767,153.33233 184.49967,156.33319 179.33167,159.33406 171.66787,162.66614 166.33425,164.4997 161.00063,166.33326 158.0011,166.66654 155.83414,167.49968 153.66718,168.33282 152.33433,169.66567 151.84038,165.82919 151.34643,161.99271 151.66671,153.66563 152.44755,147.0296 153.22838,140.39356 154.66698,134.99882 155.33349,131.8324 156,128.66598 156,127.33233 157.33277,126.83276 158.66553,126.33319 161.33419,126.66677 164.00008,127.83312 166.66597,128.99947 169.33349,131.00012 174.33372,128.83312 179.33396,126.66613 186.66774,120.33241 193.83396,115.33283 201.00017,110.33324 208.00119,106.66604 214.66731,103.99967 221.33343,101.33331 227.66785,99.666355 230.39354,97.365241 233.11924,95.064127 231.99981,91.332691 230.83326,87.999741 229.66672,84.666791 228.33313,81.332815 226.33394,79.666407 224.33475,78 221.66767,78 217.8335,78.833447 213.99932,79.666893 209.0012,81.332933 203.00035,82.999861 196.99949,84.666788 190.00117,86.333054 185.01073,87.538991 180.02029,88.744928 177.66785,89.333038 175.16734,89.999829 172.66683,90.66662 170.33452,91.332995 168.50085,91.9997 166.66719,92.666405 165.33453,93.332735 164.50039,92.498231 163.66625,91.663727 163.33321,89.332493 162.75286,87.200835 162.1725,85.069177 160.99979,82.33285 160,80"
     id="path21"
     inkscape:connector-curvature="0"
     inkscape:path-effect="#path-effect23"
     inkscape:original-d="M 113,85 C 112.001,89.999 111.001,94.999 110,100 111.66805,106.00038 113.33433,111.33233 115,117 119.6682,118.99923 124.33433,119.66567 129,121 132.00058,128.66458 135.001,136.33233 138,144 138.001,153.99969 138.001,163.999 138,174 136.33417,194.33437 134.66767,214.66567 133,235 132.66765,238.99921 132.33433,242.999 132,247 128.66677,247.99927 126.001,248.999 123,250 124.33487,255.001 125.66767,259.999 127,265 127.001,267.33265 127.001,269.66567 127,272 112.66152,276.00071 98.334333,280.66567 84,285 77.667139,287.66589 71.334333,290.33233 65,293 62.667222,294.99938 60.334333,296.999 58,299 56.667055,296.33111 55.334333,292.999 54,290 52.001309,290.33228 50.001,290.66567 48,291 44.999297,295.33479 42.001,299.66567 39,304 42.001792,308.6669 45.001,312.66567 48,317 51.667843,321.66589 55.334333,326.33233 59,331 63.001113,329.66563 67.001,328.33233 71,327 72.333933,322.0005 73.667667,316.999 75,312 83.332362,306.33367 92.334333,300.66567 101,295 109.33322,292.33269 117.66767,289.66567 126,287 128.334,286.66571 130.66767,286.33233 133,286 135.66639,288.33121 138.33433,290.66567 141,293 138.66773,300.99879 136.33433,309.66567 134,318 130.66719,327.00028 127.33433,335.999 124,345 121.66735,347.66602 119.33433,350.33233 117,353 114.66674,353.66593 112.33433,354.33233 110,355 111.66852,360.00155 113.33433,364.999 115,370 117.33461,372.33261 119.66767,374.66567 122,377 125.001,378.33233 128.001,379.66567 131,381 137.33335,375.99977 143.66767,370.999 150,366 158.99943,360.00004 168.001,353.999 177,348 179.33403,347.33242 181.66767,345.999 184,345 189.33157,351.32906 194.66767,357.66567 200,364 204.00106,364.33234 208.001,364.66567 212,365 212.33426,360.99991 212.66767,356.999 213,353 210.33505,346.33413 207.66767,339.66567 205,333 204.00108,330.66585 202.33433,328.999 201,327 192.33533,324.99923 183.001,322.999 174,321 174.33436,324.33261 174.66767,327.66567 175,331 175.66784,331.99927 176.33433,332.999 177,334 169.99938,339.00015 163.001,343.999 156,349 150.33341,351.6661 144.66767,354.33233 139,357 137.66738,356.33219 135.66767,355.66567 134,355 133.66756,350.66432 133.33433,347.66567 133,344 135.00051,338.00048 137.001,331.999 139,326 142.0004,324.66593 145.001,323.33233 148,322 151.66619,321.3326 155.33433,320.66567 159,320 161.00038,318.33285 161.66767,316.66567 163,315 161.33543,310.00229 159.66767,304.999 158,300 154.66807,296.33277 151.33433,292.66567 148,289 146.33436,286.99903 144.66767,284.999 143,283 144.66758,280.9991 146.33433,278.999 148,277 155.99667,274.66693 164.001,272.33233 172,270 183.33265,268.66587 194.66767,267.33233 206,266 216.00003,266.9989 226.001,267.999 236,269 242.00047,267.66579 248.001,266.33233 254,265 253.66773,263.33266 253.33433,261.66567 253,260 250.66874,258.99946 248.33433,257.999 246,257 245.00079,255.33199 243.33433,252.999 242,251 228.33591,251.99888 214.66767,252.999 201,254 189.66678,256.33252 178.33433,258.66567 167,261 162.33386,261.66573 157.66767,262.33233 153,263 149.66687,263.66583 146.33433,264.33233 143,265 141.00031,264.3321 139.001,263.66567 137,263 137.66787,258.33093 138.33433,253.66567 139,249 140.66727,247.33273 143.001,244.999 145,243 153.9965,238.33467 163.66767,233.66567 173,229 178.66694,225.3328 184.33433,221.66567 190,218 193.33365,216.9992 196.66767,215.999 200,215 199.66779,212.6665 199.33433,210.33233 199,208 196.33529,205.99972 193.66767,203.999 191,202 189.33423,202.66571 187.66767,203.33233 186,204 178.99593,208.0019 172.001,211.999 165,216 160.66693,218.66612 156.33433,221.33233 152,224 149.66704,224.66585 147.33433,225.33233 145,226 146.00151,218.99543 147.001,211.999 148,205 147.33444,200.33308 146.66767,196.33233 146,192 147.66735,189.99938 149.33433,187.999 151,186 159.66298,182.66747 167.66767,179.33233 176,176 183.66656,172.66615 191.33433,169.33233 199,166 203.00037,163.33275 207.001,160.66567 211,158 211.001,155.66634 211.001,153.33233 211,151 208.33548,148.99986 205.66767,146.999 203,145 200.66753,145.99906 197.66767,146.999 195,148 192.33313,150.66687 189.66767,153.33233 187,156 179.33146,159.33358 171.66767,162.66567 164,166 161.00053,166.33239 158.001,166.66567 155,167 153.66718,168.33282 152.33433,169.66567 151,171 151.33458,161.99225 151.66767,153.66567 152,145 153.00088,140.33289 154.66767,134.999 156,130 156.33425,128.66598 156.001,127.33233 156,126 158.66567,126.33208 161.33433,126.66567 164,127 166.66681,128.99835 169.33433,130.999 172,133 179.33389,126.66605 186.66767,120.33233 194,114 200.99998,110.33287 208.001,106.66567 215,103 221.33325,101.33262 227.66767,99.665667 234,98 233.33446,94.99956 232.001,91.332333 231,88 229.66792,84.666309 228.33433,81.332333 227,78 224.33475,77.999 221.66767,77.999 219,78 213.99912,79.666292 209.001,81.332333 204,83 196.99932,84.666067 190.001,86.332333 183,88 180.0005,88.665778 177.66767,89.332333 175,90 172.66664,90.665961 170.33433,91.332333 168,92 166.66699,92.666006 165.33433,93.332333 164,94 163.66737,91.663567 163.33433,89.332333 163,87 162.33457,84.99972 161.001,82.332333 160,80" />
  <path
     style="fill:none;stroke:#000000;stroke-width:1px;stroke-linecap:butt;stroke-linejoin:miter;stroke-opacity:1"
     d="M 148,100 C 136.33381,95.000206 124.66715,90.000208 113,85"
     id="path25"
     inkscape:connector-curvature="0"
     inkscape:path-effect="#path-effect27"
     inkscape:original-d="M 148,100 C 136.33433,94.999 124.66767,89.999 113,85" />
  <path
     style="fill:none;stroke:#000000;stroke-width:1px;stroke-linecap:butt;stroke-linejoin:miter;stroke-opacity:1"
     d="M 148,100 160,80"
     id="path35"
     inkscape:connector-curvature="0"
     inkscape:path-effect="#path-effect37"
     inkscape:original-d="M 148,100 C 152.001,93.332333 156.001,86.665667 160,80" />
  <path
     style="fill:none;stroke:#000000;stroke-width:1px;stroke-linecap:butt;stroke-linejoin:miter;stroke-opacity:1"
     d="M 336.50033,76.999675 C 334.99985,79.332548 335.99985,84.665882 336.83324,89.33283 337.66663,93.999777 338.3332,97.999189 334.99973,102.99976 331.66627,108.00033 324.33442,113.99911 315.16698,120.4997 305.99953,127.0003 295.00116,133.99926 295.66851,135.16582 296.33585,136.33238 308.66787,131.66621 320.00069,126.49972 331.33351,121.33324 341.66786,115.66601 348.66733,113.4997 355.6668,111.33338 359.33389,112.66687 360.85097,110.33163 362.36804,107.99638 361.66657,101.33245 360.72787,96.198614 359.78916,91.064782 358.33314,86.3327 355.83368,83.166592 353.33422,80.000484 349.66702,78.000192 345.83373,76.666799 342.00043,75.333405 338.00081,74.666802 336.50033,76.999675 Z"
     id="path39"
     inkscape:connector-curvature="0"
     inkscape:path-effect="#path-effect41"
     inkscape:original-d="M 334,74 C 335.001,79.332333 336.001,84.665667 337,90 337.66776,93.999589 338.33433,97.999 339,102 331.66618,108.00022 324.33433,113.999 317,120 305.99937,127.00004 295.001,133.999 284,141 296.33564,136.33184 308.66767,131.66567 321,127 331.33332,121.33289 341.66767,115.66567 352,110 355.66724,111.33218 359.33433,112.66567 363,114 362.33444,107.99992 361.66767,101.33233 361,95 360.00114,90.999559 358.33433,86.332333 357,82 353.33487,79.999292 349.66767,77.999 346,76 342.00062,75.33227 338.001,74.665667 334,74 Z" />
  <path
     style="fill:none;stroke:#000000;stroke-width:1px;stroke-linecap:butt;stroke-linejoin:miter;stroke-opacity:1"
     d="M 321.83349,150.33314 C 321.9998,152.9994 323.9998,158.9994 322.83357,163.66611 321.66734,168.33281 317.33444,171.66581 310.66665,176.1666 303.99886,180.66739 295.00117,186.3326 287.83418,190.33285 280.66718,194.33311 275.33454,196.66614 278.66921,196.49931 282.00387,196.33247 294.00116,193.66641 305.65575,190.79088 317.31034,187.91536 328.00118,184.99968 335.50094,183.16645 343.0007,181.33322 347.00113,180.66648 348.8339,178.6666 350.66667,176.66672 350.33324,173.33244 349.33341,169.66651 348.33357,166.00057 346.66646,161.9995 344.24516,158.8881 341.82386,155.7767 338.33353,153.33347 335.00038,151.83346 331.66724,150.33345 328.3341,149.66682 325.83378,149.0001 323.33347,148.33339 321.66719,147.66688 321.83349,150.33314 Z"
     id="path43"
     inkscape:connector-curvature="0"
     inkscape:path-effect="#path-effect45"
     inkscape:original-d="M 320,147 C 322.001,152.999 324.001,158.999 326,165 321.66723,168.33267 317.33433,171.66567 313,175 303.99869,180.66712 295.001,186.33233 286,192 280.66698,194.33264 275.33433,196.66567 270,199 282.00371,196.33173 294.001,193.66567 306,191 317.33323,187.99929 328.001,184.999 339,182 343.00057,181.33241 347.001,180.66567 351,180 350.66776,176.66661 350.33433,173.33233 350,170 348.33478,166.00007 346.66767,161.999 345,158 341.66808,155.99925 338.33433,153.33233 335,151 331.66747,150.33229 328.33433,149.66567 325,149 323.33395,148.33218 321.66767,147.66567 320,147 Z" />
  <path
     style="fill:none;stroke:#000000;stroke-width:1px;stroke-linecap:butt;stroke-linejoin:miter;stroke-opacity:1"
     d="M 320.33341,208.83292 C 319.33329,211.99904 319.66663,219.99904 317.33355,226.16599 315.00047,232.33293 310.00106,236.66574 304.16706,241.1663 298.33305,245.66686 291.66781,250.33253 289.66774,253.16645 287.66767,256.00038 290.33388,257.0002 295.16682,255.83349 299.99976,254.66678 307.0012,251.33276 314.01592,248.54787 321.03063,245.76298 328.66787,243.33295 333.16772,241.6662 337.66757,239.99946 339.33451,238.9993 339.33441,236.16768 339.33431,233.33606 337.66646,228.6661 335.16669,223.83324 332.66692,219.00038 329.33318,213.99977 326.50007,210.66666 323.66696,207.33354 321.33352,205.6668 320.33341,208.83292 Z"
     id="path47"
     inkscape:connector-curvature="0"
     inkscape:path-effect="#path-effect49"
     inkscape:original-d="M 319,204 C 319.33433,211.999 319.66767,219.999 320,228 315.0004,232.33285 310.001,236.66567 305,241 298.33291,245.66666 291.66767,250.33233 285,255 287.66812,255.99917 290.33433,256.999 293,258 299.99956,254.66635 307.001,251.33233 314,248 320.9998,245.66607 328.66767,243.33233 336,241 337.66739,239.99916 339.33433,238.999 341,238 339.33551,233.33563 337.66767,228.66567 336,224 332.66807,218.99961 329.33433,213.999 326,209 323.66777,207.33241 321.33433,205.66567 319,204 Z" />
  <path
     style="fill:none;stroke:#000000;stroke-width:1px;stroke-linecap:butt;stroke-linejoin:miter;stroke-opacity:1"
     d="M 253.83343,293.16615 C 252.33345,295.33224 251.66678,301.66558 252.50021,306.33298 253.33363,311.00038 255.66656,313.99986 257.16655,316.99963 258.66653,319.9994 259.33317,322.99926 259.00031,324.99933 258.66746,326.99941 257.33445,327.99916 257.66837,328.83329 258.00228,329.66743 260.0006,330.33353 263.66666,330.66677 267.33273,331 273.33433,331 276.5498,330.36227 279.76528,329.72454 281.0007,327.66549 281.04645,325.31973 281.09219,322.97398 279.99981,319.33269 278.73738,316.2938 277.47495,313.25491 275.66648,309.99966 274.00015,307.99997 272.33381,306.00029 270.66696,305.00018 268.33322,302.99982 265.99947,300.99947 263,298 260.33338,295.50004 257.66675,293.00007 255.33341,291.00007 253.83343,293.16615 Z"
     id="path51"
     inkscape:connector-curvature="0"
     inkscape:path-effect="#path-effect53"
     inkscape:original-d="M 253,289 C 252.33433,295.33233 251.66767,301.66567 251,308 253.33474,310.99952 255.66767,313.999 258,317 258.6677,319.99914 259.33433,322.999 260,326 258.66734,326.99925 257.33433,327.999 256,329 258.00268,329.66623 260.001,330.33233 262,331 267.33273,330.66577 273.33433,330.999 279,331 279.66755,329.6659 281.001,327.66567 282,326 281.00171,323.00112 280.001,319.33233 279,316 277.33465,313.33285 275.66767,309.999 274,307 272.33452,305.99911 270.66767,304.999 269,304 266.00047,300.99847 263.001,297.999 260,295 257.66767,292.999 255.33433,290.999 253,289 Z" />
  <path
     style="fill:none;stroke:#000000;stroke-width:1px;stroke-linecap:butt;stroke-linejoin:miter;stroke-opacity:1"
     d="M 295.83349,271.33314 C 295.9998,273.9994 297.9998,279.9994 299.49989,283.66635 300.99998,287.33331 301.99988,288.66651 302.33331,290.99957 302.66674,293.33264 302.33344,296.66558 302.16672,299.49934 302,302.3331 302,304.66567 304.16815,304.16503 306.3363,303.66438 310.66778,300.33248 314.16747,297.83275 317.66715,295.33303 320.3345,293.66594 321.66725,291.9995 323,290.33306 323,287.999 321.83386,285.50018 320.66772,283.00136 318.33322,279.99986 315.50034,278.00005 312.66746,276.00024 309.33397,275.00019 306.62592,273.9052 303.91787,272.81021 301.33365,271.33352 299.33363,270.33348 297.33362,269.33345 295.66719,268.66688 295.83349,271.33314 Z"
     id="path55"
     inkscape:connector-curvature="0"
     inkscape:path-effect="#path-effect57"
     inkscape:original-d="M 294,268 C 296.001,273.999 298.001,279.999 300,286 301.0011,287.33247 302.001,288.66567 303,290 302.66763,293.33273 302.33433,296.66567 302,300 302.001,302.3331 302.001,304.66567 302,307 306.33619,303.66424 310.66767,300.33233 315,297 317.66698,295.33276 320.33433,293.66567 323,292 323.001,290.33306 323.001,287.999 323,286 320.66883,283.0005 318.33433,279.999 316,277 312.66782,275.99905 309.33433,274.999 306,274 304.00061,272.66541 301.33433,271.33233 299,270 297.3341,269.33224 295.66767,268.66567 294,268 Z" />
  <path
     style="fill:none;stroke:#000000;stroke-width:1px;stroke-linecap:butt;stroke-linejoin:miter;stroke-opacity:1"
     d="M 339.33382,268.49972 C 339.99981,271.333 342.99981,276.66634 344.83316,280.1663 346.6665,283.66625 347.33312,285.33281 346.33323,287.99974 345.33333,290.66667 342.66749,294.3322 340.00036,298.33285 337.33323,302.3335 334.66739,306.6655 337.50209,307.16539 340.33679,307.66528 348.66788,304.33285 354.83424,302.16635 361.0006,299.99985 365.00118,298.99971 367.00059,297.16641 369,295.33312 369,291.999 368.66668,289.33289 368.33337,286.66678 367.66648,284.33267 366.12024,282.40821 364.57399,280.48375 361.66694,278.66684 359.66669,276.99994 357.66643,275.33304 356.33324,273.66655 355.66662,271.83285 355,269.99915 355,267.999 354.50016,266.16644 354.00032,264.33388 352.99982,262.66638 350.83414,262.4995 348.66846,262.33262 345.33454,263.66619 342.83421,264.4997 340.33388,265.33322 338.66782,265.66644 339.33382,268.49972 Z"
     id="path59"
     inkscape:connector-curvature="0"
     inkscape:path-effect="#path-effect61"
     inkscape:original-d="M 337,266 C 340.001,271.33233 343.001,276.66567 346,282 346.66771,283.66577 347.33433,285.33233 348,287 345.33351,290.6668 342.66767,294.33233 340,298 337.33351,302.33367 334.66767,306.66567 332,311 340.33659,307.66477 348.66767,304.33233 357,301 361.00042,299.99914 365.001,298.999 369,298 369.001,295.33312 369.001,291.999 369,289 368.33456,286.66644 367.66767,284.33233 367,282 364.66833,280.33281 361.66767,278.66567 359,277 357.66753,275.33216 356.33433,273.66567 355,272 355.001,269.99915 355.001,267.999 355,266 354.0015,264.33317 353.001,262.66567 352,261 348.66825,262.3321 345.33433,263.66567 342,265 340.33373,265.33245 338.66767,265.66567 337,266 Z" />
  <path
     style="fill:none;stroke:#000000;stroke-width:1px;stroke-linecap:butt;stroke-linejoin:miter;stroke-opacity:1"
     d="M 296.66674,321.66575 C 293.33367,329.99881 287.667,349.99881 281.50039,364.49911 275.33377,378.99941 268.6675,387.99887 261.15146,393.42884 253.63542,398.8588 244.00116,400.99974 237.00068,401.66655 230.0002,402.33336 225.00085,401.66678 220.83362,400.33331 216.66639,398.99984 213.33362,397.00018 210.16712,395.83346 207.00062,394.66674 204.00088,394.33343 206.00149,397.33433 208.0021,400.33524 215.00005,406.66672 221.66722,409.49997 228.33438,412.33322 234.66776,411.66655 242.50026,411.16662 250.33275,410.66669 259.6677,410.3333 266.66746,408.16641 273.66722,405.99952 278.3344,401.99908 282.01218,395.12401 285.68995,388.24893 288.33366,378.66548 291.05192,369.85062 293.77017,361.03575 296.33375,353.66547 298.16686,345.49953 299.99997,337.33359 301.00013,328.66557 301.00003,322.66601 300.99993,316.66645 299.99981,313.33269 296.66674,321.66575 Z"
     id="path63"
     inkscape:connector-curvature="0"
     inkscape:path-effect="#path-effect65"
     inkscape:original-d="M 299,310 C 293.33433,329.999 287.66767,349.999 282,370 275.33394,378.99953 268.66767,387.999 262,397 253.66663,398.99925 244.001,400.999 235,403 230.00035,402.33225 225.001,401.66567 220,401 216.6671,398.99866 213.33433,396.999 210,395 207.00074,394.66564 204.001,394.33233 201,394 208.00305,400.33419 215.001,406.66567 222,413 228.33429,412.33234 234.66767,411.66567 241,411 250.33272,410.66572 259.66767,410.33233 269,410 273.66715,405.99944 278.33433,401.999 283,398 286.00031,388.33455 288.33433,378.66567 291,369 293.66734,360.99998 296.33433,353.66567 299,346 300.00084,337.33369 301.001,328.66567 302,320 301.00113,316.66609 300.001,313.33233 299,310 Z" />
  <path
     style="fill:none;stroke:#000000;stroke-width:1px;stroke-linecap:butt;stroke-linejoin:miter;stroke-opacity:1"
     d="M 321.49988,330.4997 C 321.33313,332.99945 324.66646,341.99945 329.1667,349.83322 333.66694,357.66699 339.33326,364.33324 345.33324,373.16653 351.33323,381.99982 357.66648,392.99968 364.49992,404.8332 371.33336,416.66672 378.66648,429.33302 384.66673,437.33328 390.66697,445.33355 395.33352,448.6668 400.16726,448.9998 405.00099,449.3328 410.00119,446.66603 417.66646,445.99958 425.33173,445.33313 435.66753,446.66678 444.83401,446.5 454.0005,446.33323 462.00116,444.66643 459.00176,439.83389 456.00235,435.00134 442.00032,427.00018 430.83354,420.50012 419.66676,414.00006 411.33363,409.00018 402.33339,402.83335 393.33315,396.66652 383.66682,389.33345 374.00004,381.50003 364.33326,373.6666 354.66675,365.3334 347.16663,357.6666 339.66651,349.99979 334.33322,342.99985 329.83329,337.49994 325.33337,332.00004 321.66663,327.99996 321.49988,330.4997 Z"
     id="path67"
     inkscape:connector-curvature="0"
     inkscape:path-effect="#path-effect69"
     inkscape:original-d="M 318,324 C 321.33433,332.999 324.66767,341.999 328,351 333.66802,357.66608 339.33433,364.33233 345,371 351.33442,381.99914 357.66767,392.999 364,404 371.33455,416.66603 378.66767,429.33233 386,442 390.66778,445.33242 395.33433,448.66567 400,452 405.0008,449.33244 410.001,446.66567 415,444 425.33187,445.33201 435.66767,446.66567 446,448 454.00034,446.33247 462.001,444.66567 470,443 456.00303,435.00016 442.001,426.999 428,419 419.66747,413.99888 411.33433,408.999 403,404 393.33399,396.66541 383.66767,389.33233 374,382 364.33418,373.66553 354.66767,365.33233 345,357 339.66762,349.99894 334.33433,342.999 329,336 325.33441,331.99909 321.66767,327.999 318,324 Z" />
  <path
     d="M 120.28546,373.1381 C 117.29361,370.14624 115.47331,367.12682 114.17709,363.00579 L 112.33063,357.13539 117.41097,352.51769 C 123.70791,346.7942 127.27665,339.72506 133.87751,319.9 140.13626,301.10239 140.76683,293.12593 136.34435,288.69504 134.2321,286.57877 132.69115,285.95769 129.74448,286.03496 120.31225,286.28228 96.017879,296.67768 84.390134,305.44179 79.462418,309.15592 76.441891,312.48607 73.017728,317.97991 70.45333,322.09432 67.539853,325.89701 66.543335,326.43033 62.440929,328.62587 59.357036,327.54851 54.044847,322.06398 43.695599,311.37897 41.153325,303.64577 45.75,296.83236 48.964873,292.06712 52.322417,291.29883 54.838385,294.75269 55.899021,296.20871 57.51678,297.40525 58.433407,297.41167 59.350033,297.4181 64.15,295.42012 69.1,292.97172 74.05,290.52333 87.55,285.30601 99.1,281.37769 121.24792,273.84485 126.09085,271.57955 127.14451,268.25976 127.50078,267.13725 127.24788,263.33364 126.58251,259.80731 125.28431,252.92712 125.24429,253.05962 130.65073,246.33634 131.96246,244.70511 133.04721,241.24987 133.6332,236.83634 135.22474,224.84916 138.60157,174.13988 138.56511,162.77472 138.49306,140.31537 133.85685,126.6326 123.77565,119.12681 114.48459,112.2093 112.75517,108.80248 112.74636,97.4 112.73702,85.309521 111.75866,85.532979 130.1,93.436452 138.9,97.228462 146.775,100.3358 147.6,100.34165 148.43645,100.34757 151.51294,96.270926 154.55459,91.126138 L 160.00919,81.9 161.66259,87.352666 C 162.57196,90.351632 163.80634,92.968781 164.40566,93.168553 165.45405,93.518016 197.65546,85.584192 212.09682,81.418346 221.06097,78.83249 223.76764,78.876541 226.33062,81.65 228.78979,84.311121 230.93529,90.980189 230.44655,94.443948 230.14657,96.569925 228.4201,97.574225 217.6,101.91684 205.80977,106.64882 200.52953,109.72173 180.77516,123.34759 172.91028,128.7725 170.59675,129.26937 164.1,126.92884 156.75693,124.2834 155.93996,124.94687 153.53823,135.50617 151.38098,144.99062 149.98575,166.20647 151.38682,168.22075 152.1413,169.30545 153.35943,169.24572 158.20274,167.88656 172.28076,163.9359 182.14336,159.36734 192.54528,151.97838 199.89289,146.75904 203.10493,146.28507 206.95398,149.85225 213.98549,156.36884 207.60116,161.25125 172.3859,176.28817 153.39897,184.39559 149.01597,186.75424 147.42985,189.71794 145.78618,192.78915 145.19688,222.20934 146.74174,224.07079 148.59157,226.29969 151.17325,225.22524 170.06432,214.36427 179.59658,208.88392 188.37125,204.4 189.56359,204.4 192.80858,204.4 195.40209,206.11661 197.09076,209.38212 198.51651,212.13922 198.47456,212.39659 196.35111,213.92079 193.93756,215.65321 181.98957,222.33217 161.1,233.62625 140.26727,244.8896 137.61029,247.60226 137.60374,257.61482 137.59757,267.05121 137.51609,267.04519 174.40573,260.33556 201.11539,255.47751 221.4751,253.10977 232.53436,253.57545 240.34959,253.90453 241.55836,254.24117 246.33203,257.41807 257.0939,264.58012 253.65427,265.60949 216.1,266.46549 192.12697,267.01193 183.93221,267.56249 175.30957,269.20599 155.37294,273.00598 143.59191,278.1696 143.60464,283.10225 143.60719,284.09101 146.54144,288.5 150.1252,292.9 156.47896,300.7009 160.6,308.9685 160.6,313.91446 160.6,316.90162 157.99816,318.65627 150.35446,320.82392 147.19383,321.72023 143.05442,323.81814 141.15373,325.48696 137.08711,329.05751 133.7798,337.10091 133.02383,345.25892 131.6919,359.63252 139.78357,359.88019 160.90537,346.11231 165.42975,343.16317 170.85582,339.23628 172.9633,337.38588 176.44243,334.33116 176.74073,333.68154 176.2044,330.32752 175.29668,324.65093 177.05538,323.73077 185.93099,325.23851 189.87395,325.90833 195.125,327.45617 197.6,328.67818 201.3701,330.53962 202.62118,331.9543 205.31319,337.4 209.35717,345.58063 211.9475,356.35581 210.67482,359.7032 208.51011,365.39682 203.39195,363.67364 192.33037,353.52698 186.53582,348.21172 183.84369,346.4 181.73998,346.4 178.25294,346.4 167.3812,352.86759 149.6,365.52005 133.48057,376.99006 132.74004,377.4 128.13943,377.4 125.24524,377.4 123.71936,376.57199 120.28546,373.1381 Z"
     id="path71"
     inkscape:connector-curvature="0" />
  <path
     d="M 299.6,133.02348 C 299.6,132.81639 305.47505,128.46801 312.65566,123.36041 327.99057,112.45263 335.91894,104.99366 337.60339,99.889721 338.55327,97.011557 338.55334,94.528374 337.60373,88.423952 336.93705,84.138378 336.71061,79.626868 337.10051,78.398376 337.71669,76.456973 338.31901,76.233101 341.70442,76.68718 347.45598,77.458626 354.27985,81.852136 356.50702,86.217739 358.91004,90.928052 360.85601,100.68716 360.42805,105.88179 360.07229,110.19985 360.37862,110.00692 350.13512,112.36455 347.40444,112.99305 338.54453,116.62682 330.44644,120.43962 317.45086,126.55827 301.41737,133.4 300.07397,133.4 299.81329,133.4 299.6,133.23056 299.6,133.02348 Z"
     id="path73"
     inkscape:connector-curvature="0" />
  <path
     d="M 283.6,194.1504 C 283.875,193.8672 289.05,190.69783 295.1,187.10736 311.15054,177.58191 320.32679,170.82901 322.23544,167.13809 323.96083,163.80155 324.30296,157.87704 323.08934,152.35148 322.3992,149.20928 322.41008,149.19927 325.74818,149.90691 337.02161,152.29675 345.13915,159.24443 347.86872,168.83953 349.75471,175.46925 349.26346,177.89757 345.75478,179.28916 342.62695,180.52969 292.92388,192.9765 287.1,193.97768 284.9,194.35588 283.325,194.43361 283.6,194.1504 Z"
     id="path75"
     inkscape:connector-curvature="0" />
  <path
     d="M 291.67569,252.7822 C 293.00906,251.34241 297.47832,247.5803 301.60738,244.42195 310.07583,237.94437 316.1738,231.59316 317.76079,227.59772 318.35013,226.11398 319.3606,221.33149 320.00627,216.96997 320.65193,212.60845 321.69039,208.86987 322.31395,208.66202 324.82533,207.82489 336.41105,226.55295 338.04094,234.08434 338.91824,238.13819 337.72063,238.95578 323.1,244.28426 317.05,246.48918 308.05,249.87731 303.1,251.81343 298.15,253.74955 293.00906,255.34858 291.67569,255.36683 L 289.25137,255.4 Z"
     id="path77"
     inkscape:connector-curvature="0" />
  <path
     d="M 264.61471,329.4 259.12943,328.9 259.44206,324.6378 C 259.67545,321.45605 258.9626,318.74967 256.62998,313.96154 253.91274,308.3839 253.54404,306.66802 253.80263,300.80343 253.98024,296.77533 254.57204,293.90351 255.27215,293.67231 255.91683,293.45942 260.41683,296.91755 265.27215,301.35705 274.9242,310.18248 279.59114,317.76504 279.59688,324.63095 279.59945,327.69885 279.20014,328.44336 277.35,328.82027 272.73522,329.76041 269.95635,329.88691 264.61471,329.4 Z"
     id="path79"
     inkscape:connector-curvature="0" />
  <path
     d="M 303.50726,302.18518 C 303.45626,301.47833 303.49245,298.95168 303.58769,296.5704 303.70054,293.74871 302.46467,288.60271 300.03919,281.79496 297.99228,276.04975 296.54528,271.12139 296.82363,270.84304 297.10198,270.56469 301.68423,272.42752 307.0064,274.98266 314.32984,278.4986 317.28094,280.50821 319.14154,283.24632 323.02678,288.96397 322.48257,290.59761 314.84107,296.15557 305.91211,302.64994 303.62847,303.86485 303.50726,302.18518 Z"
     id="path81"
     inkscape:connector-curvature="0" />
  <path
     d="M 337.60428,305.15 C 337.60664,304.4625 338.98016,301.875 340.65655,299.4 345.03527,292.93533 347.6,287.78492 347.6,285.45638 347.6,284.34357 345.95478,280.10816 343.94396,276.04437 341.93314,271.98057 340.54217,267.99307 340.85293,267.18327 341.16368,266.37347 343.48085,265.13332 346.00219,264.42738 351.63102,262.85141 353.15497,263.80642 354.11927,269.51408 354.60328,272.37887 355.95883,274.63144 358.89889,277.45651 361.15609,279.62543 363.35068,281.4 363.77576,281.4 365.29813,281.4 367.6,287.37538 367.6,291.32729 367.6,296.45664 366.40202,297.2592 351.04329,302.41905 337.83078,306.85787 337.59827,306.90512 337.60428,305.15 Z"
     id="path83"
     inkscape:connector-curvature="0" />
  <path
     d="M 223.55276,409.11889 C 219.12554,407.44172 211.89652,402.48648 208.6,398.86927 L 206.1,396.12608 208.6,396.66908 C 209.975,396.96773 213.8,398.36868 217.1,399.78231 222.05031,401.90287 224.67454,402.35461 232.1,402.3644 251.99587,402.39063 264.9037,395.36434 275.05673,378.98119 280.35274,370.43543 284.34082,360.83222 292.7401,336.4 L 299.1,317.9 299.39157,325.03894 C 299.77425,334.40884 297.06636,347.36088 290.01242,369.9 280.5049,400.27898 276.6599,405.3872 261.06827,408.35334 251.29675,410.21227 227.70951,410.69359 223.55276,409.11889 Z"
     id="path85"
     inkscape:connector-curvature="0" />
  <path
     d="M 396.01902,446.5026 C 389.43142,443.51069 383.384,435.12112 364.45545,402.71455 352.10947,381.57766 347.41804,374.22728 337.12877,359.9 329.71756,349.58027 321.48684,333.17983 322.9731,331.69357 323.19005,331.47661 327.56646,336.38431 332.69844,342.59955 347.03566,359.96307 358.70865,370.9196 383.09645,389.90425 396.17297,400.08365 408.86266,408.50524 432.1,422.42579 442.55,428.68595 452.9,435.49167 455.1,437.54961 458.94453,441.14589 459.03059,441.36144 457.31411,443.09566 455.71843,444.70783 453.32213,444.91732 434.81411,445.0626 419.87906,445.17984 412.28655,445.66395 407.6,446.79782 399.72956,448.702 400.92898,448.73258 396.01902,446.5026 Z"
     id="path87"
     inkscape:connector-curvature="0" />
</svg>
