<?xml version="1.0" standalone="no"?>
<!DOCTYPE svg PUBLIC "-//W3C//DTD SVG 1.1//EN" "http://www.w3.org/Graphics/SVG/1.1/DTD/svg11.dtd" >
<svg xmlns="http://www.w3.org/2000/svg" xmlns:xlink="http://www.w3.org/1999/xlink" version="1.1" viewBox="0 0 256 256">
  <g transform="matrix(1 0 0 -1 0 204)">
   <path fill="currentColor"
d="M110 91q-2 -2 -5 -4q49 26 52 34q2 5 19 1q2 -1 2 -4q-1 -2 -3 -2q-9 -1 -15 -8q-9 -12 -20 -27q-37 -53 -71 -95q-6 -3 -2 2q3 5 10 13q58 82 72 103q4 6 -2 2q-49 -29 -57 -39q-6 -3 -6 3q-1 9 3 15q1 2 2 -1q-1 -3 0 -3t3 1q3 2 8 8q22 20 29 29q3 9 5 25
q-24 -15 -26 -22q-3 -3 -5 -2t-1 4q0 10 1 13q1 4 4 6q5 3 13 13q2 3 1 -1q-2 -7 -7 -13q-2 -3 -1 -4l4 2q2 1 10 6q4 2 9 5q3 25 2 45q-1 4 2 1q5 -15 3 -42q26 13 28 21q2 5 18 -3q4 -2 3 -4q0 -2 -4 -3q-12 -1 -49 -46q-5 -11 -10 -9l-4 -4q-11 -11 -15 -16zM149 81
q5 -13 2 -19q-19 -41 4 -51q31 -11 78 -2q8 0 7 10q-5 24 -10 42q0 1 1 0q5 -10 11 -30l2 -4q3 -8 5 -9q2 -2 2 -4l-1 -2q0 -4 -2 -3q-2 -1 -5 -2q-52 -13 -89 0q-27 9 -10 54q4 11 4 20q-1 1 1 0zM70 92q4 8 2 -1q-13 -48 -28 -89q-3 -3 -6 -2q-4 6 -6 15q0 2 1 3q1 0 2 -2
q0 -4 2 -5t3 3q12 27 30 78zM48 171q-1 2 1 1q5 -3 14 -5h5q6 -2 11 -4q2 -1 2 -5t-2 -3q-17 -3 -31 16zM166 161q2 4 -2 1q-9 -5 -21 -14q-1 -4 -2 -12q-1 -5 -1 -7q2 3 11 14q12 14 15 18zM26 102l1 1q21 -3 24 3q1 -2 9 -2h4q1 -4 -8 -8q-4 -1 -8 0q-2 1 -4 1q-3 0 -7 2
q-7 3 -11 3z" />
  </g>

</svg>
