<?xml version="1.0" standalone="no"?>
<!DOCTYPE svg PUBLIC "-//W3C//DTD SVG 1.1//EN" "http://www.w3.org/Graphics/SVG/1.1/DTD/svg11.dtd" >
<svg xmlns="http://www.w3.org/2000/svg" xmlns:xlink="http://www.w3.org/1999/xlink" version="1.1" viewBox="0 0 256 256">
  <g transform="matrix(1 0 0 -1 0 204)">
   <path fill="currentColor"
d="M159 213q9 -7 8 -8q-3 -16 -6 -29q6 -1 35 9q8 3 21 -2q2 -1 1 -3q0 -2 -2 -2q-5 0 -10 -3q-26 -15 -44 -21q24 6 29 4q6 -3 2 -6q-46 -4 -83 -21q-7 -3 -5 1q2 6 6 6q0 -2 4 1q8 3 27 9q6 8 11 21q-14 -3 -27 -4q-3 1 0 2q7 2 20 5l8 2q6 32 3 38q0 3 2 1zM170 89l-7 -1
q-6 -5 -2 -26q14 3 30 5q-1 5 8 4q13 -3 28 -10q0 -5 -5 -4q-14 7 -25 7q-9 1 -36 -4q-2 -8 -1 -33q0 -21 2 -34q0 -10 11 -23q1 -1 0 -3q-2 -1 -4 -1q-8 4 -15 16q-6 8 2 10q3 0 3 5q-2 26 -4 44q-1 16 -1 18q-38 -8 -55 -15q-5 -1 -2 1l12 6q-1 2 2 4q15 8 14 20q-2 3 2 1
q3 -5 6 -6q3 -3 3 -4t-3 -1q-4 -1 -15 -12q17 5 36 8q-2 13 -3 23q-10 -3 -29 -6q-6 0 0 2l28 8q-2 4 -4 9q-2 1 2 2q10 -5 14 -8q13 2 18 5q3 3 15 0q3 -1 0 -2q-15 -5 -23 -8q-7 -2 -2 2q3 1 0 1zM63 126q-2 4 2 2q8 -9 6 -9q-1 -3 -2 -13v-9q6 3 16 5q2 0 2 -1
q1 -2 -1 -2q-8 -6 -17 -12q-1 -2 -1 -4q-2 -25 0 -32q14 14 33 35q7 8 2 -2q-37 -45 -61 -63q-14 -11 -22 -7q-4 0 1 2q13 2 39 29q0 12 -1 14q-2 3 2 6l1 10q0 -2 1 5q0 4 -2 2q-9 -5 -20 -5h-3q0 1 3 3q11 4 23 13q1 14 1 20q-1 6 -2 13zM175 134h3q2 1 5 2q7 1 15 -3
q2 -1 1 -2q0 -1 -2 -1q-15 -5 -50 -22q11 1 21 5q4 4 12 1q2 -1 2 -2q-1 -2 -3 -2q-7 -1 -22 -7q-5 -3 -1 1q2 1 -3 1q-9 -3 -17 -3q-5 0 -1 2l8 3q-2 3 2 3q5 2 10 5q20 9 29 16q1 2 -2 2q-3 -1 -5 -1q-16 -3 -24 -6q-10 -4 -21 -5q-6 0 -16 -3q-2 -1 -4 -5q3 -4 9 -9
q4 -3 5 -5q0 -4 -3 -3q-1 0 -2 1q-3 4 -8 7q-6 5 -1 10q-1 3 4 6q33 12 59 14zM160 171q-1 -2 -4 -7q-5 -11 -7 -15q17 6 53 30q2 1 2 3q-2 2 -4 2q-8 -3 -20 -7q-13 -4 -20 -6zM81 159q2 -1 12 -3q3 -2 0 -4q-9 3 -34 -9q-13 -5 -24 -3q-5 0 0 1q12 1 34 10q6 2 7 6
q1 2 5 2z" />
  </g>

</svg>
